<?xml version="1.0" standalone="no"?>
<!DOCTYPE svg PUBLIC "-//W3C//DTD SVG 1.1//EN" "http://www.w3.org/Graphics/SVG/1.1/DTD/svg11.dtd" >
<svg xmlns="http://www.w3.org/2000/svg" xmlns:xlink="http://www.w3.org/1999/xlink" version="1.1">
<metadata>
Created by FontForge 20201107 at Wed Jul 22 21:33:01 2020
 By 
Copyright 2018 The Cabin Project Authors (https://github.com/impallari/Cabin)
</metadata>
<defs>
<font id="CabinCondensed-Bold" horiz-adv-x="0" >
  <font-face 
    font-family="Cabin Condensed"
    font-weight="700"
    font-stretch="condensed"
    units-per-em="2000"
    panose-1="0 0 0 0 0 0 0 0 0 0"
    ascent="1600"
    descent="-400"
    x-height="1000"
    cap-height="1400"
    bbox="-402 -596 2250 2248"
    underline-thickness="50"
    underline-position="-125"
    unicode-range="U+000D-25CA"
  />
<missing-glyph horiz-adv-x="1206" 
d="M100 0v1400h1006v-1400h-1006zM260 140h686v1120h-686v-1120z" />
    <glyph glyph-name=".notdef" horiz-adv-x="1206" 
d="M100 0v1400h1006v-1400h-1006zM260 140h686v1120h-686v-1120z" />
    <glyph glyph-name=".null" 
 />
    <glyph glyph-name="nonmarkingreturn" horiz-adv-x="666" 
 />
    <glyph glyph-name="CR" unicode="&#xd;" horiz-adv-x="386" 
 />
    <glyph glyph-name="space" unicode=" " horiz-adv-x="386" 
 />
    <glyph glyph-name="exclam" unicode="!" horiz-adv-x="468" 
d="M136 414v58l-18 928h232l-18 -928v-58h-196zM112 0v272h244v-272h-244z" />
    <glyph glyph-name="quotedbl" unicode="&#x22;" horiz-adv-x="652" 
d="M88 1000l-36 400h228l-36 -400h-156zM408 1000l-36 400h228l-36 -400h-156z" />
    <glyph glyph-name="numbersign" unicode="#" horiz-adv-x="1210" 
d="M110 -22l144 444h-202l78 196h190l64 210h-204l56 196h216l126 376h172l-122 -376h178l120 376h178l-122 -376h188l-62 -196h-194l-62 -210h212l-82 -196h-198l-144 -444h-176l138 444h-172l-146 -444h-174zM492 618h178l68 210h-178z" />
    <glyph glyph-name="dollar" unicode="$" horiz-adv-x="1014" 
d="M484 -28q-72 0 -144 10.5t-138 29.5t-120 46l30 272q64 -35 127.5 -60t128 -38.5t132.5 -13.5q95 0 149.5 38.5t54.5 111.5q0 54 -27 94t-89 77.5t-166 84.5q-111 50 -187 104.5t-114.5 126.5t-38.5 175q0 115 55.5 205t160.5 141.5t254 51.5q105 0 195 -23t169 -59
l-26 -264q-97 48 -183 74t-175 26q-91 0 -140.5 -35.5t-49.5 -106.5q0 -57 34 -94.5t97 -70.5t151 -75q112 -54 187.5 -112t114 -132.5t38.5 -177.5q0 -92 -32.5 -167t-94.5 -128.5t-151 -82t-202 -28.5zM458 -288l20 356h156l20 -356h-196zM478 1346l-20 342h196l-20 -342
h-156z" />
    <glyph glyph-name="percent" unicode="%" horiz-adv-x="1596" 
d="M374 628q-96 0 -163.5 52.5t-103 144t-35.5 209.5q0 179 79 286.5t223 107.5t223 -107.5t79 -286.5q0 -118 -35.5 -209.5t-103 -144t-163.5 -52.5zM374 794q54 0 80 62.5t26 177.5q0 116 -26 172t-80 56t-80 -56t-26 -172q0 -115 26 -177.5t80 -62.5zM322 0l754 1400h190
l-752 -1400h-192zM1222 -28q-96 0 -163.5 52.5t-103 144t-35.5 209.5q0 179 79 286.5t223 107.5t223 -107.5t79 -286.5q0 -118 -35.5 -209.5t-103 -144t-163.5 -52.5zM1222 138q54 0 80 62.5t26 177.5q0 116 -26 172t-80 56t-80 -56t-26 -172q0 -115 26 -177.5t80 -62.5z
" />
    <glyph glyph-name="ampersand" unicode="&#x26;" horiz-adv-x="1080" 
d="M456 -48q-137 0 -225.5 54.5t-131.5 142t-43 187.5q0 92 32 164t79.5 129t94.5 105q-40 75 -84 161.5t-44 180.5q0 104 51.5 178t132.5 113t170 39q134 0 210 -79t76 -207q0 -88 -33 -154t-85 -119.5t-110 -104.5l204 -320q0 35 -1 71.5t-2 72.5t-1.5 71t0.5 67h232
q1 -57 -3.5 -135t-20.5 -163.5t-48 -165.5l194 -240h-286l-44 68q-48 -52 -127 -84t-187 -32zM498 142q50 0 86.5 18.5t63.5 49.5l-272 390q-30 -49 -48 -108t-18 -134q0 -52 13 -101.5t53 -82t122 -32.5zM446 864q31 34 57.5 69t42.5 74t16 85q0 65 -21 90.5t-57 25.5
q-51 0 -80.5 -35.5t-29.5 -106.5q0 -49 20.5 -96t51.5 -106z" />
    <glyph glyph-name="quotesingle" unicode="'" horiz-adv-x="332" 
d="M88 1000l-36 400h228l-36 -400h-156z" />
    <glyph glyph-name="parenleft" unicode="(" horiz-adv-x="564" 
d="M328 -272q-57 109 -109 235.5t-85.5 285.5t-33.5 365t33.5 365t85.5 285.5t109 235.5h200q-78 -163 -133 -377.5t-55 -508.5t55 -508t133 -378h-200z" />
    <glyph glyph-name="parenright" unicode=")" horiz-adv-x="564" 
d="M36 -272q78 164 133 378t55 508t-55 508.5t-133 377.5h200q57 -109 109.5 -235.5t85.5 -285.5t33 -365t-33 -365t-85.5 -285.5t-109.5 -235.5h-200z" />
    <glyph glyph-name="asterisk" unicode="*" horiz-adv-x="814" 
d="M48 978l244 144l-242 142l82 120l214 -142l-10 268h142l-10 -268l214 142l82 -120l-242 -142l244 -144l-82 -120l-216 144l10 -278h-142l10 278l-216 -144z" />
    <glyph glyph-name="plus" unicode="+" horiz-adv-x="820" 
d="M312 192v270h-240v184h240v270h196v-270h240v-184h-240v-270h-196z" />
    <glyph glyph-name="comma" unicode="," horiz-adv-x="408" 
d="M204 -240h-100l86 240h-102v272h244v-248z" />
    <glyph glyph-name="hyphen" unicode="-" horiz-adv-x="702" 
d="M84 528v188h534v-188h-534z" />
    <glyph glyph-name="period" unicode="." horiz-adv-x="388" 
d="M72 0v272h244v-272h-244z" />
    <glyph glyph-name="slash" unicode="/" horiz-adv-x="658" 
d="M-16 -170l496 1570h230l-496 -1570h-230z" />
    <glyph glyph-name="zero" unicode="0" horiz-adv-x="1212" 
d="M606 -28q-152 0 -266 92.5t-177 259t-63 388.5q0 212 63 373.5t177 252t266 90.5q153 0 267 -91t176.5 -252.5t62.5 -372.5q0 -222 -62.5 -388.5t-176.5 -259t-267 -92.5zM606 218q71 0 127.5 50.5t89.5 159.5t33 284q0 239 -71.5 354.5t-178.5 115.5q-106 0 -178 -115
t-72 -355q0 -173 33 -282t89.5 -160.5t127.5 -51.5z" />
    <glyph glyph-name="one" unicode="1" horiz-adv-x="670" 
d="M242 0v1038q-33 -27 -69 -45t-77 -27l-16 216q47 14 92 47.5t79.5 78t50.5 92.5h184v-1400h-244z" />
    <glyph glyph-name="two" unicode="2" horiz-adv-x="900" 
d="M92 0l274 524q67 127 104.5 211.5t52.5 147.5t15 125q0 86 -44 130t-124 44q-64 0 -123.5 -30t-104.5 -66l-28 240q72 48 154.5 75t185.5 27q114 0 189.5 -52t113 -138t37.5 -188q0 -85 -19 -166.5t-64 -184.5t-123 -251l-112 -212h344v-236h-728z" />
    <glyph glyph-name="three" unicode="3" horiz-adv-x="920" 
d="M382 -28q-97 0 -179.5 21.5t-154.5 64.5l62 216q57 -42 116.5 -62t129.5 -20q96 0 154 50.5t58 155.5t-59 158.5t-163 53.5h-62v240h60q84 0 129 50t45 138q0 77 -43.5 123.5t-124.5 46.5q-60 0 -113.5 -18t-104.5 -48l-38 218q56 29 133.5 48.5t170.5 19.5
q115 0 198.5 -45t128.5 -125.5t45 -187.5q0 -135 -66.5 -223.5t-189.5 -132.5l-2 46q137 -24 222.5 -117t85.5 -245q0 -137 -55 -232t-153.5 -144.5t-229.5 -49.5z" />
    <glyph glyph-name="four" unicode="4" horiz-adv-x="1000" 
d="M552 0v320h-548l626 1080h166v-878h120v-202h-120v-320h-244zM310 464l-18 58h260v602l78 -72z" />
    <glyph glyph-name="five" unicode="5" horiz-adv-x="916" 
d="M394 -26q-94 0 -171 21.5t-143 58.5l60 230q53 -31 108.5 -50.5t121.5 -19.5q101 0 159.5 60t58.5 162q0 110 -62.5 172t-181.5 62q-49 0 -97.5 -8t-96.5 -20l90 758h540l-16 -248h-340l-48 -388l-88 88q33 14 69.5 21t78.5 7q118 0 208 -51.5t141 -148.5t51 -234
q0 -147 -57 -252.5t-157 -162.5t-228 -57z" />
    <glyph glyph-name="six" unicode="6" horiz-adv-x="936" 
d="M478 -28q-125 0 -214 62.5t-136.5 175.5t-47.5 264q0 167 46.5 316.5t122 274t164 217.5t171.5 148l174 -146q-56 -40 -116.5 -90.5t-116.5 -112.5t-101 -137.5t-71.5 -166t-26.5 -197.5l-104 74q38 89 111 138.5t187 49.5q99 0 177.5 -54.5t124.5 -150.5t46 -221
q0 -136 -46 -235.5t-133.5 -154t-210.5 -54.5zM482 188q74 0 114 62.5t40 159.5q0 98 -40 157t-114 59q-75 0 -114.5 -59t-39.5 -157q0 -97 39.5 -159.5t114.5 -62.5z" />
    <glyph glyph-name="seven" unicode="7" horiz-adv-x="864" 
d="M160 0l404 1258l28 -82h-524v224h780l-444 -1400h-244z" />
    <glyph glyph-name="eight" unicode="8" horiz-adv-x="1036" 
d="M518 -28q-130 0 -224.5 54.5t-146 151.5t-51.5 224q0 126 53 221.5t148 149t221 53.5t221 -53.5t148 -149t53 -221.5q0 -127 -51.5 -224t-146 -151.5t-224.5 -54.5zM519 192q88 0 136.5 62t48.5 164q0 96 -48.5 159t-137.5 63q-88 0 -137 -63t-49 -159q0 -102 49 -164
t138 -62zM518 680q-100 0 -182 47t-131 130.5t-49 192.5q0 92 37 179t116.5 143t208.5 56q131 0 210.5 -56t115.5 -143t36 -179q0 -109 -44.5 -192.5t-126 -130.5t-191.5 -47zM518 866q69 0 103.5 53.5t34.5 128.5q0 80 -34.5 130t-103.5 50t-103.5 -50t-34.5 -130
q0 -75 34.5 -128.5t103.5 -53.5z" />
    <glyph glyph-name="nine" unicode="9" horiz-adv-x="936" 
d="M352 -28l-174 146q56 40 116.5 90.5t116.5 112.5t101 137.5t71.5 166t26.5 197.5l104 -74q-37 -88 -110.5 -138t-187.5 -50q-99 0 -177.5 54.5t-124.5 150.5t-46 221q0 136 46.5 235.5t133.5 154t210 54.5q125 0 214 -62.5t136.5 -175.5t47.5 -264q0 -167 -46.5 -316.5
t-122 -274t-164 -217.5t-171.5 -148zM454 776q75 0 114.5 59.5t39.5 156.5q0 98 -39.5 160t-114.5 62q-73 0 -113.5 -62t-40.5 -160q0 -97 40.5 -156.5t113.5 -59.5z" />
    <glyph glyph-name="colon" unicode=":" horiz-adv-x="388" 
d="M72 728v272h244v-272h-244zM72 0v272h244v-272h-244z" />
    <glyph glyph-name="semicolon" unicode=";" horiz-adv-x="404" 
d="M204 -240h-100l86 240h-102v272h244v-248zM88 728v272h244v-272h-244z" />
    <glyph glyph-name="less" unicode="&#x3c;" horiz-adv-x="700" 
d="M660 134l-600 316v208l600 318v-204l-438 -218l438 -216v-204z" />
    <glyph glyph-name="equal" unicode="=" horiz-adv-x="820" 
d="M72 624v184h676v-184h-676zM72 300v184h676v-184h-676z" />
    <glyph glyph-name="greater" unicode="&#x3e;" horiz-adv-x="700" 
d="M40 134l600 316v208l-600 318v-204l438 -218l-438 -216v-204z" />
    <glyph glyph-name="question" unicode="?" horiz-adv-x="864" 
d="M216 414v20q0 73 19.5 127t54.5 102t82 103q65 75 104.5 133.5t39.5 130.5q0 51 -24 87t-67 54.5t-101 18.5q-64 0 -119 -13.5t-109 -34.5l-28 228q72 27 146 42.5t180 15.5q123 0 211 -46t135.5 -126t47.5 -182q0 -70 -23 -126t-64 -109.5t-95 -116.5q-72 -84 -109 -140
t-37 -136v-32h-244zM216 0v272h244v-272h-244z" />
    <glyph glyph-name="at" unicode="@" horiz-adv-x="1214" 
d="M496 -174q-195 0 -310.5 135.5t-115.5 378.5q0 164 52 303.5t142.5 243t207 161.5t246.5 58q203 0 315.5 -137.5t112.5 -368.5q0 -101 -24 -195.5t-77.5 -155.5t-142.5 -61q-31 0 -52.5 17.5t-21.5 84.5q0 89 31.5 198.5t64.5 269.5q-33 39 -85 72.5t-123 33.5
q-81 0 -159.5 -48t-141.5 -129t-101 -180t-38 -201q0 -58 15.5 -109.5t49.5 -84t91 -32.5q50 0 108 26.5t111.5 78.5t90.5 127q-1 -13 -2.5 -30t-1.5 -40q0 -32 9 -69t30.5 -63t60.5 -26q31 0 72.5 18.5t82 47.5t67.5 62l6 -4q-55 -113 -142.5 -199t-197 -134.5
t-230.5 -48.5zM490 212q-40 0 -58 38.5t-18 95.5q0 82 31 153.5t80 126t103.5 85.5t101.5 31q15 0 41.5 -6t36.5 -38q-12 -80 -46.5 -165t-81.5 -158t-97 -118t-93 -45z" />
    <glyph glyph-name="A" unicode="A" horiz-adv-x="1070" 
d="M794 334h-518v224h518v-224zM512 1108h44l-316 -1108h-244l426 1400h224l428 -1400h-244z" />
    <glyph glyph-name="B" unicode="B" horiz-adv-x="1126" 
d="M132 0v1400h468q173 0 257.5 -86.5t84.5 -251.5q0 -127 -43 -212t-129 -124v48q137 -36 210.5 -129.5t73.5 -246.5q0 -189 -106.5 -293.5t-291.5 -104.5h-524zM376 224h236q87 0 138.5 43t51.5 155q0 119 -54.5 161.5t-135.5 42.5h-236v-402zM376 846h180q74 0 110 39.5
t36 124.5q0 89 -36 127.5t-110 38.5h-180v-330z" />
    <glyph glyph-name="C" unicode="C" horiz-adv-x="1048" 
d="M678 -28q-175 0 -315 88.5t-221.5 251.5t-81.5 388t81.5 388.5t222 251.5t318.5 88q96 0 174.5 -18.5t139.5 -47.5l-28 -244q-61 27 -120 45.5t-134 18.5q-121 0 -207.5 -58t-132.5 -166t-46 -258t46 -258t132 -166t206 -58q77 0 136 18.5t120 45.5l28 -244
q-60 -30 -141.5 -48t-176.5 -18z" />
    <glyph glyph-name="D" unicode="D" horiz-adv-x="1238" 
d="M132 0v1400h452q171 0 305 -83.5t210.5 -240t76.5 -376.5t-76.5 -376.5t-210.5 -240t-305 -83.5h-452zM376 224h208q108 0 180 58t108 164.5t36 253.5t-36 254t-108 164.5t-180 57.5h-208v-952z" />
    <glyph glyph-name="E" unicode="E" horiz-adv-x="994" 
d="M132 0v1400h786v-224h-542v-330h418v-224h-418v-398h560v-224h-804z" />
    <glyph glyph-name="F" unicode="F" horiz-adv-x="906" 
d="M132 0v1400h744v-224h-500v-330h386v-224h-386v-622h-244z" />
    <glyph glyph-name="G" unicode="G" horiz-adv-x="1142" 
d="M684 -28q-187 0 -327.5 90.5t-218.5 254t-78 383.5q0 225 83 388.5t226.5 251.5t324.5 88q101 0 182.5 -18.5t145.5 -47.5l-28 -244q-64 27 -126 45.5t-142 18.5q-125 0 -214 -58t-136.5 -166t-47.5 -258q0 -152 43 -260t127 -165t208 -57q27 0 57 4.5t55 13.5v242h-160
v224h404v-628q-66 -46 -164 -74t-214 -28z" />
    <glyph glyph-name="H" unicode="H" horiz-adv-x="1272" 
d="M132 0v1400h244v-554h520v554h244v-1400h-244v606h-520v-606h-244z" />
    <glyph glyph-name="I" unicode="I" horiz-adv-x="484" 
d="M120 0v1400h244v-1400h-244z" />
    <glyph glyph-name="J" unicode="J" horiz-adv-x="484" 
d="M10 -344l-18 216q66 0 95 29.5t29 96.5v1402h244v-1448q0 -153 -85 -224.5t-223 -71.5h-42z" />
    <glyph glyph-name="K" unicode="K" horiz-adv-x="1052" 
d="M784 0l-422 740l422 660h288l-434 -660l434 -740h-288zM108 0v1400h244v-1400h-244z" />
    <glyph glyph-name="L" unicode="L" horiz-adv-x="860" 
d="M132 0v1400h244v-1176h472v-224h-716z" />
    <glyph glyph-name="M" unicode="M" horiz-adv-x="1460" 
d="M72 0l176 1400h198l278 -614l278 614h198l176 -1400h-252l-120 1052l86 -10l-366 -760l-364 758l84 10l-120 -1050h-252z" />
    <glyph glyph-name="N" unicode="N" horiz-adv-x="1222" 
d="M132 0v1400h250l464 -876v876h244v-1400h-214l-500 932v-932h-244z" />
    <glyph glyph-name="O" unicode="O" horiz-adv-x="1308" 
d="M654 -28q-172 0 -306 90.5t-211 254t-77 383.5t77 383.5t211 254t306 90.5q173 0 307 -90.5t210.5 -254t76.5 -383.5t-76.5 -383.5t-211 -254t-306.5 -90.5zM654 218q111 0 185.5 62t111.5 171t37 249t-37 249t-111.5 171t-185.5 62t-185 -62t-111.5 -171t-37.5 -249
t37.5 -249t112 -171t184.5 -62z" />
    <glyph glyph-name="P" unicode="P" horiz-adv-x="1038" 
d="M120 0v1400h408q140 0 246 -50t165 -153t59 -261t-59 -261t-165 -153t-246 -50h-164v-472h-244zM364 684h142q111 0 175.5 55.5t64.5 196.5q0 131 -64.5 191.5t-175.5 60.5h-142v-504z" />
    <glyph glyph-name="Q" unicode="Q" horiz-adv-x="1308" 
d="M652 396l158 158l448 -424l-158 -158zM654 -28q-172 0 -306 90.5t-211 254t-77 383.5t77 383.5t211 254t306 90.5q173 0 307 -90.5t210.5 -254t76.5 -383.5t-76.5 -383.5t-211 -254t-306.5 -90.5zM654 218q111 0 185.5 62t111.5 171t37 249t-37 249t-111.5 171t-185.5 62
t-185 -62t-111.5 -171t-37.5 -249t37.5 -249t112 -171t184.5 -62z" />
    <glyph glyph-name="R" unicode="R" horiz-adv-x="1074" 
d="M122 0v1400h408q140 0 245.5 -44t164 -139t58.5 -249q0 -132 -52.5 -228.5t-145.5 -152.5l268 -587h-274l-228 520h-11h-11h-178v-520h-244zM366 732h142q113 0 175.5 52.5t62.5 175.5t-62.5 175.5t-175.5 52.5h-142v-456z" />
    <glyph glyph-name="S" unicode="S" horiz-adv-x="1014" 
d="M484 -28q-72 0 -144 10.5t-138 29.5t-120 46l30 272q64 -35 127.5 -60t128 -38.5t132.5 -13.5q95 0 149.5 38.5t54.5 111.5q0 54 -27 94t-89 77.5t-166 84.5q-111 50 -187 104.5t-114.5 126.5t-38.5 175q0 115 55.5 205t160.5 141.5t254 51.5q105 0 195 -23t169 -59
l-26 -264q-97 48 -183 74t-175 26q-91 0 -140.5 -35.5t-49.5 -106.5q0 -57 34 -94.5t97 -70.5t151 -75q112 -54 187.5 -112t114 -132.5t38.5 -177.5q0 -92 -32.5 -167t-94.5 -128.5t-151 -82t-202 -28.5z" />
    <glyph glyph-name="T" unicode="T" horiz-adv-x="952" 
d="M354 0v1176h-336v224h916v-224h-336v-1176h-244z" />
    <glyph glyph-name="U" unicode="U" horiz-adv-x="1240" 
d="M620 -28q-170 0 -281 70.5t-165 198t-54 299.5v860h244v-794q0 -85 11 -156t38.5 -123t77.5 -80.5t129 -28.5q80 0 130 28.5t77.5 80.5t38 123t10.5 156v794h244v-860q0 -172 -54 -299.5t-165 -198t-281 -70.5z" />
    <glyph glyph-name="V" unicode="V" horiz-adv-x="1152" 
d="M432 0l-436 1400h244l370 -1202h-68l370 1202h244l-436 -1400h-288z" />
    <glyph glyph-name="W" unicode="W" horiz-adv-x="1620" 
d="M308 0l-312 1400h244l204 -1034l236 1008h260l236 -1008l204 1034h244l-312 -1400h-260l-242 1008l-242 -1008h-260z" />
    <glyph glyph-name="X" unicode="X" horiz-adv-x="1110" 
d="M-4 0l429 717l-409 683h260l279 -466l279 466h260l-409 -683l429 -717h-260l-299 500l-299 -500h-260z" />
    <glyph glyph-name="Y" unicode="Y" horiz-adv-x="1050" 
d="M404 0v620l-420 780h260l334 -654h-102l330 654h260l-420 -780v-620h-242z" />
    <glyph glyph-name="Z" unicode="Z" horiz-adv-x="954" 
d="M14 0l602 1256l48 -80h-570v224h836l-598 -1256l-48 80h654v-224h-924z" />
    <glyph glyph-name="bracketleft" unicode="[" horiz-adv-x="576" 
d="M116 -272v1772h442v-218h-226v-1336h226v-218h-442z" />
    <glyph glyph-name="backslash" unicode="\" horiz-adv-x="754" 
d="M502 -170l-456 1570h230l456 -1570h-230z" />
    <glyph glyph-name="bracketright" unicode="]" horiz-adv-x="586" 
d="M28 -272v248h226v1276h-226v248h442v-1772h-442z" />
    <glyph glyph-name="asciicircum" unicode="^" horiz-adv-x="868" 
d="M80 810v284l354 424l354 -424v-284l-354 400z" />
    <glyph glyph-name="underscore" unicode="_" horiz-adv-x="960" 
d="M-2 -260v188h964v-188h-964z" />
    <glyph glyph-name="grave" unicode="`" horiz-adv-x="794" 
d="M554 1152l-314 128v238l314 -200v-166z" />
    <glyph glyph-name="a" unicode="a" horiz-adv-x="846" 
d="M290 -20q-70 0 -130.5 31t-98 93t-37.5 154q0 90 35 154.5t91.5 107.5t121 68t125 36.5t101.5 13.5q0 86 -31 125t-111 39q-63 0 -120 -20t-122 -56l-16 202q80 44 161.5 66t160.5 22q95 0 167 -37t112.5 -118.5t40.5 -214.5v-302q0 -75 6 -108.5t20.5 -42.5t39.5 -9h32
l-16 -204h-106q-36 0 -72 14.5t-65 40.5t-45 61q-49 -54 -105 -85t-139 -31zM372 170q38 0 69 19t59 53v228q-56 -7 -107.5 -27.5t-84 -59.5t-32.5 -101q0 -61 28 -86.5t68 -25.5z" />
    <glyph glyph-name="b" unicode="b" horiz-adv-x="986" 
d="M570 -20q-94 0 -167 39.5t-127 108.5l60 42l-12 -170h-224v1500h240v-666l-52 38q48 65 118.5 104.5t163.5 39.5q126 0 212 -71t130 -189t44 -258t-44 -258t-130 -189t-212 -71zM524 176q60 0 102 41t64 113.5t22 167.5t-22 167.5t-64 113.5t-102 41q-68 0 -111.5 -41
t-64 -113.5t-20.5 -167.5t20.5 -167.5t64 -113.5t111.5 -41z" />
    <glyph glyph-name="c" unicode="c" horiz-adv-x="770" 
d="M520 -20q-155 0 -260 70.5t-158.5 188t-53.5 259.5t53 259.5t159.5 188t267.5 70.5q60 0 109 -9.5t83 -24.5l-18 -196q-31 15 -67.5 24.5t-78.5 9.5q-126 0 -195 -89.5t-69 -232.5q0 -136 67.5 -229t194.5 -93q44 0 81 9t73 27l16 -192q-37 -18 -91 -29t-113 -11z" />
    <glyph glyph-name="d" unicode="d" horiz-adv-x="986" 
d="M426 -20q-128 0 -216.5 71t-134 189t-45.5 258t45.5 258t134 189t216.5 71q93 0 158 -36.5t114 -93.5l-52 -52v666h240v-1500h-226l-12 170l64 -52q-60 -64 -124 -101t-162 -37zM462 176q68 0 111.5 41t64 113.5t20.5 167.5t-20.5 167.5t-64 113.5t-111.5 41
q-60 0 -102 -41t-64 -113.5t-22 -167.5t22 -167.5t64 -113.5t102 -41z" />
    <glyph glyph-name="e" unicode="e" horiz-adv-x="892" 
d="M514 -20q-158 0 -262.5 71.5t-156 189.5t-51.5 259q0 145 49.5 262t145.5 185.5t237 68.5q114 0 196 -54.5t126 -154t44 -233.5q0 -31 -3 -62t-9 -66h-539q10 -95 45 -155t88.5 -87.5t115.5 -27.5q77 0 141.5 23t116.5 57l6 -210q-52 -28 -125 -47t-165 -19zM294 614h306
q0 57 -12.5 103.5t-43 74.5t-84.5 28q-70 0 -111 -52.5t-55 -153.5z" />
    <glyph glyph-name="f" unicode="f" horiz-adv-x="586" 
d="M144 0v796h-112l18 204h94v212q0 125 68.5 206.5t213.5 81.5q39 0 73 -5.5t59 -14.5l-18 -198q-12 5 -25.5 7.5t-30.5 2.5q-48 0 -74 -31.5t-26 -84.5v-176h172v-204h-172v-796h-240z" />
    <glyph glyph-name="g" unicode="g" horiz-adv-x="864" 
d="M440 -500q-117 0 -206.5 32.5t-140.5 95t-51 152.5q0 78 41 133t109 98q-44 24 -65 59t-21 78q0 47 25 81.5t69 61.5q-73 53 -112.5 140.5t-39.5 190.5q0 110 43 199.5t123.5 142t193.5 52.5q67 0 122.5 -19t98.5 -53q38 35 80.5 53.5t86.5 18.5q17 0 29 -1t21 -3
l-18 -154q-7 2 -16.5 3t-23.5 1q-19 0 -38 -3.5t-38 -11.5q27 -48 41.5 -105t14.5 -120q0 -108 -43 -198t-123.5 -144t-193.5 -54q-20 0 -39.5 2t-37.5 5q-17 -14 -17 -33t14.5 -30.5t47.5 -19.5l206 -48q143 -33 210.5 -99t67.5 -189q0 -95 -54 -165.5t-148.5 -109.5
t-217.5 -39zM446 -320q90 0 148 31t58 89q0 50 -32 76t-106 44l-173 42q-49 -30 -78 -65.5t-29 -82.5q0 -66 59.5 -100t152.5 -34zM408 406q68 0 104 60t36 156q0 93 -36 153.5t-104 60.5q-69 0 -104.5 -60.5t-35.5 -153.5q0 -96 35.5 -156t104.5 -60z" />
    <glyph glyph-name="h" unicode="h" horiz-adv-x="950" 
d="M88 0v1500h240v-632h-70q53 71 121.5 109.5t170.5 38.5q103 0 171.5 -46.5t102.5 -129t34 -190.5v-650h-240v618q0 95 -32 148.5t-104 53.5q-69 0 -115.5 -42t-76.5 -116l38 152v-814h-240z" />
    <glyph glyph-name="i" unicode="i" horiz-adv-x="416" 
d="M88 0v1000h240v-1000h-240zM88 1152v248h240v-248h-240z" />
    <glyph glyph-name="j" unicode="j" horiz-adv-x="416" 
d="M14 -484l-20 204q33 0 53.5 12t30.5 39t10 73v1156h240v-1222q0 -87 -26 -145t-81.5 -87.5t-144.5 -29.5h-62zM88 1152v248h240v-248h-240z" />
    <glyph glyph-name="k" unicode="k" horiz-adv-x="844" 
d="M84 0v1500h240v-900l246 400h272l-296 -472l304 -528h-272l-254 454v-454h-240z" />
    <glyph glyph-name="l" unicode="l" horiz-adv-x="456" 
d="M312 -20q-75 0 -123.5 32.5t-72.5 91.5t-24 138v1258h240v-1176q0 -54 6.5 -84.5t26 -43t57.5 -12.5l-20 -204h-90z" />
    <glyph glyph-name="m" unicode="m" horiz-adv-x="1494" 
d="M100 0v1000h204l16 -132h-50q50 71 117 109.5t161 38.5q69 0 123.5 -23t92 -65.5t56.5 -99.5h-62q42 87 123.5 137.5t190.5 50.5q110 0 183 -46.5t109 -129t36 -190.5v-650h-240v618q0 93 -30.5 147.5t-107.5 54.5q-37 0 -65 -11t-47.5 -32t-29.5 -53t-10 -74v-650h-240
v618q0 63 -14 108.5t-44 69.5t-78 24q-69 0 -115.5 -42t-76.5 -116l38 152v-814h-240z" />
    <glyph glyph-name="n" unicode="n" horiz-adv-x="962" 
d="M100 0v1000h208l16 -132h-54q53 71 121.5 109.5t170.5 38.5q155 0 231.5 -102t76.5 -264v-650h-240v618q0 95 -32 148.5t-104 53.5q-69 0 -115.5 -42t-76.5 -116l38 152v-814h-240z" />
    <glyph glyph-name="o" unicode="o" horiz-adv-x="982" 
d="M490 -20q-140 0 -239 71t-151 189t-52 258t52 258t151 189t239 71t239.5 -71t152 -189t52.5 -258t-52.5 -258t-152 -189t-239.5 -71zM490 176q96 0 148 90t52 233q0 142 -52 231.5t-148 89.5q-93 0 -145.5 -89.5t-52.5 -232.5q0 -142 52.5 -232t145.5 -90z" />
    <glyph glyph-name="p" unicode="p" horiz-adv-x="986" 
d="M90 -484v1484h192l48 -166l-66 26q59 71 128 113.5t168 42.5q126 0 212 -71t130 -189t44 -258t-44 -258t-130 -189t-212 -71q-102 0 -166 32t-130 102l66 50v-648h-240zM514 176q89 0 138.5 90t49.5 233q0 142 -49.5 231.5t-138.5 89.5q-68 0 -111.5 -41t-64 -113.5
t-20.5 -167.5t20.5 -167.5t64 -113.5t111.5 -41z" />
    <glyph glyph-name="q" unicode="q" horiz-adv-x="986" 
d="M706 -484v648l74 -46q-57 -66 -125 -102t-169 -36q-129 0 -217.5 71t-133.5 189t-45 258t45 258t133.5 189t217.5 71q101 0 171.5 -42.5t124.5 -113.5l-76 -26l58 166h182v-1484h-240zM522 176q68 0 111.5 41t64 113.5t20.5 167.5q0 143 -47 232.5t-149 89.5
q-90 0 -139 -89.5t-49 -232.5q0 -142 49 -232t139 -90z" />
    <glyph glyph-name="r" unicode="r" horiz-adv-x="574" 
d="M90 0v1000h210l16 -106q51 57 100.5 89.5t119.5 32.5q28 0 52 -6l-18 -242q-13 5 -28 7.5t-36 2.5q-49 0 -88.5 -24t-87.5 -72v-682h-240z" />
    <glyph glyph-name="s" unicode="s" horiz-adv-x="738" 
d="M344 -20q-84 0 -151 18t-135 52l22 212q62 -42 124 -69t122 -27q68 0 104 26t36 72q0 32 -14.5 56t-50 47t-97.5 53q-76 37 -130 76.5t-83 93.5t-29 136q0 85 41.5 150.5t117.5 102.5t181 37q80 0 144 -20.5t118 -53.5l-22 -206q-52 45 -105.5 73.5t-118.5 28.5
q-57 0 -92.5 -24.5t-35.5 -71.5q0 -51 45 -81.5t141 -80.5q53 -27 94 -56.5t68.5 -65.5t41.5 -81t14 -103q0 -92 -43.5 -158t-122.5 -101t-184 -35z" />
    <glyph glyph-name="t" unicode="t" horiz-adv-x="598" 
d="M380 -20q-75 0 -127.5 29.5t-80.5 87.5t-28 145v554h-112l22 204h90v220l240 26v-246h174v-204h-174v-492q0 -41 11 -67.5t34 -39.5t59 -13h72l-22 -204h-158z" />
    <glyph glyph-name="u" unicode="u" horiz-adv-x="936" 
d="M400 -16q-103 0 -171.5 46.5t-102.5 129t-34 190.5v650h240v-618q0 -94 32 -148t104 -54q69 0 115.5 42.5t76.5 115.5l-38 -152v814h240v-1000h-208l-16 132h54q-52 -70 -121 -109t-171 -39z" />
    <glyph glyph-name="v" unicode="v" horiz-adv-x="892" 
d="M342 0l-338 1000h250l192 -680l192 680h250l-338 -1000h-208z" />
    <glyph glyph-name="w" unicode="w" horiz-adv-x="1258" 
d="M284 0l-280 1000h242l146 -680l138 660h200l144 -660l138 680h242l-278 -1000h-206l-140 644l-140 -644h-206z" />
    <glyph glyph-name="x" unicode="x" horiz-adv-x="848" 
d="M10 0l282 500l-284 500h266l156 -294l148 294h262l-292 -500l288 -500h-266l-156 294l-138 -294h-266z" />
    <glyph glyph-name="y" unicode="y" horiz-adv-x="958" 
d="M150 -484l208 530l-342 954h250l212 -680l212 680h250l-546 -1484h-244z" />
    <glyph glyph-name="z" unicode="z" horiz-adv-x="802" 
d="M36 0l432 880v-82h-406v202h710l-432 -880l-10 82h430v-202h-724z" />
    <glyph glyph-name="braceleft" unicode="{" horiz-adv-x="574" 
d="M507 -272q-173 0 -250 89.5t-77 230.5q0 59 8 133.5t8 138.5q0 108 -36.5 161t-135.5 53v160q99 0 135.5 53t36.5 161q0 65 -8 139.5t-8 132.5q0 141 77 230.5t251 89.5h54v-198h-34q-75 0 -116.5 -40.5t-41.5 -141.5q0 -61 8 -136.5t8 -135.5q0 -120 -61 -177.5
t-163 -84.5v56q102 -25 163 -83.5t61 -178.5q0 -60 -8 -135t-8 -137q0 -100 41.5 -141t116.5 -41h34v-198h-55z" />
    <glyph glyph-name="bar" unicode="|" horiz-adv-x="444" 
d="M100 -420v1920h244v-1920h-244z" />
    <glyph glyph-name="braceright" unicode="}" horiz-adv-x="574" 
d="M12 -272v198h34q75 0 116.5 41t41.5 141q0 62 -8 137t-8 135q0 120 61 178.5t163 83.5v-56q-102 27 -163 84.5t-61 177.5q0 60 8 135.5t8 136.5q0 101 -41.5 141.5t-116.5 40.5h-34v198h54q174 0 251 -89.5t77 -230.5q0 -58 -8 -132.5t-8 -139.5q0 -108 36.5 -161
t135.5 -53v-160q-99 0 -135.5 -53t-36.5 -161q0 -64 8 -138.5t8 -133.5q0 -141 -77 -230.5t-251 -89.5h-54z" />
    <glyph glyph-name="asciitilde" unicode="~" horiz-adv-x="842" 
d="M584 582q-58 0 -104 23t-89.5 46t-92.5 23q-68 0 -68 -82h-166q5 128 56.5 195t147.5 67q58 0 102 -23t84.5 -46t89.5 -23q68 0 68 82h166q-4 -127 -54 -194.5t-140 -67.5z" />
    <glyph glyph-name="uni00A0" unicode="&#xa0;" horiz-adv-x="386" 
 />
    <glyph glyph-name="exclamdown" unicode="&#xa1;" horiz-adv-x="456" 
d="M136 586v-58l-18 -928h232l-18 928v58h-196zM112 1000v-272h244v272h-244z" />
    <glyph glyph-name="cent" unicode="&#xa2;" horiz-adv-x="770" 
d="M520 -20q-155 0 -260 70.5t-158.5 188t-53.5 259.5t53 259.5t159.5 188t267.5 70.5q60 0 109 -9.5t83 -24.5l-18 -196q-31 15 -67.5 24.5t-78.5 9.5q-126 0 -195 -89.5t-69 -232.5q0 -136 67.5 -229t194.5 -93q44 0 81 9t73 27l16 -192q-37 -18 -91 -29t-113 -11z
M372 -288l20 356h156l20 -356h-196zM392 936l-20 342h196l-20 -342h-156z" />
    <glyph glyph-name="sterling" unicode="&#xa3;" horiz-adv-x="932" 
d="M92 0q39 110 64 205.5t41.5 198t30.5 232.5l34 320q24 227 116 349.5t278 122.5q63 0 117.5 -13t108.5 -37l-20 -262q-43 35 -83.5 51.5t-88.5 16.5q-85 0 -130.5 -55t-57.5 -169l-32 -308q-14 -130 -31 -222.5t-41 -170t-60 -161.5l-66 126h620v-224h-800zM84 624v176
h700v-176h-700z" />
    <glyph glyph-name="currency" unicode="&#xa4;" horiz-adv-x="1376" 
d="M688 1214q145 0 257 -67t175.5 -184t63.5 -267q0 -148 -62.5 -265t-174 -185t-259.5 -68q-151 0 -262.5 68.5t-172.5 185.5t-61 264q0 149 62.5 266t174 184.5t259.5 67.5zM688 990q-77 0 -131 -37t-82.5 -103.5t-28.5 -153.5t28.5 -153t82.5 -103.5t131 -37.5t131 37.5
t82.5 103.5t28.5 153t-28.5 153.5t-82.5 103.5t-131 37zM198 1340l292 -294l-110 -116l-296 298zM378 460l112 -114l-292 -294l-114 112zM992 464l300 -300l-114 -112l-300 302zM1178 1340l114 -112l-288 -290l-114 114z" />
    <glyph glyph-name="yen" unicode="&#xa5;" horiz-adv-x="1050" 
d="M404 0v620l-420 780h260l334 -654h-102l330 654h260l-420 -780v-620h-242zM136 248v174h780v-174h-780zM136 530v174h780v-174h-780z" />
    <glyph glyph-name="brokenbar" unicode="&#xa6;" horiz-adv-x="444" 
d="M100 684v816h244v-816h-244zM100 -420v816h244v-816h-244z" />
    <glyph glyph-name="section" unicode="&#xa7;" horiz-adv-x="920" 
d="M414 -170q-82 0 -156 26t-130 56l18 210q60 -40 139 -70t143 -30q72 0 114 31t42 85q0 55 -36.5 91t-94 63t-122.5 55.5t-122.5 67.5t-94 99t-36.5 150q0 96 47 167.5t123 126.5q-28 24 -57 85t-29 145q0 85 39 156t115.5 113.5t189.5 42.5q83 0 160.5 -26t125.5 -56
l-18 -210q-61 41 -141 70.5t-145 29.5q-57 0 -104.5 -23t-47.5 -77q0 -49 36.5 -83.5t94 -62.5t122.5 -59t122.5 -74t94 -106t36.5 -157q0 -57 -19 -111t-57.5 -101t-95.5 -82q44 -36 65 -86t21 -122q0 -75 -29.5 -152t-104 -129.5t-208.5 -52.5zM568 462q33 24 60.5 64.5
t27.5 95.5q0 57 -34.5 97.5t-101 76t-162.5 78.5q-31 -22 -60.5 -63t-29.5 -103q0 -55 33.5 -96t100 -76.5t166.5 -73.5z" />
    <glyph glyph-name="dieresis" unicode="&#xa8;" horiz-adv-x="916" 
d="M532 1182v180h184v-180h-184zM200 1182v180h184v-180h-184z" />
    <glyph glyph-name="copyright" unicode="&#xa9;" horiz-adv-x="1204" 
d="M602 74q-154 0 -274.5 82t-190 229.5t-69.5 344.5q0 198 69.5 345.5t190 229t274.5 81.5q155 0 275.5 -81.5t189.5 -229t69 -345.5q0 -197 -69 -344.5t-189.5 -229.5t-275.5 -82zM616 380q-83 0 -147.5 43t-101.5 121t-37 182q0 158 80 253t206 95q50 0 98.5 -13
t85.5 -33l-20 -170q-42 20 -80.5 33t-83.5 13q-52 0 -82 -47.5t-30 -130.5q0 -79 30 -128.5t82 -49.5q45 0 83.5 14t80.5 36l20 -168q-37 -24 -86.5 -37t-97.5 -13zM602 212q128 0 213.5 68t128 185t42.5 265t-42.5 264.5t-128 184t-213.5 67.5t-213 -67.5t-127 -184
t-42 -264.5t42 -265t127 -185t213 -68z" />
    <glyph glyph-name="ordfeminine" unicode="&#xaa;" horiz-adv-x="622" 
d="M208 868q-60 0 -108 39.5t-48 118.5q0 55 21.5 94.5t59 66t85.5 42.5t100 23q0 18 -11.5 30t-46.5 12q-37 0 -78 -8t-80 -22l-8 162q56 20 108.5 29t101.5 9q99 0 156.5 -53t57.5 -155v-170q0 -25 7.5 -36.5t22.5 -11.5h22l-10 -170h-88q-49 0 -80.5 18.5t-49.5 45.5
q-25 -31 -57 -47.5t-77 -16.5zM288 1016q9 0 17.5 4.5t14.5 11.5v94q-24 -6 -41 -24.5t-17 -47.5q0 -18 6.5 -28t19.5 -10z" />
    <glyph glyph-name="guillemotleft" unicode="&#xab;" horiz-adv-x="1058" 
d="M276 156l-256 412l256 412h282l-256 -412l256 -412h-282zM736 156l-256 412l256 412h282l-256 -412l256 -412h-282z" />
    <glyph glyph-name="logicalnot" unicode="&#xac;" horiz-adv-x="940" 
d="M664 302v330h-584v180h780v-510h-196z" />
    <glyph glyph-name="uni00AD" unicode="&#xad;" horiz-adv-x="742" 
d="M104 528v188h534v-188h-534z" />
    <glyph glyph-name="registered" unicode="&#xae;" horiz-adv-x="1204" 
d="M602 74q-154 0 -274.5 82t-190 229.5t-69.5 344.5q0 198 69.5 345.5t190 229t274.5 81.5q155 0 275.5 -81.5t189.5 -229t69 -345.5q0 -197 -69 -344.5t-189.5 -229.5t-275.5 -82zM602 214q128 0 212.5 68t126 184.5t41.5 263.5q0 148 -41.5 264t-126 183t-212.5 67
q-127 0 -211.5 -67t-126.5 -183t-42 -264q0 -147 42 -263.5t126.5 -184.5t211.5 -68zM378 406v670h226q90 0 151 -46t61 -174q0 -58 -25 -104.5t-51 -69.5l130 -276h-184l-104 224h-32v-224h-172zM550 792h28q44 0 54 20t10 48q0 30 -8 48t-52 18h-32v-134z" />
    <glyph glyph-name="macron" unicode="&#xaf;" horiz-adv-x="976" 
d="M200 1186v154h576v-154h-576z" />
    <glyph glyph-name="degree" unicode="&#xb0;" horiz-adv-x="514" 
d="M256 964q-117 0 -180.5 80.5t-63.5 191.5t63.5 192.5t180.5 81.5t181.5 -81.5t64.5 -192.5t-64.5 -191.5t-181.5 -80.5zM256 1086q54 0 81 41.5t27 108.5q0 68 -27 110t-81 42t-81 -42t-27 -110q0 -67 27 -108.5t81 -41.5z" />
    <glyph glyph-name="plusminus" unicode="&#xb1;" horiz-adv-x="820" 
d="M316 378v256h-244v180h244v256h188v-256h244v-180h-244v-256h-188zM72 94v188h676v-188h-676z" />
    <glyph glyph-name="uni00B2" unicode="&#xb2;" horiz-adv-x="540" 
d="M52 772l162 316q32 63 46 103.5t14 80.5q0 44 -22 71t-64 27q-33 0 -62 -16t-56 -40l-14 184q39 21 86 33.5t102 12.5q102 0 164 -63.5t62 -168.5q0 -44 -9.5 -83t-31.5 -86.5t-59 -116.5l-96 -178l-38 90h260v-166h-444z" />
    <glyph glyph-name="uni00B3" unicode="&#xb3;" horiz-adv-x="562" 
d="M272 744q-64 0 -120.5 13t-103.5 35l38 172q33 -21 66.5 -33.5t69.5 -12.5q44 0 70 20.5t26 57.5q0 41 -25.5 61.5t-76.5 20.5h-14v154h16q35 0 55.5 17t20.5 53q0 29 -18.5 48.5t-57.5 19.5q-31 0 -59.5 -12t-54.5 -32l-14 182q38 18 82.5 27t95.5 9q105 0 163.5 -59
t58.5 -149q0 -72 -38 -123.5t-112 -68.5v32q74 -13 124 -64t50 -138q0 -108 -68.5 -169t-173.5 -61z" />
    <glyph glyph-name="acute" unicode="&#xb4;" horiz-adv-x="874" 
d="M280 1156v158l314 192v-230z" />
    <glyph glyph-name="uni00B5" unicode="&#xb5;" horiz-adv-x="982" 
d="M88 -484v1484h240v-598q0 -108 35.5 -161t114.5 -53q47 0 81 22t59 62v728h240v-728q0 -33 8 -52t25 -27.5t43 -8.5h12l-16 -204h-64q-76 0 -127.5 28t-80.5 76q-33 -40 -82.5 -70t-115.5 -30q-37 0 -71 10t-61 28v-506h-240z" />
    <glyph glyph-name="paragraph" unicode="&#xb6;" horiz-adv-x="1076" 
d="M484 0v458q-138 10 -233.5 80.5t-145 175.5t-49.5 218q0 117 54.5 224t164 175.5t273.5 68.5h448v-214h-114v-1186h-180v1186h-78v-1186h-140z" />
    <glyph glyph-name="periodcentered" unicode="&#xb7;" horiz-adv-x="430" 
d="M108 426v260h214v-260h-214z" />
    <glyph glyph-name="cedilla" unicode="&#xb8;" horiz-adv-x="752" 
d="M378 -158l-62 34q17 5 33.5 7.5t34.5 2.5q78 0 123 -44t45 -124q0 -97 -60.5 -146.5t-147.5 -49.5q-46 0 -81.5 8t-62.5 18l38 110q23 -9 48 -15.5t52 -6.5q44 0 69 19.5t25 56.5q0 38 -22 57t-64 19q-21 0 -40.5 -4t-39.5 -10l56 226h104z" />
    <glyph glyph-name="uni00B9" unicode="&#xb9;" horiz-adv-x="434" 
d="M160 772v530q-22 -25 -44.5 -41t-45.5 -25l-10 160q39 17 78.5 50.5t61.5 69.5h142v-744h-182z" />
    <glyph glyph-name="ordmasculine" unicode="&#xba;" horiz-adv-x="666" 
d="M335 868q-90 0 -153 42.5t-96.5 110.5t-33.5 145t33.5 145t96.5 110.5t152 42.5t152 -42.5t95.5 -110.5t32.5 -145t-32.5 -145t-95.5 -110.5t-151 -42.5zM334 1022q36 0 57 44.5t21 100.5q0 55 -21 99t-57 44t-58 -44t-22 -99q0 -56 22 -100.5t58 -44.5z" />
    <glyph glyph-name="guillemotright" unicode="&#xbb;" horiz-adv-x="1058" 
d="M500 156l256 412l-256 412h282l256 -412l-256 -412h-282zM40 156l256 412l-256 412h282l256 -412l-256 -412h-282z" />
    <glyph glyph-name="onequarter" unicode="&#xbc;" horiz-adv-x="1146" 
d="M136 656v530q-22 -25 -44.5 -41t-45.5 -25l-10 160q39 17 78.5 50.5t61.5 69.5h142v-744h-182zM72 0l754 1400h190l-752 -1400h-192zM862 0v148h-342l356 596h154v-458h80v-138h-80v-148h-168zM732 238l-48 48h178v64l10 278l30 -38l-78 -180z" />
    <glyph glyph-name="onehalf" unicode="&#xbd;" horiz-adv-x="1214" 
d="M136 656v530q-22 -25 -44.5 -41t-45.5 -25l-10 160q39 17 78.5 50.5t61.5 69.5h142v-744h-182zM72 0l754 1400h190l-752 -1400h-192zM734 0l162 316q32 63 46 103.5t14 80.5q0 44 -22 71t-64 27q-33 0 -62 -16t-56 -40l-14 184q39 21 86 33.5t102 12.5q102 0 164 -63.5
t62 -168.5q0 -44 -9.5 -83t-31.5 -86.5t-59 -116.5l-96 -178l-38 90h260v-166h-444z" />
    <glyph glyph-name="threequarters" unicode="&#xbe;" horiz-adv-x="1282" 
d="M260 628q-64 0 -120.5 13t-103.5 35l38 172q33 -21 66.5 -33.5t69.5 -12.5q44 0 70 20.5t26 57.5q0 41 -25.5 61.5t-76.5 20.5h-14v154h16q35 0 55.5 17t20.5 53q0 29 -18.5 48.5t-57.5 19.5q-31 0 -59.5 -12t-54.5 -32l-14 182q38 18 82.5 27t95.5 9q105 0 163.5 -59
t58.5 -149q0 -72 -38 -123.5t-112 -68.5v32q74 -13 124 -64t50 -138q0 -108 -68.5 -169t-173.5 -61zM210 0l754 1400h190l-752 -1400h-192zM998 0v148h-342l356 596h154v-458h80v-138h-80v-148h-168zM868 238l-48 48h178v64l10 278l30 -38l-78 -180z" />
    <glyph glyph-name="questiondown" unicode="&#xbf;" horiz-adv-x="740" 
d="M592 586v-20q0 -73 -19.5 -127t-54.5 -102t-82 -103q-65 -75 -104.5 -133.5t-39.5 -130.5q0 -51 24 -87t67 -54.5t101 -18.5q64 0 119 13.5t109 34.5l28 -228q-72 -27 -146 -42.5t-180 -15.5q-123 0 -211 46t-135.5 126t-47.5 182q0 70 23 126t64 109.5t95 116.5
q72 84 109 140t37 136v32h244zM592 1000v-272h-244v272h244z" />
    <glyph glyph-name="Agrave" unicode="&#xc0;" horiz-adv-x="1070" 
d="M794 334h-518v224h518v-224zM512 1108h44l-316 -1108h-244l426 1400h224l428 -1400h-244zM690 1518l-314 92v206l314 -160v-138z" />
    <glyph glyph-name="Aacute" unicode="&#xc1;" horiz-adv-x="1070" 
d="M794 334h-518v224h518v-224zM512 1108h44l-316 -1108h-244l426 1400h224l428 -1400h-244zM378 1518v138l314 160v-206z" />
    <glyph glyph-name="Acircumflex" unicode="&#xc2;" horiz-adv-x="1070" 
d="M794 334h-518v224h518v-224zM512 1108h44l-316 -1108h-244l426 1400h224l428 -1400h-244zM290 1490v148l244 172l244 -172v-148l-244 132z" />
    <glyph glyph-name="Atilde" unicode="&#xc3;" horiz-adv-x="1070" 
d="M794 334h-518v224h518v-224zM512 1108h44l-316 -1108h-244l426 1400h224l428 -1400h-244zM688 1554q-46 0 -90 20t-84 40t-74 20q-58 0 -58 -66h-152q0 102 37 156t113 54q46 0 90 -20t84 -40t74 -20q58 0 58 66h152q0 -100 -36.5 -155t-113.5 -55z" />
    <glyph glyph-name="Adieresis" unicode="&#xc4;" horiz-adv-x="1070" 
d="M794 334h-518v224h518v-224zM512 1108h44l-316 -1108h-244l426 1400h224l428 -1400h-244zM276 1566v172h184v-172h-184zM608 1566v172h184v-172h-184z" />
    <glyph glyph-name="Aring" unicode="&#xc5;" horiz-adv-x="1070" 
d="M794 334h-518v224h518v-224zM512 1108h44l-316 -1108h-244l426 1400h224l428 -1400h-244zM534 1508q-87 0 -137.5 57.5t-50.5 136.5q0 80 50.5 138t137.5 58q89 0 138.5 -58t49.5 -138q0 -79 -49.5 -136.5t-138.5 -57.5zM534 1612q35 0 55.5 25t20.5 65q0 39 -20.5 64.5
t-55.5 25.5q-34 0 -55 -25.5t-21 -64.5q0 -40 21 -65t55 -25z" />
    <glyph glyph-name="AE" unicode="&#xc6;" horiz-adv-x="1566" 
d="M-16 0l586 1400h920v-224h-542v-330h418v-224h-418v-398h560v-224h-804v1146l-464 -1146h-256zM320 352v224h492v-224h-492z" />
    <glyph glyph-name="Ccedilla" unicode="&#xc7;" horiz-adv-x="1048" 
d="M678 -28q-175 0 -315 88.5t-221.5 251.5t-81.5 388t81.5 388.5t222 251.5t318.5 88q96 0 174.5 -18.5t139.5 -47.5l-28 -244q-61 27 -120 45.5t-134 18.5q-121 0 -207.5 -58t-132.5 -166t-46 -258t46 -258t132 -166t206 -58q77 0 136 18.5t120 45.5l28 -244
q-60 -30 -141.5 -48t-176.5 -18zM722 -158l-62 34q17 5 33.5 7.5t34.5 2.5q78 0 123 -44t45 -124q0 -97 -60.5 -146.5t-147.5 -49.5q-46 0 -81.5 8t-62.5 18l38 110q23 -9 48 -15.5t52 -6.5q44 0 69 19.5t25 56.5q0 38 -22 57t-64 19q-21 0 -40.5 -4t-39.5 -10l56 226h104z
" />
    <glyph glyph-name="Egrave" unicode="&#xc8;" horiz-adv-x="994" 
d="M132 0v1400h786v-224h-542v-330h418v-224h-418v-398h560v-224h-804zM682 1518l-314 92v206l314 -160v-138z" />
    <glyph glyph-name="Eacute" unicode="&#xc9;" horiz-adv-x="994" 
d="M132 0v1400h786v-224h-542v-330h418v-224h-418v-398h560v-224h-804zM370 1518v138l314 160v-206z" />
    <glyph glyph-name="Ecircumflex" unicode="&#xca;" horiz-adv-x="994" 
d="M132 0v1400h786v-224h-542v-330h418v-224h-418v-398h560v-224h-804zM282 1490v148l244 172l244 -172v-148l-244 132z" />
    <glyph glyph-name="Edieresis" unicode="&#xcb;" horiz-adv-x="994" 
d="M132 0v1400h786v-224h-542v-330h418v-224h-418v-398h560v-224h-804zM268 1566v172h184v-172h-184zM600 1566v172h184v-172h-184z" />
    <glyph glyph-name="Igrave" unicode="&#xcc;" horiz-adv-x="484" 
d="M120 0v1400h244v-1400h-244zM398 1518l-314 92v206l314 -160v-138z" />
    <glyph glyph-name="Iacute" unicode="&#xcd;" horiz-adv-x="484" 
d="M120 0v1400h244v-1400h-244zM86 1518v138l314 160v-206z" />
    <glyph glyph-name="Icircumflex" unicode="&#xce;" horiz-adv-x="484" 
d="M120 0v1400h244v-1400h-244zM-2 1490v148l244 172l244 -172v-148l-244 132z" />
    <glyph glyph-name="Idieresis" unicode="&#xcf;" horiz-adv-x="484" 
d="M120 0v1400h244v-1400h-244zM-16 1566v172h184v-172h-184zM316 1566v172h184v-172h-184z" />
    <glyph glyph-name="Eth" unicode="&#xd0;" horiz-adv-x="1250" 
d="M144 0v598h-116v208h116v594h453q170 0 304 -83.5t210.5 -240t76.5 -376.5t-76.5 -376.5t-210.5 -240t-305 -83.5h-452zM388 224h208q162 0 243 128t81 348q0 221 -81 348.5t-243 127.5h-208v-370h216v-208h-216v-374z" />
    <glyph glyph-name="Ntilde" unicode="&#xd1;" horiz-adv-x="1222" 
d="M132 0v1400h250l464 -876v876h244v-1400h-214l-500 932v-932h-244zM768 1554q-46 0 -90 20t-84 40t-74 20q-58 0 -58 -66h-152q0 102 37 156t113 54q46 0 90 -20t84 -40t74 -20q58 0 58 66h152q0 -100 -36.5 -155t-113.5 -55z" />
    <glyph glyph-name="Ograve" unicode="&#xd2;" horiz-adv-x="1308" 
d="M654 -28q-172 0 -306 90.5t-211 254t-77 383.5t77 383.5t211 254t306 90.5q173 0 307 -90.5t210.5 -254t76.5 -383.5t-76.5 -383.5t-211 -254t-306.5 -90.5zM654 218q111 0 185.5 62t111.5 171t37 249t-37 249t-111.5 171t-185.5 62t-185 -62t-111.5 -171t-37.5 -249
t37.5 -249t112 -171t184.5 -62zM810 1518l-314 92v206l314 -160v-138z" />
    <glyph glyph-name="Oacute" unicode="&#xd3;" horiz-adv-x="1308" 
d="M654 -28q-172 0 -306 90.5t-211 254t-77 383.5t77 383.5t211 254t306 90.5q173 0 307 -90.5t210.5 -254t76.5 -383.5t-76.5 -383.5t-211 -254t-306.5 -90.5zM654 218q111 0 185.5 62t111.5 171t37 249t-37 249t-111.5 171t-185.5 62t-185 -62t-111.5 -171t-37.5 -249
t37.5 -249t112 -171t184.5 -62zM498 1518v138l314 160v-206z" />
    <glyph glyph-name="Ocircumflex" unicode="&#xd4;" horiz-adv-x="1308" 
d="M654 -28q-172 0 -306 90.5t-211 254t-77 383.5t77 383.5t211 254t306 90.5q173 0 307 -90.5t210.5 -254t76.5 -383.5t-76.5 -383.5t-211 -254t-306.5 -90.5zM654 218q111 0 185.5 62t111.5 171t37 249t-37 249t-111.5 171t-185.5 62t-185 -62t-111.5 -171t-37.5 -249
t37.5 -249t112 -171t184.5 -62zM410 1490v148l244 172l244 -172v-148l-244 132z" />
    <glyph glyph-name="Otilde" unicode="&#xd5;" horiz-adv-x="1308" 
d="M654 -28q-172 0 -306 90.5t-211 254t-77 383.5t77 383.5t211 254t306 90.5q173 0 307 -90.5t210.5 -254t76.5 -383.5t-76.5 -383.5t-211 -254t-306.5 -90.5zM654 218q111 0 185.5 62t111.5 171t37 249t-37 249t-111.5 171t-185.5 62t-185 -62t-111.5 -171t-37.5 -249
t37.5 -249t112 -171t184.5 -62zM808 1554q-46 0 -90 20t-84 40t-74 20q-58 0 -58 -66h-152q0 102 37 156t113 54q46 0 90 -20t84 -40t74 -20q58 0 58 66h152q0 -100 -36.5 -155t-113.5 -55z" />
    <glyph glyph-name="Odieresis" unicode="&#xd6;" horiz-adv-x="1308" 
d="M654 -28q-172 0 -306 90.5t-211 254t-77 383.5t77 383.5t211 254t306 90.5q173 0 307 -90.5t210.5 -254t76.5 -383.5t-76.5 -383.5t-211 -254t-306.5 -90.5zM654 218q111 0 185.5 62t111.5 171t37 249t-37 249t-111.5 171t-185.5 62t-185 -62t-111.5 -171t-37.5 -249
t37.5 -249t112 -171t184.5 -62zM396 1566v172h184v-172h-184zM728 1566v172h184v-172h-184z" />
    <glyph glyph-name="multiply" unicode="&#xd7;" horiz-adv-x="770" 
d="M180 184l-132 120l546 620l132 -120zM590 184l-546 620l132 120l546 -620z" />
    <glyph glyph-name="Oslash" unicode="&#xd8;" horiz-adv-x="1308" 
d="M92 -88l934 1576h190l-934 -1576h-190zM654 -28q-172 0 -306 90.5t-211 254t-77 383.5t77 383.5t211 254t306 90.5q173 0 307 -90.5t210.5 -254t76.5 -383.5t-76.5 -383.5t-211 -254t-306.5 -90.5zM654 218q111 0 185.5 62t111.5 171t37 249t-37 249t-111.5 171
t-185.5 62t-185 -62t-111.5 -171t-37.5 -249t37.5 -249t112 -171t184.5 -62z" />
    <glyph glyph-name="Ugrave" unicode="&#xd9;" horiz-adv-x="1240" 
d="M620 -28q-170 0 -281 70.5t-165 198t-54 299.5v860h244v-794q0 -85 11 -156t38.5 -123t77.5 -80.5t129 -28.5q80 0 130 28.5t77.5 80.5t38 123t10.5 156v794h244v-860q0 -172 -54 -299.5t-165 -198t-281 -70.5zM778 1518l-314 92v206l314 -160v-138z" />
    <glyph glyph-name="Uacute" unicode="&#xda;" horiz-adv-x="1240" 
d="M620 -28q-170 0 -281 70.5t-165 198t-54 299.5v860h244v-794q0 -85 11 -156t38.5 -123t77.5 -80.5t129 -28.5q80 0 130 28.5t77.5 80.5t38 123t10.5 156v794h244v-860q0 -172 -54 -299.5t-165 -198t-281 -70.5zM466 1518v138l314 160v-206z" />
    <glyph glyph-name="Ucircumflex" unicode="&#xdb;" horiz-adv-x="1240" 
d="M620 -28q-170 0 -281 70.5t-165 198t-54 299.5v860h244v-794q0 -85 11 -156t38.5 -123t77.5 -80.5t129 -28.5q80 0 130 28.5t77.5 80.5t38 123t10.5 156v794h244v-860q0 -172 -54 -299.5t-165 -198t-281 -70.5zM378 1490v148l244 172l244 -172v-148l-244 132z" />
    <glyph glyph-name="Udieresis" unicode="&#xdc;" horiz-adv-x="1240" 
d="M620 -28q-170 0 -281 70.5t-165 198t-54 299.5v860h244v-794q0 -85 11 -156t38.5 -123t77.5 -80.5t129 -28.5q80 0 130 28.5t77.5 80.5t38 123t10.5 156v794h244v-860q0 -172 -54 -299.5t-165 -198t-281 -70.5zM364 1566v172h184v-172h-184zM696 1566v172h184v-172h-184z
" />
    <glyph glyph-name="Yacute" unicode="&#xdd;" horiz-adv-x="1050" 
d="M404 0v620l-420 780h260l334 -654h-102l330 654h260l-420 -780v-620h-242zM370 1518v138l314 160v-206z" />
    <glyph glyph-name="Thorn" unicode="&#xde;" horiz-adv-x="1060" 
d="M120 0v1400h244v-290h208q222 0 335 -101t113 -289q0 -187 -113 -288.5t-335 -101.5h-208v-330h-244zM364 530h178q134 0 184 51t50 140q0 100 -50 144.5t-184 44.5h-178v-380z" />
    <glyph glyph-name="germandbls" unicode="&#xdf;" horiz-adv-x="1110" 
d="M658 -28q-46 0 -88.5 4.5t-89.5 13.5v196q45 -9 89.5 -13.5t90.5 -4.5q86 0 136 43.5t50 122.5q0 64 -33.5 106t-83 74.5t-99 65.5t-83 78t-33.5 114q0 63 34.5 115.5t91.5 112.5q57 62 83.5 100t26.5 90q0 66 -39.5 104t-116.5 38q-96 0 -154 -71.5t-58 -196.5v-1064
h-238v796h-112l22 204h90v60q0 222 121.5 345t338.5 123q174 0 280 -88t106 -234q0 -51 -10 -89t-33 -71.5t-61 -71.5q-67 -67 -97.5 -101.5t-30.5 -76.5q0 -37 33.5 -67.5t83 -63.5t99 -76t83 -104t33.5 -147q0 -125 -61.5 -206t-160 -120.5t-210.5 -39.5z" />
    <glyph glyph-name="agrave" unicode="&#xe0;" horiz-adv-x="846" 
d="M290 -20q-70 0 -130.5 31t-98 93t-37.5 154q0 90 35 154.5t91.5 107.5t121 68t125 36.5t101.5 13.5q0 86 -31 125t-111 39q-63 0 -120 -20t-122 -56l-16 202q80 44 161.5 66t160.5 22q95 0 167 -37t112.5 -118.5t40.5 -214.5v-302q0 -75 6 -108.5t20.5 -42.5t39.5 -9h32
l-16 -204h-106q-36 0 -72 14.5t-65 40.5t-45 61q-49 -54 -105 -85t-139 -31zM372 170q38 0 69 19t59 53v228q-56 -7 -107.5 -27.5t-84 -59.5t-32.5 -101q0 -61 28 -86.5t68 -25.5zM580 1152l-314 128v238l314 -200v-166z" />
    <glyph glyph-name="aacute" unicode="&#xe1;" horiz-adv-x="846" 
d="M290 -20q-70 0 -130.5 31t-98 93t-37.5 154q0 90 35 154.5t91.5 107.5t121 68t125 36.5t101.5 13.5q0 86 -31 125t-111 39q-63 0 -120 -20t-122 -56l-16 202q80 44 161.5 66t160.5 22q95 0 167 -37t112.5 -118.5t40.5 -214.5v-302q0 -75 6 -108.5t20.5 -42.5t39.5 -9h32
l-16 -204h-106q-36 0 -72 14.5t-65 40.5t-45 61q-49 -54 -105 -85t-139 -31zM372 170q38 0 69 19t59 53v228q-56 -7 -107.5 -27.5t-84 -59.5t-32.5 -101q0 -61 28 -86.5t68 -25.5zM268 1156v158l314 192v-230z" />
    <glyph glyph-name="acircumflex" unicode="&#xe2;" horiz-adv-x="846" 
d="M290 -20q-70 0 -130.5 31t-98 93t-37.5 154q0 90 35 154.5t91.5 107.5t121 68t125 36.5t101.5 13.5q0 86 -31 125t-111 39q-63 0 -120 -20t-122 -56l-16 202q80 44 161.5 66t160.5 22q95 0 167 -37t112.5 -118.5t40.5 -214.5v-302q0 -75 6 -108.5t20.5 -42.5t39.5 -9h32
l-16 -204h-106q-36 0 -72 14.5t-65 40.5t-45 61q-49 -54 -105 -85t-139 -31zM372 170q38 0 69 19t59 53v228q-56 -7 -107.5 -27.5t-84 -59.5t-32.5 -101q0 -61 28 -86.5t68 -25.5zM200 1128v158l224 190l224 -190v-158l-224 140z" />
    <glyph glyph-name="atilde" unicode="&#xe3;" horiz-adv-x="846" 
d="M290 -20q-70 0 -130.5 31t-98 93t-37.5 154q0 90 35 154.5t91.5 107.5t121 68t125 36.5t101.5 13.5q0 86 -31 125t-111 39q-63 0 -120 -20t-122 -56l-16 202q80 44 161.5 66t160.5 22q95 0 167 -37t112.5 -118.5t40.5 -214.5v-302q0 -75 6 -108.5t20.5 -42.5t39.5 -9h32
l-16 -204h-106q-36 0 -72 14.5t-65 40.5t-45 61q-49 -54 -105 -85t-139 -31zM372 170q38 0 69 19t59 53v228q-56 -7 -107.5 -27.5t-84 -59.5t-32.5 -101q0 -61 28 -86.5t68 -25.5zM562 1156q-51 0 -88 22t-68.5 44t-65.5 22q-56 0 -56 -72h-162q5 117 46.5 179.5t117.5 62.5
q51 0 88 -22t68.5 -44t65.5 -22q56 0 56 72h162q-4 -117 -45.5 -179.5t-118.5 -62.5z" />
    <glyph glyph-name="adieresis" unicode="&#xe4;" horiz-adv-x="846" 
d="M290 -20q-70 0 -130.5 31t-98 93t-37.5 154q0 90 35 154.5t91.5 107.5t121 68t125 36.5t101.5 13.5q0 86 -31 125t-111 39q-63 0 -120 -20t-122 -56l-16 202q80 44 161.5 66t160.5 22q95 0 167 -37t112.5 -118.5t40.5 -214.5v-302q0 -75 6 -108.5t20.5 -42.5t39.5 -9h32
l-16 -204h-106q-36 0 -72 14.5t-65 40.5t-45 61q-49 -54 -105 -85t-139 -31zM372 170q38 0 69 19t59 53v228q-56 -7 -107.5 -27.5t-84 -59.5t-32.5 -101q0 -61 28 -86.5t68 -25.5zM498 1182v180h184v-180h-184zM166 1182v180h184v-180h-184z" />
    <glyph glyph-name="aring" unicode="&#xe5;" horiz-adv-x="846" 
d="M290 -20q-70 0 -130.5 31t-98 93t-37.5 154q0 90 35 154.5t91.5 107.5t121 68t125 36.5t101.5 13.5q0 86 -31 125t-111 39q-63 0 -120 -20t-122 -56l-16 202q80 44 161.5 66t160.5 22q95 0 167 -37t112.5 -118.5t40.5 -214.5v-302q0 -75 6 -108.5t20.5 -42.5t39.5 -9h32
l-16 -204h-106q-36 0 -72 14.5t-65 40.5t-45 61q-49 -54 -105 -85t-139 -31zM372 170q38 0 69 19t59 53v228q-56 -7 -107.5 -27.5t-84 -59.5t-32.5 -101q0 -61 28 -86.5t68 -25.5zM424 1140q-93 0 -140.5 57.5t-47.5 136.5q0 80 47.5 138t140.5 58q95 0 141.5 -58t46.5 -138
q0 -79 -46.5 -136.5t-141.5 -57.5zM424 1240q36 0 54 26t18 68q0 41 -18 67.5t-54 26.5t-54 -26.5t-18 -67.5q0 -42 18 -68t54 -26z" />
    <glyph glyph-name="ae" unicode="&#xe6;" horiz-adv-x="1358" 
d="M296 -20q-72 0 -134 31t-100 93t-38 154q0 106 50.5 175t131.5 108.5t173.5 56t176.5 16.5h510q0 86 -29.5 146t-110.5 60q-85 0 -128.5 -79t-43.5 -231q0 -119 34.5 -192.5t91.5 -107.5t126 -34q77 0 141.5 23t116.5 57l6 -210q-52 -28 -125 -47t-165 -19
q-158 0 -262.5 71.5t-156 189.5t-51.5 259l-2 144q-1 83 -36 120.5t-116 37.5q-63 0 -120 -20t-122 -56l-16 202q80 44 161.5 66t160.5 22q96 0 167 -46.5t107 -151.5l-76 -2q53 93 140 146.5t204 53.5q119 0 195.5 -58t113.5 -156t37 -218q0 -34 -3 -67t-9 -71h-746
q-121 0 -197.5 -41.5t-76.5 -122.5q0 -61 28 -86.5t68 -25.5q53 0 102.5 29t95.5 83l72 -120q-72 -81 -150.5 -131.5t-195.5 -50.5z" />
    <glyph glyph-name="ccedilla" unicode="&#xe7;" horiz-adv-x="770" 
d="M520 -20q-155 0 -260 70.5t-158.5 188t-53.5 259.5t53 259.5t159.5 188t267.5 70.5q60 0 109 -9.5t83 -24.5l-18 -196q-31 15 -67.5 24.5t-78.5 9.5q-126 0 -195 -89.5t-69 -232.5q0 -136 67.5 -229t194.5 -93q44 0 81 9t73 27l16 -192q-37 -18 -91 -29t-113 -11z
M512 -158l-62 34q17 5 33.5 7.5t34.5 2.5q78 0 123 -44t45 -124q0 -97 -60.5 -146.5t-147.5 -49.5q-46 0 -81.5 8t-62.5 18l38 110q23 -9 48 -15.5t52 -6.5q44 0 69 19.5t25 56.5q0 38 -22 57t-64 19q-21 0 -40.5 -4t-39.5 -10l56 226h104z" />
    <glyph glyph-name="egrave" unicode="&#xe8;" horiz-adv-x="892" 
d="M514 -20q-158 0 -262.5 71.5t-156 189.5t-51.5 259q0 145 49.5 262t145.5 185.5t237 68.5q114 0 196 -54.5t126 -154t44 -233.5q0 -31 -3 -62t-9 -66h-539q10 -95 45 -155t88.5 -87.5t115.5 -27.5q77 0 141.5 23t116.5 57l6 -210q-52 -28 -125 -47t-165 -19zM294 614h306
q0 57 -12.5 103.5t-43 74.5t-84.5 28q-70 0 -111 -52.5t-55 -153.5zM632 1152l-314 128v238l314 -200v-166z" />
    <glyph glyph-name="eacute" unicode="&#xe9;" horiz-adv-x="892" 
d="M514 -20q-158 0 -262.5 71.5t-156 189.5t-51.5 259q0 145 49.5 262t145.5 185.5t237 68.5q114 0 196 -54.5t126 -154t44 -233.5q0 -31 -3 -62t-9 -66h-539q10 -95 45 -155t88.5 -87.5t115.5 -27.5q77 0 141.5 23t116.5 57l6 -210q-52 -28 -125 -47t-165 -19zM294 614h306
q0 57 -12.5 103.5t-43 74.5t-84.5 28q-70 0 -111 -52.5t-55 -153.5zM320 1156v158l314 192v-230z" />
    <glyph glyph-name="ecircumflex" unicode="&#xea;" horiz-adv-x="892" 
d="M514 -20q-158 0 -262.5 71.5t-156 189.5t-51.5 259q0 145 49.5 262t145.5 185.5t237 68.5q114 0 196 -54.5t126 -154t44 -233.5q0 -31 -3 -62t-9 -66h-539q10 -95 45 -155t88.5 -87.5t115.5 -27.5q77 0 141.5 23t116.5 57l6 -210q-52 -28 -125 -47t-165 -19zM294 614h306
q0 57 -12.5 103.5t-43 74.5t-84.5 28q-70 0 -111 -52.5t-55 -153.5zM252 1128v158l224 190l224 -190v-158l-224 140z" />
    <glyph glyph-name="edieresis" unicode="&#xeb;" horiz-adv-x="892" 
d="M514 -20q-158 0 -262.5 71.5t-156 189.5t-51.5 259q0 145 49.5 262t145.5 185.5t237 68.5q114 0 196 -54.5t126 -154t44 -233.5q0 -31 -3 -62t-9 -66h-539q10 -95 45 -155t88.5 -87.5t115.5 -27.5q77 0 141.5 23t116.5 57l6 -210q-52 -28 -125 -47t-165 -19zM294 614h306
q0 57 -12.5 103.5t-43 74.5t-84.5 28q-70 0 -111 -52.5t-55 -153.5zM550 1182v180h184v-180h-184zM218 1182v180h184v-180h-184z" />
    <glyph glyph-name="igrave" unicode="&#xec;" horiz-adv-x="414" 
d="M88 0v1000h238v-1000h-238zM364 1152l-314 128v238l314 -200v-166z" />
    <glyph glyph-name="iacute" unicode="&#xed;" horiz-adv-x="414" 
d="M88 0v1000h238v-1000h-238zM52 1156v158l314 192v-230z" />
    <glyph glyph-name="icircumflex" unicode="&#xee;" horiz-adv-x="414" 
d="M88 0v1000h238v-1000h-238zM-16 1128v158l224 190l224 -190v-158l-224 140z" />
    <glyph glyph-name="idieresis" unicode="&#xef;" horiz-adv-x="414" 
d="M88 0v1000h238v-1000h-238zM282 1182v180h184v-180h-184zM-50 1182v180h184v-180h-184z" />
    <glyph glyph-name="eth" unicode="&#xf0;" horiz-adv-x="882" 
d="M422 -26q-121 0 -207.5 56t-132.5 155t-46 227q0 122 41.5 222t123.5 159t205 59q90 0 148.5 -34t95.5 -82l-74 -42q0 140 -55 252.5t-149 194t-212 129.5l50 132q131 -42 242.5 -123t194 -196.5t128 -261.5t45.5 -319q0 -130 -27 -228.5t-78.5 -165t-125 -100.5
t-167.5 -34zM434 176q69 0 105.5 69t36.5 175q0 107 -37 172.5t-111 65.5q-50 0 -83 -30t-49 -83.5t-16 -124.5q0 -106 37.5 -175t116.5 -69zM240 982l-80 120l478 298l78 -120z" />
    <glyph glyph-name="ntilde" unicode="&#xf1;" horiz-adv-x="962" 
d="M100 0v1000h208l16 -132h-54q53 71 121.5 109.5t170.5 38.5q155 0 231.5 -102t76.5 -264v-650h-240v618q0 95 -32 148.5t-104 53.5q-69 0 -115.5 -42t-76.5 -116l38 152v-814h-240zM638 1136q-51 0 -88 22t-68.5 44t-65.5 22q-56 0 -56 -72h-162q5 117 46.5 179.5
t117.5 62.5q51 0 88 -22t68.5 -44t65.5 -22q56 0 56 72h162q-4 -117 -45.5 -179.5t-118.5 -62.5z" />
    <glyph glyph-name="ograve" unicode="&#xf2;" horiz-adv-x="982" 
d="M490 -20q-140 0 -239 71t-151 189t-52 258t52 258t151 189t239 71t239.5 -71t152 -189t52.5 -258t-52.5 -258t-152 -189t-239.5 -71zM490 176q96 0 148 90t52 233q0 142 -52 231.5t-148 89.5q-93 0 -145.5 -89.5t-52.5 -232.5q0 -142 52.5 -232t145.5 -90zM648 1152
l-314 128v238l314 -200v-166z" />
    <glyph glyph-name="oacute" unicode="&#xf3;" horiz-adv-x="982" 
d="M490 -20q-140 0 -239 71t-151 189t-52 258t52 258t151 189t239 71t239.5 -71t152 -189t52.5 -258t-52.5 -258t-152 -189t-239.5 -71zM490 176q96 0 148 90t52 233q0 142 -52 231.5t-148 89.5q-93 0 -145.5 -89.5t-52.5 -232.5q0 -142 52.5 -232t145.5 -90zM336 1156v158
l314 192v-230z" />
    <glyph glyph-name="ocircumflex" unicode="&#xf4;" horiz-adv-x="982" 
d="M490 -20q-140 0 -239 71t-151 189t-52 258t52 258t151 189t239 71t239.5 -71t152 -189t52.5 -258t-52.5 -258t-152 -189t-239.5 -71zM490 176q96 0 148 90t52 233q0 142 -52 231.5t-148 89.5q-93 0 -145.5 -89.5t-52.5 -232.5q0 -142 52.5 -232t145.5 -90zM268 1128v158
l224 190l224 -190v-158l-224 140z" />
    <glyph glyph-name="otilde" unicode="&#xf5;" horiz-adv-x="982" 
d="M490 -20q-140 0 -239 71t-151 189t-52 258t52 258t151 189t239 71t239.5 -71t152 -189t52.5 -258t-52.5 -258t-152 -189t-239.5 -71zM490 176q96 0 148 90t52 233q0 142 -52 231.5t-148 89.5q-93 0 -145.5 -89.5t-52.5 -232.5q0 -142 52.5 -232t145.5 -90zM630 1156
q-51 0 -88 22t-68.5 44t-65.5 22q-56 0 -56 -72h-162q5 117 46.5 179.5t117.5 62.5q51 0 88 -22t68.5 -44t65.5 -22q56 0 56 72h162q-4 -117 -45.5 -179.5t-118.5 -62.5z" />
    <glyph glyph-name="odieresis" unicode="&#xf6;" horiz-adv-x="982" 
d="M490 -20q-140 0 -239 71t-151 189t-52 258t52 258t151 189t239 71t239.5 -71t152 -189t52.5 -258t-52.5 -258t-152 -189t-239.5 -71zM490 176q96 0 148 90t52 233q0 142 -52 231.5t-148 89.5q-93 0 -145.5 -89.5t-52.5 -232.5q0 -142 52.5 -232t145.5 -90zM566 1182v180
h184v-180h-184zM234 1182v180h184v-180h-184z" />
    <glyph glyph-name="divide" unicode="&#xf7;" horiz-adv-x="862" 
d="M72 462v184h718v-184h-718zM316 90v252h230v-252h-230zM316 766v252h230v-252h-230z" />
    <glyph glyph-name="oslash" unicode="&#xf8;" horiz-adv-x="982" 
d="M746 1060h160l-670 -1140h-160zM490 -20q-140 0 -239 71t-151 189t-52 258t52 258t151 189t239 71t239.5 -71t152 -189t52.5 -258t-52.5 -258t-152 -189t-239.5 -71zM490 176q96 0 148 90t52 232q0 143 -52 232.5t-148 89.5q-93 0 -145.5 -89.5t-52.5 -232.5
q0 -142 52.5 -232t145.5 -90z" />
    <glyph glyph-name="ugrave" unicode="&#xf9;" horiz-adv-x="936" 
d="M400 -16q-103 0 -171.5 46.5t-102.5 129t-34 190.5v650h240v-618q0 -94 32 -148t104 -54q69 0 115.5 42.5t76.5 115.5l-38 -152v814h240v-1000h-208l-16 132h54q-52 -70 -121 -109t-171 -39zM634 1152l-314 128v238l314 -200v-166z" />
    <glyph glyph-name="uacute" unicode="&#xfa;" horiz-adv-x="936" 
d="M400 -16q-103 0 -171.5 46.5t-102.5 129t-34 190.5v650h240v-618q0 -94 32 -148t104 -54q69 0 115.5 42.5t76.5 115.5l-38 -152v814h240v-1000h-208l-16 132h54q-52 -70 -121 -109t-171 -39zM322 1156v158l314 192v-230z" />
    <glyph glyph-name="ucircumflex" unicode="&#xfb;" horiz-adv-x="936" 
d="M400 -16q-103 0 -171.5 46.5t-102.5 129t-34 190.5v650h240v-618q0 -94 32 -148t104 -54q69 0 115.5 42.5t76.5 115.5l-38 -152v814h240v-1000h-208l-16 132h54q-52 -70 -121 -109t-171 -39zM254 1128v158l224 190l224 -190v-158l-224 140z" />
    <glyph glyph-name="udieresis" unicode="&#xfc;" horiz-adv-x="936" 
d="M400 -16q-103 0 -171.5 46.5t-102.5 129t-34 190.5v650h240v-618q0 -94 32 -148t104 -54q69 0 115.5 42.5t76.5 115.5l-38 -152v814h240v-1000h-208l-16 132h54q-52 -70 -121 -109t-171 -39zM552 1182v180h184v-180h-184zM220 1182v180h184v-180h-184z" />
    <glyph glyph-name="yacute" unicode="&#xfd;" horiz-adv-x="958" 
d="M150 -484l208 530l-342 954h250l212 -680l212 680h250l-546 -1484h-244zM326 1156v158l314 192v-230z" />
    <glyph glyph-name="thorn" unicode="&#xfe;" horiz-adv-x="988" 
d="M92 -484v1984h240v-666l-66 26q59 71 128 113.5t168 42.5q126 0 212 -71t130 -189t44 -258t-44 -258t-130 -189t-212 -71q-102 0 -166 32t-130 102l66 50v-648h-240zM516 176q89 0 138.5 90t49.5 232q0 143 -49.5 232.5t-138.5 89.5q-68 0 -111.5 -41t-64 -113.5
t-20.5 -167.5t20.5 -167.5t64 -113.5t111.5 -41z" />
    <glyph glyph-name="ydieresis" unicode="&#xff;" horiz-adv-x="958" 
d="M150 -484l208 530l-342 954h250l212 -680l212 680h250l-546 -1484h-244zM556 1182v180h184v-180h-184zM224 1182v180h184v-180h-184z" />
    <glyph glyph-name="Amacron" unicode="&#x100;" horiz-adv-x="1070" 
d="M794 334h-518v224h518v-224zM512 1108h44l-316 -1108h-244l426 1400h224l428 -1400h-244zM226 1586v144h616v-144h-616z" />
    <glyph glyph-name="amacron" unicode="&#x101;" horiz-adv-x="846" 
d="M290 -20q-70 0 -130.5 31t-98 93t-37.5 154q0 90 35 154.5t91.5 107.5t121 68t125 36.5t101.5 13.5q0 86 -31 125t-111 39q-63 0 -120 -20t-122 -56l-16 202q80 44 161.5 66t160.5 22q95 0 167 -37t112.5 -118.5t40.5 -214.5v-302q0 -75 6 -108.5t20.5 -42.5t39.5 -9h32
l-16 -204h-106q-36 0 -72 14.5t-65 40.5t-45 61q-49 -54 -105 -85t-139 -31zM372 170q38 0 69 19t59 53v228q-56 -7 -107.5 -27.5t-84 -59.5t-32.5 -101q0 -61 28 -86.5t68 -25.5zM136 1206v154h576v-154h-576z" />
    <glyph glyph-name="Abreve" unicode="&#x102;" horiz-adv-x="1070" 
d="M794 334h-518v224h518v-224zM512 1108h44l-316 -1108h-244l426 1400h224l428 -1400h-244zM534 1530q-89 0 -153.5 35t-99.5 92.5t-35 126.5h170q0 -57 32 -87.5t86 -30.5t86 30.5t32 87.5h170q0 -69 -34.5 -126.5t-99 -92.5t-154.5 -35z" />
    <glyph glyph-name="abreve" unicode="&#x103;" horiz-adv-x="846" 
d="M290 -20q-70 0 -130.5 31t-98 93t-37.5 154q0 90 35 154.5t91.5 107.5t121 68t125 36.5t101.5 13.5q0 86 -31 125t-111 39q-63 0 -120 -20t-122 -56l-16 202q80 44 161.5 66t160.5 22q95 0 167 -37t112.5 -118.5t40.5 -214.5v-302q0 -75 6 -108.5t20.5 -42.5t39.5 -9h32
l-16 -204h-106q-36 0 -72 14.5t-65 40.5t-45 61q-49 -54 -105 -85t-139 -31zM372 170q38 0 69 19t59 53v228q-56 -7 -107.5 -27.5t-84 -59.5t-32.5 -101q0 -61 28 -86.5t68 -25.5zM425 1174q-87 0 -149.5 35.5t-96 95t-33.5 131.5h162q0 -55 29.5 -86.5t86.5 -31.5
t86.5 31.5t29.5 86.5h162q0 -72 -33 -131.5t-95.5 -95t-148.5 -35.5z" />
    <glyph glyph-name="Aogonek" unicode="&#x104;" horiz-adv-x="1070" 
d="M794 334h-518v224h518v-224zM512 1108h44l-316 -1108h-244l426 1400h224l428 -1400h-244zM892 0h124q-55 -52 -94.5 -103.5t-39.5 -104.5q0 -46 26 -69t68 -23q29 0 53.5 7t48.5 17l34 -110q-28 -15 -66.5 -25.5t-91.5 -10.5q-85 0 -142.5 44t-57.5 128q0 77 41.5 136.5
t96.5 113.5z" />
    <glyph glyph-name="aogonek" unicode="&#x105;" horiz-adv-x="846" 
d="M290 -20q-70 0 -130.5 31t-98 93t-37.5 154q0 90 35 154.5t91.5 107.5t121 68t125 36.5t101.5 13.5q0 86 -31 125t-111 39q-63 0 -120 -20t-122 -56l-16 202q80 44 161.5 66t160.5 22q95 0 167 -37t112.5 -118.5t40.5 -214.5v-302q0 -75 6 -108.5t20.5 -42.5t39.5 -9h32
l-16 -204h-106q-36 0 -72 14.5t-65 40.5t-45 61q-49 -54 -105 -85t-139 -31zM372 170q38 0 69 19t59 53v228q-56 -7 -107.5 -27.5t-84 -59.5t-32.5 -101q0 -61 28 -86.5t68 -25.5zM682 0h124q-55 -52 -94.5 -103.5t-39.5 -104.5q0 -46 26 -69t68 -23q29 0 53.5 7t48.5 17
l34 -110q-28 -15 -66.5 -25.5t-91.5 -10.5q-85 0 -142.5 44t-57.5 128q0 77 41.5 136.5t96.5 113.5z" />
    <glyph glyph-name="Cacute" unicode="&#x106;" horiz-adv-x="1048" 
d="M678 -28q-175 0 -315 88.5t-221.5 251.5t-81.5 388t81.5 388.5t222 251.5t318.5 88q96 0 174.5 -18.5t139.5 -47.5l-28 -244q-61 27 -120 45.5t-134 18.5q-121 0 -207.5 -58t-132.5 -166t-46 -258t46 -258t132 -166t206 -58q77 0 136 18.5t120 45.5l28 -244
q-60 -30 -141.5 -48t-176.5 -18zM502 1518v138l314 160v-206z" />
    <glyph glyph-name="cacute" unicode="&#x107;" horiz-adv-x="770" 
d="M520 -20q-155 0 -260 70.5t-158.5 188t-53.5 259.5t53 259.5t159.5 188t267.5 70.5q60 0 109 -9.5t83 -24.5l-18 -196q-31 15 -67.5 24.5t-78.5 9.5q-126 0 -195 -89.5t-69 -232.5q0 -136 67.5 -229t194.5 -93q44 0 81 9t73 27l16 -192q-37 -18 -91 -29t-113 -11z
M314 1156v158l314 192v-230z" />
    <glyph glyph-name="Ccircumflex" unicode="&#x108;" horiz-adv-x="1048" 
d="M678 -28q-175 0 -315 88.5t-221.5 251.5t-81.5 388t81.5 388.5t222 251.5t318.5 88q96 0 174.5 -18.5t139.5 -47.5l-28 -244q-61 27 -120 45.5t-134 18.5q-121 0 -207.5 -58t-132.5 -166t-46 -258t46 -258t132 -166t206 -58q77 0 136 18.5t120 45.5l28 -244
q-60 -30 -141.5 -48t-176.5 -18zM414 1490v148l244 172l244 -172v-148l-244 132z" />
    <glyph glyph-name="ccircumflex" unicode="&#x109;" horiz-adv-x="770" 
d="M520 -20q-155 0 -260 70.5t-158.5 188t-53.5 259.5t53 259.5t159.5 188t267.5 70.5q60 0 109 -9.5t83 -24.5l-18 -196q-31 15 -67.5 24.5t-78.5 9.5q-126 0 -195 -89.5t-69 -232.5q0 -136 67.5 -229t194.5 -93q44 0 81 9t73 27l16 -192q-37 -18 -91 -29t-113 -11z
M246 1128v158l224 190l224 -190v-158l-224 140z" />
    <glyph glyph-name="Cdotaccent" unicode="&#x10a;" horiz-adv-x="1048" 
d="M678 -28q-175 0 -315 88.5t-221.5 251.5t-81.5 388t81.5 388.5t222 251.5t318.5 88q96 0 174.5 -18.5t139.5 -47.5l-28 -244q-61 27 -120 45.5t-134 18.5q-121 0 -207.5 -58t-132.5 -166t-46 -258t46 -258t132 -166t206 -58q77 0 136 18.5t120 45.5l28 -244
q-60 -30 -141.5 -48t-176.5 -18zM558 1584v194h200v-194h-200z" />
    <glyph glyph-name="cdotaccent" unicode="&#x10b;" horiz-adv-x="770" 
d="M520 -20q-155 0 -260 70.5t-158.5 188t-53.5 259.5t53 259.5t159.5 188t267.5 70.5q60 0 109 -9.5t83 -24.5l-18 -196q-31 15 -67.5 24.5t-78.5 9.5q-126 0 -195 -89.5t-69 -232.5q0 -136 67.5 -229t194.5 -93q44 0 81 9t73 27l16 -192q-37 -18 -91 -29t-113 -11z
M374 1204v194h192v-194h-192z" />
    <glyph glyph-name="Ccaron" unicode="&#x10c;" horiz-adv-x="1048" 
d="M678 -28q-175 0 -315 88.5t-221.5 251.5t-81.5 388t81.5 388.5t222 251.5t318.5 88q96 0 174.5 -18.5t139.5 -47.5l-28 -244q-61 27 -120 45.5t-134 18.5q-121 0 -207.5 -58t-132.5 -166t-46 -258t46 -258t132 -166t206 -58q77 0 136 18.5t120 45.5l28 -244
q-60 -30 -141.5 -48t-176.5 -18zM414 1880v-148l244 -172l244 172v148l-244 -132z" />
    <glyph glyph-name="ccaron" unicode="&#x10d;" horiz-adv-x="770" 
d="M520 -20q-155 0 -260 70.5t-158.5 188t-53.5 259.5t53 259.5t159.5 188t267.5 70.5q60 0 109 -9.5t83 -24.5l-18 -196q-31 15 -67.5 24.5t-78.5 9.5q-126 0 -195 -89.5t-69 -232.5q0 -136 67.5 -229t194.5 -93q44 0 81 9t73 27l16 -192q-37 -18 -91 -29t-113 -11z
M470 1128l-224 188v158l224 -140l224 140v-158z" />
    <glyph glyph-name="Dcaron" unicode="&#x10e;" horiz-adv-x="1238" 
d="M132 0v1400h452q171 0 305 -83.5t210.5 -240t76.5 -376.5t-76.5 -376.5t-210.5 -240t-305 -83.5h-452zM376 224h208q108 0 180 58t108 164.5t36 253.5t-36 254t-108 164.5t-180 57.5h-208v-952zM376 1880v-148l244 -172l244 172v148l-244 -132z" />
    <glyph glyph-name="dcaron" unicode="&#x10f;" horiz-adv-x="1136" 
d="M426 -20q-128 0 -216.5 71t-134 189t-45.5 258t45.5 258t134 189t216.5 71q93 0 158 -36.5t114 -93.5l-52 -52v666h240v-1500h-226l-12 170l64 -52q-60 -64 -124 -101t-162 -37zM462 176q68 0 111.5 41t64 113.5t20.5 167.5t-20.5 167.5t-64 113.5t-111.5 41
q-60 0 -102 -41t-64 -113.5t-22 -167.5t22 -167.5t64 -113.5t102 -41zM966 1146v354h190l-58 -354h-132z" />
    <glyph glyph-name="Dcroat" unicode="&#x110;" horiz-adv-x="1250" 
d="M144 0v598h-116v208h116v594h453q170 0 304 -83.5t210.5 -240t76.5 -376.5t-76.5 -376.5t-210.5 -240t-305 -83.5h-452zM388 224h208q162 0 243 128t81 348q0 221 -81 348.5t-243 127.5h-208v-370h216v-208h-216v-374z" />
    <glyph glyph-name="dcroat" unicode="&#x111;" horiz-adv-x="1006" 
d="M366 1174v166h640v-166h-640zM426 -20q-128 0 -216.5 71t-134 189t-45.5 258t45.5 258t134 189t216.5 71q93 0 158 -36.5t114 -93.5l-52 -52v666h240v-1500h-226l-12 170l64 -52q-60 -64 -124 -101t-162 -37zM462 176q68 0 111.5 41t64 113.5t20.5 167.5t-20.5 167.5
t-64 113.5t-111.5 41q-60 0 -102 -41t-64 -113.5t-22 -167.5t22 -167.5t64 -113.5t102 -41z" />
    <glyph glyph-name="Emacron" unicode="&#x112;" horiz-adv-x="994" 
d="M132 0v1400h786v-224h-542v-330h418v-224h-418v-398h560v-224h-804zM218 1586v144h616v-144h-616z" />
    <glyph glyph-name="emacron" unicode="&#x113;" horiz-adv-x="892" 
d="M514 -20q-158 0 -262.5 71.5t-156 189.5t-51.5 259q0 145 49.5 262t145.5 185.5t237 68.5q114 0 196 -54.5t126 -154t44 -233.5q0 -31 -3 -62t-9 -66h-539q10 -95 45 -155t88.5 -87.5t115.5 -27.5q77 0 141.5 23t116.5 57l6 -210q-52 -28 -125 -47t-165 -19zM294 614h306
q0 57 -12.5 103.5t-43 74.5t-84.5 28q-70 0 -111 -52.5t-55 -153.5zM188 1206v154h576v-154h-576z" />
    <glyph glyph-name="Ebreve" unicode="&#x114;" horiz-adv-x="994" 
d="M132 0v1400h786v-224h-542v-330h418v-224h-418v-398h560v-224h-804zM526 1530q-89 0 -153.5 35t-99.5 92.5t-35 126.5h170q0 -57 32 -87.5t86 -30.5t86 30.5t32 87.5h170q0 -69 -34.5 -126.5t-99 -92.5t-154.5 -35z" />
    <glyph glyph-name="ebreve" unicode="&#x115;" horiz-adv-x="892" 
d="M514 -20q-158 0 -262.5 71.5t-156 189.5t-51.5 259q0 145 49.5 262t145.5 185.5t237 68.5q114 0 196 -54.5t126 -154t44 -233.5q0 -31 -3 -62t-9 -66h-539q10 -95 45 -155t88.5 -87.5t115.5 -27.5q77 0 141.5 23t116.5 57l6 -210q-52 -28 -125 -47t-165 -19zM294 614h306
q0 57 -12.5 103.5t-43 74.5t-84.5 28q-70 0 -111 -52.5t-55 -153.5zM477 1174q-87 0 -149.5 35.5t-96 95t-33.5 131.5h162q0 -55 29.5 -86.5t86.5 -31.5t86.5 31.5t29.5 86.5h162q0 -72 -33 -131.5t-95.5 -95t-148.5 -35.5z" />
    <glyph glyph-name="Edotaccent" unicode="&#x116;" horiz-adv-x="994" 
d="M132 0v1400h786v-224h-542v-330h418v-224h-418v-398h560v-224h-804zM426 1584v194h200v-194h-200z" />
    <glyph glyph-name="edotaccent" unicode="&#x117;" horiz-adv-x="892" 
d="M514 -20q-158 0 -262.5 71.5t-156 189.5t-51.5 259q0 145 49.5 262t145.5 185.5t237 68.5q114 0 196 -54.5t126 -154t44 -233.5q0 -31 -3 -62t-9 -66h-539q10 -95 45 -155t88.5 -87.5t115.5 -27.5q77 0 141.5 23t116.5 57l6 -210q-52 -28 -125 -47t-165 -19zM294 614h306
q0 57 -12.5 103.5t-43 74.5t-84.5 28q-70 0 -111 -52.5t-55 -153.5zM380 1204v194h192v-194h-192z" />
    <glyph glyph-name="Eogonek" unicode="&#x118;" horiz-adv-x="994" 
d="M132 0v1400h786v-224h-542v-330h418v-224h-418v-398h560v-224h-804zM812 0h124q-55 -52 -94.5 -103.5t-39.5 -104.5q0 -46 26 -69t68 -23q29 0 53.5 7t48.5 17l34 -110q-28 -15 -66.5 -25.5t-91.5 -10.5q-85 0 -142.5 44t-57.5 128q0 77 41.5 136.5t96.5 113.5z" />
    <glyph glyph-name="eogonek" unicode="&#x119;" horiz-adv-x="892" 
d="M514 -20q-158 0 -262.5 71.5t-156 189.5t-51.5 259q0 145 49.5 262t145.5 185.5t237 68.5q114 0 196 -54.5t126 -154t44 -233.5q0 -31 -3 -62t-9 -66h-539q10 -95 45 -155t88.5 -87.5t115.5 -27.5q77 0 141.5 23t116.5 57l6 -210q-52 -28 -125 -47t-165 -19zM294 614h306
q0 57 -12.5 103.5t-43 74.5t-84.5 28q-70 0 -111 -52.5t-55 -153.5zM680 46h124q-55 -52 -94.5 -103.5t-39.5 -104.5q0 -46 26 -69t68 -23q29 0 53.5 7t48.5 17l34 -110q-28 -15 -66.5 -25.5t-91.5 -10.5q-85 0 -142.5 44t-57.5 128q0 77 41.5 136.5t96.5 113.5z" />
    <glyph glyph-name="Ecaron" unicode="&#x11a;" horiz-adv-x="994" 
d="M132 0v1400h786v-224h-542v-330h418v-224h-418v-398h560v-224h-804zM282 1880v-148l244 -172l244 172v148l-244 -132z" />
    <glyph glyph-name="ecaron" unicode="&#x11b;" horiz-adv-x="892" 
d="M514 -20q-158 0 -262.5 71.5t-156 189.5t-51.5 259q0 145 49.5 262t145.5 185.5t237 68.5q114 0 196 -54.5t126 -154t44 -233.5q0 -31 -3 -62t-9 -66h-539q10 -95 45 -155t88.5 -87.5t115.5 -27.5q77 0 141.5 23t116.5 57l6 -210q-52 -28 -125 -47t-165 -19zM294 614h306
q0 57 -12.5 103.5t-43 74.5t-84.5 28q-70 0 -111 -52.5t-55 -153.5zM476 1128l-224 188v158l224 -140l224 140v-158z" />
    <glyph glyph-name="Gcircumflex" unicode="&#x11c;" horiz-adv-x="1142" 
d="M684 -28q-187 0 -327.5 90.5t-218.5 254t-78 383.5q0 225 83 388.5t226.5 251.5t324.5 88q101 0 182.5 -18.5t145.5 -47.5l-28 -244q-64 27 -126 45.5t-142 18.5q-125 0 -214 -58t-136.5 -166t-47.5 -258q0 -152 43 -260t127 -165t208 -57q27 0 57 4.5t55 13.5v242h-160
v224h404v-628q-66 -46 -164 -74t-214 -28zM446 1490v148l244 172l244 -172v-148l-244 132z" />
    <glyph glyph-name="gcircumflex" unicode="&#x11d;" horiz-adv-x="864" 
d="M440 -500q-117 0 -206.5 32.5t-140.5 95t-51 152.5q0 78 41 133t109 98q-44 24 -65 59t-21 78q0 47 25 81.5t69 61.5q-73 53 -112.5 140.5t-39.5 190.5q0 110 43 199.5t123.5 142t193.5 52.5q67 0 122.5 -19t98.5 -53q38 35 80.5 53.5t86.5 18.5q17 0 29 -1t21 -3
l-18 -154q-7 2 -16.5 3t-23.5 1q-19 0 -38 -3.5t-38 -11.5q27 -48 41.5 -105t14.5 -120q0 -108 -43 -198t-123.5 -144t-193.5 -54q-20 0 -39.5 2t-37.5 5q-17 -14 -17 -33t14.5 -30.5t47.5 -19.5l206 -48q143 -33 210.5 -99t67.5 -189q0 -95 -54 -165.5t-148.5 -109.5
t-217.5 -39zM446 -320q90 0 148 31t58 89q0 50 -32 76t-106 44l-173 42q-49 -30 -78 -65.5t-29 -82.5q0 -66 59.5 -100t152.5 -34zM408 406q68 0 104 60t36 156q0 93 -36 153.5t-104 60.5q-69 0 -104.5 -60.5t-35.5 -153.5q0 -96 35.5 -156t104.5 -60zM208 1128v158l224 190
l224 -190v-158l-224 140z" />
    <glyph glyph-name="Gbreve" unicode="&#x11e;" horiz-adv-x="1142" 
d="M684 -28q-187 0 -327.5 90.5t-218.5 254t-78 383.5q0 225 83 388.5t226.5 251.5t324.5 88q101 0 182.5 -18.5t145.5 -47.5l-28 -244q-64 27 -126 45.5t-142 18.5q-125 0 -214 -58t-136.5 -166t-47.5 -258q0 -152 43 -260t127 -165t208 -57q27 0 57 4.5t55 13.5v242h-160
v224h404v-628q-66 -46 -164 -74t-214 -28zM690 1530q-89 0 -153.5 35t-99.5 92.5t-35 126.5h170q0 -57 32 -87.5t86 -30.5t86 30.5t32 87.5h170q0 -69 -34.5 -126.5t-99 -92.5t-154.5 -35z" />
    <glyph glyph-name="gbreve" unicode="&#x11f;" horiz-adv-x="864" 
d="M440 -500q-117 0 -206.5 32.5t-140.5 95t-51 152.5q0 78 41 133t109 98q-44 24 -65 59t-21 78q0 47 25 81.5t69 61.5q-73 53 -112.5 140.5t-39.5 190.5q0 110 43 199.5t123.5 142t193.5 52.5q67 0 122.5 -19t98.5 -53q38 35 80.5 53.5t86.5 18.5q17 0 29 -1t21 -3
l-18 -154q-7 2 -16.5 3t-23.5 1q-19 0 -38 -3.5t-38 -11.5q27 -48 41.5 -105t14.5 -120q0 -108 -43 -198t-123.5 -144t-193.5 -54q-20 0 -39.5 2t-37.5 5q-17 -14 -17 -33t14.5 -30.5t47.5 -19.5l206 -48q143 -33 210.5 -99t67.5 -189q0 -95 -54 -165.5t-148.5 -109.5
t-217.5 -39zM446 -320q90 0 148 31t58 89q0 50 -32 76t-106 44l-173 42q-49 -30 -78 -65.5t-29 -82.5q0 -66 59.5 -100t152.5 -34zM408 406q68 0 104 60t36 156q0 93 -36 153.5t-104 60.5q-69 0 -104.5 -60.5t-35.5 -153.5q0 -96 35.5 -156t104.5 -60zM433 1174
q-87 0 -149.5 35.5t-96 95t-33.5 131.5h162q0 -55 29.5 -86.5t86.5 -31.5t86.5 31.5t29.5 86.5h162q0 -72 -33 -131.5t-95.5 -95t-148.5 -35.5z" />
    <glyph glyph-name="Gdotaccent" unicode="&#x120;" horiz-adv-x="1142" 
d="M684 -28q-187 0 -327.5 90.5t-218.5 254t-78 383.5q0 225 83 388.5t226.5 251.5t324.5 88q101 0 182.5 -18.5t145.5 -47.5l-28 -244q-64 27 -126 45.5t-142 18.5q-125 0 -214 -58t-136.5 -166t-47.5 -258q0 -152 43 -260t127 -165t208 -57q27 0 57 4.5t55 13.5v242h-160
v224h404v-628q-66 -46 -164 -74t-214 -28zM590 1584v194h200v-194h-200z" />
    <glyph glyph-name="gdotaccent" unicode="&#x121;" horiz-adv-x="864" 
d="M440 -500q-117 0 -206.5 32.5t-140.5 95t-51 152.5q0 78 41 133t109 98q-44 24 -65 59t-21 78q0 47 25 81.5t69 61.5q-73 53 -112.5 140.5t-39.5 190.5q0 110 43 199.5t123.5 142t193.5 52.5q67 0 122.5 -19t98.5 -53q38 35 80.5 53.5t86.5 18.5q17 0 29 -1t21 -3
l-18 -154q-7 2 -16.5 3t-23.5 1q-19 0 -38 -3.5t-38 -11.5q27 -48 41.5 -105t14.5 -120q0 -108 -43 -198t-123.5 -144t-193.5 -54q-20 0 -39.5 2t-37.5 5q-17 -14 -17 -33t14.5 -30.5t47.5 -19.5l206 -48q143 -33 210.5 -99t67.5 -189q0 -95 -54 -165.5t-148.5 -109.5
t-217.5 -39zM446 -320q90 0 148 31t58 89q0 50 -32 76t-106 44l-173 42q-49 -30 -78 -65.5t-29 -82.5q0 -66 59.5 -100t152.5 -34zM408 406q68 0 104 60t36 156q0 93 -36 153.5t-104 60.5q-69 0 -104.5 -60.5t-35.5 -153.5q0 -96 35.5 -156t104.5 -60zM336 1204v194h192
v-194h-192z" />
    <glyph glyph-name="uni0122" unicode="&#x122;" horiz-adv-x="1142" 
d="M684 -28q-187 0 -327.5 90.5t-218.5 254t-78 383.5q0 225 83 388.5t226.5 251.5t324.5 88q101 0 182.5 -18.5t145.5 -47.5l-28 -244q-64 27 -126 45.5t-142 18.5q-125 0 -214 -58t-136.5 -166t-47.5 -258q0 -152 43 -260t127 -165t208 -57q27 0 57 4.5t55 13.5v242h-160
v224h404v-628q-66 -46 -164 -74t-214 -28zM668 -596h-92l86 220h-66v194h200v-170z" />
    <glyph glyph-name="uni0123" unicode="&#x123;" horiz-adv-x="864" 
d="M440 -500q-117 0 -206.5 32.5t-140.5 95t-51 152.5q0 78 41 133t109 98q-44 24 -65 59t-21 78q0 47 25 81.5t69 61.5q-73 53 -112.5 140.5t-39.5 190.5q0 110 43 199.5t123.5 142t193.5 52.5q67 0 122.5 -19t98.5 -53q38 35 80.5 53.5t86.5 18.5q17 0 29 -1t21 -3
l-18 -154q-7 2 -16.5 3t-23.5 1q-19 0 -38 -3.5t-38 -11.5q27 -48 41.5 -105t14.5 -120q0 -108 -43 -198t-123.5 -144t-193.5 -54q-20 0 -39.5 2t-37.5 5q-17 -14 -17 -33t14.5 -30.5t47.5 -19.5l206 -48q143 -33 210.5 -99t67.5 -189q0 -95 -54 -165.5t-148.5 -109.5
t-217.5 -39zM446 -320q90 0 148 31t58 89q0 50 -32 76t-106 44l-173 42q-49 -30 -78 -65.5t-29 -82.5q0 -66 59.5 -100t152.5 -34zM408 406q68 0 104 60t36 156q0 93 -36 153.5t-104 60.5q-69 0 -104.5 -60.5t-35.5 -153.5q0 -96 35.5 -156t104.5 -60zM462 1588h92l-86 -220
h66v-194h-200v170z" />
    <glyph glyph-name="Hcircumflex" unicode="&#x124;" horiz-adv-x="1272" 
d="M132 0v1400h244v-554h520v554h244v-1400h-244v606h-520v-606h-244zM392 1490v148l244 172l244 -172v-148l-244 132z" />
    <glyph glyph-name="hcircumflex" unicode="&#x125;" horiz-adv-x="950" 
d="M88 0v1500h240v-632h-70q53 71 121.5 109.5t170.5 38.5q103 0 171.5 -46.5t102.5 -129t34 -190.5v-650h-240v618q0 95 -32 148.5t-104 53.5q-69 0 -115.5 -42t-76.5 -116l38 152v-814h-240zM-36 1590v148l244 172l244 -172v-148l-244 132z" />
    <glyph glyph-name="Hbar" unicode="&#x126;" horiz-adv-x="1308" 
d="M150 0v1400h244v-554h520v554h244v-1400h-244v606h-520v-606h-244zM40 976v180h1228v-180h-1228z" />
    <glyph glyph-name="hbar" unicode="&#x127;" horiz-adv-x="982" 
d="M120 0v1500h240v-632h-70q53 71 121.5 109.5t170.5 38.5q103 0 171.5 -46.5t102.5 -129t34 -190.5v-650h-240v618q0 95 -32 148.5t-104 53.5q-69 0 -115.5 -42t-76.5 -116l38 152v-814h-240zM0 1174v166h640v-166h-640z" />
    <glyph glyph-name="Itilde" unicode="&#x128;" horiz-adv-x="484" 
d="M120 0v1400h244v-1400h-244zM396 1554q-46 0 -90 20t-84 40t-74 20q-58 0 -58 -66h-152q0 102 37 156t113 54q46 0 90 -20t84 -40t74 -20q58 0 58 66h152q0 -100 -36.5 -155t-113.5 -55z" />
    <glyph glyph-name="itilde" unicode="&#x129;" horiz-adv-x="414" 
d="M88 0v1000h238v-1000h-238zM346 1156q-51 0 -88 22t-68.5 44t-65.5 22q-56 0 -56 -72h-162q5 117 46.5 179.5t117.5 62.5q51 0 88 -22t68.5 -44t65.5 -22q56 0 56 72h162q-4 -117 -45.5 -179.5t-118.5 -62.5z" />
    <glyph glyph-name="Imacron" unicode="&#x12a;" horiz-adv-x="484" 
d="M120 0v1400h244v-1400h-244zM-66 1586v144h616v-144h-616z" />
    <glyph glyph-name="imacron" unicode="&#x12b;" horiz-adv-x="414" 
d="M88 0v1000h238v-1000h-238zM-80 1206v154h576v-154h-576z" />
    <glyph glyph-name="Ibreve" unicode="&#x12c;" horiz-adv-x="484" 
d="M120 0v1400h244v-1400h-244zM242 1530q-89 0 -153.5 35t-99.5 92.5t-35 126.5h170q0 -57 32 -87.5t86 -30.5t86 30.5t32 87.5h170q0 -69 -34.5 -126.5t-99 -92.5t-154.5 -35z" />
    <glyph glyph-name="ibreve" unicode="&#x12d;" horiz-adv-x="414" 
d="M88 0v1000h238v-1000h-238zM209 1174q-87 0 -149.5 35.5t-96 95t-33.5 131.5h162q0 -55 29.5 -86.5t86.5 -31.5t86.5 31.5t29.5 86.5h162q0 -72 -33 -131.5t-95.5 -95t-148.5 -35.5z" />
    <glyph glyph-name="Iogonek" unicode="&#x12e;" horiz-adv-x="484" 
d="M120 0v1400h244v-1400h-244zM240 0h124q-55 -52 -94.5 -103.5t-39.5 -104.5q0 -46 26 -69t68 -23q29 0 53.5 7t48.5 17l34 -110q-28 -15 -66.5 -25.5t-91.5 -10.5q-85 0 -142.5 44t-57.5 128q0 77 41.5 136.5t96.5 113.5z" />
    <glyph glyph-name="iogonek" unicode="&#x12f;" horiz-adv-x="416" 
d="M88 0v1000h240v-1000h-240zM88 1152v248h240v-248h-240zM204 0h124q-55 -52 -94.5 -103.5t-39.5 -104.5q0 -46 26 -69t68 -23q29 0 53.5 7t48.5 17l34 -110q-28 -15 -66.5 -25.5t-91.5 -10.5q-85 0 -142.5 44t-57.5 128q0 77 41.5 136.5t96.5 113.5z" />
    <glyph glyph-name="Idotaccent" unicode="&#x130;" horiz-adv-x="484" 
d="M120 0v1400h244v-1400h-244zM142 1584v194h200v-194h-200z" />
    <glyph glyph-name="dotlessi" unicode="&#x131;" horiz-adv-x="414" 
d="M88 0v1000h238v-1000h-238z" />
    <glyph glyph-name="IJ" unicode="&#x132;" horiz-adv-x="1200" 
d="M370 486q8 -80 32 -140.5t71.5 -94t126.5 -33.5q74 0 120 28.5t71.5 80.5t35 123t9.5 156v794h244v-860q0 -172 -52 -299.5t-158.5 -198t-269.5 -70.5q-222 0 -339 129.5t-137 348.5zM120 666v734h244v-734h-244z" />
    <glyph glyph-name="ij" unicode="&#x133;" horiz-adv-x="832" 
d="M88 0v1000h240v-1000h-240zM88 1152v248h240v-248h-240zM430 -484l-20 204q33 0 53.5 12t30.5 39t10 73v1156h240v-1222q0 -87 -26 -145t-81.5 -87.5t-144.5 -29.5h-62zM504 1152v248h240v-248h-240z" />
    <glyph glyph-name="Jcircumflex" unicode="&#x134;" horiz-adv-x="484" 
d="M10 -344l-18 216q66 0 95 29.5t29 96.5v1402h244v-1448q0 -153 -85 -224.5t-223 -71.5h-42zM-6 1490v148l244 172l244 -172v-148l-244 132z" />
    <glyph glyph-name="jcircumflex" unicode="&#x135;" horiz-adv-x="416" 
d="M14 -484l-20 204q33 0 53.5 12t30.5 39t10 73v1156h240v-1222q0 -87 -26 -145t-81.5 -87.5t-144.5 -29.5h-62zM-16 1128v158l224 190l224 -190v-158l-224 140z" />
    <glyph glyph-name="uni0136" unicode="&#x136;" horiz-adv-x="1052" 
d="M784 0l-422 740l422 660h288l-434 -660l434 -740h-288zM108 0v1400h244v-1400h-244zM540 -596h-92l86 220h-66v194h200v-170z" />
    <glyph glyph-name="uni0137" unicode="&#x137;" horiz-adv-x="844" 
d="M84 0v1500h240v-900l246 400h272l-296 -472l304 -528h-272l-254 454v-454h-240zM424 -596h-92l86 220h-66v194h200v-170z" />
    <glyph glyph-name="kgreenlandic" unicode="&#x138;" horiz-adv-x="956" 
d="M100 0v1000h240v-416l318 416h290l-388 -488l388 -512h-290l-318 438v-438h-240z" />
    <glyph glyph-name="Lacute" unicode="&#x139;" horiz-adv-x="860" 
d="M132 0v1400h244v-1176h472v-224h-716zM98 1518v138l314 160v-206z" />
    <glyph glyph-name="lacute" unicode="&#x13a;" horiz-adv-x="456" 
d="M312 -20q-75 0 -123.5 32.5t-72.5 91.5t-24 138v1258h240v-1176q0 -54 6.5 -84.5t26 -43t57.5 -12.5l-20 -204h-90zM56 1618v138l314 160v-206z" />
    <glyph glyph-name="uni013B" unicode="&#x13b;" horiz-adv-x="860" 
d="M132 0v1400h244v-1176h472v-224h-716zM462 -596h-92l86 220h-66v194h200v-170z" />
    <glyph glyph-name="uni013C" unicode="&#x13c;" horiz-adv-x="456" 
d="M312 -20q-75 0 -123.5 32.5t-72.5 91.5t-24 138v1258h240v-1176q0 -54 6.5 -84.5t26 -43t57.5 -12.5l-20 -204h-90zM244 -596h-92l86 220h-66v194h200v-170z" />
    <glyph glyph-name="Lcaron" unicode="&#x13d;" horiz-adv-x="860" 
d="M132 0v1400h244v-1176h472v-224h-716zM658 1046v354h190l-58 -354h-132z" />
    <glyph glyph-name="lcaron" unicode="&#x13e;" horiz-adv-x="582" 
d="M312 -20q-75 0 -123.5 32.5t-72.5 91.5t-24 138v1258h240v-1176q0 -54 6.5 -84.5t26 -43t57.5 -12.5l-20 -204h-90zM412 1146v354h190l-58 -354h-132z" />
    <glyph glyph-name="Ldot" unicode="&#x13f;" horiz-adv-x="860" 
d="M132 0v1400h244v-1176h472v-224h-716zM560 654v260h248v-260h-248z" />
    <glyph glyph-name="ldot" unicode="&#x140;" horiz-adv-x="640" 
d="M312 -20q-75 0 -123.5 32.5t-72.5 91.5t-24 138v1258h240v-1176q0 -54 6.5 -84.5t26 -43t57.5 -12.5l-20 -204h-90zM428 710v240h208v-240h-208z" />
    <glyph glyph-name="Lslash" unicode="&#x141;" horiz-adv-x="878" 
d="M150 0v1400h244v-1176h472v-224h-716zM40 704v200l676 184v-200z" />
    <glyph glyph-name="lslash" unicode="&#x142;" horiz-adv-x="474" 
d="M308 -20q-75 0 -123.5 32.5t-72.5 91.5t-24 138v1258h240v-1176q0 -54 6.5 -84.5t26 -43t57.5 -12.5l-20 -204h-90zM-20 760v174l478 134v-174z" />
    <glyph glyph-name="Nacute" unicode="&#x143;" horiz-adv-x="1222" 
d="M132 0v1400h250l464 -876v876h244v-1400h-214l-500 932v-932h-244zM458 1518v138l314 160v-206z" />
    <glyph glyph-name="nacute" unicode="&#x144;" horiz-adv-x="962" 
d="M100 0v1000h208l16 -132h-54q53 71 121.5 109.5t170.5 38.5q155 0 231.5 -102t76.5 -264v-650h-240v618q0 95 -32 148.5t-104 53.5q-69 0 -115.5 -42t-76.5 -116l38 152v-814h-240zM344 1136v158l314 192v-230z" />
    <glyph glyph-name="uni0145" unicode="&#x145;" horiz-adv-x="1222" 
d="M132 0v1400h250l464 -876v876h244v-1400h-214l-500 932v-932h-244zM598 -596h-92l86 220h-66v194h200v-170z" />
    <glyph glyph-name="uni0146" unicode="&#x146;" horiz-adv-x="962" 
d="M100 0v1000h208l16 -132h-54q53 71 121.5 109.5t170.5 38.5q155 0 231.5 -102t76.5 -264v-650h-240v618q0 95 -32 148.5t-104 53.5q-69 0 -115.5 -42t-76.5 -116l38 152v-814h-240zM462 -596h-92l86 220h-66v194h200v-170z" />
    <glyph glyph-name="Ncaron" unicode="&#x147;" horiz-adv-x="1222" 
d="M132 0v1400h250l464 -876v876h244v-1400h-214l-500 932v-932h-244zM370 1880v-148l244 -172l244 172v148l-244 -132z" />
    <glyph glyph-name="ncaron" unicode="&#x148;" horiz-adv-x="962" 
d="M100 0v1000h208l16 -132h-54q53 71 121.5 109.5t170.5 38.5q155 0 231.5 -102t76.5 -264v-650h-240v618q0 95 -32 148.5t-104 53.5q-69 0 -115.5 -42t-76.5 -116l38 152v-814h-240zM500 1108l-224 188v158l224 -140l224 140v-158z" />
    <glyph glyph-name="napostrophe" unicode="&#x149;" horiz-adv-x="1274" 
d="M192 986h-92l86 220h-66v194h200v-170zM412 0v1000h208l16 -132h-54q53 71 121.5 109.5t170.5 38.5q155 0 231.5 -102t76.5 -264v-650h-240v618q0 95 -32 148.5t-104 53.5q-69 0 -115.5 -42t-76.5 -116l38 152v-814h-240z" />
    <glyph glyph-name="Eng" unicode="&#x14a;" horiz-adv-x="1306" 
d="M1186 100q0 -173 -64.5 -286t-178 -168.5t-259.5 -55.5q-91 0 -172 24l26 214q36 -7 73.5 -10.5t74.5 -3.5q116 0 186 67.5t70 202.5v712q0 197 -73 302.5t-217 105.5q-100 0 -172 -39.5t-116 -104.5v-1060h-244v1400h206l12 -134q72 80 169.5 121t206.5 41
q158 0 263 -74t157 -207.5t52 -310.5v-736z" />
    <glyph glyph-name="eng" unicode="&#x14b;" horiz-adv-x="982" 
d="M890 20q0 -127 -49 -211t-134.5 -125.5t-194.5 -41.5q-42 0 -83 6t-79 16l26 192q57 -18 114 -18q68 0 110 40.5t42 121.5v618q0 104 -32 153t-104 49q-55 0 -95.5 -22.5t-70.5 -63.5v-734h-240v1000h209l9 -78q50 39 113.5 66.5t142.5 27.5q161 0 238.5 -105.5
t77.5 -272.5v-618z" />
    <glyph glyph-name="Omacron" unicode="&#x14c;" horiz-adv-x="1308" 
d="M654 -28q-172 0 -306 90.5t-211 254t-77 383.5t77 383.5t211 254t306 90.5q173 0 307 -90.5t210.5 -254t76.5 -383.5t-76.5 -383.5t-211 -254t-306.5 -90.5zM654 218q111 0 185.5 62t111.5 171t37 249t-37 249t-111.5 171t-185.5 62t-185 -62t-111.5 -171t-37.5 -249
t37.5 -249t112 -171t184.5 -62zM346 1586v144h616v-144h-616z" />
    <glyph glyph-name="omacron" unicode="&#x14d;" horiz-adv-x="982" 
d="M490 -20q-140 0 -239 71t-151 189t-52 258t52 258t151 189t239 71t239.5 -71t152 -189t52.5 -258t-52.5 -258t-152 -189t-239.5 -71zM490 176q96 0 148 90t52 233q0 142 -52 231.5t-148 89.5q-93 0 -145.5 -89.5t-52.5 -232.5q0 -142 52.5 -232t145.5 -90zM204 1206v154
h576v-154h-576z" />
    <glyph glyph-name="Obreve" unicode="&#x14e;" horiz-adv-x="1308" 
d="M654 -28q-172 0 -306 90.5t-211 254t-77 383.5t77 383.5t211 254t306 90.5q173 0 307 -90.5t210.5 -254t76.5 -383.5t-76.5 -383.5t-211 -254t-306.5 -90.5zM654 218q111 0 185.5 62t111.5 171t37 249t-37 249t-111.5 171t-185.5 62t-185 -62t-111.5 -171t-37.5 -249
t37.5 -249t112 -171t184.5 -62zM654 1530q-89 0 -153.5 35t-99.5 92.5t-35 126.5h170q0 -57 32 -87.5t86 -30.5t86 30.5t32 87.5h170q0 -69 -34.5 -126.5t-99 -92.5t-154.5 -35z" />
    <glyph glyph-name="obreve" unicode="&#x14f;" horiz-adv-x="982" 
d="M490 -20q-140 0 -239 71t-151 189t-52 258t52 258t151 189t239 71t239.5 -71t152 -189t52.5 -258t-52.5 -258t-152 -189t-239.5 -71zM490 176q96 0 148 90t52 233q0 142 -52 231.5t-148 89.5q-93 0 -145.5 -89.5t-52.5 -232.5q0 -142 52.5 -232t145.5 -90zM493 1174
q-87 0 -149.5 35.5t-96 95t-33.5 131.5h162q0 -55 29.5 -86.5t86.5 -31.5t86.5 31.5t29.5 86.5h162q0 -72 -33 -131.5t-95.5 -95t-148.5 -35.5z" />
    <glyph glyph-name="Ohungarumlaut" unicode="&#x150;" horiz-adv-x="1308" 
d="M654 -28q-172 0 -306 90.5t-211 254t-77 383.5t77 383.5t211 254t306 90.5q173 0 307 -90.5t210.5 -254t76.5 -383.5t-76.5 -383.5t-211 -254t-306.5 -90.5zM654 218q111 0 185.5 62t111.5 171t37 249t-37 249t-111.5 171t-185.5 62t-185 -62t-111.5 -171t-37.5 -249
t37.5 -249t112 -171t184.5 -62zM428 1576l112 314h222l-184 -314h-150zM714 1576l128 314h222l-200 -314h-150z" />
    <glyph glyph-name="ohungarumlaut" unicode="&#x151;" horiz-adv-x="982" 
d="M490 -20q-140 0 -239 71t-151 189t-52 258t52 258t151 189t239 71t239.5 -71t152 -189t52.5 -258t-52.5 -258t-152 -189t-239.5 -71zM490 176q96 0 148 90t52 233q0 142 -52 231.5t-148 89.5q-93 0 -145.5 -89.5t-52.5 -232.5q0 -142 52.5 -232t145.5 -90zM564 1176
l128 354h218l-200 -354h-146zM270 1176l112 354h218l-184 -354h-146z" />
    <glyph glyph-name="OE" unicode="&#x152;" horiz-adv-x="1862" 
d="M634 -28q-166 0 -295.5 90.5t-204 254t-74.5 383.5t74.5 383.5t204 254t295.5 90.5q128 0 233 -57t181 -157t117 -232t41 -282t-41 -282t-117 -232t-181 -157t-233 -57zM654 218q108 0 180.5 62t109 171t36.5 249t-36.5 249t-109 171t-180.5 62t-180.5 -62t-109 -171
t-36.5 -249t36.5 -249t109 -171t180.5 -62zM1000 0v1400h786v-248h-534v-298h410v-248h-410v-358h552v-248h-804z" />
    <glyph glyph-name="oe" unicode="&#x153;" horiz-adv-x="1544" 
d="M490 -20q-140 0 -239 71t-151 189t-52 258t52 258t151 189t239 71q125 0 216.5 -67t145.5 -175h-80q53 108 146.5 175t223.5 67q112 0 190.5 -51.5t120 -146t41.5 -222.5q0 -40 -4 -75.5t-12 -74.5h-538q11 -92 43.5 -150t86.5 -85t126 -27q78 0 142 24.5t112 57.5
l6 -210q-49 -30 -123.5 -53t-166.5 -23q-141 0 -238.5 66.5t-151.5 177.5l78 2q-52 -109 -145 -177.5t-219 -68.5zM490 184q95 0 146.5 87.5t51.5 226.5q0 140 -51.5 227t-146.5 87q-93 0 -145.5 -87t-52.5 -227q0 -139 52.5 -226.5t145.5 -87.5zM942 614h310
q0 45 -11.5 90.5t-40 76.5t-80.5 31q-74 0 -119 -54t-59 -144z" />
    <glyph glyph-name="Racute" unicode="&#x154;" horiz-adv-x="1074" 
d="M122 0v1400h408q140 0 245.5 -44t164 -139t58.5 -249q0 -132 -52.5 -228.5t-145.5 -152.5l268 -587h-274l-228 520h-11h-11h-178v-520h-244zM366 732h142q113 0 175.5 52.5t62.5 175.5t-62.5 175.5t-175.5 52.5h-142v-456zM382 1518v138l314 160v-206z" />
    <glyph glyph-name="racute" unicode="&#x155;" horiz-adv-x="574" 
d="M90 0v1000h210l16 -106q51 57 100.5 89.5t119.5 32.5q28 0 52 -6l-18 -242q-13 5 -28 7.5t-36 2.5q-49 0 -88.5 -24t-87.5 -72v-682h-240zM196 1156v158l314 192v-230z" />
    <glyph glyph-name="uni0156" unicode="&#x156;" horiz-adv-x="1074" 
d="M122 0v1400h408q140 0 245.5 -44t164 -139t58.5 -249q0 -132 -52.5 -228.5t-145.5 -152.5l268 -587h-274l-228 520h-11h-11h-178v-520h-244zM366 732h142q113 0 175.5 52.5t62.5 175.5t-62.5 175.5t-175.5 52.5h-142v-456zM552 -596h-92l86 220h-66v194h200v-170z" />
    <glyph glyph-name="uni0157" unicode="&#x157;" horiz-adv-x="574" 
d="M90 0v1000h210l16 -106q51 57 100.5 89.5t119.5 32.5q28 0 52 -6l-18 -242q-13 5 -28 7.5t-36 2.5q-49 0 -88.5 -24t-87.5 -72v-682h-240zM182 -596h-92l86 220h-66v194h200v-170z" />
    <glyph glyph-name="Rcaron" unicode="&#x158;" horiz-adv-x="1074" 
d="M122 0v1400h408q140 0 245.5 -44t164 -139t58.5 -249q0 -132 -52.5 -228.5t-145.5 -152.5l268 -587h-274l-228 520h-11h-11h-178v-520h-244zM366 732h142q113 0 175.5 52.5t62.5 175.5t-62.5 175.5t-175.5 52.5h-142v-456zM294 1880v-148l244 -172l244 172v148l-244 -132
z" />
    <glyph glyph-name="rcaron" unicode="&#x159;" horiz-adv-x="574" 
d="M90 0v1000h210l16 -106q51 57 100.5 89.5t119.5 32.5q28 0 52 -6l-18 -242q-13 5 -28 7.5t-36 2.5q-49 0 -88.5 -24t-87.5 -72v-682h-240zM352 1128l-224 188v158l224 -140l224 140v-158z" />
    <glyph glyph-name="Sacute" unicode="&#x15a;" horiz-adv-x="1014" 
d="M484 -28q-72 0 -144 10.5t-138 29.5t-120 46l30 272q64 -35 127.5 -60t128 -38.5t132.5 -13.5q95 0 149.5 38.5t54.5 111.5q0 54 -27 94t-89 77.5t-166 84.5q-111 50 -187 104.5t-114.5 126.5t-38.5 175q0 115 55.5 205t160.5 141.5t254 51.5q105 0 195 -23t169 -59
l-26 -264q-97 48 -183 74t-175 26q-91 0 -140.5 -35.5t-49.5 -106.5q0 -57 34 -94.5t97 -70.5t151 -75q112 -54 187.5 -112t114 -132.5t38.5 -177.5q0 -92 -32.5 -167t-94.5 -128.5t-151 -82t-202 -28.5zM386 1518v138l314 160v-206z" />
    <glyph glyph-name="sacute" unicode="&#x15b;" horiz-adv-x="738" 
d="M344 -20q-84 0 -151 18t-135 52l22 212q62 -42 124 -69t122 -27q68 0 104 26t36 72q0 32 -14.5 56t-50 47t-97.5 53q-76 37 -130 76.5t-83 93.5t-29 136q0 85 41.5 150.5t117.5 102.5t181 37q80 0 144 -20.5t118 -53.5l-22 -206q-52 45 -105.5 73.5t-118.5 28.5
q-57 0 -92.5 -24.5t-35.5 -71.5q0 -51 45 -81.5t141 -80.5q53 -27 94 -56.5t68.5 -65.5t41.5 -81t14 -103q0 -92 -43.5 -158t-122.5 -101t-184 -35zM240 1156v158l314 192v-230z" />
    <glyph glyph-name="Scircumflex" unicode="&#x15c;" horiz-adv-x="1014" 
d="M484 -28q-72 0 -144 10.5t-138 29.5t-120 46l30 272q64 -35 127.5 -60t128 -38.5t132.5 -13.5q95 0 149.5 38.5t54.5 111.5q0 54 -27 94t-89 77.5t-166 84.5q-111 50 -187 104.5t-114.5 126.5t-38.5 175q0 115 55.5 205t160.5 141.5t254 51.5q105 0 195 -23t169 -59
l-26 -264q-97 48 -183 74t-175 26q-91 0 -140.5 -35.5t-49.5 -106.5q0 -57 34 -94.5t97 -70.5t151 -75q112 -54 187.5 -112t114 -132.5t38.5 -177.5q0 -92 -32.5 -167t-94.5 -128.5t-151 -82t-202 -28.5zM298 1490v148l244 172l244 -172v-148l-244 132z" />
    <glyph glyph-name="scircumflex" unicode="&#x15d;" horiz-adv-x="738" 
d="M344 -20q-84 0 -151 18t-135 52l22 212q62 -42 124 -69t122 -27q68 0 104 26t36 72q0 32 -14.5 56t-50 47t-97.5 53q-76 37 -130 76.5t-83 93.5t-29 136q0 85 41.5 150.5t117.5 102.5t181 37q80 0 144 -20.5t118 -53.5l-22 -206q-52 45 -105.5 73.5t-118.5 28.5
q-57 0 -92.5 -24.5t-35.5 -71.5q0 -51 45 -81.5t141 -80.5q53 -27 94 -56.5t68.5 -65.5t41.5 -81t14 -103q0 -92 -43.5 -158t-122.5 -101t-184 -35zM172 1128v158l224 190l224 -190v-158l-224 140z" />
    <glyph glyph-name="Scedilla" unicode="&#x15e;" horiz-adv-x="1014" 
d="M484 -28q-72 0 -144 10.5t-138 29.5t-120 46l30 272q64 -35 127.5 -60t128 -38.5t132.5 -13.5q95 0 149.5 38.5t54.5 111.5q0 54 -27 94t-89 77.5t-166 84.5q-111 50 -187 104.5t-114.5 126.5t-38.5 175q0 115 55.5 205t160.5 141.5t254 51.5q105 0 195 -23t169 -59
l-26 -264q-97 48 -183 74t-175 26q-91 0 -140.5 -35.5t-49.5 -106.5q0 -57 34 -94.5t97 -70.5t151 -75q112 -54 187.5 -112t114 -132.5t38.5 -177.5q0 -92 -32.5 -167t-94.5 -128.5t-151 -82t-202 -28.5zM560 -158l-62 34q17 5 33.5 7.5t34.5 2.5q78 0 123 -44t45 -124
q0 -97 -60.5 -146.5t-147.5 -49.5q-46 0 -81.5 8t-62.5 18l38 110q23 -9 48 -15.5t52 -6.5q44 0 69 19.5t25 56.5q0 38 -22 57t-64 19q-21 0 -40.5 -4t-39.5 -10l56 226h104z" />
    <glyph glyph-name="scedilla" unicode="&#x15f;" horiz-adv-x="738" 
d="M344 -20q-84 0 -151 18t-135 52l22 212q62 -42 124 -69t122 -27q68 0 104 26t36 72q0 32 -14.5 56t-50 47t-97.5 53q-76 37 -130 76.5t-83 93.5t-29 136q0 85 41.5 150.5t117.5 102.5t181 37q80 0 144 -20.5t118 -53.5l-22 -206q-52 45 -105.5 73.5t-118.5 28.5
q-57 0 -92.5 -24.5t-35.5 -71.5q0 -51 45 -81.5t141 -80.5q53 -27 94 -56.5t68.5 -65.5t41.5 -81t14 -103q0 -92 -43.5 -158t-122.5 -101t-184 -35zM380 -158l-62 34q17 5 33.5 7.5t34.5 2.5q78 0 123 -44t45 -124q0 -97 -60.5 -146.5t-147.5 -49.5q-46 0 -81.5 8t-62.5 18
l38 110q23 -9 48 -15.5t52 -6.5q44 0 69 19.5t25 56.5q0 38 -22 57t-64 19q-21 0 -40.5 -4t-39.5 -10l56 226h104z" />
    <glyph glyph-name="Scaron" unicode="&#x160;" horiz-adv-x="1014" 
d="M484 -28q-72 0 -144 10.5t-138 29.5t-120 46l30 272q64 -35 127.5 -60t128 -38.5t132.5 -13.5q95 0 149.5 38.5t54.5 111.5q0 54 -27 94t-89 77.5t-166 84.5q-111 50 -187 104.5t-114.5 126.5t-38.5 175q0 115 55.5 205t160.5 141.5t254 51.5q105 0 195 -23t169 -59
l-26 -264q-97 48 -183 74t-175 26q-91 0 -140.5 -35.5t-49.5 -106.5q0 -57 34 -94.5t97 -70.5t151 -75q112 -54 187.5 -112t114 -132.5t38.5 -177.5q0 -92 -32.5 -167t-94.5 -128.5t-151 -82t-202 -28.5zM298 1880v-148l244 -172l244 172v148l-244 -132z" />
    <glyph glyph-name="scaron" unicode="&#x161;" horiz-adv-x="738" 
d="M344 -20q-84 0 -151 18t-135 52l22 212q62 -42 124 -69t122 -27q68 0 104 26t36 72q0 32 -14.5 56t-50 47t-97.5 53q-76 37 -130 76.5t-83 93.5t-29 136q0 85 41.5 150.5t117.5 102.5t181 37q80 0 144 -20.5t118 -53.5l-22 -206q-52 45 -105.5 73.5t-118.5 28.5
q-57 0 -92.5 -24.5t-35.5 -71.5q0 -51 45 -81.5t141 -80.5q53 -27 94 -56.5t68.5 -65.5t41.5 -81t14 -103q0 -92 -43.5 -158t-122.5 -101t-184 -35zM396 1128l-224 188v158l224 -140l224 140v-158z" />
    <glyph glyph-name="uni0162" unicode="&#x162;" horiz-adv-x="952" 
d="M354 0v1176h-336v224h916v-224h-336v-1176h-244zM502 -158l-62 34q17 5 33.5 7.5t34.5 2.5q78 0 123 -44t45 -124q0 -97 -60.5 -146.5t-147.5 -49.5q-46 0 -81.5 8t-62.5 18l38 110q23 -9 48 -15.5t52 -6.5q44 0 69 19.5t25 56.5q0 38 -22 57t-64 19q-21 0 -40.5 -4
t-39.5 -10l56 226h104z" />
    <glyph glyph-name="uni0163" unicode="&#x163;" horiz-adv-x="598" 
d="M380 -20q-75 0 -127.5 29.5t-80.5 87.5t-28 145v554h-112l22 204h90v220l240 26v-246h174v-204h-174v-492q0 -41 11 -67.5t34 -39.5t59 -13h72l-22 -204h-158zM392 -158l-62 34q17 5 33.5 7.5t34.5 2.5q78 0 123 -44t45 -124q0 -97 -60.5 -146.5t-147.5 -49.5
q-46 0 -81.5 8t-62.5 18l38 110q23 -9 48 -15.5t52 -6.5q44 0 69 19.5t25 56.5q0 38 -22 57t-64 19q-21 0 -40.5 -4t-39.5 -10l56 226h104z" />
    <glyph glyph-name="Tcaron" unicode="&#x164;" horiz-adv-x="952" 
d="M354 0v1176h-336v224h916v-224h-336v-1176h-244zM476 1528l-224 188v158l224 -140l224 140v-158z" />
    <glyph glyph-name="tcaron" unicode="&#x165;" horiz-adv-x="598" 
d="M380 -20q-75 0 -127.5 29.5t-80.5 87.5t-28 145v554h-112l22 204h90v220l240 26v-246h174v-204h-174v-492q0 -41 11 -67.5t34 -39.5t59 -13h72l-22 -204h-158zM450 1090v354h190l-58 -354h-132z" />
    <glyph glyph-name="Tbar" unicode="&#x166;" horiz-adv-x="952" 
d="M354 0v1176h-336v224h916v-224h-336v-1176h-244zM94 612v166h764v-166h-764z" />
    <glyph glyph-name="tbar" unicode="&#x167;" horiz-adv-x="598" 
d="M380 -20q-75 0 -127.5 29.5t-80.5 87.5t-28 145v554h-112l22 204h90v220l240 26v-246h174v-204h-174v-492q0 -41 11 -67.5t34 -39.5t59 -13h72l-22 -204h-158zM32 448v166h516v-166h-516z" />
    <glyph glyph-name="Utilde" unicode="&#x168;" horiz-adv-x="1240" 
d="M620 -28q-170 0 -281 70.5t-165 198t-54 299.5v860h244v-794q0 -85 11 -156t38.5 -123t77.5 -80.5t129 -28.5q80 0 130 28.5t77.5 80.5t38 123t10.5 156v794h244v-860q0 -172 -54 -299.5t-165 -198t-281 -70.5zM776 1554q-46 0 -90 20t-84 40t-74 20q-58 0 -58 -66h-152
q0 102 37 156t113 54q46 0 90 -20t84 -40t74 -20q58 0 58 66h152q0 -100 -36.5 -155t-113.5 -55z" />
    <glyph glyph-name="utilde" unicode="&#x169;" horiz-adv-x="936" 
d="M400 -16q-103 0 -171.5 46.5t-102.5 129t-34 190.5v650h240v-618q0 -94 32 -148t104 -54q69 0 115.5 42.5t76.5 115.5l-38 -152v814h240v-1000h-208l-16 132h54q-52 -70 -121 -109t-171 -39zM616 1156q-51 0 -88 22t-68.5 44t-65.5 22q-56 0 -56 -72h-162
q5 117 46.5 179.5t117.5 62.5q51 0 88 -22t68.5 -44t65.5 -22q56 0 56 72h162q-4 -117 -45.5 -179.5t-118.5 -62.5z" />
    <glyph glyph-name="Umacron" unicode="&#x16a;" horiz-adv-x="1240" 
d="M620 -28q-170 0 -281 70.5t-165 198t-54 299.5v860h244v-794q0 -85 11 -156t38.5 -123t77.5 -80.5t129 -28.5q80 0 130 28.5t77.5 80.5t38 123t10.5 156v794h244v-860q0 -172 -54 -299.5t-165 -198t-281 -70.5zM314 1586v144h616v-144h-616z" />
    <glyph glyph-name="umacron" unicode="&#x16b;" horiz-adv-x="936" 
d="M400 -16q-103 0 -171.5 46.5t-102.5 129t-34 190.5v650h240v-618q0 -94 32 -148t104 -54q69 0 115.5 42.5t76.5 115.5l-38 -152v814h240v-1000h-208l-16 132h54q-52 -70 -121 -109t-171 -39zM190 1206v154h576v-154h-576z" />
    <glyph glyph-name="Ubreve" unicode="&#x16c;" horiz-adv-x="1240" 
d="M620 -28q-170 0 -281 70.5t-165 198t-54 299.5v860h244v-794q0 -85 11 -156t38.5 -123t77.5 -80.5t129 -28.5q80 0 130 28.5t77.5 80.5t38 123t10.5 156v794h244v-860q0 -172 -54 -299.5t-165 -198t-281 -70.5zM622 1530q-89 0 -153.5 35t-99.5 92.5t-35 126.5h170
q0 -57 32 -87.5t86 -30.5t86 30.5t32 87.5h170q0 -69 -34.5 -126.5t-99 -92.5t-154.5 -35z" />
    <glyph glyph-name="ubreve" unicode="&#x16d;" horiz-adv-x="936" 
d="M400 -16q-103 0 -171.5 46.5t-102.5 129t-34 190.5v650h240v-618q0 -94 32 -148t104 -54q69 0 115.5 42.5t76.5 115.5l-38 -152v814h240v-1000h-208l-16 132h54q-52 -70 -121 -109t-171 -39zM479 1174q-87 0 -149.5 35.5t-96 95t-33.5 131.5h162q0 -55 29.5 -86.5
t86.5 -31.5t86.5 31.5t29.5 86.5h162q0 -72 -33 -131.5t-95.5 -95t-148.5 -35.5z" />
    <glyph glyph-name="Uring" unicode="&#x16e;" horiz-adv-x="1240" 
d="M620 -28q-170 0 -281 70.5t-165 198t-54 299.5v860h244v-794q0 -85 11 -156t38.5 -123t77.5 -80.5t129 -28.5q80 0 130 28.5t77.5 80.5t38 123t10.5 156v794h244v-860q0 -172 -54 -299.5t-165 -198t-281 -70.5zM622 1508q-87 0 -137.5 57.5t-50.5 136.5q0 80 50.5 138
t137.5 58q89 0 138.5 -58t49.5 -138q0 -79 -49.5 -136.5t-138.5 -57.5zM622 1612q35 0 55.5 25t20.5 65q0 39 -20.5 64.5t-55.5 25.5q-34 0 -55 -25.5t-21 -64.5q0 -40 21 -65t55 -25z" />
    <glyph glyph-name="uring" unicode="&#x16f;" horiz-adv-x="936" 
d="M400 -16q-103 0 -171.5 46.5t-102.5 129t-34 190.5v650h240v-618q0 -94 32 -148t104 -54q69 0 115.5 42.5t76.5 115.5l-38 -152v814h240v-1000h-208l-16 132h54q-52 -70 -121 -109t-171 -39zM478 1140q-93 0 -140.5 57.5t-47.5 136.5q0 80 47.5 138t140.5 58
q95 0 141.5 -58t46.5 -138q0 -79 -46.5 -136.5t-141.5 -57.5zM478 1240q36 0 54 26t18 68q0 41 -18 67.5t-54 26.5t-54 -26.5t-18 -67.5q0 -42 18 -68t54 -26z" />
    <glyph glyph-name="Uhungarumlaut" unicode="&#x170;" horiz-adv-x="1240" 
d="M620 -28q-170 0 -281 70.5t-165 198t-54 299.5v860h244v-794q0 -85 11 -156t38.5 -123t77.5 -80.5t129 -28.5q80 0 130 28.5t77.5 80.5t38 123t10.5 156v794h244v-860q0 -172 -54 -299.5t-165 -198t-281 -70.5zM396 1576l112 314h222l-184 -314h-150zM682 1576l128 314
h222l-200 -314h-150z" />
    <glyph glyph-name="uhungarumlaut" unicode="&#x171;" horiz-adv-x="936" 
d="M400 -16q-103 0 -171.5 46.5t-102.5 129t-34 190.5v650h240v-618q0 -94 32 -148t104 -54q69 0 115.5 42.5t76.5 115.5l-38 -152v814h240v-1000h-208l-16 132h54q-52 -70 -121 -109t-171 -39zM550 1176l128 354h218l-200 -354h-146zM256 1176l112 354h218l-184 -354h-146z
" />
    <glyph glyph-name="Uogonek" unicode="&#x172;" horiz-adv-x="1240" 
d="M620 -28q-170 0 -281 70.5t-165 198t-54 299.5v860h244v-794q0 -85 11 -156t38.5 -123t77.5 -80.5t129 -28.5q80 0 130 28.5t77.5 80.5t38 123t10.5 156v794h244v-860q0 -172 -54 -299.5t-165 -198t-281 -70.5zM654 0h124q-55 -52 -94.5 -103.5t-39.5 -104.5
q0 -46 26 -69t68 -23q29 0 53.5 7t48.5 17l34 -110q-28 -15 -66.5 -25.5t-91.5 -10.5q-85 0 -142.5 44t-57.5 128q0 77 41.5 136.5t96.5 113.5z" />
    <glyph glyph-name="uogonek" unicode="&#x173;" horiz-adv-x="936" 
d="M400 -16q-103 0 -171.5 46.5t-102.5 129t-34 190.5v650h240v-618q0 -94 32 -148t104 -54q69 0 115.5 42.5t76.5 115.5l-38 -152v814h240v-1000h-208l-16 132h54q-52 -70 -121 -109t-171 -39zM738 0h124q-55 -52 -94.5 -103.5t-39.5 -104.5q0 -46 26 -69t68 -23
q29 0 53.5 7t48.5 17l34 -110q-28 -15 -66.5 -25.5t-91.5 -10.5q-85 0 -142.5 44t-57.5 128q0 77 41.5 136.5t96.5 113.5z" />
    <glyph glyph-name="Wcircumflex" unicode="&#x174;" horiz-adv-x="1620" 
d="M308 0l-312 1400h244l204 -1034l236 1008h260l236 -1008l204 1034h244l-312 -1400h-260l-242 1008l-242 -1008h-260zM566 1490v148l244 172l244 -172v-148l-244 132z" />
    <glyph glyph-name="wcircumflex" unicode="&#x175;" horiz-adv-x="1258" 
d="M284 0l-280 1000h242l146 -680l138 660h200l144 -660l138 680h242l-278 -1000h-206l-140 644l-140 -644h-206zM406 1128v158l224 190l224 -190v-158l-224 140z" />
    <glyph glyph-name="Ycircumflex" unicode="&#x176;" horiz-adv-x="1050" 
d="M404 0v620l-420 780h260l334 -654h-102l330 654h260l-420 -780v-620h-242zM282 1490v148l244 172l244 -172v-148l-244 132z" />
    <glyph glyph-name="ycircumflex" unicode="&#x177;" horiz-adv-x="958" 
d="M150 -484l208 530l-342 954h250l212 -680l212 680h250l-546 -1484h-244zM258 1128v158l224 190l224 -190v-158l-224 140z" />
    <glyph glyph-name="Ydieresis" unicode="&#x178;" horiz-adv-x="1050" 
d="M404 0v620l-420 780h260l334 -654h-102l330 654h260l-420 -780v-620h-242zM268 1566v172h184v-172h-184zM600 1566v172h184v-172h-184z" />
    <glyph glyph-name="Zacute" unicode="&#x179;" horiz-adv-x="954" 
d="M14 0l602 1256l48 -80h-570v224h836l-598 -1256l-48 80h654v-224h-924zM356 1518v138l314 160v-206z" />
    <glyph glyph-name="zacute" unicode="&#x17a;" horiz-adv-x="802" 
d="M36 0l432 880v-82h-406v202h710l-432 -880l-10 82h430v-202h-724zM262 1156v158l314 192v-230z" />
    <glyph glyph-name="Zdotaccent" unicode="&#x17b;" horiz-adv-x="954" 
d="M14 0l602 1256l48 -80h-570v224h836l-598 -1256l-48 80h654v-224h-924zM412 1584v194h200v-194h-200z" />
    <glyph glyph-name="zdotaccent" unicode="&#x17c;" horiz-adv-x="802" 
d="M36 0l432 880v-82h-406v202h710l-432 -880l-10 82h430v-202h-724zM322 1204v194h192v-194h-192z" />
    <glyph glyph-name="Zcaron" unicode="&#x17d;" horiz-adv-x="954" 
d="M14 0l602 1256l48 -80h-570v224h836l-598 -1256l-48 80h654v-224h-924zM268 1880v-148l244 -172l244 172v148l-244 -132z" />
    <glyph glyph-name="zcaron" unicode="&#x17e;" horiz-adv-x="802" 
d="M36 0l432 880v-82h-406v202h710l-432 -880l-10 82h430v-202h-724zM418 1128l-224 188v158l224 -140l224 140v-158z" />
    <glyph glyph-name="uni018F" unicode="&#x18f;" horiz-adv-x="1188" 
d="M868 684q0 233 -81 365.5t-281 132.5q-93 0 -179 -25t-169 -67l-16 240q89 45 191.5 71.5t234.5 26.5q179 0 304 -95.5t190.5 -264t65.5 -388.5q0 -165 -38 -296t-109 -223t-171.5 -140.5t-225.5 -48.5q-167 0 -284 73.5t-178.5 207.5t-61.5 315q0 41 3.5 88t12.5 96h902
v-228h-660q0 -150 65.5 -228t204.5 -78q152 0 216 128t64 338z" />
    <glyph glyph-name="florin" unicode="&#x192;" horiz-adv-x="626" 
d="M2 796l22 204h614l-22 -204h-614zM304 86q-19 -202 -114.5 -288t-251.5 -86q-45 0 -81.5 6t-68.5 16l22 192q45 -16 102 -16q75 0 117.5 48t52.5 156l96 940q18 195 112.5 284.5t245.5 89.5q45 0 82 -5.5t68 -16.5l-22 -192q-16 6 -41.5 11t-52.5 5q-75 0 -117 -47
t-53 -157z" />
    <glyph glyph-name="Ohorn" unicode="&#x1a0;" horiz-adv-x="1308" 
d="M654 -28q-172 0 -306 90.5t-211 254t-77 383.5t77 383.5t211 254t306 90.5q173 0 307 -90.5t210.5 -254t76.5 -383.5t-76.5 -383.5t-211 -254t-306.5 -90.5zM654 218q111 0 185.5 62t111.5 171t37 249t-37 249t-111.5 171t-185.5 62t-185 -62t-111.5 -171t-37.5 -249
t37.5 -249t112 -171t184.5 -62zM828 1236v164q68 0 106 34.5t38 113.5h202q0 -107 -49 -176t-128 -102.5t-169 -33.5z" />
    <glyph glyph-name="ohorn" unicode="&#x1a1;" horiz-adv-x="982" 
d="M490 -20q-140 0 -239 71t-151 189t-52 258t52 258t151 189t239 71t239.5 -71t152 -189t52.5 -258t-52.5 -258t-152 -189t-239.5 -71zM490 176q96 0 148 90t52 233q0 142 -52 231.5t-148 89.5q-93 0 -145.5 -89.5t-52.5 -232.5q0 -142 52.5 -232t145.5 -90zM584 836v164
q68 0 106 34.5t38 113.5h202q0 -107 -49 -176t-128 -102.5t-169 -33.5z" />
    <glyph glyph-name="Uhorn" unicode="&#x1af;" horiz-adv-x="1240" 
d="M620 -28q-170 0 -281 70.5t-165 198t-54 299.5v860h244v-794q0 -85 11 -156t38.5 -123t77.5 -80.5t129 -28.5q80 0 130 28.5t77.5 80.5t38 123t10.5 156v794h244v-860q0 -172 -54 -299.5t-165 -198t-281 -70.5zM958 1236v164q68 0 106 34.5t38 113.5h202q0 -107 -49 -176
t-128 -102.5t-169 -33.5z" />
    <glyph glyph-name="uhorn" unicode="&#x1b0;" horiz-adv-x="936" 
d="M400 -16q-103 0 -171.5 46.5t-102.5 129t-34 190.5v650h240v-618q0 -94 32 -148t104 -54q69 0 115.5 42.5t76.5 115.5l-38 -152v814h240v-1000h-208l-16 132h54q-52 -70 -121 -109t-171 -39zM682 836v164q68 0 106 34.5t38 113.5h202q0 -107 -49 -176t-128 -102.5
t-169 -33.5z" />
    <glyph glyph-name="uni01C4" unicode="&#x1c4;" horiz-adv-x="2164" 
d="M132 0v1400h452q171 0 305 -83.5t210.5 -240t76.5 -376.5t-76.5 -376.5t-210.5 -240t-305 -83.5h-452zM376 224h208q108 0 180 58t108 164.5t36 253.5t-36 254t-108 164.5t-180 57.5h-208v-952zM1224 0l602 1256l48 -80h-570v224h836l-598 -1256l-48 80h654v-224h-924z
M1478 1880v-148l244 -172l244 172v148l-244 -132z" />
    <glyph glyph-name="uni01C5" unicode="&#x1c5;" horiz-adv-x="2030" 
d="M132 0v1400h452q171 0 305 -83.5t210.5 -240t76.5 -376.5t-76.5 -376.5t-210.5 -240t-305 -83.5h-452zM376 224h208q108 0 180 58t108 164.5t36 253.5t-36 254t-108 164.5t-180 57.5h-208v-952zM1264 0l432 880v-82h-406v202h710l-432 -880l-10 82h430v-202h-724z
M1646 1128l-224 188v158l224 -140l224 140v-158z" />
    <glyph glyph-name="uni01C6" unicode="&#x1c6;" horiz-adv-x="1788" 
d="M426 -20q-128 0 -216.5 71t-134 189t-45.5 258t45.5 258t134 189t216.5 71q93 0 158 -36.5t114 -93.5l-52 -52v666h240v-1500h-226l-12 170l64 -52q-60 -64 -124 -101t-162 -37zM462 176q68 0 111.5 41t64 113.5t20.5 167.5t-20.5 167.5t-64 113.5t-111.5 41
q-60 0 -102 -41t-64 -113.5t-22 -167.5t22 -167.5t64 -113.5t102 -41zM1022 0l432 880v-82h-406v202h710l-432 -880l-10 82h430v-202h-724zM1404 1128l-224 188v158l224 -140l224 140v-158z" />
    <glyph glyph-name="uni01C7" unicode="&#x1c7;" horiz-adv-x="1344" 
d="M132 0v1400h244v-1176h472v-224h-716zM870 -344l-18 216q66 0 95 29.5t29 96.5v1402h244v-1448q0 -153 -85 -224.5t-223 -71.5h-42z" />
    <glyph glyph-name="uni01C8" unicode="&#x1c8;" horiz-adv-x="1276" 
d="M132 0v1400h244v-1176h472v-224h-716zM874 -484l-20 204q33 0 53.5 12t30.5 39t10 73v1156h240v-1222q0 -87 -26 -145t-81.5 -87.5t-144.5 -29.5h-62zM948 1152v248h240v-248h-240z" />
    <glyph glyph-name="uni01C9" unicode="&#x1c9;" horiz-adv-x="872" 
d="M312 -20q-75 0 -123.5 32.5t-72.5 91.5t-24 138v1258h240v-1176q0 -54 6.5 -84.5t26 -43t57.5 -12.5l-20 -204h-90zM470 -484l-20 204q33 0 53.5 12t30.5 39t10 73v1156h240v-1222q0 -87 -26 -145t-81.5 -87.5t-144.5 -29.5h-62zM544 1152v248h240v-248h-240z" />
    <glyph glyph-name="uni01CA" unicode="&#x1ca;" horiz-adv-x="1706" 
d="M132 0v1400h250l464 -876v876h244v-1400h-214l-500 932v-932h-244zM1232 -344l-18 216q66 0 95 29.5t29 96.5v1402h244v-1448q0 -153 -85 -224.5t-223 -71.5h-42z" />
    <glyph glyph-name="uni01CB" unicode="&#x1cb;" horiz-adv-x="1622" 
d="M132 0v1400h250l464 -876v876h244v-1400h-214l-500 932v-932h-244zM1220 -484l-20 204q33 0 53.5 12t30.5 39t10 73v1156h240v-1222q0 -87 -26 -145t-81.5 -87.5t-144.5 -29.5h-62zM1294 1152v248h240v-248h-240z" />
    <glyph glyph-name="uni01CC" unicode="&#x1cc;" horiz-adv-x="1378" 
d="M100 0v1000h208l16 -132h-54q53 71 121.5 109.5t170.5 38.5q155 0 231.5 -102t76.5 -264v-650h-240v618q0 95 -32 148.5t-104 53.5q-69 0 -115.5 -42t-76.5 -116l38 152v-814h-240zM976 -484l-20 204q33 0 53.5 12t30.5 39t10 73v1156h240v-1222q0 -87 -26 -145
t-81.5 -87.5t-144.5 -29.5h-62zM1050 1152v248h240v-248h-240z" />
    <glyph glyph-name="Gcaron" unicode="&#x1e6;" horiz-adv-x="1142" 
d="M684 -28q-187 0 -327.5 90.5t-218.5 254t-78 383.5q0 225 83 388.5t226.5 251.5t324.5 88q101 0 182.5 -18.5t145.5 -47.5l-28 -244q-64 27 -126 45.5t-142 18.5q-125 0 -214 -58t-136.5 -166t-47.5 -258q0 -152 43 -260t127 -165t208 -57q27 0 57 4.5t55 13.5v242h-160
v224h404v-628q-66 -46 -164 -74t-214 -28zM446 1880v-148l244 -172l244 172v148l-244 -132z" />
    <glyph glyph-name="gcaron" unicode="&#x1e7;" horiz-adv-x="864" 
d="M440 -500q-117 0 -206.5 32.5t-140.5 95t-51 152.5q0 78 41 133t109 98q-44 24 -65 59t-21 78q0 47 25 81.5t69 61.5q-73 53 -112.5 140.5t-39.5 190.5q0 110 43 199.5t123.5 142t193.5 52.5q67 0 122.5 -19t98.5 -53q38 35 80.5 53.5t86.5 18.5q17 0 29 -1t21 -3
l-18 -154q-7 2 -16.5 3t-23.5 1q-19 0 -38 -3.5t-38 -11.5q27 -48 41.5 -105t14.5 -120q0 -108 -43 -198t-123.5 -144t-193.5 -54q-20 0 -39.5 2t-37.5 5q-17 -14 -17 -33t14.5 -30.5t47.5 -19.5l206 -48q143 -33 210.5 -99t67.5 -189q0 -95 -54 -165.5t-148.5 -109.5
t-217.5 -39zM446 -320q90 0 148 31t58 89q0 50 -32 76t-106 44l-173 42q-49 -30 -78 -65.5t-29 -82.5q0 -66 59.5 -100t152.5 -34zM408 406q68 0 104 60t36 156q0 93 -36 153.5t-104 60.5q-69 0 -104.5 -60.5t-35.5 -153.5q0 -96 35.5 -156t104.5 -60zM432 1128l-224 188
v158l224 -140l224 140v-158z" />
    <glyph glyph-name="uni01EA" unicode="&#x1ea;" horiz-adv-x="1308" 
d="M654 -28q-172 0 -306 90.5t-211 254t-77 383.5t77 383.5t211 254t306 90.5q173 0 307 -90.5t210.5 -254t76.5 -383.5t-76.5 -383.5t-211 -254t-306.5 -90.5zM654 218q111 0 185.5 62t111.5 171t37 249t-37 249t-111.5 171t-185.5 62t-185 -62t-111.5 -171t-37.5 -249
t37.5 -249t112 -171t184.5 -62zM636 0h124q-55 -52 -94.5 -103.5t-39.5 -104.5q0 -46 26 -69t68 -23q29 0 53.5 7t48.5 17l34 -110q-28 -15 -66.5 -25.5t-91.5 -10.5q-85 0 -142.5 44t-57.5 128q0 77 41.5 136.5t96.5 113.5z" />
    <glyph glyph-name="uni01EB" unicode="&#x1eb;" horiz-adv-x="982" 
d="M490 -20q-140 0 -239 71t-151 189t-52 258t52 258t151 189t239 71t239.5 -71t152 -189t52.5 -258t-52.5 -258t-152 -189t-239.5 -71zM490 176q96 0 148 90t52 233q0 142 -52 231.5t-148 89.5q-93 0 -145.5 -89.5t-52.5 -232.5q0 -142 52.5 -232t145.5 -90zM470 0h124
q-55 -52 -94.5 -103.5t-39.5 -104.5q0 -46 26 -69t68 -23q29 0 53.5 7t48.5 17l34 -110q-28 -15 -66.5 -25.5t-91.5 -10.5q-85 0 -142.5 44t-57.5 128q0 77 41.5 136.5t96.5 113.5z" />
    <glyph glyph-name="Aringacute" unicode="&#x1fa;" horiz-adv-x="1070" 
d="M794 334h-518v224h518v-224zM512 1108h44l-316 -1108h-244l426 1400h224l428 -1400h-244zM534 1508q-87 0 -137.5 57.5t-50.5 136.5q0 80 50.5 138t137.5 58q89 0 138.5 -58t49.5 -138q0 -79 -49.5 -136.5t-138.5 -57.5zM534 1612q35 0 55.5 25t20.5 65q0 39 -20.5 64.5
t-55.5 25.5q-34 0 -55 -25.5t-21 -64.5q0 -40 21 -65t55 -25zM378 1950v138l314 160v-206z" />
    <glyph glyph-name="aringacute" unicode="&#x1fb;" horiz-adv-x="846" 
d="M290 -20q-70 0 -130.5 31t-98 93t-37.5 154q0 90 35 154.5t91.5 107.5t121 68t125 36.5t101.5 13.5q0 86 -31 125t-111 39q-63 0 -120 -20t-122 -56l-16 202q80 44 161.5 66t160.5 22q95 0 167 -37t112.5 -118.5t40.5 -214.5v-302q0 -75 6 -108.5t20.5 -42.5t39.5 -9h32
l-16 -204h-106q-36 0 -72 14.5t-65 40.5t-45 61q-49 -54 -105 -85t-139 -31zM372 170q38 0 69 19t59 53v228q-56 -7 -107.5 -27.5t-84 -59.5t-32.5 -101q0 -61 28 -86.5t68 -25.5zM424 1140q-93 0 -140.5 57.5t-47.5 136.5q0 80 47.5 138t140.5 58q95 0 141.5 -58t46.5 -138
q0 -79 -46.5 -136.5t-141.5 -57.5zM424 1240q36 0 54 26t18 68q0 41 -18 67.5t-54 26.5t-54 -26.5t-18 -67.5q0 -42 18 -68t54 -26zM268 1608v138l314 160v-206z" />
    <glyph glyph-name="AEacute" unicode="&#x1fc;" horiz-adv-x="1566" 
d="M-16 0l586 1400h920v-224h-542v-330h418v-224h-418v-398h560v-224h-804v1146l-464 -1146h-256zM320 352v224h492v-224h-492zM874 1518v138l314 160v-206z" />
    <glyph glyph-name="aeacute" unicode="&#x1fd;" horiz-adv-x="1358" 
d="M296 -20q-72 0 -134 31t-100 93t-38 154q0 106 50.5 175t131.5 108.5t173.5 56t176.5 16.5h510q0 86 -29.5 146t-110.5 60q-85 0 -128.5 -79t-43.5 -231q0 -119 34.5 -192.5t91.5 -107.5t126 -34q77 0 141.5 23t116.5 57l6 -210q-52 -28 -125 -47t-165 -19
q-158 0 -262.5 71.5t-156 189.5t-51.5 259l-2 144q-1 83 -36 120.5t-116 37.5q-63 0 -120 -20t-122 -56l-16 202q80 44 161.5 66t160.5 22q96 0 167 -46.5t107 -151.5l-76 -2q53 93 140 146.5t204 53.5q119 0 195.5 -58t113.5 -156t37 -218q0 -34 -3 -67t-9 -71h-746
q-121 0 -197.5 -41.5t-76.5 -122.5q0 -61 28 -86.5t68 -25.5q53 0 102.5 29t95.5 83l72 -120q-72 -81 -150.5 -131.5t-195.5 -50.5zM518 1156v158l314 192v-230z" />
    <glyph glyph-name="Oslashacute" unicode="&#x1fe;" horiz-adv-x="1308" 
d="M92 -88l934 1576h190l-934 -1576h-190zM654 -28q-172 0 -306 90.5t-211 254t-77 383.5t77 383.5t211 254t306 90.5q173 0 307 -90.5t210.5 -254t76.5 -383.5t-76.5 -383.5t-211 -254t-306.5 -90.5zM654 218q111 0 185.5 62t111.5 171t37 249t-37 249t-111.5 171
t-185.5 62t-185 -62t-111.5 -171t-37.5 -249t37.5 -249t112 -171t184.5 -62zM502 1518v138l314 160v-206z" />
    <glyph glyph-name="oslashacute" unicode="&#x1ff;" horiz-adv-x="982" 
d="M746 1060h160l-670 -1140h-160zM490 -20q-140 0 -239 71t-151 189t-52 258t52 258t151 189t239 71t239.5 -71t152 -189t52.5 -258t-52.5 -258t-152 -189t-239.5 -71zM490 176q96 0 148 90t52 232q0 143 -52 232.5t-148 89.5q-93 0 -145.5 -89.5t-52.5 -232.5
q0 -142 52.5 -232t145.5 -90zM336 1156v158l314 192v-230z" />
    <glyph glyph-name="uni0200" unicode="&#x200;" horiz-adv-x="1070" 
d="M794 334h-518v224h518v-224zM512 1108h44l-316 -1108h-244l426 1400h224l428 -1400h-244zM748 1576h-150l-164 314h222zM462 1576h-150l-180 314h222z" />
    <glyph glyph-name="uni0201" unicode="&#x201;" horiz-adv-x="846" 
d="M290 -20q-70 0 -130.5 31t-98 93t-37.5 154q0 90 35 154.5t91.5 107.5t121 68t125 36.5t101.5 13.5q0 86 -31 125t-111 39q-63 0 -120 -20t-122 -56l-16 202q80 44 161.5 66t160.5 22q95 0 167 -37t112.5 -118.5t40.5 -214.5v-302q0 -75 6 -108.5t20.5 -42.5t39.5 -9h32
l-16 -204h-106q-36 0 -72 14.5t-65 40.5t-45 61q-49 -54 -105 -85t-139 -31zM372 170q38 0 69 19t59 53v228q-56 -7 -107.5 -27.5t-84 -59.5t-32.5 -101q0 -61 28 -86.5t68 -25.5zM662 1176h-144l-172 354h216zM380 1176h-146l-188 354h218z" />
    <glyph glyph-name="uni0202" unicode="&#x202;" horiz-adv-x="1070" 
d="M794 334h-518v224h518v-224zM512 1108h44l-316 -1108h-244l426 1400h224l428 -1400h-244zM534 1814q90 0 154.5 -34.5t99 -92.5t34.5 -127h-170q0 57 -32 87.5t-85 30.5q-55 0 -87 -30.5t-32 -87.5h-170q0 69 35 127t99.5 92.5t153.5 34.5z" />
    <glyph glyph-name="uni0203" unicode="&#x203;" horiz-adv-x="846" 
d="M290 -20q-70 0 -130.5 31t-98 93t-37.5 154q0 90 35 154.5t91.5 107.5t121 68t125 36.5t101.5 13.5q0 86 -31 125t-111 39q-63 0 -120 -20t-122 -56l-16 202q80 44 161.5 66t160.5 22q95 0 167 -37t112.5 -118.5t40.5 -214.5v-302q0 -75 6 -108.5t20.5 -42.5t39.5 -9h32
l-16 -204h-106q-36 0 -72 14.5t-65 40.5t-45 61q-49 -54 -105 -85t-139 -31zM372 170q38 0 69 19t59 53v228q-56 -7 -107.5 -27.5t-84 -59.5t-32.5 -101q0 -61 28 -86.5t68 -25.5zM424 1432q93 0 160 -35t102.5 -93.5t35.5 -129.5h-170q0 53 -34.5 80.5t-92.5 27.5
q-59 0 -94 -27.5t-35 -80.5h-170q0 71 36 129.5t103 93.5t159 35z" />
    <glyph glyph-name="uni0204" unicode="&#x204;" horiz-adv-x="994" 
d="M132 0v1400h786v-224h-542v-330h418v-224h-418v-398h560v-224h-804zM740 1576h-150l-164 314h222zM454 1576h-150l-180 314h222z" />
    <glyph glyph-name="uni0205" unicode="&#x205;" horiz-adv-x="892" 
d="M514 -20q-158 0 -262.5 71.5t-156 189.5t-51.5 259q0 145 49.5 262t145.5 185.5t237 68.5q114 0 196 -54.5t126 -154t44 -233.5q0 -31 -3 -62t-9 -66h-539q10 -95 45 -155t88.5 -87.5t115.5 -27.5q77 0 141.5 23t116.5 57l6 -210q-52 -28 -125 -47t-165 -19zM294 614h306
q0 57 -12.5 103.5t-43 74.5t-84.5 28q-70 0 -111 -52.5t-55 -153.5zM714 1176h-144l-172 354h216zM432 1176h-146l-188 354h218z" />
    <glyph glyph-name="uni0206" unicode="&#x206;" horiz-adv-x="994" 
d="M132 0v1400h786v-224h-542v-330h418v-224h-418v-398h560v-224h-804zM526 1814q90 0 154.5 -34.5t99 -92.5t34.5 -127h-170q0 57 -32 87.5t-85 30.5q-55 0 -87 -30.5t-32 -87.5h-170q0 69 35 127t99.5 92.5t153.5 34.5z" />
    <glyph glyph-name="uni0207" unicode="&#x207;" horiz-adv-x="892" 
d="M514 -20q-158 0 -262.5 71.5t-156 189.5t-51.5 259q0 145 49.5 262t145.5 185.5t237 68.5q114 0 196 -54.5t126 -154t44 -233.5q0 -31 -3 -62t-9 -66h-539q10 -95 45 -155t88.5 -87.5t115.5 -27.5q77 0 141.5 23t116.5 57l6 -210q-52 -28 -125 -47t-165 -19zM294 614h306
q0 57 -12.5 103.5t-43 74.5t-84.5 28q-70 0 -111 -52.5t-55 -153.5zM476 1432q93 0 160 -35t102.5 -93.5t35.5 -129.5h-170q0 53 -34.5 80.5t-92.5 27.5q-59 0 -94 -27.5t-35 -80.5h-170q0 71 36 129.5t103 93.5t159 35z" />
    <glyph glyph-name="uni0208" unicode="&#x208;" horiz-adv-x="484" 
d="M120 0v1400h244v-1400h-244zM456 1576h-150l-164 314h222zM170 1576h-150l-180 314h222z" />
    <glyph glyph-name="uni0209" unicode="&#x209;" horiz-adv-x="414" 
d="M88 0v1000h238v-1000h-238zM446 1176h-144l-172 354h216zM164 1176h-146l-188 354h218z" />
    <glyph glyph-name="uni020A" unicode="&#x20a;" horiz-adv-x="484" 
d="M120 0v1400h244v-1400h-244zM242 1814q90 0 154.5 -34.5t99 -92.5t34.5 -127h-170q0 57 -32 87.5t-85 30.5q-55 0 -87 -30.5t-32 -87.5h-170q0 69 35 127t99.5 92.5t153.5 34.5z" />
    <glyph glyph-name="uni020B" unicode="&#x20b;" horiz-adv-x="414" 
d="M88 0v1000h238v-1000h-238zM208 1432q93 0 160 -35t102.5 -93.5t35.5 -129.5h-170q0 53 -34.5 80.5t-92.5 27.5q-59 0 -94 -27.5t-35 -80.5h-170q0 71 36 129.5t103 93.5t159 35z" />
    <glyph glyph-name="uni020C" unicode="&#x20c;" horiz-adv-x="1308" 
d="M654 -28q-172 0 -306 90.5t-211 254t-77 383.5t77 383.5t211 254t306 90.5q173 0 307 -90.5t210.5 -254t76.5 -383.5t-76.5 -383.5t-211 -254t-306.5 -90.5zM654 218q111 0 185.5 62t111.5 171t37 249t-37 249t-111.5 171t-185.5 62t-185 -62t-111.5 -171t-37.5 -249
t37.5 -249t112 -171t184.5 -62zM868 1576h-150l-164 314h222zM582 1576h-150l-180 314h222z" />
    <glyph glyph-name="uni020D" unicode="&#x20d;" horiz-adv-x="982" 
d="M490 -20q-140 0 -239 71t-151 189t-52 258t52 258t151 189t239 71t239.5 -71t152 -189t52.5 -258t-52.5 -258t-152 -189t-239.5 -71zM490 176q96 0 148 90t52 233q0 142 -52 231.5t-148 89.5q-93 0 -145.5 -89.5t-52.5 -232.5q0 -142 52.5 -232t145.5 -90zM730 1176h-144
l-172 354h216zM448 1176h-146l-188 354h218z" />
    <glyph glyph-name="uni020E" unicode="&#x20e;" horiz-adv-x="1308" 
d="M654 -28q-172 0 -306 90.5t-211 254t-77 383.5t77 383.5t211 254t306 90.5q173 0 307 -90.5t210.5 -254t76.5 -383.5t-76.5 -383.5t-211 -254t-306.5 -90.5zM654 218q111 0 185.5 62t111.5 171t37 249t-37 249t-111.5 171t-185.5 62t-185 -62t-111.5 -171t-37.5 -249
t37.5 -249t112 -171t184.5 -62zM654 1814q90 0 154.5 -34.5t99 -92.5t34.5 -127h-170q0 57 -32 87.5t-85 30.5q-55 0 -87 -30.5t-32 -87.5h-170q0 69 35 127t99.5 92.5t153.5 34.5z" />
    <glyph glyph-name="uni020F" unicode="&#x20f;" horiz-adv-x="982" 
d="M490 -20q-140 0 -239 71t-151 189t-52 258t52 258t151 189t239 71t239.5 -71t152 -189t52.5 -258t-52.5 -258t-152 -189t-239.5 -71zM490 176q96 0 148 90t52 233q0 142 -52 231.5t-148 89.5q-93 0 -145.5 -89.5t-52.5 -232.5q0 -142 52.5 -232t145.5 -90zM492 1432
q93 0 160 -35t102.5 -93.5t35.5 -129.5h-170q0 53 -34.5 80.5t-92.5 27.5q-59 0 -94 -27.5t-35 -80.5h-170q0 71 36 129.5t103 93.5t159 35z" />
    <glyph glyph-name="uni0210" unicode="&#x210;" horiz-adv-x="1074" 
d="M122 0v1400h408q140 0 245.5 -44t164 -139t58.5 -249q0 -132 -52.5 -228.5t-145.5 -152.5l268 -587h-274l-228 520h-11h-11h-178v-520h-244zM366 732h142q113 0 175.5 52.5t62.5 175.5t-62.5 175.5t-175.5 52.5h-142v-456zM752 1576h-150l-164 314h222zM466 1576h-150
l-180 314h222z" />
    <glyph glyph-name="uni0211" unicode="&#x211;" horiz-adv-x="574" 
d="M90 0v1000h210l16 -106q51 57 100.5 89.5t119.5 32.5q28 0 52 -6l-18 -242q-13 5 -28 7.5t-36 2.5q-49 0 -88.5 -24t-87.5 -72v-682h-240zM590 1176h-144l-172 354h216zM308 1176h-146l-188 354h218z" />
    <glyph glyph-name="uni0212" unicode="&#x212;" horiz-adv-x="1074" 
d="M122 0v1400h408q140 0 245.5 -44t164 -139t58.5 -249q0 -132 -52.5 -228.5t-145.5 -152.5l268 -587h-274l-228 520h-11h-11h-178v-520h-244zM366 732h142q113 0 175.5 52.5t62.5 175.5t-62.5 175.5t-175.5 52.5h-142v-456zM538 1814q90 0 154.5 -34.5t99 -92.5t34.5 -127
h-170q0 57 -32 87.5t-85 30.5q-55 0 -87 -30.5t-32 -87.5h-170q0 69 35 127t99.5 92.5t153.5 34.5z" />
    <glyph glyph-name="uni0213" unicode="&#x213;" horiz-adv-x="574" 
d="M90 0v1000h210l16 -106q51 57 100.5 89.5t119.5 32.5q28 0 52 -6l-18 -242q-13 5 -28 7.5t-36 2.5q-49 0 -88.5 -24t-87.5 -72v-682h-240zM352 1432q93 0 160 -35t102.5 -93.5t35.5 -129.5h-170q0 53 -34.5 80.5t-92.5 27.5q-59 0 -94 -27.5t-35 -80.5h-170
q0 71 36 129.5t103 93.5t159 35z" />
    <glyph glyph-name="uni0214" unicode="&#x214;" horiz-adv-x="1240" 
d="M620 -28q-170 0 -281 70.5t-165 198t-54 299.5v860h244v-794q0 -85 11 -156t38.5 -123t77.5 -80.5t129 -28.5q80 0 130 28.5t77.5 80.5t38 123t10.5 156v794h244v-860q0 -172 -54 -299.5t-165 -198t-281 -70.5zM860 1576h-144l-172 354h216zM578 1576h-146l-188 354h218z
" />
    <glyph glyph-name="uni0215" unicode="&#x215;" horiz-adv-x="936" 
d="M400 -16q-103 0 -171.5 46.5t-102.5 129t-34 190.5v650h240v-618q0 -94 32 -148t104 -54q69 0 115.5 42.5t76.5 115.5l-38 -152v814h240v-1000h-208l-16 132h54q-52 -70 -121 -109t-171 -39zM716 1176h-144l-172 354h216zM434 1176h-146l-188 354h218z" />
    <glyph glyph-name="uni0216" unicode="&#x216;" horiz-adv-x="1240" 
d="M620 -28q-170 0 -281 70.5t-165 198t-54 299.5v860h244v-794q0 -85 11 -156t38.5 -123t77.5 -80.5t129 -28.5q80 0 130 28.5t77.5 80.5t38 123t10.5 156v794h244v-860q0 -172 -54 -299.5t-165 -198t-281 -70.5zM622 1814q90 0 154.5 -34.5t99 -92.5t34.5 -127h-170
q0 57 -32 87.5t-85 30.5q-55 0 -87 -30.5t-32 -87.5h-170q0 69 35 127t99.5 92.5t153.5 34.5z" />
    <glyph glyph-name="uni0217" unicode="&#x217;" horiz-adv-x="936" 
d="M400 -16q-103 0 -171.5 46.5t-102.5 129t-34 190.5v650h240v-618q0 -94 32 -148t104 -54q69 0 115.5 42.5t76.5 115.5l-38 -152v814h240v-1000h-208l-16 132h54q-52 -70 -121 -109t-171 -39zM478 1432q93 0 160 -35t102.5 -93.5t35.5 -129.5h-170q0 53 -34.5 80.5
t-92.5 27.5q-59 0 -94 -27.5t-35 -80.5h-170q0 71 36 129.5t103 93.5t159 35z" />
    <glyph glyph-name="uni0218" unicode="&#x218;" horiz-adv-x="1014" 
d="M484 -28q-72 0 -144 10.5t-138 29.5t-120 46l30 272q64 -35 127.5 -60t128 -38.5t132.5 -13.5q95 0 149.5 38.5t54.5 111.5q0 54 -27 94t-89 77.5t-166 84.5q-111 50 -187 104.5t-114.5 126.5t-38.5 175q0 115 55.5 205t160.5 141.5t254 51.5q105 0 195 -23t169 -59
l-26 -264q-97 48 -183 74t-175 26q-91 0 -140.5 -35.5t-49.5 -106.5q0 -57 34 -94.5t97 -70.5t151 -75q112 -54 187.5 -112t114 -132.5t38.5 -177.5q0 -92 -32.5 -167t-94.5 -128.5t-151 -82t-202 -28.5zM506 -596h-92l86 220h-66v194h200v-170z" />
    <glyph glyph-name="uni0219" unicode="&#x219;" horiz-adv-x="738" 
d="M344 -20q-84 0 -151 18t-135 52l22 212q62 -42 124 -69t122 -27q68 0 104 26t36 72q0 32 -14.5 56t-50 47t-97.5 53q-76 37 -130 76.5t-83 93.5t-29 136q0 85 41.5 150.5t117.5 102.5t181 37q80 0 144 -20.5t118 -53.5l-22 -206q-52 45 -105.5 73.5t-118.5 28.5
q-57 0 -92.5 -24.5t-35.5 -71.5q0 -51 45 -81.5t141 -80.5q53 -27 94 -56.5t68.5 -65.5t41.5 -81t14 -103q0 -92 -43.5 -158t-122.5 -101t-184 -35zM326 -596h-92l86 220h-66v194h200v-170z" />
    <glyph glyph-name="uni021A" unicode="&#x21a;" horiz-adv-x="952" 
d="M354 0v1176h-336v224h916v-224h-336v-1176h-244zM448 -596h-92l86 220h-66v194h200v-170z" />
    <glyph glyph-name="uni021B" unicode="&#x21b;" horiz-adv-x="598" 
d="M380 -20q-75 0 -127.5 29.5t-80.5 87.5t-28 145v554h-112l22 204h90v220l240 26v-246h174v-204h-174v-492q0 -41 11 -67.5t34 -39.5t59 -13h72l-22 -204h-158zM338 -596h-92l86 220h-66v194h200v-170z" />
    <glyph glyph-name="uni022A" unicode="&#x22a;" horiz-adv-x="1308" 
d="M654 -28q-172 0 -306 90.5t-211 254t-77 383.5t77 383.5t211 254t306 90.5q173 0 307 -90.5t210.5 -254t76.5 -383.5t-76.5 -383.5t-211 -254t-306.5 -90.5zM654 218q111 0 185.5 62t111.5 171t37 249t-37 249t-111.5 171t-185.5 62t-185 -62t-111.5 -171t-37.5 -249
t37.5 -249t112 -171t184.5 -62zM396 1566v172h184v-172h-184zM728 1566v172h184v-172h-184zM346 1886v144h616v-144h-616z" />
    <glyph glyph-name="uni022B" unicode="&#x22b;" horiz-adv-x="982" 
d="M490 -20q-140 0 -239 71t-151 189t-52 258t52 258t151 189t239 71t239.5 -71t152 -189t52.5 -258t-52.5 -258t-152 -189t-239.5 -71zM490 176q96 0 148 90t52 233q0 142 -52 231.5t-148 89.5q-93 0 -145.5 -89.5t-52.5 -232.5q0 -142 52.5 -232t145.5 -90zM234 1166v172
h184v-172h-184zM566 1166v172h184v-172h-184zM184 1486v144h616v-144h-616z" />
    <glyph glyph-name="uni022C" unicode="&#x22c;" horiz-adv-x="1308" 
d="M654 -28q-172 0 -306 90.5t-211 254t-77 383.5t77 383.5t211 254t306 90.5q173 0 307 -90.5t210.5 -254t76.5 -383.5t-76.5 -383.5t-211 -254t-306.5 -90.5zM654 218q111 0 185.5 62t111.5 171t37 249t-37 249t-111.5 171t-185.5 62t-185 -62t-111.5 -171t-37.5 -249
t37.5 -249t112 -171t184.5 -62zM808 1554q-46 0 -90 20t-84 40t-74 20q-58 0 -58 -66h-152q0 102 37 156t113 54q46 0 90 -20t84 -40t74 -20q58 0 58 66h152q0 -100 -36.5 -155t-113.5 -55zM346 1914v144h616v-144h-616z" />
    <glyph glyph-name="uni022D" unicode="&#x22d;" horiz-adv-x="982" 
d="M490 -20q-140 0 -239 71t-151 189t-52 258t52 258t151 189t239 71t239.5 -71t152 -189t52.5 -258t-52.5 -258t-152 -189t-239.5 -71zM490 176q96 0 148 90t52 233q0 142 -52 231.5t-148 89.5q-93 0 -145.5 -89.5t-52.5 -232.5q0 -142 52.5 -232t145.5 -90zM646 1154
q-46 0 -90 20t-84 40t-74 20q-58 0 -58 -66h-152q0 102 37 156t113 54q46 0 90 -20t84 -40t74 -20q58 0 58 66h152q0 -100 -36.5 -155t-113.5 -55zM184 1514v144h616v-144h-616z" />
    <glyph glyph-name="uni0230" unicode="&#x230;" horiz-adv-x="1308" 
d="M654 -28q-172 0 -306 90.5t-211 254t-77 383.5t77 383.5t211 254t306 90.5q173 0 307 -90.5t210.5 -254t76.5 -383.5t-76.5 -383.5t-211 -254t-306.5 -90.5zM654 218q111 0 185.5 62t111.5 171t37 249t-37 249t-111.5 171t-185.5 62t-185 -62t-111.5 -171t-37.5 -249
t37.5 -249t112 -171t184.5 -62zM554 1584v194h200v-194h-200zM346 1946v144h616v-144h-616z" />
    <glyph glyph-name="uni0231" unicode="&#x231;" horiz-adv-x="982" 
d="M490 -20q-140 0 -239 71t-151 189t-52 258t52 258t151 189t239 71t239.5 -71t152 -189t52.5 -258t-52.5 -258t-152 -189t-239.5 -71zM490 176q96 0 148 90t52 233q0 142 -52 231.5t-148 89.5q-93 0 -145.5 -89.5t-52.5 -232.5q0 -142 52.5 -232t145.5 -90zM392 1184v194
h200v-194h-200zM184 1546v144h616v-144h-616z" />
    <glyph glyph-name="uni0232" unicode="&#x232;" horiz-adv-x="1050" 
d="M404 0v620l-420 780h260l334 -654h-102l330 654h260l-420 -780v-620h-242zM218 1586v144h616v-144h-616z" />
    <glyph glyph-name="uni0233" unicode="&#x233;" horiz-adv-x="958" 
d="M150 -484l208 530l-342 954h250l212 -680l212 680h250l-546 -1484h-244zM194 1206v154h576v-154h-576z" />
    <glyph glyph-name="uni0237" unicode="&#x237;" horiz-adv-x="416" 
d="M14 -484l-20 204q33 0 53.5 12t30.5 39t10 73v1156h240v-1222q0 -87 -26 -145t-81.5 -87.5t-144.5 -29.5h-62z" />
    <glyph glyph-name="uni0259" unicode="&#x259;" horiz-adv-x="892" 
d="M378 1020q158 0 262.5 -71.5t156 -189.5t51.5 -259q0 -145 -49.5 -262t-145.5 -185.5t-237 -68.5q-114 0 -196 54.5t-126 154t-44 233.5q0 31 3 62t9 66h539q-10 95 -45 155t-88.5 87.5t-115.5 27.5q-77 0 -141.5 -23t-116.5 -57l-6 210q52 28 125 47t165 19zM598 386
h-306q0 -57 12.5 -103.5t43 -74.5t84.5 -28q70 0 111 52.5t55 153.5z" />
    <glyph glyph-name="uni02BB" unicode="&#x2bb;" horiz-adv-x="660" 
d="M348 1588h92l-86 -220h66v-194h-200v170z" />
    <glyph glyph-name="uni02BC" unicode="&#x2bc;" horiz-adv-x="440" 
d="M192 986h-92l86 220h-66v194h200v-170z" />
    <glyph glyph-name="uni02BE" unicode="&#x2be;" horiz-adv-x="348" 
d="M80 1140v100q36 0 54 26t18 68q0 41 -18 67.5t-54 26.5v102q95 0 141.5 -58t46.5 -138q0 -79 -46.5 -136.5t-141.5 -57.5z" />
    <glyph glyph-name="uni02BF" unicode="&#x2bf;" horiz-adv-x="348" 
d="M268 1140q-93 0 -140.5 57.5t-47.5 136.5q0 80 47.5 138t140.5 58v-102q-36 0 -54 -26.5t-18 -67.5q0 -42 18 -68t54 -26v-100z" />
    <glyph glyph-name="circumflex" unicode="&#x2c6;" horiz-adv-x="968" 
d="M260 1128v158l224 190l224 -190v-158l-224 140z" />
    <glyph glyph-name="caron" unicode="&#x2c7;" horiz-adv-x="968" 
d="M484 1128l-224 188v158l224 -140l224 140v-158z" />
    <glyph glyph-name="uni02C8" unicode="&#x2c8;" horiz-adv-x="332" 
d="M80 1530h172v-390h-172v390z" />
    <glyph glyph-name="uni02C9" unicode="&#x2c9;" horiz-adv-x="976" 
d="M200 1186v154h576v-154h-576z" />
    <glyph glyph-name="uni02CA" unicode="&#x2ca;" horiz-adv-x="482" 
d="M84 1156v158l314 192v-230z" />
    <glyph glyph-name="uni02CB" unicode="&#x2cb;" horiz-adv-x="482" 
d="M398 1152l-314 128v238l314 -200v-166z" />
    <glyph glyph-name="uni02CC" unicode="&#x2cc;" horiz-adv-x="340" 
d="M90 230h160v-390h-160v390z" />
    <glyph glyph-name="breve" unicode="&#x2d8;" horiz-adv-x="936" 
d="M469 1174q-87 0 -149.5 35.5t-96 95t-33.5 131.5h162q0 -55 29.5 -86.5t86.5 -31.5t86.5 31.5t29.5 86.5h162q0 -72 -33 -131.5t-95.5 -95t-148.5 -35.5z" />
    <glyph glyph-name="dotaccent" unicode="&#x2d9;" horiz-adv-x="752" 
d="M280 1204v194h192v-194h-192z" />
    <glyph glyph-name="ring" unicode="&#x2da;" horiz-adv-x="776" 
d="M388 1140q-93 0 -140.5 57.5t-47.5 136.5q0 80 47.5 138t140.5 58q95 0 141.5 -58t46.5 -138q0 -79 -46.5 -136.5t-141.5 -57.5zM388 1240q36 0 54 26t18 68q0 41 -18 67.5t-54 26.5t-54 -26.5t-18 -67.5q0 -42 18 -68t54 -26z" />
    <glyph glyph-name="ogonek" unicode="&#x2db;" horiz-adv-x="758" 
d="M338 0h124q-55 -52 -94.5 -103.5t-39.5 -104.5q0 -46 26 -69t68 -23q29 0 53.5 7t48.5 17l34 -110q-28 -15 -66.5 -25.5t-91.5 -10.5q-85 0 -142.5 44t-57.5 128q0 77 41.5 136.5t96.5 113.5z" />
    <glyph glyph-name="tilde" unicode="&#x2dc;" horiz-adv-x="1004" 
d="M640 1156q-51 0 -88 22t-68.5 44t-65.5 22q-56 0 -56 -72h-162q5 117 46.5 179.5t117.5 62.5q51 0 88 -22t68.5 -44t65.5 -22q56 0 56 72h162q-4 -117 -45.5 -179.5t-118.5 -62.5z" />
    <glyph glyph-name="hungarumlaut" unicode="&#x2dd;" horiz-adv-x="1040" 
d="M494 1176l128 354h218l-200 -354h-146zM200 1176l112 354h218l-184 -354h-146z" />
    <glyph glyph-name="gravecomb" unicode="&#x300;" 
d="M156 1152l-314 128v238l314 -200v-166z" />
    <glyph glyph-name="acutecomb" unicode="&#x301;" 
d="M-156 1156v158l314 192v-230z" />
    <glyph glyph-name="uni0302" unicode="&#x302;" 
d="M-224 1128v158l224 190l224 -190v-158l-224 140z" />
    <glyph glyph-name="tildecomb" unicode="&#x303;" 
d="M138 1156q-51 0 -88 22t-68.5 44t-65.5 22q-56 0 -56 -72h-162q5 117 46.5 179.5t117.5 62.5q51 0 88 -22t68.5 -44t65.5 -22q56 0 56 72h162q-4 -117 -45.5 -179.5t-118.5 -62.5z" />
    <glyph glyph-name="uni0304" unicode="&#x304;" 
d="M-288 1186v154h576v-154h-576z" />
    <glyph glyph-name="uni0306" unicode="&#x306;" 
d="M1 1174q-87 0 -149.5 35.5t-96 95t-33.5 131.5h162q0 -55 29.5 -86.5t86.5 -31.5t86.5 31.5t29.5 86.5h162q0 -72 -33 -131.5t-95.5 -95t-148.5 -35.5z" />
    <glyph glyph-name="uni0307" unicode="&#x307;" 
d="M-96 1204v194h192v-194h-192z" />
    <glyph glyph-name="uni0308" unicode="&#x308;" 
d="M74 1182v180h184v-180h-184zM-258 1182v180h184v-180h-184z" />
    <glyph glyph-name="hookabovecomb" unicode="&#x309;" 
d="M32 1068l-74 74q33 35 52.5 63.5t19.5 64.5q0 33 -18.5 49.5t-51.5 16.5q-22 0 -46.5 -8t-47.5 -22l-34 118q30 14 64.5 22t71.5 8q77 0 129.5 -46t52.5 -130q0 -66 -30.5 -114t-87.5 -96z" />
    <glyph glyph-name="uni030A" unicode="&#x30a;" 
d="M0 1140q-93 0 -140.5 57.5t-47.5 136.5q0 80 47.5 138t140.5 58q95 0 141.5 -58t46.5 -138q0 -79 -46.5 -136.5t-141.5 -57.5zM0 1240q36 0 54 26t18 68q0 41 -18 67.5t-54 26.5t-54 -26.5t-18 -67.5q0 -42 18 -68t54 -26z" />
    <glyph glyph-name="uni030B" unicode="&#x30b;" 
d="M72 1176l128 354h218l-200 -354h-146zM-222 1176l112 354h218l-184 -354h-146z" />
    <glyph glyph-name="uni030C" unicode="&#x30c;" 
d="M0 1128l-224 188v158l224 -140l224 140v-158z" />
    <glyph glyph-name="uni030F" unicode="&#x30f;" 
d="M238 1176h-144l-172 354h216zM-44 1176h-146l-188 354h218z" />
    <glyph glyph-name="uni0311" unicode="&#x311;" 
d="M0 1432q93 0 160 -35t102.5 -93.5t35.5 -129.5h-170q0 53 -34.5 80.5t-92.5 27.5q-59 0 -94 -27.5t-35 -80.5h-170q0 71 36 129.5t103 93.5t159 35z" />
    <glyph glyph-name="uni0312" unicode="&#x312;" 
d="M30 1588h92l-86 -220h66v-194h-200v170z" />
    <glyph glyph-name="uni031B" unicode="&#x31b;" 
d="M0 816v164q68 0 106 34.5t38 113.5h202q0 -107 -49 -176t-128 -102.5t-169 -33.5z" />
    <glyph glyph-name="dotbelowcomb" unicode="&#x323;" 
d="M-96 -356v194h192v-194h-192z" />
    <glyph glyph-name="uni0324" unicode="&#x324;" 
d="M74 -362v180h184v-180h-184zM-258 -362v180h184v-180h-184z" />
    <glyph glyph-name="uni0326" unicode="&#x326;" 
d="M-28 -596h-92l86 220h-66v194h200v-170z" />
    <glyph glyph-name="uni0327" unicode="&#x327;" 
d="M26 -158l-62 34q17 5 33.5 7.5t34.5 2.5q78 0 123 -44t45 -124q0 -97 -60.5 -146.5t-147.5 -49.5q-46 0 -81.5 8t-62.5 18l38 110q23 -9 48 -15.5t52 -6.5q44 0 69 19.5t25 56.5q0 38 -22 57t-64 19q-21 0 -40.5 -4t-39.5 -10l56 226h104z" />
    <glyph glyph-name="uni0328" unicode="&#x328;" 
d="M-60 0h124q-55 -52 -94.5 -103.5t-39.5 -104.5q0 -46 26 -69t68 -23q29 0 53.5 7t48.5 17l34 -110q-28 -15 -66.5 -25.5t-91.5 -10.5q-85 0 -142.5 44t-57.5 128q0 77 41.5 136.5t96.5 113.5z" />
    <glyph glyph-name="uni032E" unicode="&#x32e;" 
d="M1 -460q-87 0 -149.5 35.5t-96 95t-33.5 131.5h162q0 -55 29.5 -86.5t86.5 -31.5t86.5 31.5t29.5 86.5h162q0 -72 -33 -131.5t-95.5 -95t-148.5 -35.5z" />
    <glyph glyph-name="uni0331" unicode="&#x331;" 
d="M-288 -340v154h576v-154h-576z" />
    <glyph glyph-name="uni0335" unicode="&#x335;" 
d="M-296 454v166h592v-166h-592z" />
    <glyph glyph-name="pi" unicode="&#x3c0;" horiz-adv-x="1016" 
d="M926 180q15 0 29.5 4t24.5 10v-184q-19 -12 -50.5 -21t-69.5 -9q-115 0 -177.5 69.5t-62.5 202.5v544h-230v-796h-240v796h-122v204h956v-204h-124v-524q0 -92 66 -92z" />
    <glyph glyph-name="uni1E08" unicode="&#x1e08;" horiz-adv-x="1048" 
d="M678 -28q-175 0 -315 88.5t-221.5 251.5t-81.5 388t81.5 388.5t222 251.5t318.5 88q96 0 174.5 -18.5t139.5 -47.5l-28 -244q-61 27 -120 45.5t-134 18.5q-121 0 -207.5 -58t-132.5 -166t-46 -258t46 -258t132 -166t206 -58q77 0 136 18.5t120 45.5l28 -244
q-60 -30 -141.5 -48t-176.5 -18zM722 -158l-62 34q17 5 33.5 7.5t34.5 2.5q78 0 123 -44t45 -124q0 -97 -60.5 -146.5t-147.5 -49.5q-46 0 -81.5 8t-62.5 18l38 110q23 -9 48 -15.5t52 -6.5q44 0 69 19.5t25 56.5q0 38 -22 57t-64 19q-21 0 -40.5 -4t-39.5 -10l56 226h104z
M502 1518v138l314 160v-206z" />
    <glyph glyph-name="uni1E09" unicode="&#x1e09;" horiz-adv-x="770" 
d="M520 -20q-155 0 -260 70.5t-158.5 188t-53.5 259.5t53 259.5t159.5 188t267.5 70.5q60 0 109 -9.5t83 -24.5l-18 -196q-31 15 -67.5 24.5t-78.5 9.5q-126 0 -195 -89.5t-69 -232.5q0 -136 67.5 -229t194.5 -93q44 0 81 9t73 27l16 -192q-37 -18 -91 -29t-113 -11z
M512 -158l-62 34q17 5 33.5 7.5t34.5 2.5q78 0 123 -44t45 -124q0 -97 -60.5 -146.5t-147.5 -49.5q-46 0 -81.5 8t-62.5 18l38 110q23 -9 48 -15.5t52 -6.5q44 0 69 19.5t25 56.5q0 38 -22 57t-64 19q-21 0 -40.5 -4t-39.5 -10l56 226h104zM314 1156v158l314 192v-230z" />
    <glyph glyph-name="uni1E0C" unicode="&#x1e0c;" horiz-adv-x="1238" 
d="M132 0v1400h452q171 0 305 -83.5t210.5 -240t76.5 -376.5t-76.5 -376.5t-210.5 -240t-305 -83.5h-452zM376 224h208q108 0 180 58t108 164.5t36 253.5t-36 254t-108 164.5t-180 57.5h-208v-952zM524 -356v194h192v-194h-192z" />
    <glyph glyph-name="uni1E0D" unicode="&#x1e0d;" horiz-adv-x="986" 
d="M426 -20q-128 0 -216.5 71t-134 189t-45.5 258t45.5 258t134 189t216.5 71q93 0 158 -36.5t114 -93.5l-52 -52v666h240v-1500h-226l-12 170l64 -52q-60 -64 -124 -101t-162 -37zM462 176q68 0 111.5 41t64 113.5t20.5 167.5t-20.5 167.5t-64 113.5t-111.5 41
q-60 0 -102 -41t-64 -113.5t-22 -167.5t22 -167.5t64 -113.5t102 -41zM408 -356v194h192v-194h-192z" />
    <glyph glyph-name="uni1E0E" unicode="&#x1e0e;" horiz-adv-x="1238" 
d="M132 0v1400h452q171 0 305 -83.5t210.5 -240t76.5 -376.5t-76.5 -376.5t-210.5 -240t-305 -83.5h-452zM376 224h208q108 0 180 58t108 164.5t36 253.5t-36 254t-108 164.5t-180 57.5h-208v-952zM332 -340v154h576v-154h-576z" />
    <glyph glyph-name="uni1E0F" unicode="&#x1e0f;" horiz-adv-x="986" 
d="M426 -20q-128 0 -216.5 71t-134 189t-45.5 258t45.5 258t134 189t216.5 71q93 0 158 -36.5t114 -93.5l-52 -52v666h240v-1500h-226l-12 170l64 -52q-60 -64 -124 -101t-162 -37zM462 176q68 0 111.5 41t64 113.5t20.5 167.5t-20.5 167.5t-64 113.5t-111.5 41
q-60 0 -102 -41t-64 -113.5t-22 -167.5t22 -167.5t64 -113.5t102 -41zM216 -340v154h576v-154h-576z" />
    <glyph glyph-name="uni1E14" unicode="&#x1e14;" horiz-adv-x="994" 
d="M132 0v1400h786v-224h-542v-330h418v-224h-418v-398h560v-224h-804zM218 1586v144h616v-144h-616zM682 1862l-314 92v206l314 -160v-138z" />
    <glyph glyph-name="uni1E15" unicode="&#x1e15;" horiz-adv-x="892" 
d="M514 -20q-158 0 -262.5 71.5t-156 189.5t-51.5 259q0 145 49.5 262t145.5 185.5t237 68.5q114 0 196 -54.5t126 -154t44 -233.5q0 -31 -3 -62t-9 -66h-539q10 -95 45 -155t88.5 -87.5t115.5 -27.5q77 0 141.5 23t116.5 57l6 -210q-52 -28 -125 -47t-165 -19zM294 614h306
q0 57 -12.5 103.5t-43 74.5t-84.5 28q-70 0 -111 -52.5t-55 -153.5zM168 1186v144h616v-144h-616zM632 1462l-314 92v206l314 -160v-138z" />
    <glyph glyph-name="uni1E16" unicode="&#x1e16;" horiz-adv-x="994" 
d="M132 0v1400h786v-224h-542v-330h418v-224h-418v-398h560v-224h-804zM218 1586v144h616v-144h-616zM370 1862v138l314 160v-206z" />
    <glyph glyph-name="uni1E17" unicode="&#x1e17;" horiz-adv-x="892" 
d="M514 -20q-158 0 -262.5 71.5t-156 189.5t-51.5 259q0 145 49.5 262t145.5 185.5t237 68.5q114 0 196 -54.5t126 -154t44 -233.5q0 -31 -3 -62t-9 -66h-539q10 -95 45 -155t88.5 -87.5t115.5 -27.5q77 0 141.5 23t116.5 57l6 -210q-52 -28 -125 -47t-165 -19zM294 614h306
q0 57 -12.5 103.5t-43 74.5t-84.5 28q-70 0 -111 -52.5t-55 -153.5zM168 1186v144h616v-144h-616zM320 1462v138l314 160v-206z" />
    <glyph glyph-name="uni1E1C" unicode="&#x1e1c;" horiz-adv-x="994" 
d="M132 0v1400h786v-224h-542v-330h418v-224h-418v-398h560v-224h-804zM560 -158l-62 34q17 5 33.5 7.5t34.5 2.5q78 0 123 -44t45 -124q0 -97 -60.5 -146.5t-147.5 -49.5q-46 0 -81.5 8t-62.5 18l38 110q23 -9 48 -15.5t52 -6.5q44 0 69 19.5t25 56.5q0 38 -22 57t-64 19
q-21 0 -40.5 -4t-39.5 -10l56 226h104zM526 1530q-89 0 -153.5 35t-99.5 92.5t-35 126.5h170q0 -57 32 -87.5t86 -30.5t86 30.5t32 87.5h170q0 -69 -34.5 -126.5t-99 -92.5t-154.5 -35z" />
    <glyph glyph-name="uni1E1D" unicode="&#x1e1d;" horiz-adv-x="892" 
d="M514 -20q-158 0 -262.5 71.5t-156 189.5t-51.5 259q0 145 49.5 262t145.5 185.5t237 68.5q114 0 196 -54.5t126 -154t44 -233.5q0 -31 -3 -62t-9 -66h-539q10 -95 45 -155t88.5 -87.5t115.5 -27.5q77 0 141.5 23t116.5 57l6 -210q-52 -28 -125 -47t-165 -19zM294 614h306
q0 57 -12.5 103.5t-43 74.5t-84.5 28q-70 0 -111 -52.5t-55 -153.5zM534 -158l-62 34q17 5 33.5 7.5t34.5 2.5q78 0 123 -44t45 -124q0 -97 -60.5 -146.5t-147.5 -49.5q-46 0 -81.5 8t-62.5 18l38 110q23 -9 48 -15.5t52 -6.5q44 0 69 19.5t25 56.5q0 38 -22 57t-64 19
q-21 0 -40.5 -4t-39.5 -10l56 226h104zM477 1174q-87 0 -149.5 35.5t-96 95t-33.5 131.5h162q0 -55 29.5 -86.5t86.5 -31.5t86.5 31.5t29.5 86.5h162q0 -72 -33 -131.5t-95.5 -95t-148.5 -35.5z" />
    <glyph glyph-name="uni1E20" unicode="&#x1e20;" horiz-adv-x="1142" 
d="M684 -28q-187 0 -327.5 90.5t-218.5 254t-78 383.5q0 225 83 388.5t226.5 251.5t324.5 88q101 0 182.5 -18.5t145.5 -47.5l-28 -244q-64 27 -126 45.5t-142 18.5q-125 0 -214 -58t-136.5 -166t-47.5 -258q0 -152 43 -260t127 -165t208 -57q27 0 57 4.5t55 13.5v242h-160
v224h404v-628q-66 -46 -164 -74t-214 -28zM382 1586v144h616v-144h-616z" />
    <glyph glyph-name="uni1E21" unicode="&#x1e21;" horiz-adv-x="864" 
d="M440 -500q-117 0 -206.5 32.5t-140.5 95t-51 152.5q0 78 41 133t109 98q-44 24 -65 59t-21 78q0 47 25 81.5t69 61.5q-73 53 -112.5 140.5t-39.5 190.5q0 110 43 199.5t123.5 142t193.5 52.5q67 0 122.5 -19t98.5 -53q38 35 80.5 53.5t86.5 18.5q17 0 29 -1t21 -3
l-18 -154q-7 2 -16.5 3t-23.5 1q-19 0 -38 -3.5t-38 -11.5q27 -48 41.5 -105t14.5 -120q0 -108 -43 -198t-123.5 -144t-193.5 -54q-20 0 -39.5 2t-37.5 5q-17 -14 -17 -33t14.5 -30.5t47.5 -19.5l206 -48q143 -33 210.5 -99t67.5 -189q0 -95 -54 -165.5t-148.5 -109.5
t-217.5 -39zM446 -320q90 0 148 31t58 89q0 50 -32 76t-106 44l-173 42q-49 -30 -78 -65.5t-29 -82.5q0 -66 59.5 -100t152.5 -34zM408 406q68 0 104 60t36 156q0 93 -36 153.5t-104 60.5q-69 0 -104.5 -60.5t-35.5 -153.5q0 -96 35.5 -156t104.5 -60zM144 1206v154h576
v-154h-576z" />
    <glyph glyph-name="uni1E24" unicode="&#x1e24;" horiz-adv-x="1272" 
d="M132 0v1400h244v-554h520v554h244v-1400h-244v606h-520v-606h-244zM540 -356v194h192v-194h-192z" />
    <glyph glyph-name="uni1E25" unicode="&#x1e25;" horiz-adv-x="950" 
d="M88 0v1500h240v-632h-70q53 71 121.5 109.5t170.5 38.5q103 0 171.5 -46.5t102.5 -129t34 -190.5v-650h-240v618q0 95 -32 148.5t-104 53.5q-69 0 -115.5 -42t-76.5 -116l38 152v-814h-240zM378 -356v194h192v-194h-192z" />
    <glyph glyph-name="uni1E2A" unicode="&#x1e2a;" horiz-adv-x="1272" 
d="M132 0v1400h244v-554h520v554h244v-1400h-244v606h-520v-606h-244zM637 -460q-87 0 -149.5 35.5t-96 95t-33.5 131.5h162q0 -55 29.5 -86.5t86.5 -31.5t86.5 31.5t29.5 86.5h162q0 -72 -33 -131.5t-95.5 -95t-148.5 -35.5z" />
    <glyph glyph-name="uni1E2B" unicode="&#x1e2b;" horiz-adv-x="950" 
d="M88 0v1500h240v-632h-70q53 71 121.5 109.5t170.5 38.5q103 0 171.5 -46.5t102.5 -129t34 -190.5v-650h-240v618q0 95 -32 148.5t-104 53.5q-69 0 -115.5 -42t-76.5 -116l38 152v-814h-240zM475 -460q-87 0 -149.5 35.5t-96 95t-33.5 131.5h162q0 -55 29.5 -86.5
t86.5 -31.5t86.5 31.5t29.5 86.5h162q0 -72 -33 -131.5t-95.5 -95t-148.5 -35.5z" />
    <glyph glyph-name="uni1E2E" unicode="&#x1e2e;" horiz-adv-x="484" 
d="M120 0v1400h244v-1400h-244zM-16 1566v172h184v-172h-184zM316 1566v172h184v-172h-184zM86 1818v138l314 160v-206z" />
    <glyph glyph-name="uni1E2F" unicode="&#x1e2f;" horiz-adv-x="414" 
d="M88 0v1000h238v-1000h-238zM-50 1166v172h184v-172h-184zM282 1166v172h184v-172h-184zM52 1418v138l314 160v-206z" />
    <glyph glyph-name="uni1E36" unicode="&#x1e36;" horiz-adv-x="860" 
d="M132 0v1400h244v-1176h472v-224h-716zM394 -356v194h192v-194h-192z" />
    <glyph glyph-name="uni1E37" unicode="&#x1e37;" horiz-adv-x="456" 
d="M312 -20q-75 0 -123.5 32.5t-72.5 91.5t-24 138v1258h240v-1176q0 -54 6.5 -84.5t26 -43t57.5 -12.5l-20 -204h-90zM176 -356v194h192v-194h-192z" />
    <glyph glyph-name="uni1E3A" unicode="&#x1e3a;" horiz-adv-x="860" 
d="M132 0v1400h244v-1176h472v-224h-716zM202 -340v154h576v-154h-576z" />
    <glyph glyph-name="uni1E3B" unicode="&#x1e3b;" horiz-adv-x="456" 
d="M312 -20q-75 0 -123.5 32.5t-72.5 91.5t-24 138v1258h240v-1176q0 -54 6.5 -84.5t26 -43t57.5 -12.5l-20 -204h-90zM-16 -340v154h576v-154h-576z" />
    <glyph glyph-name="uni1E42" unicode="&#x1e42;" horiz-adv-x="1460" 
d="M72 0l176 1400h198l278 -614l278 614h198l176 -1400h-252l-120 1052l86 -10l-366 -760l-364 758l84 10l-120 -1050h-252zM638 -356v194h192v-194h-192z" />
    <glyph glyph-name="uni1E43" unicode="&#x1e43;" horiz-adv-x="1494" 
d="M100 0v1000h204l16 -132h-50q50 71 117 109.5t161 38.5q69 0 123.5 -23t92 -65.5t56.5 -99.5h-62q42 87 123.5 137.5t190.5 50.5q110 0 183 -46.5t109 -129t36 -190.5v-650h-240v618q0 93 -30.5 147.5t-107.5 54.5q-37 0 -65 -11t-47.5 -32t-29.5 -53t-10 -74v-650h-240
v618q0 63 -14 108.5t-44 69.5t-78 24q-69 0 -115.5 -42t-76.5 -116l38 152v-814h-240zM656 -356v194h192v-194h-192z" />
    <glyph glyph-name="uni1E44" unicode="&#x1e44;" horiz-adv-x="1222" 
d="M132 0v1400h250l464 -876v876h244v-1400h-214l-500 932v-932h-244zM514 1584v194h200v-194h-200z" />
    <glyph glyph-name="uni1E45" unicode="&#x1e45;" horiz-adv-x="962" 
d="M100 0v1000h208l16 -132h-54q53 71 121.5 109.5t170.5 38.5q155 0 231.5 -102t76.5 -264v-650h-240v618q0 95 -32 148.5t-104 53.5q-69 0 -115.5 -42t-76.5 -116l38 152v-814h-240zM404 1184v194h192v-194h-192z" />
    <glyph glyph-name="uni1E46" unicode="&#x1e46;" horiz-adv-x="1222" 
d="M132 0v1400h250l464 -876v876h244v-1400h-214l-500 932v-932h-244zM530 -356v194h192v-194h-192z" />
    <glyph glyph-name="uni1E47" unicode="&#x1e47;" horiz-adv-x="962" 
d="M100 0v1000h208l16 -132h-54q53 71 121.5 109.5t170.5 38.5q155 0 231.5 -102t76.5 -264v-650h-240v618q0 95 -32 148.5t-104 53.5q-69 0 -115.5 -42t-76.5 -116l38 152v-814h-240zM394 -356v194h192v-194h-192z" />
    <glyph glyph-name="uni1E48" unicode="&#x1e48;" horiz-adv-x="1222" 
d="M132 0v1400h250l464 -876v876h244v-1400h-214l-500 932v-932h-244zM338 -340v154h576v-154h-576z" />
    <glyph glyph-name="uni1E49" unicode="&#x1e49;" horiz-adv-x="962" 
d="M100 0v1000h208l16 -132h-54q53 71 121.5 109.5t170.5 38.5q155 0 231.5 -102t76.5 -264v-650h-240v618q0 95 -32 148.5t-104 53.5q-69 0 -115.5 -42t-76.5 -116l38 152v-814h-240zM202 -340v154h576v-154h-576z" />
    <glyph glyph-name="uni1E4C" unicode="&#x1e4c;" horiz-adv-x="1308" 
d="M654 -28q-172 0 -306 90.5t-211 254t-77 383.5t77 383.5t211 254t306 90.5q173 0 307 -90.5t210.5 -254t76.5 -383.5t-76.5 -383.5t-211 -254t-306.5 -90.5zM654 218q111 0 185.5 62t111.5 171t37 249t-37 249t-111.5 171t-185.5 62t-185 -62t-111.5 -171t-37.5 -249
t37.5 -249t112 -171t184.5 -62zM808 1554q-46 0 -90 20t-84 40t-74 20q-58 0 -58 -66h-152q0 102 37 156t113 54q46 0 90 -20t84 -40t74 -20q58 0 58 66h152q0 -100 -36.5 -155t-113.5 -55zM498 1846v138l314 160v-206z" />
    <glyph glyph-name="uni1E4D" unicode="&#x1e4d;" horiz-adv-x="982" 
d="M490 -20q-140 0 -239 71t-151 189t-52 258t52 258t151 189t239 71t239.5 -71t152 -189t52.5 -258t-52.5 -258t-152 -189t-239.5 -71zM490 176q96 0 148 90t52 233q0 142 -52 231.5t-148 89.5q-93 0 -145.5 -89.5t-52.5 -232.5q0 -142 52.5 -232t145.5 -90zM646 1154
q-46 0 -90 20t-84 40t-74 20q-58 0 -58 -66h-152q0 102 37 156t113 54q46 0 90 -20t84 -40t74 -20q58 0 58 66h152q0 -100 -36.5 -155t-113.5 -55zM336 1446v138l314 160v-206z" />
    <glyph glyph-name="uni1E4E" unicode="&#x1e4e;" horiz-adv-x="1308" 
d="M654 -28q-172 0 -306 90.5t-211 254t-77 383.5t77 383.5t211 254t306 90.5q173 0 307 -90.5t210.5 -254t76.5 -383.5t-76.5 -383.5t-211 -254t-306.5 -90.5zM654 218q111 0 185.5 62t111.5 171t37 249t-37 249t-111.5 171t-185.5 62t-185 -62t-111.5 -171t-37.5 -249
t37.5 -249t112 -171t184.5 -62zM808 1554q-46 0 -90 20t-84 40t-74 20q-58 0 -58 -66h-152q0 102 37 156t113 54q46 0 90 -20t84 -40t74 -20q58 0 58 66h152q0 -100 -36.5 -155t-113.5 -55zM396 1894v172h184v-172h-184zM728 1894v172h184v-172h-184z" />
    <glyph glyph-name="uni1E4F" unicode="&#x1e4f;" horiz-adv-x="982" 
d="M490 -20q-140 0 -239 71t-151 189t-52 258t52 258t151 189t239 71t239.5 -71t152 -189t52.5 -258t-52.5 -258t-152 -189t-239.5 -71zM490 176q96 0 148 90t52 233q0 142 -52 231.5t-148 89.5q-93 0 -145.5 -89.5t-52.5 -232.5q0 -142 52.5 -232t145.5 -90zM646 1154
q-46 0 -90 20t-84 40t-74 20q-58 0 -58 -66h-152q0 102 37 156t113 54q46 0 90 -20t84 -40t74 -20q58 0 58 66h152q0 -100 -36.5 -155t-113.5 -55zM234 1494v172h184v-172h-184zM566 1494v172h184v-172h-184z" />
    <glyph glyph-name="uni1E50" unicode="&#x1e50;" horiz-adv-x="1308" 
d="M654 -28q-172 0 -306 90.5t-211 254t-77 383.5t77 383.5t211 254t306 90.5q173 0 307 -90.5t210.5 -254t76.5 -383.5t-76.5 -383.5t-211 -254t-306.5 -90.5zM654 218q111 0 185.5 62t111.5 171t37 249t-37 249t-111.5 171t-185.5 62t-185 -62t-111.5 -171t-37.5 -249
t37.5 -249t112 -171t184.5 -62zM346 1586v144h616v-144h-616zM810 1862l-314 92v206l314 -160v-138z" />
    <glyph glyph-name="uni1E51" unicode="&#x1e51;" horiz-adv-x="982" 
d="M490 -20q-140 0 -239 71t-151 189t-52 258t52 258t151 189t239 71t239.5 -71t152 -189t52.5 -258t-52.5 -258t-152 -189t-239.5 -71zM490 176q96 0 148 90t52 233q0 142 -52 231.5t-148 89.5q-93 0 -145.5 -89.5t-52.5 -232.5q0 -142 52.5 -232t145.5 -90zM184 1186v144
h616v-144h-616zM648 1462l-314 92v206l314 -160v-138z" />
    <glyph glyph-name="uni1E52" unicode="&#x1e52;" horiz-adv-x="1308" 
d="M654 -28q-172 0 -306 90.5t-211 254t-77 383.5t77 383.5t211 254t306 90.5q173 0 307 -90.5t210.5 -254t76.5 -383.5t-76.5 -383.5t-211 -254t-306.5 -90.5zM654 218q111 0 185.5 62t111.5 171t37 249t-37 249t-111.5 171t-185.5 62t-185 -62t-111.5 -171t-37.5 -249
t37.5 -249t112 -171t184.5 -62zM346 1586v144h616v-144h-616zM498 1862v138l314 160v-206z" />
    <glyph glyph-name="uni1E53" unicode="&#x1e53;" horiz-adv-x="982" 
d="M490 -20q-140 0 -239 71t-151 189t-52 258t52 258t151 189t239 71t239.5 -71t152 -189t52.5 -258t-52.5 -258t-152 -189t-239.5 -71zM490 176q96 0 148 90t52 233q0 142 -52 231.5t-148 89.5q-93 0 -145.5 -89.5t-52.5 -232.5q0 -142 52.5 -232t145.5 -90zM184 1186v144
h616v-144h-616zM336 1462v138l314 160v-206z" />
    <glyph glyph-name="uni1E5A" unicode="&#x1e5a;" horiz-adv-x="1074" 
d="M122 0v1400h408q140 0 245.5 -44t164 -139t58.5 -249q0 -132 -52.5 -228.5t-145.5 -152.5l268 -587h-274l-228 520h-11h-11h-178v-520h-244zM366 732h142q113 0 175.5 52.5t62.5 175.5t-62.5 175.5t-175.5 52.5h-142v-456zM484 -356v194h192v-194h-192z" />
    <glyph glyph-name="uni1E5B" unicode="&#x1e5b;" horiz-adv-x="574" 
d="M90 0v1000h210l16 -106q51 57 100.5 89.5t119.5 32.5q28 0 52 -6l-18 -242q-13 5 -28 7.5t-36 2.5q-49 0 -88.5 -24t-87.5 -72v-682h-240zM114 -356v194h192v-194h-192z" />
    <glyph glyph-name="uni1E5E" unicode="&#x1e5e;" horiz-adv-x="1074" 
d="M122 0v1400h408q140 0 245.5 -44t164 -139t58.5 -249q0 -132 -52.5 -228.5t-145.5 -152.5l268 -587h-274l-228 520h-11h-11h-178v-520h-244zM366 732h142q113 0 175.5 52.5t62.5 175.5t-62.5 175.5t-175.5 52.5h-142v-456zM292 -340v154h576v-154h-576z" />
    <glyph glyph-name="uni1E5F" unicode="&#x1e5f;" horiz-adv-x="574" 
d="M90 0v1000h210l16 -106q51 57 100.5 89.5t119.5 32.5q28 0 52 -6l-18 -242q-13 5 -28 7.5t-36 2.5q-49 0 -88.5 -24t-87.5 -72v-682h-240zM-78 -340v154h576v-154h-576z" />
    <glyph glyph-name="uni1E60" unicode="&#x1e60;" horiz-adv-x="1014" 
d="M484 -28q-72 0 -144 10.5t-138 29.5t-120 46l30 272q64 -35 127.5 -60t128 -38.5t132.5 -13.5q95 0 149.5 38.5t54.5 111.5q0 54 -27 94t-89 77.5t-166 84.5q-111 50 -187 104.5t-114.5 126.5t-38.5 175q0 115 55.5 205t160.5 141.5t254 51.5q105 0 195 -23t169 -59
l-26 -264q-97 48 -183 74t-175 26q-91 0 -140.5 -35.5t-49.5 -106.5q0 -57 34 -94.5t97 -70.5t151 -75q112 -54 187.5 -112t114 -132.5t38.5 -177.5q0 -92 -32.5 -167t-94.5 -128.5t-151 -82t-202 -28.5zM442 1584v194h200v-194h-200z" />
    <glyph glyph-name="uni1E61" unicode="&#x1e61;" horiz-adv-x="738" 
d="M344 -20q-84 0 -151 18t-135 52l22 212q62 -42 124 -69t122 -27q68 0 104 26t36 72q0 32 -14.5 56t-50 47t-97.5 53q-76 37 -130 76.5t-83 93.5t-29 136q0 85 41.5 150.5t117.5 102.5t181 37q80 0 144 -20.5t118 -53.5l-22 -206q-52 45 -105.5 73.5t-118.5 28.5
q-57 0 -92.5 -24.5t-35.5 -71.5q0 -51 45 -81.5t141 -80.5q53 -27 94 -56.5t68.5 -65.5t41.5 -81t14 -103q0 -92 -43.5 -158t-122.5 -101t-184 -35zM300 1204v194h192v-194h-192z" />
    <glyph glyph-name="uni1E62" unicode="&#x1e62;" horiz-adv-x="1014" 
d="M484 -28q-72 0 -144 10.5t-138 29.5t-120 46l30 272q64 -35 127.5 -60t128 -38.5t132.5 -13.5q95 0 149.5 38.5t54.5 111.5q0 54 -27 94t-89 77.5t-166 84.5q-111 50 -187 104.5t-114.5 126.5t-38.5 175q0 115 55.5 205t160.5 141.5t254 51.5q105 0 195 -23t169 -59
l-26 -264q-97 48 -183 74t-175 26q-91 0 -140.5 -35.5t-49.5 -106.5q0 -57 34 -94.5t97 -70.5t151 -75q112 -54 187.5 -112t114 -132.5t38.5 -177.5q0 -92 -32.5 -167t-94.5 -128.5t-151 -82t-202 -28.5zM438 -356v194h192v-194h-192z" />
    <glyph glyph-name="uni1E63" unicode="&#x1e63;" horiz-adv-x="738" 
d="M344 -20q-84 0 -151 18t-135 52l22 212q62 -42 124 -69t122 -27q68 0 104 26t36 72q0 32 -14.5 56t-50 47t-97.5 53q-76 37 -130 76.5t-83 93.5t-29 136q0 85 41.5 150.5t117.5 102.5t181 37q80 0 144 -20.5t118 -53.5l-22 -206q-52 45 -105.5 73.5t-118.5 28.5
q-57 0 -92.5 -24.5t-35.5 -71.5q0 -51 45 -81.5t141 -80.5q53 -27 94 -56.5t68.5 -65.5t41.5 -81t14 -103q0 -92 -43.5 -158t-122.5 -101t-184 -35zM258 -356v194h192v-194h-192z" />
    <glyph glyph-name="uni1E64" unicode="&#x1e64;" horiz-adv-x="1014" 
d="M484 -28q-72 0 -144 10.5t-138 29.5t-120 46l30 272q64 -35 127.5 -60t128 -38.5t132.5 -13.5q95 0 149.5 38.5t54.5 111.5q0 54 -27 94t-89 77.5t-166 84.5q-111 50 -187 104.5t-114.5 126.5t-38.5 175q0 115 55.5 205t160.5 141.5t254 51.5q105 0 195 -23t169 -59
l-26 -264q-97 48 -183 74t-175 26q-91 0 -140.5 -35.5t-49.5 -106.5q0 -57 34 -94.5t97 -70.5t151 -75q112 -54 187.5 -112t114 -132.5t38.5 -177.5q0 -92 -32.5 -167t-94.5 -128.5t-151 -82t-202 -28.5zM386 1518v138l314 160v-206zM442 1908v194h200v-194h-200z" />
    <glyph glyph-name="uni1E65" unicode="&#x1e65;" horiz-adv-x="738" 
d="M344 -20q-84 0 -151 18t-135 52l22 212q62 -42 124 -69t122 -27q68 0 104 26t36 72q0 32 -14.5 56t-50 47t-97.5 53q-76 37 -130 76.5t-83 93.5t-29 136q0 85 41.5 150.5t117.5 102.5t181 37q80 0 144 -20.5t118 -53.5l-22 -206q-52 45 -105.5 73.5t-118.5 28.5
q-57 0 -92.5 -24.5t-35.5 -71.5q0 -51 45 -81.5t141 -80.5q53 -27 94 -56.5t68.5 -65.5t41.5 -81t14 -103q0 -92 -43.5 -158t-122.5 -101t-184 -35zM240 1118v138l314 160v-206zM296 1508v194h200v-194h-200z" />
    <glyph glyph-name="uni1E66" unicode="&#x1e66;" horiz-adv-x="1014" 
d="M484 -28q-72 0 -144 10.5t-138 29.5t-120 46l30 272q64 -35 127.5 -60t128 -38.5t132.5 -13.5q95 0 149.5 38.5t54.5 111.5q0 54 -27 94t-89 77.5t-166 84.5q-111 50 -187 104.5t-114.5 126.5t-38.5 175q0 115 55.5 205t160.5 141.5t254 51.5q105 0 195 -23t169 -59
l-26 -264q-97 48 -183 74t-175 26q-91 0 -140.5 -35.5t-49.5 -106.5q0 -57 34 -94.5t97 -70.5t151 -75q112 -54 187.5 -112t114 -132.5t38.5 -177.5q0 -92 -32.5 -167t-94.5 -128.5t-151 -82t-202 -28.5zM298 1880v-148l244 -172l244 172v148l-244 -132zM442 1956v194h200
v-194h-200z" />
    <glyph glyph-name="uni1E67" unicode="&#x1e67;" horiz-adv-x="738" 
d="M344 -20q-84 0 -151 18t-135 52l22 212q62 -42 124 -69t122 -27q68 0 104 26t36 72q0 32 -14.5 56t-50 47t-97.5 53q-76 37 -130 76.5t-83 93.5t-29 136q0 85 41.5 150.5t117.5 102.5t181 37q80 0 144 -20.5t118 -53.5l-22 -206q-52 45 -105.5 73.5t-118.5 28.5
q-57 0 -92.5 -24.5t-35.5 -71.5q0 -51 45 -81.5t141 -80.5q53 -27 94 -56.5t68.5 -65.5t41.5 -81t14 -103q0 -92 -43.5 -158t-122.5 -101t-184 -35zM152 1480v-148l244 -172l244 172v148l-244 -132zM296 1556v194h200v-194h-200z" />
    <glyph glyph-name="uni1E68" unicode="&#x1e68;" horiz-adv-x="1014" 
d="M484 -28q-72 0 -144 10.5t-138 29.5t-120 46l30 272q64 -35 127.5 -60t128 -38.5t132.5 -13.5q95 0 149.5 38.5t54.5 111.5q0 54 -27 94t-89 77.5t-166 84.5q-111 50 -187 104.5t-114.5 126.5t-38.5 175q0 115 55.5 205t160.5 141.5t254 51.5q105 0 195 -23t169 -59
l-26 -264q-97 48 -183 74t-175 26q-91 0 -140.5 -35.5t-49.5 -106.5q0 -57 34 -94.5t97 -70.5t151 -75q112 -54 187.5 -112t114 -132.5t38.5 -177.5q0 -92 -32.5 -167t-94.5 -128.5t-151 -82t-202 -28.5zM442 1584v194h200v-194h-200zM438 -356v194h192v-194h-192z" />
    <glyph glyph-name="uni1E69" unicode="&#x1e69;" horiz-adv-x="738" 
d="M344 -20q-84 0 -151 18t-135 52l22 212q62 -42 124 -69t122 -27q68 0 104 26t36 72q0 32 -14.5 56t-50 47t-97.5 53q-76 37 -130 76.5t-83 93.5t-29 136q0 85 41.5 150.5t117.5 102.5t181 37q80 0 144 -20.5t118 -53.5l-22 -206q-52 45 -105.5 73.5t-118.5 28.5
q-57 0 -92.5 -24.5t-35.5 -71.5q0 -51 45 -81.5t141 -80.5q53 -27 94 -56.5t68.5 -65.5t41.5 -81t14 -103q0 -92 -43.5 -158t-122.5 -101t-184 -35zM300 1204v194h192v-194h-192zM258 -356v194h192v-194h-192z" />
    <glyph glyph-name="uni1E6C" unicode="&#x1e6c;" horiz-adv-x="952" 
d="M354 0v1176h-336v224h916v-224h-336v-1176h-244zM380 -356v194h192v-194h-192z" />
    <glyph glyph-name="uni1E6D" unicode="&#x1e6d;" horiz-adv-x="598" 
d="M380 -20q-75 0 -127.5 29.5t-80.5 87.5t-28 145v554h-112l22 204h90v220l240 26v-246h174v-204h-174v-492q0 -41 11 -67.5t34 -39.5t59 -13h72l-22 -204h-158zM270 -356v194h192v-194h-192z" />
    <glyph glyph-name="uni1E6E" unicode="&#x1e6e;" horiz-adv-x="952" 
d="M354 0v1176h-336v224h916v-224h-336v-1176h-244zM188 -340v154h576v-154h-576z" />
    <glyph glyph-name="uni1E6F" unicode="&#x1e6f;" horiz-adv-x="598" 
d="M380 -20q-75 0 -127.5 29.5t-80.5 87.5t-28 145v554h-112l22 204h90v220l240 26v-246h174v-204h-174v-492q0 -41 11 -67.5t34 -39.5t59 -13h72l-22 -204h-158zM78 -340v154h576v-154h-576z" />
    <glyph glyph-name="uni1E78" unicode="&#x1e78;" horiz-adv-x="1240" 
d="M620 -28q-170 0 -281 70.5t-165 198t-54 299.5v860h244v-794q0 -85 11 -156t38.5 -123t77.5 -80.5t129 -28.5q80 0 130 28.5t77.5 80.5t38 123t10.5 156v794h244v-860q0 -172 -54 -299.5t-165 -198t-281 -70.5zM776 1554q-46 0 -90 20t-84 40t-74 20q-58 0 -58 -66h-152
q0 102 37 156t113 54q46 0 90 -20t84 -40t74 -20q58 0 58 66h152q0 -100 -36.5 -155t-113.5 -55zM466 1846v138l314 160v-206z" />
    <glyph glyph-name="uni1E79" unicode="&#x1e79;" horiz-adv-x="936" 
d="M400 -16q-103 0 -171.5 46.5t-102.5 129t-34 190.5v650h240v-618q0 -94 32 -148t104 -54q69 0 115.5 42.5t76.5 115.5l-38 -152v814h240v-1000h-208l-16 132h54q-52 -70 -121 -109t-171 -39zM632 1154q-46 0 -90 20t-84 40t-74 20q-58 0 -58 -66h-152q0 102 37 156
t113 54q46 0 90 -20t84 -40t74 -20q58 0 58 66h152q0 -100 -36.5 -155t-113.5 -55zM322 1446v138l314 160v-206z" />
    <glyph glyph-name="uni1E7A" unicode="&#x1e7a;" horiz-adv-x="1240" 
d="M620 -28q-170 0 -281 70.5t-165 198t-54 299.5v860h244v-794q0 -85 11 -156t38.5 -123t77.5 -80.5t129 -28.5q80 0 130 28.5t77.5 80.5t38 123t10.5 156v794h244v-860q0 -172 -54 -299.5t-165 -198t-281 -70.5zM314 1586v144h616v-144h-616zM364 1910v172h184v-172h-184z
M696 1910v172h184v-172h-184z" />
    <glyph glyph-name="uni1E7B" unicode="&#x1e7b;" horiz-adv-x="936" 
d="M400 -16q-103 0 -171.5 46.5t-102.5 129t-34 190.5v650h240v-618q0 -94 32 -148t104 -54q69 0 115.5 42.5t76.5 115.5l-38 -152v814h240v-1000h-208l-16 132h54q-52 -70 -121 -109t-171 -39zM170 1186v144h616v-144h-616zM220 1510v172h184v-172h-184zM552 1510v172h184
v-172h-184z" />
    <glyph glyph-name="Wgrave" unicode="&#x1e80;" horiz-adv-x="1620" 
d="M308 0l-312 1400h244l204 -1034l236 1008h260l236 -1008l204 1034h244l-312 -1400h-260l-242 1008l-242 -1008h-260zM966 1518l-314 92v206l314 -160v-138z" />
    <glyph glyph-name="wgrave" unicode="&#x1e81;" horiz-adv-x="1258" 
d="M284 0l-280 1000h242l146 -680l138 660h200l144 -660l138 680h242l-278 -1000h-206l-140 644l-140 -644h-206zM786 1152l-314 128v238l314 -200v-166z" />
    <glyph glyph-name="Wacute" unicode="&#x1e82;" horiz-adv-x="1620" 
d="M308 0l-312 1400h244l204 -1034l236 1008h260l236 -1008l204 1034h244l-312 -1400h-260l-242 1008l-242 -1008h-260zM654 1518v138l314 160v-206z" />
    <glyph glyph-name="wacute" unicode="&#x1e83;" horiz-adv-x="1258" 
d="M284 0l-280 1000h242l146 -680l138 660h200l144 -660l138 680h242l-278 -1000h-206l-140 644l-140 -644h-206zM474 1156v158l314 192v-230z" />
    <glyph glyph-name="Wdieresis" unicode="&#x1e84;" horiz-adv-x="1620" 
d="M308 0l-312 1400h244l204 -1034l236 1008h260l236 -1008l204 1034h244l-312 -1400h-260l-242 1008l-242 -1008h-260zM552 1566v172h184v-172h-184zM884 1566v172h184v-172h-184z" />
    <glyph glyph-name="wdieresis" unicode="&#x1e85;" horiz-adv-x="1258" 
d="M284 0l-280 1000h242l146 -680l138 660h200l144 -660l138 680h242l-278 -1000h-206l-140 644l-140 -644h-206zM704 1182v180h184v-180h-184zM372 1182v180h184v-180h-184z" />
    <glyph glyph-name="uni1E8E" unicode="&#x1e8e;" horiz-adv-x="1050" 
d="M404 0v620l-420 780h260l334 -654h-102l330 654h260l-420 -780v-620h-242zM426 1584v194h200v-194h-200z" />
    <glyph glyph-name="uni1E8F" unicode="&#x1e8f;" horiz-adv-x="958" 
d="M150 -484l208 530l-342 954h250l212 -680l212 680h250l-546 -1484h-244zM386 1204v194h192v-194h-192z" />
    <glyph glyph-name="uni1E92" unicode="&#x1e92;" horiz-adv-x="954" 
d="M14 0l602 1256l48 -80h-570v224h836l-598 -1256l-48 80h654v-224h-924zM380 -356v194h192v-194h-192z" />
    <glyph glyph-name="uni1E93" unicode="&#x1e93;" horiz-adv-x="802" 
d="M36 0l432 880v-82h-406v202h710l-432 -880l-10 82h430v-202h-724zM302 -356v194h192v-194h-192z" />
    <glyph glyph-name="uni1E97" unicode="&#x1e97;" horiz-adv-x="598" 
d="M380 -20q-75 0 -127.5 29.5t-80.5 87.5t-28 145v554h-112l22 204h90v220l240 26v-246h174v-204h-174v-492q0 -41 11 -67.5t34 -39.5t59 -13h72l-22 -204h-158zM338 1414v180h184v-180h-184zM6 1414v180h184v-180h-184z" />
    <glyph glyph-name="uni1E9E" unicode="&#x1e9e;" horiz-adv-x="1160" 
d="M132 0v906q0 176 61.5 292t171.5 173t255 57q110 0 196.5 -28t153.5 -72v-202l-264 -430l-96 144q138 0 246 -43t170 -137.5t62 -249.5q0 -148 -52.5 -245t-141.5 -145t-198 -48q-49 0 -95.5 7.5t-88.5 20.5v238q57 -20 120 -20q86 0 137 55t51 151q0 102 -52 157
t-156 55h-74v202l298 466l10 -162q-46 32 -90.5 48t-103.5 16q-126 0 -195 -79t-69 -217v-910h-256z" />
    <glyph glyph-name="uni1EA0" unicode="&#x1ea0;" horiz-adv-x="1070" 
d="M794 334h-518v224h518v-224zM512 1108h44l-316 -1108h-244l426 1400h224l428 -1400h-244zM438 -356v194h192v-194h-192z" />
    <glyph glyph-name="uni1EA1" unicode="&#x1ea1;" horiz-adv-x="846" 
d="M290 -20q-70 0 -130.5 31t-98 93t-37.5 154q0 90 35 154.5t91.5 107.5t121 68t125 36.5t101.5 13.5q0 86 -31 125t-111 39q-63 0 -120 -20t-122 -56l-16 202q80 44 161.5 66t160.5 22q95 0 167 -37t112.5 -118.5t40.5 -214.5v-302q0 -75 6 -108.5t20.5 -42.5t39.5 -9h32
l-16 -204h-106q-36 0 -72 14.5t-65 40.5t-45 61q-49 -54 -105 -85t-139 -31zM372 170q38 0 69 19t59 53v228q-56 -7 -107.5 -27.5t-84 -59.5t-32.5 -101q0 -61 28 -86.5t68 -25.5zM328 -356v194h192v-194h-192z" />
    <glyph glyph-name="uni1EA2" unicode="&#x1ea2;" horiz-adv-x="1070" 
d="M794 334h-518v224h518v-224zM512 1108h44l-316 -1108h-244l426 1400h224l428 -1400h-244zM524 1520l-22 88q30 9 46 24.5t16 43.5q0 29 -17 42.5t-49 13.5q-24 0 -49 -8t-49 -20l-34 122q33 14 69 21t75 7q77 0 129.5 -39.5t52.5 -114.5q0 -69 -42 -111t-126 -69z" />
    <glyph glyph-name="uni1EA3" unicode="&#x1ea3;" horiz-adv-x="846" 
d="M290 -20q-70 0 -130.5 31t-98 93t-37.5 154q0 90 35 154.5t91.5 107.5t121 68t125 36.5t101.5 13.5q0 86 -31 125t-111 39q-63 0 -120 -20t-122 -56l-16 202q80 44 161.5 66t160.5 22q95 0 167 -37t112.5 -118.5t40.5 -214.5v-302q0 -75 6 -108.5t20.5 -42.5t39.5 -9h32
l-16 -204h-106q-36 0 -72 14.5t-65 40.5t-45 61q-49 -54 -105 -85t-139 -31zM372 170q38 0 69 19t59 53v228q-56 -7 -107.5 -27.5t-84 -59.5t-32.5 -101q0 -61 28 -86.5t68 -25.5zM456 1068l-74 74q33 35 52.5 63.5t19.5 64.5q0 33 -18.5 49.5t-51.5 16.5q-22 0 -46.5 -8
t-47.5 -22l-34 118q30 14 64.5 22t71.5 8q77 0 129.5 -46t52.5 -130q0 -66 -30.5 -114t-87.5 -96z" />
    <glyph glyph-name="uni1EA4" unicode="&#x1ea4;" horiz-adv-x="1070" 
d="M794 334h-518v224h518v-224zM512 1108h44l-316 -1108h-244l426 1400h224l428 -1400h-244zM290 1490v148l244 172l244 -172v-148l-244 132zM674 1778l112 254h222l-184 -254h-150z" />
    <glyph glyph-name="uni1EA5" unicode="&#x1ea5;" horiz-adv-x="846" 
d="M290 -20q-70 0 -130.5 31t-98 93t-37.5 154q0 90 35 154.5t91.5 107.5t121 68t125 36.5t101.5 13.5q0 86 -31 125t-111 39q-63 0 -120 -20t-122 -56l-16 202q80 44 161.5 66t160.5 22q95 0 167 -37t112.5 -118.5t40.5 -214.5v-302q0 -75 6 -108.5t20.5 -42.5t39.5 -9h32
l-16 -204h-106q-36 0 -72 14.5t-65 40.5t-45 61q-49 -54 -105 -85t-139 -31zM372 170q38 0 69 19t59 53v228q-56 -7 -107.5 -27.5t-84 -59.5t-32.5 -101q0 -61 28 -86.5t68 -25.5zM180 1090v148l244 172l244 -172v-148l-244 132zM564 1378l112 254h222l-184 -254h-150z" />
    <glyph glyph-name="uni1EA6" unicode="&#x1ea6;" horiz-adv-x="1070" 
d="M794 334h-518v224h518v-224zM512 1108h44l-316 -1108h-244l426 1400h224l428 -1400h-244zM290 1490v148l244 172l244 -172v-148l-244 132zM730 1778l-144 254h206l82 -254h-144z" />
    <glyph glyph-name="uni1EA7" unicode="&#x1ea7;" horiz-adv-x="846" 
d="M290 -20q-70 0 -130.5 31t-98 93t-37.5 154q0 90 35 154.5t91.5 107.5t121 68t125 36.5t101.5 13.5q0 86 -31 125t-111 39q-63 0 -120 -20t-122 -56l-16 202q80 44 161.5 66t160.5 22q95 0 167 -37t112.5 -118.5t40.5 -214.5v-302q0 -75 6 -108.5t20.5 -42.5t39.5 -9h32
l-16 -204h-106q-36 0 -72 14.5t-65 40.5t-45 61q-49 -54 -105 -85t-139 -31zM372 170q38 0 69 19t59 53v228q-56 -7 -107.5 -27.5t-84 -59.5t-32.5 -101q0 -61 28 -86.5t68 -25.5zM180 1090v148l244 172l244 -172v-148l-244 132zM620 1378l-144 254h206l82 -254h-144z" />
    <glyph glyph-name="uni1EA8" unicode="&#x1ea8;" horiz-adv-x="1070" 
d="M794 334h-518v224h518v-224zM512 1108h44l-316 -1108h-244l426 1400h224l428 -1400h-244zM290 1490v148l244 172l244 -172v-148l-244 132zM726 1752l-22 88q30 9 46 24.5t16 43.5q0 29 -17 42.5t-49 13.5q-24 0 -49 -8t-49 -20l-34 122q33 14 69 21t75 7
q77 0 129.5 -39.5t52.5 -114.5q0 -69 -42 -111t-126 -69z" />
    <glyph glyph-name="uni1EA9" unicode="&#x1ea9;" horiz-adv-x="846" 
d="M290 -20q-70 0 -130.5 31t-98 93t-37.5 154q0 90 35 154.5t91.5 107.5t121 68t125 36.5t101.5 13.5q0 86 -31 125t-111 39q-63 0 -120 -20t-122 -56l-16 202q80 44 161.5 66t160.5 22q95 0 167 -37t112.5 -118.5t40.5 -214.5v-302q0 -75 6 -108.5t20.5 -42.5t39.5 -9h32
l-16 -204h-106q-36 0 -72 14.5t-65 40.5t-45 61q-49 -54 -105 -85t-139 -31zM372 170q38 0 69 19t59 53v228q-56 -7 -107.5 -27.5t-84 -59.5t-32.5 -101q0 -61 28 -86.5t68 -25.5zM180 1090v148l244 172l244 -172v-148l-244 132zM616 1352l-22 88q30 9 46 24.5t16 43.5
q0 29 -17 42.5t-49 13.5q-24 0 -49 -8t-49 -20l-34 122q33 14 69 21t75 7q77 0 129.5 -39.5t52.5 -114.5q0 -69 -42 -111t-126 -69z" />
    <glyph glyph-name="uni1EAA" unicode="&#x1eaa;" horiz-adv-x="1070" 
d="M794 334h-518v224h518v-224zM512 1108h44l-316 -1108h-244l426 1400h224l428 -1400h-244zM290 1490v148l244 172l244 -172v-148l-244 132zM688 1882q-46 0 -90 20t-84 40t-74 20q-58 0 -58 -66h-152q0 102 37 156t113 54q46 0 90 -20t84 -40t74 -20q58 0 58 66h152
q0 -100 -36.5 -155t-113.5 -55z" />
    <glyph glyph-name="uni1EAB" unicode="&#x1eab;" horiz-adv-x="846" 
d="M290 -20q-70 0 -130.5 31t-98 93t-37.5 154q0 90 35 154.5t91.5 107.5t121 68t125 36.5t101.5 13.5q0 86 -31 125t-111 39q-63 0 -120 -20t-122 -56l-16 202q80 44 161.5 66t160.5 22q95 0 167 -37t112.5 -118.5t40.5 -214.5v-302q0 -75 6 -108.5t20.5 -42.5t39.5 -9h32
l-16 -204h-106q-36 0 -72 14.5t-65 40.5t-45 61q-49 -54 -105 -85t-139 -31zM372 170q38 0 69 19t59 53v228q-56 -7 -107.5 -27.5t-84 -59.5t-32.5 -101q0 -61 28 -86.5t68 -25.5zM180 1090v148l244 172l244 -172v-148l-244 132zM578 1482q-46 0 -90 20t-84 40t-74 20
q-58 0 -58 -66h-152q0 102 37 156t113 54q46 0 90 -20t84 -40t74 -20q58 0 58 66h152q0 -100 -36.5 -155t-113.5 -55z" />
    <glyph glyph-name="uni1EAC" unicode="&#x1eac;" horiz-adv-x="1070" 
d="M794 334h-518v224h518v-224zM512 1108h44l-316 -1108h-244l426 1400h224l428 -1400h-244zM310 1528v158l224 190l224 -190v-158l-224 140zM438 -356v194h192v-194h-192z" />
    <glyph glyph-name="uni1EAD" unicode="&#x1ead;" horiz-adv-x="846" 
d="M290 -20q-70 0 -130.5 31t-98 93t-37.5 154q0 90 35 154.5t91.5 107.5t121 68t125 36.5t101.5 13.5q0 86 -31 125t-111 39q-63 0 -120 -20t-122 -56l-16 202q80 44 161.5 66t160.5 22q95 0 167 -37t112.5 -118.5t40.5 -214.5v-302q0 -75 6 -108.5t20.5 -42.5t39.5 -9h32
l-16 -204h-106q-36 0 -72 14.5t-65 40.5t-45 61q-49 -54 -105 -85t-139 -31zM372 170q38 0 69 19t59 53v228q-56 -7 -107.5 -27.5t-84 -59.5t-32.5 -101q0 -61 28 -86.5t68 -25.5zM200 1128v158l224 190l224 -190v-158l-224 140zM328 -356v194h192v-194h-192z" />
    <glyph glyph-name="uni1EAE" unicode="&#x1eae;" horiz-adv-x="1070" 
d="M794 334h-518v224h518v-224zM512 1108h44l-316 -1108h-244l426 1400h224l428 -1400h-244zM534 1530q-89 0 -153.5 35t-99.5 92.5t-35 126.5h170q0 -57 32 -87.5t86 -30.5t86 30.5t32 87.5h170q0 -69 -34.5 -126.5t-99 -92.5t-154.5 -35zM378 1876v138l314 160v-206z" />
    <glyph glyph-name="uni1EAF" unicode="&#x1eaf;" horiz-adv-x="846" 
d="M290 -20q-70 0 -130.5 31t-98 93t-37.5 154q0 90 35 154.5t91.5 107.5t121 68t125 36.5t101.5 13.5q0 86 -31 125t-111 39q-63 0 -120 -20t-122 -56l-16 202q80 44 161.5 66t160.5 22q95 0 167 -37t112.5 -118.5t40.5 -214.5v-302q0 -75 6 -108.5t20.5 -42.5t39.5 -9h32
l-16 -204h-106q-36 0 -72 14.5t-65 40.5t-45 61q-49 -54 -105 -85t-139 -31zM372 170q38 0 69 19t59 53v228q-56 -7 -107.5 -27.5t-84 -59.5t-32.5 -101q0 -61 28 -86.5t68 -25.5zM424 1130q-89 0 -153.5 35t-99.5 92.5t-35 126.5h170q0 -57 32 -87.5t86 -30.5t86 30.5
t32 87.5h170q0 -69 -34.5 -126.5t-99 -92.5t-154.5 -35zM268 1476v138l314 160v-206z" />
    <glyph glyph-name="uni1EB0" unicode="&#x1eb0;" horiz-adv-x="1070" 
d="M794 334h-518v224h518v-224zM512 1108h44l-316 -1108h-244l426 1400h224l428 -1400h-244zM534 1530q-89 0 -153.5 35t-99.5 92.5t-35 126.5h170q0 -57 32 -87.5t86 -30.5t86 30.5t32 87.5h170q0 -69 -34.5 -126.5t-99 -92.5t-154.5 -35zM690 1876l-314 92v206l314 -160
v-138z" />
    <glyph glyph-name="uni1EB1" unicode="&#x1eb1;" horiz-adv-x="846" 
d="M290 -20q-70 0 -130.5 31t-98 93t-37.5 154q0 90 35 154.5t91.5 107.5t121 68t125 36.5t101.5 13.5q0 86 -31 125t-111 39q-63 0 -120 -20t-122 -56l-16 202q80 44 161.5 66t160.5 22q95 0 167 -37t112.5 -118.5t40.5 -214.5v-302q0 -75 6 -108.5t20.5 -42.5t39.5 -9h32
l-16 -204h-106q-36 0 -72 14.5t-65 40.5t-45 61q-49 -54 -105 -85t-139 -31zM372 170q38 0 69 19t59 53v228q-56 -7 -107.5 -27.5t-84 -59.5t-32.5 -101q0 -61 28 -86.5t68 -25.5zM424 1130q-89 0 -153.5 35t-99.5 92.5t-35 126.5h170q0 -57 32 -87.5t86 -30.5t86 30.5
t32 87.5h170q0 -69 -34.5 -126.5t-99 -92.5t-154.5 -35zM580 1476l-314 92v206l314 -160v-138z" />
    <glyph glyph-name="uni1EB2" unicode="&#x1eb2;" horiz-adv-x="1070" 
d="M794 334h-518v224h518v-224zM512 1108h44l-316 -1108h-244l426 1400h224l428 -1400h-244zM534 1530q-89 0 -153.5 35t-99.5 92.5t-35 126.5h170q0 -57 32 -87.5t86 -30.5t86 30.5t32 87.5h170q0 -69 -34.5 -126.5t-99 -92.5t-154.5 -35zM544 1814l-22 88q30 9 46 24.5
t16 43.5q0 29 -17 42.5t-49 13.5q-24 0 -49 -8t-49 -20l-34 122q33 14 69 21t75 7q77 0 129.5 -39.5t52.5 -114.5q0 -69 -42 -111t-126 -69z" />
    <glyph glyph-name="uni1EB3" unicode="&#x1eb3;" horiz-adv-x="846" 
d="M290 -20q-70 0 -130.5 31t-98 93t-37.5 154q0 90 35 154.5t91.5 107.5t121 68t125 36.5t101.5 13.5q0 86 -31 125t-111 39q-63 0 -120 -20t-122 -56l-16 202q80 44 161.5 66t160.5 22q95 0 167 -37t112.5 -118.5t40.5 -214.5v-302q0 -75 6 -108.5t20.5 -42.5t39.5 -9h32
l-16 -204h-106q-36 0 -72 14.5t-65 40.5t-45 61q-49 -54 -105 -85t-139 -31zM372 170q38 0 69 19t59 53v228q-56 -7 -107.5 -27.5t-84 -59.5t-32.5 -101q0 -61 28 -86.5t68 -25.5zM424 1130q-89 0 -153.5 35t-99.5 92.5t-35 126.5h170q0 -57 32 -87.5t86 -30.5t86 30.5
t32 87.5h170q0 -69 -34.5 -126.5t-99 -92.5t-154.5 -35zM434 1414l-22 88q30 9 46 24.5t16 43.5q0 29 -17 42.5t-49 13.5q-24 0 -49 -8t-49 -20l-34 122q33 14 69 21t75 7q77 0 129.5 -39.5t52.5 -114.5q0 -69 -42 -111t-126 -69z" />
    <glyph glyph-name="uni1EB4" unicode="&#x1eb4;" horiz-adv-x="1070" 
d="M794 334h-518v224h518v-224zM512 1108h44l-316 -1108h-244l426 1400h224l428 -1400h-244zM535 1530q-90 0 -154.5 35t-99.5 92.5t-35 126.5h170q0 -57 32 -87.5t86 -30.5t86 30.5t32 87.5h170q0 -69 -34.5 -126.5t-99 -92.5t-153.5 -35zM688 1882q-46 0 -90 20t-84 40
t-74 20q-58 0 -58 -66h-152q0 102 37 156t113 54q46 0 90 -20t84 -40t74 -20q58 0 58 66h152q0 -100 -36.5 -155t-113.5 -55z" />
    <glyph glyph-name="uni1EB5" unicode="&#x1eb5;" horiz-adv-x="846" 
d="M290 -20q-70 0 -130.5 31t-98 93t-37.5 154q0 90 35 154.5t91.5 107.5t121 68t125 36.5t101.5 13.5q0 86 -31 125t-111 39q-63 0 -120 -20t-122 -56l-16 202q80 44 161.5 66t160.5 22q95 0 167 -37t112.5 -118.5t40.5 -214.5v-302q0 -75 6 -108.5t20.5 -42.5t39.5 -9h32
l-16 -204h-106q-36 0 -72 14.5t-65 40.5t-45 61q-49 -54 -105 -85t-139 -31zM372 170q38 0 69 19t59 53v228q-56 -7 -107.5 -27.5t-84 -59.5t-32.5 -101q0 -61 28 -86.5t68 -25.5zM425 1130q-90 0 -154.5 35t-99.5 92.5t-35 126.5h170q0 -57 32 -87.5t86 -30.5t86 30.5
t32 87.5h170q0 -69 -34.5 -126.5t-99 -92.5t-153.5 -35zM578 1482q-46 0 -90 20t-84 40t-74 20q-58 0 -58 -66h-152q0 102 37 156t113 54q46 0 90 -20t84 -40t74 -20q58 0 58 66h152q0 -100 -36.5 -155t-113.5 -55z" />
    <glyph glyph-name="uni1EB6" unicode="&#x1eb6;" horiz-adv-x="1070" 
d="M794 334h-518v224h518v-224zM512 1108h44l-316 -1108h-244l426 1400h224l428 -1400h-244zM535 1574q-87 0 -149.5 35.5t-96 95t-33.5 131.5h162q0 -55 29.5 -86.5t86.5 -31.5t86.5 31.5t29.5 86.5h162q0 -72 -33 -131.5t-95.5 -95t-148.5 -35.5zM438 -356v194h192v-194
h-192z" />
    <glyph glyph-name="uni1EB7" unicode="&#x1eb7;" horiz-adv-x="846" 
d="M290 -20q-70 0 -130.5 31t-98 93t-37.5 154q0 90 35 154.5t91.5 107.5t121 68t125 36.5t101.5 13.5q0 86 -31 125t-111 39q-63 0 -120 -20t-122 -56l-16 202q80 44 161.5 66t160.5 22q95 0 167 -37t112.5 -118.5t40.5 -214.5v-302q0 -75 6 -108.5t20.5 -42.5t39.5 -9h32
l-16 -204h-106q-36 0 -72 14.5t-65 40.5t-45 61q-49 -54 -105 -85t-139 -31zM372 170q38 0 69 19t59 53v228q-56 -7 -107.5 -27.5t-84 -59.5t-32.5 -101q0 -61 28 -86.5t68 -25.5zM425 1174q-87 0 -149.5 35.5t-96 95t-33.5 131.5h162q0 -55 29.5 -86.5t86.5 -31.5
t86.5 31.5t29.5 86.5h162q0 -72 -33 -131.5t-95.5 -95t-148.5 -35.5zM328 -356v194h192v-194h-192z" />
    <glyph glyph-name="uni1EB8" unicode="&#x1eb8;" horiz-adv-x="994" 
d="M132 0v1400h786v-224h-542v-330h418v-224h-418v-398h560v-224h-804zM438 -356v194h192v-194h-192z" />
    <glyph glyph-name="uni1EB9" unicode="&#x1eb9;" horiz-adv-x="892" 
d="M514 -20q-158 0 -262.5 71.5t-156 189.5t-51.5 259q0 145 49.5 262t145.5 185.5t237 68.5q114 0 196 -54.5t126 -154t44 -233.5q0 -31 -3 -62t-9 -66h-539q10 -95 45 -155t88.5 -87.5t115.5 -27.5q77 0 141.5 23t116.5 57l6 -210q-52 -28 -125 -47t-165 -19zM294 614h306
q0 57 -12.5 103.5t-43 74.5t-84.5 28q-70 0 -111 -52.5t-55 -153.5zM412 -356v194h192v-194h-192z" />
    <glyph glyph-name="uni1EBA" unicode="&#x1eba;" horiz-adv-x="994" 
d="M132 0v1400h786v-224h-542v-330h418v-224h-418v-398h560v-224h-804zM516 1520l-22 88q30 9 46 24.5t16 43.5q0 29 -17 42.5t-49 13.5q-24 0 -49 -8t-49 -20l-34 122q33 14 69 21t75 7q77 0 129.5 -39.5t52.5 -114.5q0 -69 -42 -111t-126 -69z" />
    <glyph glyph-name="uni1EBB" unicode="&#x1ebb;" horiz-adv-x="892" 
d="M514 -20q-158 0 -262.5 71.5t-156 189.5t-51.5 259q0 145 49.5 262t145.5 185.5t237 68.5q114 0 196 -54.5t126 -154t44 -233.5q0 -31 -3 -62t-9 -66h-539q10 -95 45 -155t88.5 -87.5t115.5 -27.5q77 0 141.5 23t116.5 57l6 -210q-52 -28 -125 -47t-165 -19zM294 614h306
q0 57 -12.5 103.5t-43 74.5t-84.5 28q-70 0 -111 -52.5t-55 -153.5zM508 1068l-74 74q33 35 52.5 63.5t19.5 64.5q0 33 -18.5 49.5t-51.5 16.5q-22 0 -46.5 -8t-47.5 -22l-34 118q30 14 64.5 22t71.5 8q77 0 129.5 -46t52.5 -130q0 -66 -30.5 -114t-87.5 -96z" />
    <glyph glyph-name="uni1EBC" unicode="&#x1ebc;" horiz-adv-x="994" 
d="M132 0v1400h786v-224h-542v-330h418v-224h-418v-398h560v-224h-804zM680 1554q-46 0 -90 20t-84 40t-74 20q-58 0 -58 -66h-152q0 102 37 156t113 54q46 0 90 -20t84 -40t74 -20q58 0 58 66h152q0 -100 -36.5 -155t-113.5 -55z" />
    <glyph glyph-name="uni1EBD" unicode="&#x1ebd;" horiz-adv-x="892" 
d="M514 -20q-158 0 -262.5 71.5t-156 189.5t-51.5 259q0 145 49.5 262t145.5 185.5t237 68.5q114 0 196 -54.5t126 -154t44 -233.5q0 -31 -3 -62t-9 -66h-539q10 -95 45 -155t88.5 -87.5t115.5 -27.5q77 0 141.5 23t116.5 57l6 -210q-52 -28 -125 -47t-165 -19zM294 614h306
q0 57 -12.5 103.5t-43 74.5t-84.5 28q-70 0 -111 -52.5t-55 -153.5zM614 1156q-51 0 -88 22t-68.5 44t-65.5 22q-56 0 -56 -72h-162q5 117 46.5 179.5t117.5 62.5q51 0 88 -22t68.5 -44t65.5 -22q56 0 56 72h162q-4 -117 -45.5 -179.5t-118.5 -62.5z" />
    <glyph glyph-name="uni1EBE" unicode="&#x1ebe;" horiz-adv-x="994" 
d="M132 0v1400h786v-224h-542v-330h418v-224h-418v-398h560v-224h-804zM282 1490v148l244 172l244 -172v-148l-244 132zM666 1778l112 254h222l-184 -254h-150z" />
    <glyph glyph-name="uni1EBF" unicode="&#x1ebf;" horiz-adv-x="892" 
d="M514 -20q-158 0 -262.5 71.5t-156 189.5t-51.5 259q0 145 49.5 262t145.5 185.5t237 68.5q114 0 196 -54.5t126 -154t44 -233.5q0 -31 -3 -62t-9 -66h-539q10 -95 45 -155t88.5 -87.5t115.5 -27.5q77 0 141.5 23t116.5 57l6 -210q-52 -28 -125 -47t-165 -19zM294 614h306
q0 57 -12.5 103.5t-43 74.5t-84.5 28q-70 0 -111 -52.5t-55 -153.5zM232 1090v148l244 172l244 -172v-148l-244 132zM616 1378l112 254h222l-184 -254h-150z" />
    <glyph glyph-name="uni1EC0" unicode="&#x1ec0;" horiz-adv-x="994" 
d="M132 0v1400h786v-224h-542v-330h418v-224h-418v-398h560v-224h-804zM282 1490v148l244 172l244 -172v-148l-244 132zM722 1778l-144 254h206l82 -254h-144z" />
    <glyph glyph-name="uni1EC1" unicode="&#x1ec1;" horiz-adv-x="892" 
d="M514 -20q-158 0 -262.5 71.5t-156 189.5t-51.5 259q0 145 49.5 262t145.5 185.5t237 68.5q114 0 196 -54.5t126 -154t44 -233.5q0 -31 -3 -62t-9 -66h-539q10 -95 45 -155t88.5 -87.5t115.5 -27.5q77 0 141.5 23t116.5 57l6 -210q-52 -28 -125 -47t-165 -19zM294 614h306
q0 57 -12.5 103.5t-43 74.5t-84.5 28q-70 0 -111 -52.5t-55 -153.5zM232 1090v148l244 172l244 -172v-148l-244 132zM672 1378l-144 254h206l82 -254h-144z" />
    <glyph glyph-name="uni1EC2" unicode="&#x1ec2;" horiz-adv-x="994" 
d="M132 0v1400h786v-224h-542v-330h418v-224h-418v-398h560v-224h-804zM282 1490v148l244 172l244 -172v-148l-244 132zM718 1752l-22 88q30 9 46 24.5t16 43.5q0 29 -17 42.5t-49 13.5q-24 0 -49 -8t-49 -20l-34 122q33 14 69 21t75 7q77 0 129.5 -39.5t52.5 -114.5
q0 -69 -42 -111t-126 -69z" />
    <glyph glyph-name="uni1EC3" unicode="&#x1ec3;" horiz-adv-x="892" 
d="M514 -20q-158 0 -262.5 71.5t-156 189.5t-51.5 259q0 145 49.5 262t145.5 185.5t237 68.5q114 0 196 -54.5t126 -154t44 -233.5q0 -31 -3 -62t-9 -66h-539q10 -95 45 -155t88.5 -87.5t115.5 -27.5q77 0 141.5 23t116.5 57l6 -210q-52 -28 -125 -47t-165 -19zM294 614h306
q0 57 -12.5 103.5t-43 74.5t-84.5 28q-70 0 -111 -52.5t-55 -153.5zM232 1090v148l244 172l244 -172v-148l-244 132zM668 1352l-22 88q30 9 46 24.5t16 43.5q0 29 -17 42.5t-49 13.5q-24 0 -49 -8t-49 -20l-34 122q33 14 69 21t75 7q77 0 129.5 -39.5t52.5 -114.5
q0 -69 -42 -111t-126 -69z" />
    <glyph glyph-name="uni1EC4" unicode="&#x1ec4;" horiz-adv-x="994" 
d="M132 0v1400h786v-224h-542v-330h418v-224h-418v-398h560v-224h-804zM282 1490v148l244 172l244 -172v-148l-244 132zM680 1882q-46 0 -90 20t-84 40t-74 20q-58 0 -58 -66h-152q0 102 37 156t113 54q46 0 90 -20t84 -40t74 -20q58 0 58 66h152q0 -100 -36.5 -155
t-113.5 -55z" />
    <glyph glyph-name="uni1EC5" unicode="&#x1ec5;" horiz-adv-x="892" 
d="M514 -20q-158 0 -262.5 71.5t-156 189.5t-51.5 259q0 145 49.5 262t145.5 185.5t237 68.5q114 0 196 -54.5t126 -154t44 -233.5q0 -31 -3 -62t-9 -66h-539q10 -95 45 -155t88.5 -87.5t115.5 -27.5q77 0 141.5 23t116.5 57l6 -210q-52 -28 -125 -47t-165 -19zM294 614h306
q0 57 -12.5 103.5t-43 74.5t-84.5 28q-70 0 -111 -52.5t-55 -153.5zM232 1090v148l244 172l244 -172v-148l-244 132zM630 1482q-46 0 -90 20t-84 40t-74 20q-58 0 -58 -66h-152q0 102 37 156t113 54q46 0 90 -20t84 -40t74 -20q58 0 58 66h152q0 -100 -36.5 -155t-113.5 -55
z" />
    <glyph glyph-name="uni1EC6" unicode="&#x1ec6;" horiz-adv-x="994" 
d="M132 0v1400h786v-224h-542v-330h418v-224h-418v-398h560v-224h-804zM282 1490v148l244 172l244 -172v-148l-244 132zM438 -356v194h192v-194h-192z" />
    <glyph glyph-name="uni1EC7" unicode="&#x1ec7;" horiz-adv-x="892" 
d="M514 -20q-158 0 -262.5 71.5t-156 189.5t-51.5 259q0 145 49.5 262t145.5 185.5t237 68.5q114 0 196 -54.5t126 -154t44 -233.5q0 -31 -3 -62t-9 -66h-539q10 -95 45 -155t88.5 -87.5t115.5 -27.5q77 0 141.5 23t116.5 57l6 -210q-52 -28 -125 -47t-165 -19zM294 614h306
q0 57 -12.5 103.5t-43 74.5t-84.5 28q-70 0 -111 -52.5t-55 -153.5zM252 1128v158l224 190l224 -190v-158l-224 140zM412 -356v194h192v-194h-192z" />
    <glyph glyph-name="uni1EC8" unicode="&#x1ec8;" horiz-adv-x="484" 
d="M120 0v1400h244v-1400h-244zM232 1520l-22 88q30 9 46 24.5t16 43.5q0 29 -17 42.5t-49 13.5q-24 0 -49 -8t-49 -20l-34 122q33 14 69 21t75 7q77 0 129.5 -39.5t52.5 -114.5q0 -69 -42 -111t-126 -69z" />
    <glyph glyph-name="uni1EC9" unicode="&#x1ec9;" horiz-adv-x="414" 
d="M88 0v1000h238v-1000h-238zM240 1068l-74 74q33 35 52.5 63.5t19.5 64.5q0 33 -18.5 49.5t-51.5 16.5q-22 0 -46.5 -8t-47.5 -22l-34 118q30 14 64.5 22t71.5 8q77 0 129.5 -46t52.5 -130q0 -66 -30.5 -114t-87.5 -96z" />
    <glyph glyph-name="uni1ECA" unicode="&#x1eca;" horiz-adv-x="484" 
d="M120 0v1400h244v-1400h-244zM146 -356v194h192v-194h-192z" />
    <glyph glyph-name="uni1ECB" unicode="&#x1ecb;" horiz-adv-x="416" 
d="M88 0v1000h240v-1000h-240zM88 1152v248h240v-248h-240zM112 -356v194h192v-194h-192z" />
    <glyph glyph-name="uni1ECC" unicode="&#x1ecc;" horiz-adv-x="1308" 
d="M654 -28q-172 0 -306 90.5t-211 254t-77 383.5t77 383.5t211 254t306 90.5q173 0 307 -90.5t210.5 -254t76.5 -383.5t-76.5 -383.5t-211 -254t-306.5 -90.5zM654 218q111 0 185.5 62t111.5 171t37 249t-37 249t-111.5 171t-185.5 62t-185 -62t-111.5 -171t-37.5 -249
t37.5 -249t112 -171t184.5 -62zM558 -356v194h192v-194h-192z" />
    <glyph glyph-name="uni1ECD" unicode="&#x1ecd;" horiz-adv-x="982" 
d="M490 -20q-140 0 -239 71t-151 189t-52 258t52 258t151 189t239 71t239.5 -71t152 -189t52.5 -258t-52.5 -258t-152 -189t-239.5 -71zM490 176q96 0 148 90t52 233q0 142 -52 231.5t-148 89.5q-93 0 -145.5 -89.5t-52.5 -232.5q0 -142 52.5 -232t145.5 -90zM396 -356v194
h192v-194h-192z" />
    <glyph glyph-name="uni1ECE" unicode="&#x1ece;" horiz-adv-x="1308" 
d="M654 -28q-172 0 -306 90.5t-211 254t-77 383.5t77 383.5t211 254t306 90.5q173 0 307 -90.5t210.5 -254t76.5 -383.5t-76.5 -383.5t-211 -254t-306.5 -90.5zM654 218q111 0 185.5 62t111.5 171t37 249t-37 249t-111.5 171t-185.5 62t-185 -62t-111.5 -171t-37.5 -249
t37.5 -249t112 -171t184.5 -62zM644 1520l-22 88q30 9 46 24.5t16 43.5q0 29 -17 42.5t-49 13.5q-24 0 -49 -8t-49 -20l-34 122q33 14 69 21t75 7q77 0 129.5 -39.5t52.5 -114.5q0 -69 -42 -111t-126 -69z" />
    <glyph glyph-name="uni1ECF" unicode="&#x1ecf;" horiz-adv-x="982" 
d="M490 -20q-140 0 -239 71t-151 189t-52 258t52 258t151 189t239 71t239.5 -71t152 -189t52.5 -258t-52.5 -258t-152 -189t-239.5 -71zM490 176q96 0 148 90t52 233q0 142 -52 231.5t-148 89.5q-93 0 -145.5 -89.5t-52.5 -232.5q0 -142 52.5 -232t145.5 -90zM524 1068
l-74 74q33 35 52.5 63.5t19.5 64.5q0 33 -18.5 49.5t-51.5 16.5q-22 0 -46.5 -8t-47.5 -22l-34 118q30 14 64.5 22t71.5 8q77 0 129.5 -46t52.5 -130q0 -66 -30.5 -114t-87.5 -96z" />
    <glyph glyph-name="uni1ED0" unicode="&#x1ed0;" horiz-adv-x="1308" 
d="M654 -28q-172 0 -306 90.5t-211 254t-77 383.5t77 383.5t211 254t306 90.5q173 0 307 -90.5t210.5 -254t76.5 -383.5t-76.5 -383.5t-211 -254t-306.5 -90.5zM654 218q111 0 185.5 62t111.5 171t37 249t-37 249t-111.5 171t-185.5 62t-185 -62t-111.5 -171t-37.5 -249
t37.5 -249t112 -171t184.5 -62zM410 1490v148l244 172l244 -172v-148l-244 132zM794 1778l112 254h222l-184 -254h-150z" />
    <glyph glyph-name="uni1ED1" unicode="&#x1ed1;" horiz-adv-x="982" 
d="M490 -20q-140 0 -239 71t-151 189t-52 258t52 258t151 189t239 71t239.5 -71t152 -189t52.5 -258t-52.5 -258t-152 -189t-239.5 -71zM490 176q96 0 148 90t52 233q0 142 -52 231.5t-148 89.5q-93 0 -145.5 -89.5t-52.5 -232.5q0 -142 52.5 -232t145.5 -90zM248 1090v148
l244 172l244 -172v-148l-244 132zM632 1378l112 254h222l-184 -254h-150z" />
    <glyph glyph-name="uni1ED2" unicode="&#x1ed2;" horiz-adv-x="1308" 
d="M654 -28q-172 0 -306 90.5t-211 254t-77 383.5t77 383.5t211 254t306 90.5q173 0 307 -90.5t210.5 -254t76.5 -383.5t-76.5 -383.5t-211 -254t-306.5 -90.5zM654 218q111 0 185.5 62t111.5 171t37 249t-37 249t-111.5 171t-185.5 62t-185 -62t-111.5 -171t-37.5 -249
t37.5 -249t112 -171t184.5 -62zM410 1490v148l244 172l244 -172v-148l-244 132zM850 1778l-144 254h206l82 -254h-144z" />
    <glyph glyph-name="uni1ED3" unicode="&#x1ed3;" horiz-adv-x="982" 
d="M490 -20q-140 0 -239 71t-151 189t-52 258t52 258t151 189t239 71t239.5 -71t152 -189t52.5 -258t-52.5 -258t-152 -189t-239.5 -71zM490 176q96 0 148 90t52 233q0 142 -52 231.5t-148 89.5q-93 0 -145.5 -89.5t-52.5 -232.5q0 -142 52.5 -232t145.5 -90zM248 1090v148
l244 172l244 -172v-148l-244 132zM688 1378l-144 254h206l82 -254h-144z" />
    <glyph glyph-name="uni1ED4" unicode="&#x1ed4;" horiz-adv-x="1308" 
d="M654 -28q-172 0 -306 90.5t-211 254t-77 383.5t77 383.5t211 254t306 90.5q173 0 307 -90.5t210.5 -254t76.5 -383.5t-76.5 -383.5t-211 -254t-306.5 -90.5zM654 218q111 0 185.5 62t111.5 171t37 249t-37 249t-111.5 171t-185.5 62t-185 -62t-111.5 -171t-37.5 -249
t37.5 -249t112 -171t184.5 -62zM410 1490v148l244 172l244 -172v-148l-244 132zM846 1752l-22 88q30 9 46 24.5t16 43.5q0 29 -17 42.5t-49 13.5q-24 0 -49 -8t-49 -20l-34 122q33 14 69 21t75 7q77 0 129.5 -39.5t52.5 -114.5q0 -69 -42 -111t-126 -69z" />
    <glyph glyph-name="uni1ED5" unicode="&#x1ed5;" horiz-adv-x="982" 
d="M490 -20q-140 0 -239 71t-151 189t-52 258t52 258t151 189t239 71t239.5 -71t152 -189t52.5 -258t-52.5 -258t-152 -189t-239.5 -71zM490 176q96 0 148 90t52 233q0 142 -52 231.5t-148 89.5q-93 0 -145.5 -89.5t-52.5 -232.5q0 -142 52.5 -232t145.5 -90zM248 1090v148
l244 172l244 -172v-148l-244 132zM684 1352l-22 88q30 9 46 24.5t16 43.5q0 29 -17 42.5t-49 13.5q-24 0 -49 -8t-49 -20l-34 122q33 14 69 21t75 7q77 0 129.5 -39.5t52.5 -114.5q0 -69 -42 -111t-126 -69z" />
    <glyph glyph-name="uni1ED6" unicode="&#x1ed6;" horiz-adv-x="1308" 
d="M654 -28q-172 0 -306 90.5t-211 254t-77 383.5t77 383.5t211 254t306 90.5q173 0 307 -90.5t210.5 -254t76.5 -383.5t-76.5 -383.5t-211 -254t-306.5 -90.5zM654 218q111 0 185.5 62t111.5 171t37 249t-37 249t-111.5 171t-185.5 62t-185 -62t-111.5 -171t-37.5 -249
t37.5 -249t112 -171t184.5 -62zM410 1490v148l244 172l244 -172v-148l-244 132zM808 1882q-46 0 -90 20t-84 40t-74 20q-58 0 -58 -66h-152q0 102 37 156t113 54q46 0 90 -20t84 -40t74 -20q58 0 58 66h152q0 -100 -36.5 -155t-113.5 -55z" />
    <glyph glyph-name="uni1ED7" unicode="&#x1ed7;" horiz-adv-x="982" 
d="M490 -20q-140 0 -239 71t-151 189t-52 258t52 258t151 189t239 71t239.5 -71t152 -189t52.5 -258t-52.5 -258t-152 -189t-239.5 -71zM490 176q96 0 148 90t52 233q0 142 -52 231.5t-148 89.5q-93 0 -145.5 -89.5t-52.5 -232.5q0 -142 52.5 -232t145.5 -90zM248 1090v148
l244 172l244 -172v-148l-244 132zM646 1482q-46 0 -90 20t-84 40t-74 20q-58 0 -58 -66h-152q0 102 37 156t113 54q46 0 90 -20t84 -40t74 -20q58 0 58 66h152q0 -100 -36.5 -155t-113.5 -55z" />
    <glyph glyph-name="uni1ED8" unicode="&#x1ed8;" horiz-adv-x="1308" 
d="M654 -28q-172 0 -306 90.5t-211 254t-77 383.5t77 383.5t211 254t306 90.5q173 0 307 -90.5t210.5 -254t76.5 -383.5t-76.5 -383.5t-211 -254t-306.5 -90.5zM654 218q111 0 185.5 62t111.5 171t37 249t-37 249t-111.5 171t-185.5 62t-185 -62t-111.5 -171t-37.5 -249
t37.5 -249t112 -171t184.5 -62zM430 1528v158l224 190l224 -190v-158l-224 140zM558 -356v194h192v-194h-192z" />
    <glyph glyph-name="uni1ED9" unicode="&#x1ed9;" horiz-adv-x="982" 
d="M490 -20q-140 0 -239 71t-151 189t-52 258t52 258t151 189t239 71t239.5 -71t152 -189t52.5 -258t-52.5 -258t-152 -189t-239.5 -71zM490 176q96 0 148 90t52 233q0 142 -52 231.5t-148 89.5q-93 0 -145.5 -89.5t-52.5 -232.5q0 -142 52.5 -232t145.5 -90zM268 1128v158
l224 190l224 -190v-158l-224 140zM396 -356v194h192v-194h-192z" />
    <glyph glyph-name="uni1EDA" unicode="&#x1eda;" horiz-adv-x="1308" 
d="M654 -28q-172 0 -306 90.5t-211 254t-77 383.5t77 383.5t211 254t306 90.5q173 0 307 -90.5t210.5 -254t76.5 -383.5t-76.5 -383.5t-211 -254t-306.5 -90.5zM654 218q111 0 185.5 62t111.5 171t37 249t-37 249t-111.5 171t-185.5 62t-185 -62t-111.5 -171t-37.5 -249
t37.5 -249t112 -171t184.5 -62zM828 1236v164q68 0 106 34.5t38 113.5h202q0 -107 -49 -176t-128 -102.5t-169 -33.5zM498 1518v138l314 160v-206z" />
    <glyph glyph-name="uni1EDB" unicode="&#x1edb;" horiz-adv-x="982" 
d="M490 -20q-140 0 -239 71t-151 189t-52 258t52 258t151 189t239 71t239.5 -71t152 -189t52.5 -258t-52.5 -258t-152 -189t-239.5 -71zM490 176q96 0 148 90t52 233q0 142 -52 231.5t-148 89.5q-93 0 -145.5 -89.5t-52.5 -232.5q0 -142 52.5 -232t145.5 -90zM584 836v164
q68 0 106 34.5t38 113.5h202q0 -107 -49 -176t-128 -102.5t-169 -33.5zM336 1156v158l314 192v-230z" />
    <glyph glyph-name="uni1EDC" unicode="&#x1edc;" horiz-adv-x="1308" 
d="M654 -28q-172 0 -306 90.5t-211 254t-77 383.5t77 383.5t211 254t306 90.5q173 0 307 -90.5t210.5 -254t76.5 -383.5t-76.5 -383.5t-211 -254t-306.5 -90.5zM654 218q111 0 185.5 62t111.5 171t37 249t-37 249t-111.5 171t-185.5 62t-185 -62t-111.5 -171t-37.5 -249
t37.5 -249t112 -171t184.5 -62zM828 1236v164q68 0 106 34.5t38 113.5h202q0 -107 -49 -176t-128 -102.5t-169 -33.5zM810 1518l-314 92v206l314 -160v-138z" />
    <glyph glyph-name="uni1EDD" unicode="&#x1edd;" horiz-adv-x="982" 
d="M490 -20q-140 0 -239 71t-151 189t-52 258t52 258t151 189t239 71t239.5 -71t152 -189t52.5 -258t-52.5 -258t-152 -189t-239.5 -71zM490 176q96 0 148 90t52 233q0 142 -52 231.5t-148 89.5q-93 0 -145.5 -89.5t-52.5 -232.5q0 -142 52.5 -232t145.5 -90zM584 836v164
q68 0 106 34.5t38 113.5h202q0 -107 -49 -176t-128 -102.5t-169 -33.5zM648 1152l-314 128v238l314 -200v-166z" />
    <glyph glyph-name="uni1EDE" unicode="&#x1ede;" horiz-adv-x="1308" 
d="M654 -28q-172 0 -306 90.5t-211 254t-77 383.5t77 383.5t211 254t306 90.5q173 0 307 -90.5t210.5 -254t76.5 -383.5t-76.5 -383.5t-211 -254t-306.5 -90.5zM654 218q111 0 185.5 62t111.5 171t37 249t-37 249t-111.5 171t-185.5 62t-185 -62t-111.5 -171t-37.5 -249
t37.5 -249t112 -171t184.5 -62zM828 1236v164q68 0 106 34.5t38 113.5h202q0 -107 -49 -176t-128 -102.5t-169 -33.5zM644 1520l-22 88q30 9 46 24.5t16 43.5q0 29 -17 42.5t-49 13.5q-24 0 -49 -8t-49 -20l-34 122q33 14 69 21t75 7q77 0 129.5 -39.5t52.5 -114.5
q0 -69 -42 -111t-126 -69z" />
    <glyph glyph-name="uni1EDF" unicode="&#x1edf;" horiz-adv-x="982" 
d="M490 -20q-140 0 -239 71t-151 189t-52 258t52 258t151 189t239 71t239.5 -71t152 -189t52.5 -258t-52.5 -258t-152 -189t-239.5 -71zM490 176q96 0 148 90t52 233q0 142 -52 231.5t-148 89.5q-93 0 -145.5 -89.5t-52.5 -232.5q0 -142 52.5 -232t145.5 -90zM584 836v164
q68 0 106 34.5t38 113.5h202q0 -107 -49 -176t-128 -102.5t-169 -33.5zM524 1068l-74 74q33 35 52.5 63.5t19.5 64.5q0 33 -18.5 49.5t-51.5 16.5q-22 0 -46.5 -8t-47.5 -22l-34 118q30 14 64.5 22t71.5 8q77 0 129.5 -46t52.5 -130q0 -66 -30.5 -114t-87.5 -96z" />
    <glyph glyph-name="uni1EE0" unicode="&#x1ee0;" horiz-adv-x="1308" 
d="M654 -28q-172 0 -306 90.5t-211 254t-77 383.5t77 383.5t211 254t306 90.5q173 0 307 -90.5t210.5 -254t76.5 -383.5t-76.5 -383.5t-211 -254t-306.5 -90.5zM654 218q111 0 185.5 62t111.5 171t37 249t-37 249t-111.5 171t-185.5 62t-185 -62t-111.5 -171t-37.5 -249
t37.5 -249t112 -171t184.5 -62zM828 1236v164q68 0 106 34.5t38 113.5h202q0 -107 -49 -176t-128 -102.5t-169 -33.5zM808 1554q-46 0 -90 20t-84 40t-74 20q-58 0 -58 -66h-152q0 102 37 156t113 54q46 0 90 -20t84 -40t74 -20q58 0 58 66h152q0 -100 -36.5 -155
t-113.5 -55z" />
    <glyph glyph-name="uni1EE1" unicode="&#x1ee1;" horiz-adv-x="982" 
d="M490 -20q-140 0 -239 71t-151 189t-52 258t52 258t151 189t239 71t239.5 -71t152 -189t52.5 -258t-52.5 -258t-152 -189t-239.5 -71zM490 176q96 0 148 90t52 233q0 142 -52 231.5t-148 89.5q-93 0 -145.5 -89.5t-52.5 -232.5q0 -142 52.5 -232t145.5 -90zM584 836v164
q68 0 106 34.5t38 113.5h202q0 -107 -49 -176t-128 -102.5t-169 -33.5zM630 1156q-51 0 -88 22t-68.5 44t-65.5 22q-56 0 -56 -72h-162q5 117 46.5 179.5t117.5 62.5q51 0 88 -22t68.5 -44t65.5 -22q56 0 56 72h162q-4 -117 -45.5 -179.5t-118.5 -62.5z" />
    <glyph glyph-name="uni1EE2" unicode="&#x1ee2;" horiz-adv-x="1308" 
d="M654 -28q-172 0 -306 90.5t-211 254t-77 383.5t77 383.5t211 254t306 90.5q173 0 307 -90.5t210.5 -254t76.5 -383.5t-76.5 -383.5t-211 -254t-306.5 -90.5zM654 218q111 0 185.5 62t111.5 171t37 249t-37 249t-111.5 171t-185.5 62t-185 -62t-111.5 -171t-37.5 -249
t37.5 -249t112 -171t184.5 -62zM828 1236v164q68 0 106 34.5t38 113.5h202q0 -107 -49 -176t-128 -102.5t-169 -33.5zM558 -356v194h192v-194h-192z" />
    <glyph glyph-name="uni1EE3" unicode="&#x1ee3;" horiz-adv-x="982" 
d="M490 -20q-140 0 -239 71t-151 189t-52 258t52 258t151 189t239 71t239.5 -71t152 -189t52.5 -258t-52.5 -258t-152 -189t-239.5 -71zM490 176q96 0 148 90t52 233q0 142 -52 231.5t-148 89.5q-93 0 -145.5 -89.5t-52.5 -232.5q0 -142 52.5 -232t145.5 -90zM584 836v164
q68 0 106 34.5t38 113.5h202q0 -107 -49 -176t-128 -102.5t-169 -33.5zM396 -356v194h192v-194h-192z" />
    <glyph glyph-name="uni1EE4" unicode="&#x1ee4;" horiz-adv-x="1240" 
d="M620 -28q-170 0 -281 70.5t-165 198t-54 299.5v860h244v-794q0 -85 11 -156t38.5 -123t77.5 -80.5t129 -28.5q80 0 130 28.5t77.5 80.5t38 123t10.5 156v794h244v-860q0 -172 -54 -299.5t-165 -198t-281 -70.5zM526 -356v194h192v-194h-192z" />
    <glyph glyph-name="uni1EE5" unicode="&#x1ee5;" horiz-adv-x="936" 
d="M400 -16q-103 0 -171.5 46.5t-102.5 129t-34 190.5v650h240v-618q0 -94 32 -148t104 -54q69 0 115.5 42.5t76.5 115.5l-38 -152v814h240v-1000h-208l-16 132h54q-52 -70 -121 -109t-171 -39zM372 -356v194h192v-194h-192z" />
    <glyph glyph-name="uni1EE6" unicode="&#x1ee6;" horiz-adv-x="1240" 
d="M620 -28q-170 0 -281 70.5t-165 198t-54 299.5v860h244v-794q0 -85 11 -156t38.5 -123t77.5 -80.5t129 -28.5q80 0 130 28.5t77.5 80.5t38 123t10.5 156v794h244v-860q0 -172 -54 -299.5t-165 -198t-281 -70.5zM612 1520l-22 88q30 9 46 24.5t16 43.5q0 29 -17 42.5
t-49 13.5q-24 0 -49 -8t-49 -20l-34 122q33 14 69 21t75 7q77 0 129.5 -39.5t52.5 -114.5q0 -69 -42 -111t-126 -69z" />
    <glyph glyph-name="uni1EE7" unicode="&#x1ee7;" horiz-adv-x="936" 
d="M400 -16q-103 0 -171.5 46.5t-102.5 129t-34 190.5v650h240v-618q0 -94 32 -148t104 -54q69 0 115.5 42.5t76.5 115.5l-38 -152v814h240v-1000h-208l-16 132h54q-52 -70 -121 -109t-171 -39zM510 1068l-74 74q33 35 52.5 63.5t19.5 64.5q0 33 -18.5 49.5t-51.5 16.5
q-22 0 -46.5 -8t-47.5 -22l-34 118q30 14 64.5 22t71.5 8q77 0 129.5 -46t52.5 -130q0 -66 -30.5 -114t-87.5 -96z" />
    <glyph glyph-name="uni1EE8" unicode="&#x1ee8;" horiz-adv-x="1240" 
d="M620 -28q-170 0 -281 70.5t-165 198t-54 299.5v860h244v-794q0 -85 11 -156t38.5 -123t77.5 -80.5t129 -28.5q80 0 130 28.5t77.5 80.5t38 123t10.5 156v794h244v-860q0 -172 -54 -299.5t-165 -198t-281 -70.5zM958 1236v164q68 0 106 34.5t38 113.5h202q0 -107 -49 -176
t-128 -102.5t-169 -33.5zM466 1518v138l314 160v-206z" />
    <glyph glyph-name="uni1EE9" unicode="&#x1ee9;" horiz-adv-x="936" 
d="M400 -16q-103 0 -171.5 46.5t-102.5 129t-34 190.5v650h240v-618q0 -94 32 -148t104 -54q69 0 115.5 42.5t76.5 115.5l-38 -152v814h240v-1000h-208l-16 132h54q-52 -70 -121 -109t-171 -39zM682 836v164q68 0 106 34.5t38 113.5h202q0 -107 -49 -176t-128 -102.5
t-169 -33.5zM322 1156v158l314 192v-230z" />
    <glyph glyph-name="uni1EEA" unicode="&#x1eea;" horiz-adv-x="1240" 
d="M620 -28q-170 0 -281 70.5t-165 198t-54 299.5v860h244v-794q0 -85 11 -156t38.5 -123t77.5 -80.5t129 -28.5q80 0 130 28.5t77.5 80.5t38 123t10.5 156v794h244v-860q0 -172 -54 -299.5t-165 -198t-281 -70.5zM958 1236v164q68 0 106 34.5t38 113.5h202q0 -107 -49 -176
t-128 -102.5t-169 -33.5zM778 1518l-314 92v206l314 -160v-138z" />
    <glyph glyph-name="uni1EEB" unicode="&#x1eeb;" horiz-adv-x="936" 
d="M400 -16q-103 0 -171.5 46.5t-102.5 129t-34 190.5v650h240v-618q0 -94 32 -148t104 -54q69 0 115.5 42.5t76.5 115.5l-38 -152v814h240v-1000h-208l-16 132h54q-52 -70 -121 -109t-171 -39zM682 836v164q68 0 106 34.5t38 113.5h202q0 -107 -49 -176t-128 -102.5
t-169 -33.5zM634 1152l-314 128v238l314 -200v-166z" />
    <glyph glyph-name="uni1EEC" unicode="&#x1eec;" horiz-adv-x="1240" 
d="M620 -28q-170 0 -281 70.5t-165 198t-54 299.5v860h244v-794q0 -85 11 -156t38.5 -123t77.5 -80.5t129 -28.5q80 0 130 28.5t77.5 80.5t38 123t10.5 156v794h244v-860q0 -172 -54 -299.5t-165 -198t-281 -70.5zM958 1236v164q68 0 106 34.5t38 113.5h202q0 -107 -49 -176
t-128 -102.5t-169 -33.5zM612 1520l-22 88q30 9 46 24.5t16 43.5q0 29 -17 42.5t-49 13.5q-24 0 -49 -8t-49 -20l-34 122q33 14 69 21t75 7q77 0 129.5 -39.5t52.5 -114.5q0 -69 -42 -111t-126 -69z" />
    <glyph glyph-name="uni1EED" unicode="&#x1eed;" horiz-adv-x="936" 
d="M400 -16q-103 0 -171.5 46.5t-102.5 129t-34 190.5v650h240v-618q0 -94 32 -148t104 -54q69 0 115.5 42.5t76.5 115.5l-38 -152v814h240v-1000h-208l-16 132h54q-52 -70 -121 -109t-171 -39zM682 836v164q68 0 106 34.5t38 113.5h202q0 -107 -49 -176t-128 -102.5
t-169 -33.5zM510 1068l-74 74q33 35 52.5 63.5t19.5 64.5q0 33 -18.5 49.5t-51.5 16.5q-22 0 -46.5 -8t-47.5 -22l-34 118q30 14 64.5 22t71.5 8q77 0 129.5 -46t52.5 -130q0 -66 -30.5 -114t-87.5 -96z" />
    <glyph glyph-name="uni1EEE" unicode="&#x1eee;" horiz-adv-x="1240" 
d="M620 -28q-170 0 -281 70.5t-165 198t-54 299.5v860h244v-794q0 -85 11 -156t38.5 -123t77.5 -80.5t129 -28.5q80 0 130 28.5t77.5 80.5t38 123t10.5 156v794h244v-860q0 -172 -54 -299.5t-165 -198t-281 -70.5zM958 1236v164q68 0 106 34.5t38 113.5h202q0 -107 -49 -176
t-128 -102.5t-169 -33.5zM776 1554q-46 0 -90 20t-84 40t-74 20q-58 0 -58 -66h-152q0 102 37 156t113 54q46 0 90 -20t84 -40t74 -20q58 0 58 66h152q0 -100 -36.5 -155t-113.5 -55z" />
    <glyph glyph-name="uni1EEF" unicode="&#x1eef;" horiz-adv-x="936" 
d="M400 -16q-103 0 -171.5 46.5t-102.5 129t-34 190.5v650h240v-618q0 -94 32 -148t104 -54q69 0 115.5 42.5t76.5 115.5l-38 -152v814h240v-1000h-208l-16 132h54q-52 -70 -121 -109t-171 -39zM682 836v164q68 0 106 34.5t38 113.5h202q0 -107 -49 -176t-128 -102.5
t-169 -33.5zM616 1156q-51 0 -88 22t-68.5 44t-65.5 22q-56 0 -56 -72h-162q5 117 46.5 179.5t117.5 62.5q51 0 88 -22t68.5 -44t65.5 -22q56 0 56 72h162q-4 -117 -45.5 -179.5t-118.5 -62.5z" />
    <glyph glyph-name="uni1EF0" unicode="&#x1ef0;" horiz-adv-x="1240" 
d="M620 -28q-170 0 -281 70.5t-165 198t-54 299.5v860h244v-794q0 -85 11 -156t38.5 -123t77.5 -80.5t129 -28.5q80 0 130 28.5t77.5 80.5t38 123t10.5 156v794h244v-860q0 -172 -54 -299.5t-165 -198t-281 -70.5zM958 1236v164q68 0 106 34.5t38 113.5h202q0 -107 -49 -176
t-128 -102.5t-169 -33.5zM526 -356v194h192v-194h-192z" />
    <glyph glyph-name="uni1EF1" unicode="&#x1ef1;" horiz-adv-x="936" 
d="M400 -16q-103 0 -171.5 46.5t-102.5 129t-34 190.5v650h240v-618q0 -94 32 -148t104 -54q69 0 115.5 42.5t76.5 115.5l-38 -152v814h240v-1000h-208l-16 132h54q-52 -70 -121 -109t-171 -39zM682 836v164q68 0 106 34.5t38 113.5h202q0 -107 -49 -176t-128 -102.5
t-169 -33.5zM372 -356v194h192v-194h-192z" />
    <glyph glyph-name="Ygrave" unicode="&#x1ef2;" horiz-adv-x="1050" 
d="M404 0v620l-420 780h260l334 -654h-102l330 654h260l-420 -780v-620h-242zM682 1518l-314 92v206l314 -160v-138z" />
    <glyph glyph-name="ygrave" unicode="&#x1ef3;" horiz-adv-x="958" 
d="M150 -484l208 530l-342 954h250l212 -680l212 680h250l-546 -1484h-244zM638 1152l-314 128v238l314 -200v-166z" />
    <glyph glyph-name="uni1EF4" unicode="&#x1ef4;" horiz-adv-x="1050" 
d="M404 0v620l-420 780h260l334 -654h-102l330 654h260l-420 -780v-620h-242zM430 -356v194h192v-194h-192z" />
    <glyph glyph-name="uni1EF5" unicode="&#x1ef5;" horiz-adv-x="958" 
d="M150 -484l208 530l-342 954h250l212 -680l212 680h250l-546 -1484h-244zM606 -356v194h192v-194h-192z" />
    <glyph glyph-name="uni1EF6" unicode="&#x1ef6;" horiz-adv-x="1050" 
d="M404 0v620l-420 780h260l334 -654h-102l330 654h260l-420 -780v-620h-242zM516 1520l-22 88q30 9 46 24.5t16 43.5q0 29 -17 42.5t-49 13.5q-24 0 -49 -8t-49 -20l-34 122q33 14 69 21t75 7q77 0 129.5 -39.5t52.5 -114.5q0 -69 -42 -111t-126 -69z" />
    <glyph glyph-name="uni1EF7" unicode="&#x1ef7;" horiz-adv-x="958" 
d="M150 -484l208 530l-342 954h250l212 -680l212 680h250l-546 -1484h-244zM514 1068l-74 74q33 35 52.5 63.5t19.5 64.5q0 33 -18.5 49.5t-51.5 16.5q-22 0 -46.5 -8t-47.5 -22l-34 118q30 14 64.5 22t71.5 8q77 0 129.5 -46t52.5 -130q0 -66 -30.5 -114t-87.5 -96z" />
    <glyph glyph-name="uni1EF8" unicode="&#x1ef8;" horiz-adv-x="1050" 
d="M404 0v620l-420 780h260l334 -654h-102l330 654h260l-420 -780v-620h-242zM680 1554q-46 0 -90 20t-84 40t-74 20q-58 0 -58 -66h-152q0 102 37 156t113 54q46 0 90 -20t84 -40t74 -20q58 0 58 66h152q0 -100 -36.5 -155t-113.5 -55z" />
    <glyph glyph-name="uni1EF9" unicode="&#x1ef9;" horiz-adv-x="958" 
d="M150 -484l208 530l-342 954h250l212 -680l212 680h250l-546 -1484h-244zM620 1156q-51 0 -88 22t-68.5 44t-65.5 22q-56 0 -56 -72h-162q5 117 46.5 179.5t117.5 62.5q51 0 88 -22t68.5 -44t65.5 -22q56 0 56 72h162q-4 -117 -45.5 -179.5t-118.5 -62.5z" />
    <glyph glyph-name="uni2007" unicode="&#x2007;" horiz-adv-x="1212" 
 />
    <glyph glyph-name="uni2008" unicode="&#x2008;" horiz-adv-x="388" 
 />
    <glyph glyph-name="uni2009" unicode="&#x2009;" horiz-adv-x="400" 
 />
    <glyph glyph-name="uni200A" unicode="&#x200a;" horiz-adv-x="200" 
 />
    <glyph glyph-name="uni200B" unicode="&#x200b;" 
 />
    <glyph glyph-name="uni2010" unicode="&#x2010;" horiz-adv-x="702" 
d="M84 528v188h534v-188h-534z" />
    <glyph glyph-name="figuredash" unicode="&#x2012;" horiz-adv-x="1212" 
d="M0 528v188h1212v-188h-1212z" />
    <glyph glyph-name="endash" unicode="&#x2013;" horiz-adv-x="958" 
d="M0 528v188h958v-188h-958z" />
    <glyph glyph-name="emdash" unicode="&#x2014;" horiz-adv-x="1304" 
d="M0 528v188h1304v-188h-1304z" />
    <glyph glyph-name="uni2015" unicode="&#x2015;" horiz-adv-x="1304" 
d="M0 528v188h1304v-188h-1304z" />
    <glyph glyph-name="quoteleft" unicode="&#x2018;" horiz-adv-x="420" 
d="M216 1400h100l-86 -240h102v-272h-244v248z" />
    <glyph glyph-name="quoteright" unicode="&#x2019;" horiz-adv-x="408" 
d="M204 888h-100l86 240h-102v272h244v-248z" />
    <glyph glyph-name="quotesinglbase" unicode="&#x201a;" horiz-adv-x="408" 
d="M204 -240h-100l86 240h-102v272h244v-248z" />
    <glyph glyph-name="quotedblleft" unicode="&#x201c;" horiz-adv-x="766" 
d="M216 1426h100l-86 -240h102v-272h-244v248zM562 1426h100l-86 -240h102v-272h-244v248z" />
    <glyph glyph-name="quotedblright" unicode="&#x201d;" horiz-adv-x="754" 
d="M204 888h-100l86 240h-102v272h244v-248zM550 888h-100l86 240h-102v272h244v-248z" />
    <glyph glyph-name="quotedblbase" unicode="&#x201e;" horiz-adv-x="754" 
d="M204 -240h-100l86 240h-102v272h244v-248zM550 -240h-100l86 240h-102v272h244v-248z" />
    <glyph glyph-name="dagger" unicode="&#x2020;" horiz-adv-x="732" 
d="M278 0l-52 514l42 236l-206 -52v264l206 -54l-46 306h288l-46 -306l206 54v-264l-204 52l40 -236l-50 -514h-178z" />
    <glyph glyph-name="daggerdbl" unicode="&#x2021;" horiz-adv-x="772" 
d="M242 -118l46 306l-206 -54v264l204 -52l-40 202l40 202l-204 -52v264l206 -54l-46 306h288l-46 -306l206 54v-264l-202 52l38 -202l-38 -202l202 52v-264l-206 54l46 -306h-288z" />
    <glyph glyph-name="bullet" unicode="&#x2022;" horiz-adv-x="556" 
d="M278 338q-88 0 -143 64t-55 154t55 154t143 64q89 0 143.5 -64t54.5 -154t-54.5 -154t-143.5 -64z" />
    <glyph glyph-name="ellipsis" unicode="&#x2026;" horiz-adv-x="1152" 
d="M72 0v272h244v-272h-244zM454 0v272h244v-272h-244zM836 0v272h244v-272h-244z" />
    <glyph glyph-name="perthousand" unicode="&#x2030;" horiz-adv-x="2306" 
d="M374 628q-96 0 -163.5 52.5t-103 144t-35.5 209.5q0 179 79 286.5t223 107.5t223 -107.5t79 -286.5q0 -118 -35.5 -209.5t-103 -144t-163.5 -52.5zM374 794q54 0 80 62.5t26 177.5q0 116 -26 172t-80 56t-80 -56t-26 -172q0 -115 26 -177.5t80 -62.5zM322 0l754 1400h190
l-752 -1400h-192zM1222 -28q-96 0 -163.5 52.5t-103 144t-35.5 209.5q0 179 79 286.5t223 107.5t223 -107.5t79 -286.5q0 -118 -35.5 -209.5t-103 -144t-163.5 -52.5zM1222 138q54 0 80 62.5t26 177.5q0 116 -26 172t-80 56t-80 -56t-26 -172q0 -115 26 -177.5t80 -62.5z
M1932 -28q-96 0 -163.5 52.5t-103 144t-35.5 209.5q0 179 79 286.5t223 107.5t223 -107.5t79 -286.5q0 -118 -35.5 -209.5t-103 -144t-163.5 -52.5zM1932 138q54 0 80 62.5t26 177.5q0 116 -26 172t-80 56t-80 -56t-26 -172q0 -115 26 -177.5t80 -62.5z" />
    <glyph glyph-name="minute" unicode="&#x2032;" horiz-adv-x="354" 
d="M64 1006v394h186l-58 -394h-128z" />
    <glyph glyph-name="second" unicode="&#x2033;" horiz-adv-x="624" 
d="M334 1006v394h186l-58 -394h-128zM64 1006v394h186l-58 -394h-128z" />
    <glyph glyph-name="guilsinglleft" unicode="&#x2039;" horiz-adv-x="598" 
d="M276 156l-256 412l256 412h282l-256 -412l256 -412h-282z" />
    <glyph glyph-name="guilsinglright" unicode="&#x203a;" horiz-adv-x="598" 
d="M40 156l256 412l-256 412h282l256 -412l-256 -412h-282z" />
    <glyph glyph-name="fraction" unicode="&#x2044;" horiz-adv-x="192" 
d="M-376 0l754 1400h190l-752 -1400h-192z" />
    <glyph glyph-name="uni2070" unicode="&#x2070;" horiz-adv-x="740" 
d="M370 744q-96 0 -163.5 52.5t-103 144t-35.5 209.5q0 179 79 286.5t223 107.5t223 -107.5t79 -286.5q0 -118 -35.5 -209.5t-103 -144t-163.5 -52.5zM370 910q54 0 80 62.5t26 177.5q0 116 -26 172t-80 56t-80 -56t-26 -172q0 -115 26 -177.5t80 -62.5z" />
    <glyph glyph-name="uni2074" unicode="&#x2074;" horiz-adv-x="670" 
d="M358 772v148h-342l356 596h154v-458h80v-138h-80v-148h-168zM228 1010l-48 48h178v64l10 278l30 -38l-78 -180z" />
    <glyph glyph-name="uni2075" unicode="&#x2075;" horiz-adv-x="594" 
d="M262 744q-57 0 -106.5 13.5t-97.5 38.5l34 172q36 -22 72 -36t78 -14q41 0 67.5 18.5t26.5 57.5q0 42 -31.5 64t-90.5 22q-31 0 -59.5 -4t-54.5 -10l46 450h354l-14 -166h-298l98 84l-24 -244l-92 40q64 16 130 16q108 0 170 -65t62 -173q0 -126 -77 -195t-193 -69z" />
    <glyph glyph-name="uni2076" unicode="&#x2076;" horiz-adv-x="636" 
d="M336 744q-127 0 -195.5 78t-68.5 216q0 116 47 213t124.5 171t168.5 122l110 -126q-75 -33 -144.5 -87t-113.5 -125.5t-44 -155.5l-50 62q26 56 78 87t118 31q99 0 156.5 -68.5t57.5 -173.5q0 -109 -70 -176.5t-174 -67.5zM334 896q38 0 58 26.5t20 65.5q0 41 -20 67.5
t-58 26.5q-37 0 -57.5 -26.5t-20.5 -67.5q0 -40 20.5 -66t57.5 -26z" />
    <glyph glyph-name="uni2077" unicode="&#x2077;" horiz-adv-x="536" 
d="M96 772l206 664l36 -74h-290v166h464l-240 -756h-176z" />
    <glyph glyph-name="uni2078" unicode="&#x2078;" horiz-adv-x="592" 
d="M298 744q-115 0 -182.5 65.5t-67.5 168.5q0 107 67.5 172.5t182.5 65.5q113 0 179.5 -65.5t66.5 -172.5q0 -103 -67 -168.5t-179 -65.5zM298 888q36 0 55 29t19 75q0 42 -19 69t-55 27q-37 0 -57.5 -27t-20.5 -69q0 -46 20.5 -75t57.5 -29zM298 1250q27 0 41.5 22.5
t14.5 53.5q0 33 -14.5 54.5t-40.5 21.5q-28 0 -42.5 -21.5t-14.5 -54.5q0 -31 15 -53.5t41 -22.5zM298 1136q-96 0 -153 56t-57 146q0 80 53 143t161 63q106 0 156 -63t50 -143q0 -90 -57 -146t-153 -56z" />
    <glyph glyph-name="uni2079" unicode="&#x2079;" horiz-adv-x="636" 
d="M300 1544q128 0 196 -78t68 -216q0 -116 -47 -213t-124.5 -171t-168.5 -122l-110 126q75 33 144.5 87.5t113.5 125.5t44 155l50 -62q-25 -55 -77.5 -86.5t-118.5 -31.5q-99 0 -156.5 68.5t-57.5 173.5q0 110 70.5 177t173.5 67zM302 1392q-37 0 -57.5 -26.5t-20.5 -65.5
q0 -40 20.5 -67t57.5 -27q38 0 58 27t20 67q0 41 -20 66.5t-58 25.5z" />
    <glyph glyph-name="uni2080" unicode="&#x2080;" horiz-adv-x="740" 
d="M370 -144q-96 0 -163.5 52.5t-103 144t-35.5 209.5q0 179 79 286.5t223 107.5t223 -107.5t79 -286.5q0 -118 -35.5 -209.5t-103 -144t-163.5 -52.5zM370 22q54 0 80 62.5t26 177.5q0 116 -26 172t-80 56t-80 -56t-26 -172q0 -115 26 -177.5t80 -62.5z" />
    <glyph glyph-name="uni2081" unicode="&#x2081;" horiz-adv-x="434" 
d="M160 -116v530q-22 -25 -44.5 -41t-45.5 -25l-10 160q39 17 78.5 50.5t61.5 69.5h142v-744h-182z" />
    <glyph glyph-name="uni2082" unicode="&#x2082;" horiz-adv-x="540" 
d="M52 -116l162 316q32 63 46 103.5t14 80.5q0 44 -22 71t-64 27q-33 0 -62 -16t-56 -40l-14 184q39 21 86 33.5t102 12.5q102 0 164 -63.5t62 -168.5q0 -44 -9.5 -83t-31.5 -86.5t-59 -116.5l-96 -178l-38 90h260v-166h-444z" />
    <glyph glyph-name="uni2083" unicode="&#x2083;" horiz-adv-x="562" 
d="M272 -144q-64 0 -120.5 13t-103.5 35l38 172q33 -21 66.5 -33.5t69.5 -12.5q44 0 70 20.5t26 57.5q0 41 -25.5 61.5t-76.5 20.5h-14v154h16q35 0 55.5 17t20.5 53q0 29 -18.5 48.5t-57.5 19.5q-31 0 -59.5 -12t-54.5 -32l-14 182q38 18 82.5 27t95.5 9q105 0 163.5 -59
t58.5 -149q0 -72 -38 -123.5t-112 -68.5v32q74 -13 124 -64t50 -138q0 -108 -68.5 -169t-173.5 -61z" />
    <glyph glyph-name="uni2084" unicode="&#x2084;" horiz-adv-x="670" 
d="M358 -116v148h-342l356 596h154v-458h80v-138h-80v-148h-168zM228 122l-48 48h178v64l10 278l30 -38l-78 -180z" />
    <glyph glyph-name="uni2085" unicode="&#x2085;" horiz-adv-x="594" 
d="M262 -144q-57 0 -106.5 13.5t-97.5 38.5l34 172q36 -22 72 -36t78 -14q41 0 67.5 18.5t26.5 57.5q0 42 -31.5 64t-90.5 22q-31 0 -59.5 -4t-54.5 -10l46 450h354l-14 -166h-298l98 84l-24 -244l-92 40q64 16 130 16q108 0 170 -65t62 -173q0 -126 -77 -195t-193 -69z" />
    </font>
</defs>
</svg>
