<?xml version="1.0" standalone="no"?>
<!DOCTYPE svg PUBLIC "-//W3C//DTD SVG 1.1//EN" "http://www.w3.org/Graphics/SVG/1.1/DTD/svg11.dtd" >
<svg xmlns="http://www.w3.org/2000/svg" xmlns:xlink="http://www.w3.org/1999/xlink" version="1.1">
<metadata>
Created by FontForge 20201107 at Wed Jul 22 21:33:01 2020
 By 
Copyright 2018 The Cabin Project Authors (https://github.com/impallari/Cabin)
</metadata>
<defs>
<font id="CabinSemiCondensed-Italic" horiz-adv-x="0" >
  <font-face 
    font-family="Cabin SemiCondensed"
    font-weight="400"
    font-style="italic"
    font-stretch="semi-condensed"
    units-per-em="2000"
    panose-1="0 0 0 0 0 0 0 0 0 0"
    ascent="1600"
    descent="-400"
    x-height="979"
    cap-height="1400"
    bbox="-526 -522 2405 2289"
    underline-thickness="50"
    underline-position="-125"
    slope="-10"
    unicode-range="U+000D-25CA"
  />
<missing-glyph horiz-adv-x="1139" 
d="M90 0l14 1400h950l-14 -1400h-950zM242 140h648l11 1120h-647z" />
    <glyph glyph-name=".notdef" horiz-adv-x="1139" 
d="M90 0l14 1400h950l-14 -1400h-950zM242 140h648l11 1120h-647z" />
    <glyph glyph-name=".null" 
 />
    <glyph glyph-name="nonmarkingreturn" horiz-adv-x="666" 
 />
    <glyph glyph-name="CR" unicode="&#xd;" horiz-adv-x="386" 
 />
    <glyph glyph-name="space" unicode=" " horiz-adv-x="386" 
 />
    <glyph glyph-name="exclam" unicode="!" horiz-adv-x="363" 
d="M64 340l8 52l141 1008h234l-213 -1008l-8 -52h-162zM-22 0l39 209h208l-39 -209h-208z" />
    <glyph glyph-name="quotedbl" unicode="&#x22;" horiz-adv-x="567" 
d="M81 979l41 421h194l-110 -421h-125zM381 979l41 421h194l-110 -421h-125z" />
    <glyph glyph-name="numbersign" unicode="#" horiz-adv-x="1227" 
d="M15 -22l717 1422h147l-716 -1422h-148zM377 -22l717 1422h147l-716 -1422h-148zM237 845l82 169h921l-83 -169h-920zM38 432l104 182h923l-107 -182h-920z" />
    <glyph glyph-name="dollar" unicode="$" horiz-adv-x="1096" 
d="M494 68l-42 -356h-156l82 356h116zM646 1346l40 342h156l-80 -342h-116zM353 -28q-131 0 -229 28t-149 62l64 217q55 -49 141 -94t203 -45q81 0 149.5 26t110.5 81t42 140q0 74 -33.5 120t-90.5 77t-125 59q-55 23 -111.5 48t-102.5 60t-74.5 86.5t-28.5 127.5
q0 66 29 146t89.5 152t157.5 118.5t232 46.5q120 0 214 -30t150 -65l-55 -198q-79 62 -154.5 94t-170.5 32q-62 0 -128.5 -25t-112.5 -77.5t-46 -134.5q0 -84 59.5 -126.5t154.5 -82.5q63 -26 126 -54t115.5 -69t84.5 -103.5t32 -158.5q0 -80 -27.5 -160.5t-90 -148
t-167 -108.5t-258.5 -41z" />
    <glyph glyph-name="percent" unicode="%" horiz-adv-x="1718" 
d="M309 628q-127 0 -190.5 85t-61.5 221q2 127 51.5 240t137 183.5t204.5 70.5q121 0 188.5 -78.5t67.5 -209.5q0 -97 -28.5 -188.5t-81 -164.5t-125.5 -116t-162 -43zM334 770q71 0 117.5 55t70.5 137t24 163t-32.5 121t-88.5 40q-71 0 -117 -55t-69 -136t-23 -159
q0 -80 30 -123t88 -43zM258 0l1010 1400h162l-1009 -1400h-163zM1188 -28q-127 0 -190.5 85t-61.5 221q2 127 51.5 240t137 183.5t204.5 70.5q121 0 188.5 -78.5t67.5 -209.5q0 -97 -28.5 -188.5t-81 -164.5t-125.5 -116t-162 -43zM1213 114q71 0 117.5 55t70.5 137t24 163
t-32.5 121t-88.5 40q-71 0 -117 -55t-69 -136t-23 -159q0 -80 30 -123t88 -43z" />
    <glyph glyph-name="ampersand" unicode="&#x26;" horiz-adv-x="1067" 
d="M755 0l-60 107l-50 91l-310 506l-8 -6q-43 94 -65.5 176.5t-22.5 147.5q0 88 34 159t92 121.5t129 77t145 26.5q114 0 166.5 -57t52.5 -148q0 -69 -27 -136.5t-76 -130.5t-114.5 -121.5t-142.5 -110.5l-60 93q75 72 134 124.5t92.5 106.5t33.5 127q0 61 -26 90t-74 29
q-73 0 -132 -65t-59 -185q0 -42 12 -103.5t44 -127.5l39 -67l240 -422l73 -91l132 -211h-192zM813 183l-85 126q19 22 36.5 73.5t33.5 113.5t28 118t19 88h166q-12 -60 -35.5 -149.5t-63 -187t-99.5 -182.5zM365 -46q-123 0 -199 39t-111 107.5t-35 155.5q0 93 37 175
t106 159t165 154l60 -107q-75 -56 -130 -150t-55 -202q0 -56 19.5 -100.5t62.5 -71t114 -26.5q81 0 140 37.5t107 97.5l72 -115q-88 -88 -171.5 -120.5t-181.5 -32.5z" />
    <glyph glyph-name="quotesingle" unicode="'" horiz-adv-x="267" 
d="M81 979l41 421h194l-110 -421h-125z" />
    <glyph glyph-name="parenleft" unicode="(" horiz-adv-x="502" 
d="M229 -272q-53 113 -89.5 252.5t-36.5 313.5q0 324 109 633t315 573h169q-134 -182 -227 -381t-141.5 -407.5t-48.5 -421.5q0 -168 30.5 -307t74.5 -255h-155z" />
    <glyph glyph-name="parenright" unicode=")" horiz-adv-x="516" 
d="M287 1500q53 -113 89.5 -252.5t36.5 -313.5q0 -324 -109 -633t-315 -573h-169q134 182 227 381t141.5 407.5t48.5 421.5q0 168 -30.5 307t-74.5 255h155z" />
    <glyph glyph-name="asterisk" unicode="*" horiz-adv-x="769" 
d="M378 1120l-234 163l70 90l313 -256l5 -1l235 -165l-69 -90l-315 256zM442 735h-111l86 408l51 357h111l-80 -369zM393 1122l394 255l38 -98l-301 -170l-4 4l-396 -256l-39 98l303 173z" />
    <glyph glyph-name="plus" unicode="+" horiz-adv-x="802" 
d="M218 222l122 682h155l-121 -682h-156zM18 488l29 150h649l-29 -150h-649z" />
    <glyph glyph-name="comma" unicode="," horiz-adv-x="356" 
d="M45 -212h-108l108 212h-69l39 209h208l-35 -189z" />
    <glyph glyph-name="hyphen" unicode="-" horiz-adv-x="751" 
d="M91 537l31 171h530l-31 -171h-530z" />
    <glyph glyph-name="period" unicode="." horiz-adv-x="355" 
d="M-24 0l38 209h208l-37 -209h-209z" />
    <glyph glyph-name="slash" unicode="/" horiz-adv-x="730" 
d="M-98 -170l774 1570h193l-775 -1570h-192z" />
    <glyph glyph-name="zero" unicode="0" horiz-adv-x="1278" 
d="M494 -28q-139 0 -234.5 67t-144.5 187.5t-49 280.5q0 177 49 342t140 295.5t216.5 207t278.5 76.5q135 0 231 -63t147 -179t51 -275q0 -174 -50 -341.5t-141 -302.5t-216.5 -215t-277.5 -80zM525 141q112 0 197.5 66.5t144 177.5t88.5 246t30 273q0 178 -71.5 267
t-195.5 89q-112 0 -197.5 -66t-143 -175t-86.5 -242t-29 -267q0 -177 67 -273t196 -96z" />
    <glyph glyph-name="one" unicode="1" horiz-adv-x="606" 
d="M121 0l213 1214l58 -22q-72 -65 -123.5 -101t-90 -54.5t-73.5 -29.5l2 175q53 19 112 52.5t112 76t89 89.5h130l-248 -1400h-181z" />
    <glyph glyph-name="two" unicode="2" horiz-adv-x="928" 
d="M-61 2l442 581q90 118 148.5 204t87 156.5t28.5 140.5q0 77 -40 122.5t-115 45.5q-93 0 -179.5 -49.5t-172.5 -129.5l13 197q76 64 176 111t209 47q153 0 228.5 -86t75.5 -229q0 -103 -37 -194t-106.5 -191t-167.5 -232l-291 -392l-31 66h532l-31 -168h-769z" />
    <glyph glyph-name="three" unicode="3" horiz-adv-x="971" 
d="M332 -28q-110 0 -209 34.5t-183 89.5l78 174q77 -58 156.5 -93.5t169.5 -35.5q110 0 183.5 68.5t73.5 192.5q0 106 -62 170t-195 64h-78l31 168h78q133 0 214.5 73.5t81.5 203.5q0 91 -46 134.5t-131 43.5q-72 0 -146.5 -33.5t-143.5 -80.5l3 192q76 44 162.5 67.5
t182.5 23.5q151 0 238 -87t87 -226q0 -103 -43.5 -187.5t-121 -142.5t-180.5 -80l8 46q122 -33 191.5 -119t69.5 -222q0 -124 -61.5 -223t-168 -157t-239.5 -58z" />
    <glyph glyph-name="four" unicode="4" horiz-adv-x="1063" 
d="M537 0l204 1152l32 -55l-515 -625l-33 52h735l-29 -159h-971l871 1035h133l-248 -1400h-179z" />
    <glyph glyph-name="five" unicode="5" horiz-adv-x="964" 
d="M323 -28q-106 0 -196.5 28t-171.5 86l88 157q67 -46 134 -74t154 -28q92 0 159.5 40.5t104.5 112.5t37 167q0 125 -69 193.5t-197 68.5q-64 0 -122.5 -5.5t-119.5 -15.5l199 698h602l-42 -176h-525l108 81l-151 -522l-43 86q39 8 82 11.5t86 3.5q188 0 287.5 -113
t99.5 -290q0 -152 -66.5 -266.5t-180.5 -178.5t-257 -64z" />
    <glyph glyph-name="six" unicode="6" horiz-adv-x="1043" 
d="M422 -28q-117 0 -203 49.5t-133 140.5t-47 214q0 163 64 320t173.5 296.5t247 251t284.5 184.5l104 -141q-90 -46 -179.5 -104t-171.5 -127.5t-149 -149t-114 -169t-66 -188.5l-24 82q60 96 159.5 152.5t222.5 56.5q155 0 246 -99.5t91 -254.5q0 -144 -66 -260
t-180.5 -185t-258.5 -69zM436 133q85 0 152.5 48t106.5 124t39 162q0 92 -51.5 152t-144.5 60q-87 0 -157 -47.5t-110.5 -123t-40.5 -159.5q0 -98 55.5 -157t150.5 -59z" />
    <glyph glyph-name="seven" unicode="7" horiz-adv-x="922" 
d="M30 0l721 1309l37 -85h-635l33 176h821l-781 -1400h-196z" />
    <glyph glyph-name="eight" unicode="8" horiz-adv-x="1104" 
d="M547 687q-95 0 -169.5 37.5t-117 105t-43.5 157.5q0 123 59.5 223t161.5 159t227 59q112 0 182.5 -42t103.5 -112t33 -154q0 -125 -58 -223t-157 -154t-222 -56zM569 841q101 0 165.5 72.5t64.5 178.5q0 75 -39 120.5t-120 45.5q-103 0 -170.5 -71t-67.5 -177
q0 -71 42.5 -120t124.5 -49zM427 -28q-115 0 -202 43t-135.5 121t-48.5 184t41 198.5t113.5 163.5t167.5 111t203 40q174 0 274 -94t100 -254q0 -147 -68 -263t-184.5 -183t-260.5 -67zM445 141q88 0 157 41.5t108 113.5t39 164q-1 99 -55.5 158.5t-155.5 59.5
q-88 0 -157.5 -46t-109 -122.5t-39.5 -167.5q1 -93 56.5 -147t156.5 -54z" />
    <glyph glyph-name="nine" unicode="9" horiz-adv-x="1118" 
d="M656 1428q117 0 203 -49.5t133 -140.5t47 -214q0 -163 -64 -320t-173.5 -296.5t-247 -251t-284.5 -184.5l-104 141q90 46 179.5 104t171.5 127.5t149 149t114 169t66 188.5l24 -82q-60 -96 -159.5 -152.5t-222.5 -56.5q-155 0 -246 99.5t-91 254.5q0 144 66 260
t180.5 185t258.5 69zM642 1267q-85 0 -152.5 -48t-106.5 -124t-39 -162q0 -92 51.5 -152t144.5 -60q87 0 157 47.5t110.5 123t40.5 159.5q0 98 -55.5 157t-150.5 59z" />
    <glyph glyph-name="colon" unicode=":" horiz-adv-x="372" 
d="M104 768l38 209h208l-37 -209h-209zM-24 0l38 209h208l-37 -209h-209z" />
    <glyph glyph-name="semicolon" unicode=";" horiz-adv-x="374" 
d="M45 -212h-108l108 212h-69l39 209h208l-35 -189zM106 768l38 209h208l-37 -209h-209z" />
    <glyph glyph-name="less" unicode="&#x3c;" horiz-adv-x="799" 
d="M19 478l33 170l714 326l-31 -174l-628 -272l2 67l543 -278l-30 -166z" />
    <glyph glyph-name="equal" unicode="=" horiz-adv-x="818" 
d="M45 637l28 150h665l-29 -150h-664zM-11 321l28 151h665l-28 -151h-665z" />
    <glyph glyph-name="greater" unicode="&#x3e;" horiz-adv-x="806" 
d="M727 646l-33 -170l-714 -326l31 174l628 272l-2 -67l-543 278l30 166z" />
    <glyph glyph-name="question" unicode="?" horiz-adv-x="842" 
d="M201 340l9 52q13 77 41.5 136.5t73 115.5t105.5 122q51 55 94 105.5t69 105t26 119.5q0 85 -52.5 125t-119.5 40q-71 0 -135.5 -21.5t-124.5 -54.5l11 157q66 38 145.5 62t179.5 24q153 0 229.5 -82.5t77.5 -200.5q0 -93 -33 -165t-86 -134t-112 -124q-57 -61 -98.5 -110
t-67.5 -98t-37 -110l-11 -64h-184zM127 0l39 209h209l-39 -209h-209z" />
    <glyph glyph-name="at" unicode="@" horiz-adv-x="1265" 
d="M391 -174q-164 0 -255.5 105t-91.5 290q0 183 68.5 343.5t183 282t255.5 190.5t286 69q170 0 260 -106.5t90 -285.5q0 -84 -20 -175.5t-61 -171t-102.5 -129.5t-143.5 -50q-27 0 -44 11.5t-17 54.5q0 59 25.5 128t67 160t88.5 216q-25 39 -71.5 72.5t-117.5 33.5
q-87 0 -182 -55.5t-176.5 -146.5t-132 -200.5t-50.5 -216.5q0 -65 27 -115t95 -50q50 0 112.5 26.5t125 78.5t112.5 127q-4 -23 -8.5 -33.5t-7 -18t-4.5 -20t-2 -39.5q0 -41 16 -79t59 -38q32 0 76.5 18.5t90 47.5t77.5 62q-73 -114 -174.5 -201t-218 -136t-235.5 -49z
M453 212q-31 0 -44.5 26t-13.5 64q0 88 40.5 167t103 140.5t128.5 97t118 35.5q14 0 39 -6t30 -38q-26 -80 -75.5 -165t-108.5 -158t-116.5 -118t-100.5 -45z" />
    <glyph glyph-name="A" unicode="A" horiz-adv-x="1080" 
d="M-75 0l675 1400h186l181 -1400h-195l-46 397l-26 135l-66 694l45 -7l-299 -686l-79 -138l-181 -395h-195zM222 381l93 167h454l30 -167h-577z" />
    <glyph glyph-name="B" unicode="B" horiz-adv-x="1077" 
d="M48 0l246 1400h309q77 0 146.5 -12t123.5 -43.5t85 -89t31 -149.5q0 -137 -64 -233.5t-176 -138.5l-11 39q121 -28 182 -105.5t61 -200.5q0 -112 -37.5 -199.5t-107 -147t-167.5 -90t-220 -30.5h-401zM322 817h233q109 0 176.5 65t67.5 177q0 64 -22 102.5t-62.5 55
t-96.5 16.5h-168l-185 -1064h187q90 0 165 30t120.5 91.5t45.5 154.5q0 100 -52.5 151t-157.5 51h-282z" />
    <glyph glyph-name="C" unicode="C" horiz-adv-x="1073" 
d="M574 -28q-149 0 -258.5 69.5t-169 200.5t-59.5 315q0 189 59 348t162.5 276.5t236.5 182t282 64.5q92 0 178.5 -23.5t143.5 -58.5l-52 -172q-66 29 -136.5 58t-160.5 29q-118 0 -212 -57.5t-159.5 -155.5t-100.5 -222.5t-35 -258.5q0 -125 34 -221.5t104.5 -151
t180.5 -54.5q84 0 164.5 28t156.5 56l-13 -172q-72 -34 -165 -57t-181 -23z" />
    <glyph glyph-name="D" unicode="D" horiz-adv-x="1275" 
d="M48 0l246 1400h446q148 0 257 -64.5t169.5 -190.5t60.5 -311q0 -186 -58 -339.5t-159 -264t-233.5 -170.5t-282.5 -60h-446zM250 86l-68 82h343q117 0 209 52t156 143.5t97.5 210t33.5 250.5q0 191 -77.5 300t-235.5 109h-342l99 82z" />
    <glyph glyph-name="E" unicode="E" horiz-adv-x="979" 
d="M253 85l-68 83h657l-31 -168h-763l246 1400h747l-31 -167h-642l99 82zM310 816h509l-31 -167h-510z" />
    <glyph glyph-name="F" unicode="F" horiz-adv-x="925" 
d="M234 0h-186l246 1400h735l-31 -167h-632l98 82zM308 816h493l-31 -167h-493z" />
    <glyph glyph-name="G" unicode="G" horiz-adv-x="1177" 
d="M599 -28q-148 0 -263 70t-181 201.5t-66 316.5q0 184 57.5 342t158.5 276t235.5 184t287.5 66q62 0 127 -10.5t123 -28.5t97 -41l-49 -161q-68 30 -153.5 52t-166.5 22q-125 0 -221 -59.5t-161 -159t-98 -222.5t-33 -251q0 -193 82.5 -311t257.5 -118q49 0 118.5 13.5
t127.5 54.5l-70 -112l91 519l68 -82h-249l31 169h352l-110 -624q-75 -43 -174 -74.5t-219 -31.5z" />
    <glyph glyph-name="H" unicode="H" horiz-adv-x="1305" 
d="M48 0l246 1400h186l-246 -1400h-186zM864 0l248 1400h186l-248 -1400h-186zM272 644l31 176h801l-34 -176h-798z" />
    <glyph glyph-name="I" unicode="I" horiz-adv-x="487" 
d="M48 0l246 1400h186l-246 -1400h-186z" />
    <glyph glyph-name="J" unicode="J" horiz-adv-x="489" 
d="M-150 -344l5 107h22q47 0 79 20t54.5 70t37.5 140l248 1407h186l-259 -1465q-24 -135 -107.5 -207t-222.5 -72h-43z" />
    <glyph glyph-name="K" unicode="K" horiz-adv-x="1045" 
d="M723 0l-342 742l548 658h223l-628 -719l20 136l391 -817h-212zM48 0l246 1400h186l-246 -1400h-186z" />
    <glyph glyph-name="L" unicode="L" horiz-adv-x="887" 
d="M48 0l246 1400h186l-230 -1315l-68 83h611l-33 -168h-712z" />
    <glyph glyph-name="M" unicode="M" horiz-adv-x="1432" 
d="M-11 0l410 1400h168l192 -779l-66 10l459 769h167l-83 -1400h-196l80 1122l40 -14l-488 -773l-224 784h48l-311 -1119h-196z" />
    <glyph glyph-name="N" unicode="N" horiz-adv-x="1240" 
d="M48 0l246 1400h194l406 -1135l-46 -4l197 1139h188l-248 -1400h-156l-432 1193l46 4l-209 -1197h-186z" />
    <glyph glyph-name="O" unicode="O" horiz-adv-x="1347" 
d="M571 -28q-149 0 -257.5 68.5t-167.5 198.5t-59 313q0 189 58 348.5t160 278t233.5 184t278.5 65.5q149 0 257.5 -68.5t167.5 -198t59 -313.5q0 -189 -58.5 -348.5t-160.5 -278t-233.5 -184t-277.5 -65.5zM604 140q111 0 202 57.5t156 156t100 223t35 258.5
q0 121 -32.5 217.5t-101.5 152.5t-179 56q-112 0 -202.5 -58t-155 -156.5t-99 -222.5t-34.5 -258q0 -120 32 -216.5t100.5 -153t178.5 -56.5z" />
    <glyph glyph-name="P" unicode="P" horiz-adv-x="1025" 
d="M283 658h286q93 0 157 46t97.5 124.5t33.5 175.5q0 103 -43.5 166t-153.5 63h-287l99 82l-233 -1315h-191l246 1400h374q117 0 203.5 -33.5t133.5 -114t47 -219.5q0 -138 -37 -239.5t-103 -168.5t-154.5 -100t-191.5 -33h-314z" />
    <glyph glyph-name="Q" unicode="Q" horiz-adv-x="1345" 
d="M571 -28q-149 0 -257.5 68.5t-167.5 198.5t-59 313q0 189 58 348.5t160 278t233.5 184t278.5 65.5q149 0 257.5 -68.5t167.5 -198t59 -313.5q0 -182 -59.5 -341t-162.5 -279t-234 -188t-274 -68zM604 140q112 0 204 57t158.5 155.5t102.5 223t36 258.5q0 121 -34.5 218
t-105.5 153t-181 56q-112 0 -202.5 -58t-155 -156.5t-99 -222.5t-34.5 -258q0 -120 32 -216.5t100.5 -153t178.5 -56.5zM1044 8l-345 383l126 119l345 -388z" />
    <glyph glyph-name="R" unicode="R" horiz-adv-x="1077" 
d="M48 0l246 1400h372q195 0 292.5 -84t97.5 -255q0 -111 -31 -196t-85.5 -145.5t-123.5 -98t-145.5 -55.5t-152.5 -18h-270l30 176h307q89 0 150 45t92 117.5t31 156.5q0 82 -39 141.5t-144 59.5h-304l101 70l-233 -1314h-191zM737 0l-175 582l188 50l184 -632h-197z" />
    <glyph glyph-name="S" unicode="S" horiz-adv-x="1021" 
d="M385 -28q-131 0 -229 28t-149 62l64 217q55 -49 141 -94t203 -45q81 0 149.5 26t110.5 81t42 140q0 74 -33.5 120t-90.5 77t-125 59q-55 23 -111.5 48t-102.5 60t-74.5 86.5t-28.5 127.5q0 66 29 146t89.5 152t157.5 118.5t232 46.5q120 0 214 -30t150 -65l-55 -198
q-79 62 -154.5 94t-170.5 32q-62 0 -128.5 -25t-112.5 -77.5t-46 -134.5q0 -84 59.5 -126.5t154.5 -82.5q63 -26 126 -54t115.5 -69t84.5 -103.5t32 -158.5q0 -80 -27.5 -160.5t-90 -148t-167 -108.5t-258.5 -41z" />
    <glyph glyph-name="T" unicode="T" horiz-adv-x="996" 
d="M301 0l223 1279h186l-223 -1279h-186zM171 1233l31 167h876l-31 -167h-876z" />
    <glyph glyph-name="U" unicode="U" horiz-adv-x="1267" 
d="M527 -28q-206 0 -305.5 113t-99.5 314q0 42 5 93t14 102l142 806h185l-126 -714q-11 -63 -17.5 -123t-6.5 -114q0 -88 22 -158t74 -110.5t144 -40.5q105 0 175.5 50.5t116 132.5t72 177.5t42.5 185.5l125 714h186l-142 -806q-34 -192 -112.5 -331.5t-202 -215
t-291.5 -75.5z" />
    <glyph glyph-name="V" unicode="V" horiz-adv-x="1132" 
d="M350 0l-200 1400h196l163 -1257l-49 9l597 1248h195l-691 -1400h-211z" />
    <glyph glyph-name="W" unicode="W" horiz-adv-x="1687" 
d="M272 0l-88 1400h195l47 -1257l-38 7l509 1221h184l79 -1228l-38 6l488 1251h193l-597 -1400h-184l-85 1244l42 -6l-516 -1238h-191z" />
    <glyph glyph-name="X" unicode="X" horiz-adv-x="1072" 
d="M-80 0l553 754l81 -136l-428 -618h-206zM651 727l301 -727h-203l-229 593l-70 106l-275 701h216l203 -574zM635 686l-67 128l417 586h204z" />
    <glyph glyph-name="Y" unicode="Y" horiz-adv-x="1043" 
d="M318 0l129 730l14 -161l-305 831h196l239 -661l-80 10l455 651h197l-592 -820l66 150l-129 -730h-190z" />
    <glyph glyph-name="Z" unicode="Z" horiz-adv-x="952" 
d="M-81 0l868 1301l35 -68h-610l31 167h835l-871 -1301l-35 69h613l-32 -168h-834z" />
    <glyph glyph-name="bracketleft" unicode="[" horiz-adv-x="582" 
d="M-15 -270l312 1770h439l-25 -131h-360l99 82l-293 -1672l-67 82h359l-25 -131h-439z" />
    <glyph glyph-name="backslash" unicode="\" horiz-adv-x="587" 
d="M324 -170l-199 1570h178l200 -1570h-179z" />
    <glyph glyph-name="bracketright" unicode="]" horiz-adv-x="590" 
d="M-135 -270l25 131h272l261 1508h-272l26 131h436l-312 -1770h-436z" />
    <glyph glyph-name="asciicircum" unicode="^" horiz-adv-x="818" 
d="M46 931l37 198l412 389l312 -432l-37 -198l-309 398z" />
    <glyph glyph-name="underscore" unicode="_" horiz-adv-x="953" 
d="M-139 -243l31 171h958l-30 -171h-959z" />
    <glyph glyph-name="grave" unicode="`" horiz-adv-x="752" 
d="M548 1153l-312 137l35 194l300 -211z" />
    <glyph glyph-name="a" unicode="a" horiz-adv-x="1029" 
d="M346 -20q-94 0 -163 48t-107 134t-38 202q0 121 37 234t104 203.5t158.5 144t198.5 53.5q50 0 98 -15t86 -58.5t57 -127.5l-56 -3l65 184h157l-118 -695q-8 -47 -8 -80q0 -47 20 -65t68 -18l-49 -141q-52 0 -93 5t-70.5 27t-46.5 71t-21 138l47 -46q-40 -63 -89 -106.5
t-108 -66t-129 -22.5zM407 138q60 0 113 27.5t94.5 81.5t65 133t23.5 181q0 148 -52.5 214.5t-134.5 66.5t-148.5 -61t-105.5 -161t-39 -217q0 -110 43.5 -187.5t140.5 -77.5z" />
    <glyph glyph-name="b" unicode="b" horiz-adv-x="990" 
d="M466 -20q-106 0 -176.5 51.5t-104.5 144.5l48 29l-59 -205h-160l264 1500h178l-124 -711l-30 18q45 80 98 121.5t107 56t99 14.5q105 0 175 -55.5t104.5 -147.5t34.5 -201q0 -144 -35 -258t-97.5 -193.5t-145 -121.5t-176.5 -42zM455 138q81 0 144 57.5t100 157t37 224.5
q0 114 -44 189.5t-137 75.5q-80 0 -147.5 -55t-108.5 -154t-41 -233q0 -143 55.5 -202.5t141.5 -59.5z" />
    <glyph glyph-name="c" unicode="c" horiz-adv-x="793" 
d="M393 -20q-126 0 -203.5 55t-112.5 148t-35 207q0 119 34 228.5t101.5 195.5t166.5 135.5t228 49.5q73 0 135 -15t100 -42l-52 -159q-42 29 -88.5 44t-96.5 15q-113 0 -190 -57t-116 -153.5t-39 -214.5q0 -133 55 -207.5t171 -74.5q96 0 206 59l-8 -150q-44 -24 -108 -44
t-148 -20z" />
    <glyph glyph-name="d" unicode="d" horiz-adv-x="990" 
d="M345 -20q-93 0 -162 53.5t-106.5 145.5t-37.5 209q0 115 35 224t99.5 196.5t151.5 139t190 51.5q68 0 117 -20t84.5 -62t61.5 -108l-44 -17l125 708h178l-264 -1500h-164l18 209l32 -32q-63 -96 -144.5 -146.5t-169.5 -50.5zM407 138q55 0 108 26t96 79t68 132.5
t25 185.5q0 148 -52.5 214.5t-134.5 66.5q-83 0 -149.5 -61t-105 -161t-38.5 -216q0 -111 43 -188.5t140 -77.5z" />
    <glyph glyph-name="e" unicode="e" horiz-adv-x="871" 
d="M215 575q39 -16 75.5 -25t85.5 -9q113 0 176.5 30.5t89 74.5t25.5 84t-18.5 64.5t-49.5 36t-65 11.5q-65 0 -122 -34t-102.5 -108t-75.5 -194l-3 -3q-11 -145 17.5 -224.5t85.5 -110t129 -30.5q58 0 128 13t132 43l-11 -138q-54 -33 -129 -54.5t-166 -21.5
q-129 0 -213 55.5t-124.5 150t-40.5 211.5q0 118 37 226t105.5 193t162.5 134t208 49q135 0 205.5 -68t70.5 -176q0 -54 -23 -112.5t-74 -108.5t-134.5 -81t-204.5 -31q-55 0 -108 7.5t-85 20.5z" />
    <glyph glyph-name="f" unicode="f" horiz-adv-x="579" 
d="M276 1228q13 69 41 131.5t85 101.5t154 39q54 0 92.5 -11t53.5 -16l-50 -148q-26 11 -49 14.5t-41 3.5q-40 0 -62 -20t-36 -73t-32 -152l-193 -1098h-179zM73 843l44 136h506l-27 -136h-523z" />
    <glyph glyph-name="g" unicode="g" horiz-adv-x="873" 
d="M364 226q-136 0 -215 79t-79 237q0 116 51.5 220.5t146 170.5t222.5 66q134 0 211.5 -87.5t77.5 -233.5q0 -81 -29.5 -161t-84.5 -146t-131.5 -105.5t-169.5 -39.5zM385 361q69 0 120.5 45t79.5 116.5t28 150.5q0 91 -38.5 138t-109.5 47q-70 0 -121.5 -42.5
t-79.5 -111.5t-28 -149q0 -93 39.5 -143.5t109.5 -50.5zM266 -500q-131 0 -208.5 40.5t-111 99t-33.5 112.5q0 36 18.5 88t64 103t126.5 82l127 -47q-44 -12 -84 -44t-65.5 -73.5t-25.5 -82.5q0 -58 55 -99t159 -41q83 0 144.5 26t96 66t34.5 81q0 47 -37.5 73.5t-97.5 41.5
t-126.5 28t-126 31t-97 51t-37.5 89q0 29 32 82t108 88l89 -40q-24 -17 -39.5 -36.5t-15.5 -42.5q0 -34 51.5 -52t169.5 -46q44 -10 96 -26t98 -42t76 -67.5t30 -103.5q0 -82 -57.5 -160t-163 -128.5t-249.5 -50.5zM730 845l-55 74q37 27 93 45.5t121 18.5h30l-37 -118h-55
q-9 0 -41 -4.5t-56 -15.5z" />
    <glyph glyph-name="h" unicode="h" horiz-adv-x="962" 
d="M14 0l264 1500h180l-266 -1500h-178zM575 0l84 490q11 60 17 105t6 81q0 77 -38 121.5t-107 44.5q-71 0 -126 -40t-104 -104l28 160q63 77 129 109t148 32q86 0 141.5 -40.5t82.5 -108.5t27 -150q0 -36 -5.5 -88.5t-17.5 -119.5l-86 -492h-179z" />
    <glyph glyph-name="i" unicode="i" horiz-adv-x="410" 
d="M14 0l172 979h179l-173 -979h-178zM225 1203l35 197h178l-35 -197h-178z" />
    <glyph glyph-name="j" unicode="j" horiz-adv-x="410" 
d="M-169 -484l8 134q56 8 83.5 30.5t41.5 65t25 107.5l198 1126h178l-211 -1192q-20 -117 -83 -179.5t-176 -80.5zM225 1203l37 197h178l-37 -197h-178z" />
    <glyph glyph-name="k" unicode="k" horiz-adv-x="819" 
d="M14 0l264 1500h178l-264 -1500h-178zM490 0l-223 520l391 459h210l-470 -511l22 135l279 -603h-209z" />
    <glyph glyph-name="l" unicode="l" horiz-adv-x="448" 
d="M224 -20q-99 0 -140 49.5t-41 118.5q0 20 4.5 53t15.5 95l210 1204h178l-210 -1222q-7 -39 -9 -53t-2 -26q0 -47 24 -62.5t79 -15.5l-48 -141h-61z" />
    <glyph glyph-name="m" unicode="m" horiz-adv-x="1519" 
d="M14 0l172 979h142l-2 -221l-134 -758h-178zM574 0q32 185 52 303.5t32 188.5t17 105t6 49.5t1 26.5q0 98 -39 133.5t-104 35.5q-72 0 -130 -35t-100 -111l4 161q73 85 135.5 113.5t135.5 28.5q58 0 113 -20.5t95 -82t51 -184.5l30 -26l-121 -686h-178zM1133 0
q32 184 53 304.5t33 193t17.5 109.5t7 53t1.5 26q0 78 -35 117t-109 39q-86 0 -137 -45.5t-76 -109.5t-35 -122l-54 167q28 85 77.5 145t120 91t162.5 31q132 0 200 -66.5t68 -204.5q0 -14 -1.5 -35t-8 -63t-19 -118.5t-33.5 -201t-54 -310.5h-178z" />
    <glyph glyph-name="n" unicode="n" horiz-adv-x="977" 
d="M14 0l172 979h152l-13 -257l-133 -722h-178zM590 0q31 177 51 293t32 186t17 107t6.5 54t1.5 28q0 90 -37 132t-117 42q-70 0 -131.5 -34.5t-103.5 -111.5l10 161q76 87 144.5 114.5t142.5 27.5q145 0 209 -80t64 -225q0 -15 -1.5 -35.5t-7 -60.5t-17 -112.5t-32 -190
t-52.5 -295.5h-179z" />
    <glyph glyph-name="o" unicode="o" horiz-adv-x="978" 
d="M388 -20q-118 0 -195.5 53.5t-116 145.5t-38.5 207q0 123 38.5 233.5t108.5 196t165 134.5t207 49q118 0 195.5 -54t116 -146.5t38.5 -207.5q0 -122 -39 -232t-108.5 -195.5t-164.5 -134.5t-207 -49zM415 138q93 0 162.5 58.5t108 158.5t38.5 223q0 133 -49.5 198.5
t-144.5 65.5q-93 0 -162.5 -59t-108 -158.5t-38.5 -222.5q0 -131 48.5 -197.5t145.5 -66.5z" />
    <glyph glyph-name="p" unicode="p" horiz-adv-x="993" 
d="M-72 -484l258 1463h147l-10 -226l-40 30q76 102 148.5 159t175.5 57q105 0 174.5 -55t104 -147t34.5 -204q0 -116 -34.5 -226t-97.5 -197t-149.5 -138.5t-189.5 -51.5q-93 0 -161 47.5t-101 161.5l41 18l-122 -691h-178zM440 138q85 0 152 62.5t105.5 164t38.5 216.5
t-43.5 188t-133.5 73q-76 0 -145 -51.5t-112.5 -149.5t-43.5 -236q0 -145 51.5 -206t130.5 -61z" />
    <glyph glyph-name="q" unicode="q" horiz-adv-x="992" 
d="M510 -484l122 694l25 -28q-59 -102 -146.5 -152t-159.5 -50q-106 0 -175.5 51.5t-103.5 139.5t-34 198q0 121 36 234t102 202.5t155.5 141.5t196.5 52q110 0 163.5 -58.5t96.5 -162.5l-55 -21l70 222h144l-259 -1463h-178zM406 138q75 0 142.5 49.5t110.5 146t43 235.5
q0 147 -51.5 210t-130.5 63q-86 0 -152.5 -61t-104.5 -161t-38 -218q0 -112 43 -188t138 -76z" />
    <glyph glyph-name="r" unicode="r" horiz-adv-x="586" 
d="M14 0l172 979h157l-21 -270l-125 -709h-183zM312 681l3 116q53 76 104 124.5t102 71.5t103 23h30l-71 -196h-65q-38 0 -79.5 -20.5t-75.5 -53t-51 -65.5z" />
    <glyph glyph-name="s" unicode="s" horiz-adv-x="741" 
d="M259 -20q-113 0 -181.5 32t-100.5 55l49 172q30 -28 95 -64t155 -36q87 0 129 40t42 103q0 70 -43 98.5t-93 44.5q-53 17 -102.5 40.5t-81 67.5t-31.5 124q0 76 37.5 155t119 133t214.5 54q86 0 144 -20.5t92 -42.5l-48 -162q-32 37 -83.5 61t-118.5 24
q-78 0 -128.5 -39.5t-50.5 -112.5q0 -61 45 -87t124 -54q43 -15 87 -40t73.5 -72t29.5 -129q0 -43 -15.5 -101.5t-55.5 -114t-113.5 -92.5t-189.5 -37z" />
    <glyph glyph-name="t" unicode="t" horiz-adv-x="579" 
d="M278 -20q-102 0 -144 53.5t-42 124.5q0 6 2 22.5t10.5 69t27.5 164.5t53.5 307.5t88.5 500.5l181 18l-177 -1041q-1 -56 30.5 -67t106.5 -11h48l-41 -141h-144zM71 843l41 136h505l-27 -136h-519z" />
    <glyph glyph-name="u" unicode="u" horiz-adv-x="942" 
d="M322 -20q-125 0 -192 73t-67 206q0 23 4 59.5t12 82.5l98 578h178l-94 -549q-5 -31 -8.5 -60.5t-3.5 -51.5q0 -181 145 -181q59 0 113 31.5t94 98.5l-23 -145q-49 -62 -111 -102t-145 -40zM562 0l10 129l147 850h178l-172 -979h-163z" />
    <glyph glyph-name="v" unicode="v" horiz-adv-x="838" 
d="M221 0l-149 979h186l99 -871l-47 8l396 863h188l-495 -979h-178z" />
    <glyph glyph-name="w" unicode="w" horiz-adv-x="1258" 
d="M176 0l-78 979h192l21 -870l-36 6l335 833h168l45 -839l-37 5l323 865h193l-425 -979h-176l-54 812l41 -7l-338 -805h-174z" />
    <glyph glyph-name="x" unicode="x" horiz-adv-x="837" 
d="M506 0l-140 402l-63 75l-200 502h205l123 -398l54 -92l227 -489h-206zM-75 0l392 517l73 -102l-259 -415h-206zM472 449l-64 120l261 410h210z" />
    <glyph glyph-name="y" unicode="y" horiz-adv-x="880" 
d="M-31 -484l328 600l-25 -155l-206 1018h199l132 -815l-53 7l396 808h198l-781 -1463h-188z" />
    <glyph glyph-name="z" unicode="z" horiz-adv-x="818" 
d="M-59 0l641 911l32 -67h-509l26 135h714l-639 -911l-33 67h512l-27 -135h-717z" />
    <glyph glyph-name="braceleft" unicode="{" horiz-adv-x="542" 
d="M340 -272q-144 0 -208 63.5t-64 167.5q0 43 13.5 105t30 130t30 130t13.5 106q0 63 -29 94t-95 31l20 118q89 0 131 54t58 157q13 76 18 162t16 153q22 131 112.5 216t265.5 85h71l-26 -133h-51q-37 0 -73 -7t-68 -30t-55.5 -67.5t-35.5 -118.5q-8 -52 -12.5 -105.5
t-8.5 -107t-13 -104.5q-16 -98 -74 -147t-150 -73l4 14q65 -19 104.5 -55.5t39.5 -108.5q0 -34 -12.5 -90t-28 -120t-28 -125t-12.5 -106q0 -63 22 -96.5t59 -46t81 -12.5h51l-25 -133h-71z" />
    <glyph glyph-name="bar" unicode="|" horiz-adv-x="411" 
d="M-56 -418l340 1918h180l-340 -1918h-180z" />
    <glyph glyph-name="braceright" unicode="}" horiz-adv-x="560" 
d="M220 1500q144 0 208 -63.5t64 -167.5q0 -43 -13.5 -105t-30 -130t-30 -130t-13.5 -106q0 -63 29 -94t95 -31l-20 -118q-89 0 -131 -54t-58 -157q-13 -76 -18 -162t-16 -153q-22 -131 -112.5 -216t-265.5 -85h-71l26 133h51q37 0 73 7t68 30t55.5 67.5t35.5 118.5
q8 52 12.5 105.5t8.5 107t13 104.5q16 98 74 147t150 73l-4 -14q-65 19 -104.5 55.5t-39.5 108.5q0 34 12.5 90t28 120t28 125t12.5 106q0 63 -22 96.5t-59 46t-81 12.5h-51l25 133h71z" />
    <glyph glyph-name="asciitilde" unicode="~" horiz-adv-x="815" 
d="M561 589q-59 0 -100 23.5t-77.5 47t-82.5 23.5q-34 0 -59.5 -23t-33.5 -64h-140q27 122 88 186t150 64q61 0 103 -23.5t78 -47t78 -23.5q74 0 89 92h141q-49 -255 -234 -255z" />
    <glyph glyph-name="uni00A0" unicode="&#xa0;" horiz-adv-x="386" 
 />
    <glyph glyph-name="exclamdown" unicode="&#xa1;" horiz-adv-x="360" 
d="M276 660l-8 -52l-141 -1008h-234l213 1008l8 52h162zM362 1000l-39 -209h-208l39 209h208z" />
    <glyph glyph-name="cent" unicode="&#xa2;" horiz-adv-x="888" 
d="M488 68l-42 -356h-156l82 356h116zM522 918l40 342h156l-80 -342h-116zM395 -20q-126 0 -203.5 55t-112.5 148t-35 207q0 119 34 228.5t101.5 195.5t166.5 135.5t228 49.5q73 0 135 -15t100 -42l-52 -159q-42 29 -88.5 44t-96.5 15q-113 0 -190 -57t-116 -153.5
t-39 -214.5q0 -133 55 -207.5t171 -74.5q96 0 206 59l-8 -150q-44 -24 -108 -44t-148 -20z" />
    <glyph glyph-name="sterling" unicode="&#xa3;" horiz-adv-x="993" 
d="M161 98l-29 79h654l-34 -177h-811q62 108 104.5 192.5t72 156t52 141t44.5 146.5l112 407q35 125 93 211t143 130t197 44q65 0 119 -14.5t105 -43.5l-55 -198q-43 38 -88 63.5t-99 25.5q-58 0 -104.5 -30t-80 -84t-53.5 -128l-100 -367q-27 -102 -56.5 -189t-72.5 -174.5
t-113 -190.5zM68 633l27 146h677l-26 -146h-678z" />
    <glyph glyph-name="currency" unicode="&#xa4;" horiz-adv-x="1190" 
d="M487 189q-121 0 -207.5 51.5t-132.5 142t-46 206.5q0 125 45 236t123.5 196t180.5 134t217 49q120 0 206.5 -52t133 -142.5t46.5 -205.5q0 -125 -45 -236.5t-123 -196.5t-180.5 -133.5t-217.5 -48.5zM518 349q104 0 184.5 54t126 150.5t45.5 225.5q0 115 -58.5 189.5
t-179.5 74.5q-105 0 -185.5 -59.5t-126 -158t-45.5 -214.5q1 -112 59.5 -187t179.5 -75zM11 130l-52 57l269 231l53 -57zM949 126l-191 241l65 49l191 -241zM324 987l-184 230l65 49l187 -234zM927 974l-53 57l269 231l52 -56z" />
    <glyph glyph-name="yen" unicode="&#xa5;" horiz-adv-x="1078" 
d="M70 574l26 148h756l-26 -148h-756zM20 294l26 148h756l-26 -148h-756zM228 0l129 730l14 -161l-305 831h196l239 -661l-80 10l455 651h197l-592 -820l66 150l-129 -730h-190z" />
    <glyph glyph-name="brokenbar" unicode="&#xa6;" horiz-adv-x="404" 
d="M140 684l144 816h173l-144 -816h-173zM-56 -420l144 816h173l-144 -816h-173z" />
    <glyph glyph-name="section" unicode="&#xa7;" horiz-adv-x="852" 
d="M465 905q-117 -21 -187.5 -74t-70.5 -149q0 -64 30 -104t77.5 -68.5t101 -55.5t100.5 -64t77 -95t30 -148q0 -98 -51 -168.5t-134 -108.5t-179 -38q-81 0 -148 23.5t-116 63.5l47 121q53 -43 115 -66.5t128 -23.5q95 0 151 48t56 125q0 64 -31 104.5t-79.5 68.5t-103 54
t-103 61t-79.5 89t-31 139q0 120 82.5 206.5t215.5 122.5zM648 649q0 67 -29 111t-75 76.5t-97.5 62t-97.5 65.5t-75 88t-29 131q0 93 47.5 164.5t129 112t184.5 40.5q89 0 153.5 -22.5t119.5 -57.5l-47 -121q-48 35 -106.5 60.5t-127.5 25.5q-88 0 -147 -52t-59 -127
q0 -52 29.5 -89.5t76 -69t98.5 -64t98.5 -74t76 -98.5t29.5 -138q0 -75 -36 -132.5t-105 -103.5t-169 -85l-75 71q63 7 116 41t85 83t32 102z" />
    <glyph glyph-name="dieresis" unicode="&#xa8;" horiz-adv-x="812" 
d="M180 1182l33 159h160l-32 -159h-161zM534 1182l32 159h160l-31 -159h-161z" />
    <glyph glyph-name="copyright" unicode="&#xa9;" horiz-adv-x="1265" 
d="M544 74q-130 0 -227 64.5t-150 181t-53 273.5q0 170 51.5 314.5t142.5 252t211 167t257 59.5q131 0 227.5 -63.5t149.5 -179.5t53 -273q0 -170 -51.5 -315.5t-142 -253t-210.5 -167.5t-258 -60zM561 159q129 0 229 58t168.5 157.5t104.5 227t36 266.5q0 124 -36.5 221
t-111.5 153.5t-191 56.5q-129 0 -229.5 -57.5t-169.5 -156.5t-104.5 -227t-35.5 -268q0 -123 36 -220.5t111.5 -154t192.5 -56.5zM615 395q-102 0 -162 71t-60 190q0 116 45.5 207t123 143.5t172.5 52.5q42 0 84 -10.5t71 -26.5l-36 -117q-33 17 -67.5 27t-74.5 10
q-57 0 -99 -38.5t-64 -100.5t-22 -133q0 -68 27 -114t85 -46q39 0 77.5 11t78.5 28l-9 -115q-36 -19 -82 -29t-88 -10z" />
    <glyph glyph-name="ordfeminine" unicode="&#xaa;" horiz-adv-x="581" 
d="M255 868q-64 0 -101.5 36t-36.5 103t34 109.5t85.5 68t114.5 38t120 18.5l-16 -99q-39 -2 -80.5 -14.5t-70 -37t-28.5 -66.5q0 -46 54 -46q21 0 43.5 8.5t43.5 26.5l25 144q1 -1 4.5 20t7 47t3.5 38q0 32 -19 48t-65 16q-36 0 -74 -9t-83 -27l12 117q53 23 103.5 32.5
t103.5 9.5q82 0 128.5 -36t46.5 -118q0 -16 -1.5 -30.5t-4.5 -31.5l-28 -160q-3 -20 -5 -30t-2 -26q0 -19 9 -24.5t24 -5.5h6l-36 -119h-51q-57 0 -85.5 29t-0.5 110l16 -38q-13 -32 -44.5 -54.5t-71.5 -34.5t-80 -12z" />
    <glyph glyph-name="guillemotleft" unicode="&#xab;" horiz-adv-x="1022" 
d="M665 156l-181 412l327 412h206l-382 -477l18 141l219 -488h-207zM221 156l-182 412l328 412h204l-381 -477l19 141l217 -488h-205z" />
    <glyph glyph-name="logicalnot" unicode="&#xac;" horiz-adv-x="951" 
d="M636 302l77 443l68 -83h-722l27 150h794l-88 -510h-156z" />
    <glyph glyph-name="uni00AD" unicode="&#xad;" horiz-adv-x="788" 
d="M109 537l31 171h530l-30 -171h-531z" />
    <glyph glyph-name="registered" unicode="&#xae;" horiz-adv-x="1265" 
d="M544 74q-130 0 -227 64.5t-150 181t-53 273.5q0 170 51.5 314.5t142.5 252t211 167t257 59.5q131 0 227.5 -63.5t149.5 -179.5t53 -273q0 -170 -51.5 -315.5t-142 -253t-210.5 -167.5t-258 -60zM561 157q128 0 228 58t169.5 158t105.5 228t36 267q0 124 -36.5 222
t-112 155t-191.5 57q-128 0 -228.5 -58t-169.5 -157.5t-105 -227t-36 -267.5q0 -124 36 -222.5t111.5 -155.5t192.5 -57zM400 421l114 640h209q41 0 78.5 -11t61.5 -43t24 -94q0 -78 -36.5 -132t-87.5 -92l77 -268h-129l-68 235h-78l-40 -235h-125zM586 765h58q55 0 83.5 33
t28.5 97q0 37 -18 54.5t-57 17.5h-60z" />
    <glyph glyph-name="macron" unicode="&#xaf;" horiz-adv-x="892" 
d="M184 1182l29 141h590l-28 -141h-591z" />
    <glyph glyph-name="degree" unicode="&#xb0;" horiz-adv-x="530" 
d="M266 964q-95 0 -144 60.5t-49 152.5q0 93 38 168.5t104 120t147 44.5q98 0 146.5 -61.5t48.5 -152.5q0 -93 -38 -168t-104 -119.5t-149 -44.5zM281 1042q53 0 93.5 34.5t63.5 90t23 116.5q0 60 -27.5 105t-86.5 45q-52 0 -92.5 -36t-64 -91t-23.5 -115q0 -61 29 -105
t85 -44z" />
    <glyph glyph-name="plusminus" unicode="&#xb1;" horiz-adv-x="819" 
d="M402 351h-138l122 687h138zM-31 122l27 142h642l-26 -142h-643zM86 766h643l-27 -142h-643z" />
    <glyph glyph-name="uni00B2" unicode="&#xb2;" horiz-adv-x="584" 
d="M46 772l266 316q53 63 87 118t34 111q0 37 -21 61t-64 24q-54 0 -102.5 -26.5t-91.5 -59.5l13 152q44 29 106.5 52.5t126.5 23.5q93 0 146 -52.5t53 -134.5q0 -96 -51.5 -174.5t-116.5 -156.5l-193 -232l2 112h319l-25 -134h-488z" />
    <glyph glyph-name="uni00B3" unicode="&#xb3;" horiz-adv-x="577" 
d="M250 752q-68 0 -125 18t-102 48l60 134q39 -32 78.5 -52t92.5 -20q62 0 98.5 32.5t36.5 90.5q0 45 -27 70.5t-81 25.5h-53l24 129h55q58 0 93.5 33.5t35.5 79.5q0 38 -23 61t-73 23q-44 0 -86.5 -15t-83.5 -41l11 136q48 23 101.5 35t113.5 12q94 0 145 -48.5t51 -129.5
q0 -79 -47 -135t-126 -83l4 24q59 -16 92.5 -57t33.5 -108q0 -78 -41.5 -137t-109.5 -92.5t-148 -33.5z" />
    <glyph glyph-name="acute" unicode="&#xb4;" horiz-adv-x="790" 
d="M235 1151l25 134l352 208l-35 -221z" />
    <glyph glyph-name="uni00B5" unicode="&#xb5;" horiz-adv-x="966" 
d="M603 123q-54 -70 -116 -107.5t-138 -37.5q-49 0 -85.5 12.5t-62.5 34.5l-91 -509h-174l260 1463h179l-97 -555q-4 -28 -7.5 -53t-3.5 -52q0 -184 153 -184q58 0 106.5 35t93.5 82zM605 224l133 755h179l-114 -639q-6 -36 -10.5 -65t-4.5 -59q0 -95 64 -95h25l-57 -141
h-35q-84 0 -135 35t-62 109z" />
    <glyph glyph-name="paragraph" unicode="&#xb6;" horiz-adv-x="1088" 
d="M742 1271l-222 -1271h-90l101 570l65 -83q-165 -6 -269.5 50t-154 148.5t-49.5 195.5q0 91 38 182.5t112 168t181.5 122.5t247.5 46h445l-25 -129h-380zM1000 1287l-225 -1287h-110l224 1287h111z" />
    <glyph glyph-name="periodcentered" unicode="&#xb7;" horiz-adv-x="435" 
d="M82 426l46 260h213l-46 -260h-213z" />
    <glyph glyph-name="cedilla" unicode="&#xb8;" horiz-adv-x="638" 
d="M362 -158l-58 30q25 9 47.5 14.5t47.5 5.5q67 0 104 -34.5t37 -94.5q0 -92 -68.5 -152.5t-169.5 -60.5q-47 0 -82 11.5t-60 26.5l48 97q26 -17 54 -25.5t59 -8.5q50 0 78 25.5t28 63.5q0 68 -83 68q-20 0 -42.5 -3.5t-48.5 -12.5l88 208h96z" />
    <glyph glyph-name="uni00B9" unicode="&#xb9;" horiz-adv-x="412" 
d="M180 772l113 642l38 -33q-47 -52 -92.5 -78t-84.5 -37l10 130q49 18 101 51t84 69h108l-132 -744h-145z" />
    <glyph glyph-name="ordmasculine" unicode="&#xba;" horiz-adv-x="616" 
d="M351 868q-114 0 -172.5 68t-58.5 165q0 94 45.5 173t121.5 127t168 48q114 0 172.5 -66t58.5 -163q0 -106 -44.5 -185t-120.5 -123t-170 -44zM373 986q50 0 86 32.5t55 83.5t19 109q0 55 -25 89t-75 34t-86.5 -32.5t-55.5 -82t-19 -104.5q0 -58 25.5 -93.5t75.5 -35.5z
" />
    <glyph glyph-name="guillemotright" unicode="&#xbb;" horiz-adv-x="1024" 
d="M447 156l382 477l-19 -140l-217 487h204l183 -412l-328 -412h-205zM2 156l384 477l-18 -140l-220 487h205l182 -412l-327 -412h-206z" />
    <glyph glyph-name="onequarter" unicode="&#xbc;" horiz-adv-x="1222" 
d="M159 656l113 642l38 -33q-47 -52 -92.5 -78t-84.5 -37l10 130q49 18 101 51t84 69h108l-132 -744h-145zM-32 0l1010 1400h162l-1009 -1400h-163zM1022 0h-129l113 632l38 -42l-291 -352l-42 37h454l-23 -117h-597l498 586h111z" />
    <glyph glyph-name="onehalf" unicode="&#xbd;" horiz-adv-x="1326" 
d="M-32 0l1010 1400h162l-1009 -1400h-163zM652 0l266 316q53 63 87 118t34 111q0 37 -21 61t-64 24q-54 0 -102.5 -26.5t-91.5 -59.5l13 152q44 29 106.5 52.5t126.5 23.5q93 0 146 -52.5t53 -134.5q0 -96 -51.5 -174.5t-116.5 -156.5l-193 -232l2 112h319l-25 -134h-488z
M159 656l113 642l38 -33q-47 -52 -92.5 -78t-84.5 -37l10 130q49 18 101 51t84 69h108l-132 -744h-145z" />
    <glyph glyph-name="threequarters" unicode="&#xbe;" horiz-adv-x="1426" 
d="M172 0l1010 1400h162l-1009 -1400h-163zM228 628q-68 0 -125 18t-102 48l60 134q39 -32 78.5 -52t92.5 -20q62 0 98.5 32.5t36.5 90.5q0 45 -27 70.5t-81 25.5h-53l24 129h55q58 0 93.5 33.5t35.5 79.5q0 38 -23 61t-73 23q-44 0 -86.5 -15t-83.5 -41l11 136
q48 23 101.5 35t113.5 12q94 0 145 -48.5t51 -129.5q0 -79 -47 -135t-126 -83l4 24q59 -16 92.5 -57t33.5 -108q0 -78 -41.5 -137t-109.5 -92.5t-148 -33.5zM1226 0h-129l113 632l38 -42l-291 -352l-42 37h454l-23 -117h-597l498 586h111z" />
    <glyph glyph-name="questiondown" unicode="&#xbf;" horiz-adv-x="874" 
d="M693 660l-9 -52q-13 -77 -41.5 -136.5t-73 -115.5t-105.5 -122q-51 -55 -94 -105.5t-69 -105t-26 -119.5q0 -85 52.5 -125t119.5 -40q71 0 135.5 21.5t124.5 54.5l-11 -157q-66 -38 -145.5 -62t-179.5 -24q-153 0 -229.5 82.5t-77.5 200.5q0 93 33 165t86 134t112 124
q57 61 98.5 110t67.5 98t37 110l11 64h184zM767 1000l-39 -209h-209l39 209h209z" />
    <glyph glyph-name="Agrave" unicode="&#xc0;" horiz-adv-x="1080" 
d="M-75 0l675 1400h186l181 -1400h-195l-46 397l-26 135l-66 694l45 -7l-299 -686l-79 -138l-181 -395h-195zM222 381l93 167h454l30 -167h-577zM888 1574l-312 137l35 194l300 -211z" />
    <glyph glyph-name="Aacute" unicode="&#xc1;" horiz-adv-x="1080" 
d="M-75 0l675 1400h186l181 -1400h-195l-46 397l-26 135l-66 694l45 -7l-299 -686l-79 -138l-181 -395h-195zM222 381l93 167h454l30 -167h-577zM565 1572l25 134l352 208l-35 -221z" />
    <glyph glyph-name="Acircumflex" unicode="&#xc2;" horiz-adv-x="1080" 
d="M-75 0l675 1400h186l181 -1400h-195l-46 397l-26 135l-66 694l45 -7l-299 -686l-79 -138l-181 -395h-195zM222 381l93 167h454l30 -167h-577zM514 1570l30 126l244 194l197 -220l-25 -120l-208 160z" />
    <glyph glyph-name="Atilde" unicode="&#xc3;" horiz-adv-x="1080" 
d="M-75 0l675 1400h186l181 -1400h-195l-46 397l-26 135l-66 694l45 -7l-299 -686l-79 -138l-181 -395h-195zM222 381l93 167h454l30 -167h-577zM877 1581q-40 0 -82.5 22.5t-82 44.5t-74.5 22q-29 0 -47.5 -19.5t-25.5 -53.5h-137q24 108 74.5 164.5t125.5 56.5
q44 0 82.5 -22t75.5 -44t75 -22q29 0 47.5 19t25.5 59h138q-26 -120 -74 -173.5t-121 -53.5z" />
    <glyph glyph-name="Adieresis" unicode="&#xc4;" horiz-adv-x="1080" 
d="M-75 0l675 1400h186l181 -1400h-195l-46 397l-26 135l-66 694l45 -7l-299 -686l-79 -138l-181 -395h-195zM222 381l93 167h454l30 -167h-577zM472 1603l33 159h160l-32 -159h-161zM826 1603l32 159h160l-31 -159h-161z" />
    <glyph glyph-name="Aring" unicode="&#xc5;" horiz-adv-x="1080" 
d="M-75 0l675 1400h186l181 -1400h-195l-46 397l-26 135l-66 694l45 -7l-299 -686l-79 -138l-181 -395h-195zM222 381l93 167h454l30 -167h-577zM720 1557q-81 0 -122 46.5t-41 109.5q0 67 32 122.5t85.5 89t117.5 33.5q81 0 121.5 -46.5t40.5 -109.5q0 -67 -31.5 -123
t-84 -89t-118.5 -33zM734 1644q48 0 84 41.5t36 95.5q0 41 -22 65.5t-55 24.5q-47 0 -83.5 -42.5t-36.5 -97.5q0 -41 23 -64t54 -23z" />
    <glyph glyph-name="AE" unicode="&#xc6;" horiz-adv-x="1499" 
d="M-103 0l831 1400h835l-33 -169h-606l99 82l-214 -1228l-68 83h623l-32 -168h-746l229 1309l29 -11l-760 -1298h-187zM224 362l118 180h361l-36 -180h-443zM835 649l32 167h473l-31 -167h-474z" />
    <glyph glyph-name="Ccedilla" unicode="&#xc7;" horiz-adv-x="1073" 
d="M574 -28q-149 0 -258.5 69.5t-169 200.5t-59.5 315q0 189 59 348t162.5 276.5t236.5 182t282 64.5q92 0 178.5 -23.5t143.5 -58.5l-52 -172q-66 29 -136.5 58t-160.5 29q-118 0 -212 -57.5t-159.5 -155.5t-100.5 -222.5t-35 -258.5q0 -125 34 -221.5t104.5 -151
t180.5 -54.5q84 0 164.5 28t156.5 56l-13 -172q-72 -34 -165 -57t-181 -23zM569 -158l-58 30q25 9 47.5 14.5t47.5 5.5q67 0 104 -34.5t37 -94.5q0 -92 -68.5 -152.5t-169.5 -60.5q-47 0 -82 11.5t-60 26.5l48 97q26 -17 54 -25.5t59 -8.5q50 0 78 25.5t28 63.5q0 68 -83 68
q-20 0 -42.5 -3.5t-48.5 -12.5l88 208h96z" />
    <glyph glyph-name="Egrave" unicode="&#xc8;" horiz-adv-x="979" 
d="M253 85l-68 83h657l-31 -168h-763l246 1400h747l-31 -167h-642l99 82zM310 816h509l-31 -167h-510zM862 1574l-312 137l35 194l300 -211z" />
    <glyph glyph-name="Eacute" unicode="&#xc9;" horiz-adv-x="979" 
d="M253 85l-68 83h657l-31 -168h-763l246 1400h747l-31 -167h-642l99 82zM310 816h509l-31 -167h-510zM539 1572l25 134l352 208l-35 -221z" />
    <glyph glyph-name="Ecircumflex" unicode="&#xca;" horiz-adv-x="979" 
d="M253 85l-68 83h657l-31 -168h-763l246 1400h747l-31 -167h-642l99 82zM310 816h509l-31 -167h-510zM487 1570l30 126l244 194l197 -220l-25 -120l-208 160z" />
    <glyph glyph-name="Edieresis" unicode="&#xcb;" horiz-adv-x="979" 
d="M253 85l-68 83h657l-31 -168h-763l246 1400h747l-31 -167h-642l99 82zM310 816h509l-31 -167h-510zM445 1603l33 159h160l-32 -159h-161zM799 1603l32 159h160l-31 -159h-161z" />
    <glyph glyph-name="Igrave" unicode="&#xcc;" horiz-adv-x="487" 
d="M48 0l246 1400h186l-246 -1400h-186zM584 1574l-312 137l35 194l300 -211z" />
    <glyph glyph-name="Iacute" unicode="&#xcd;" horiz-adv-x="487" 
d="M48 0l246 1400h186l-246 -1400h-186zM261 1572l25 134l352 208l-35 -221z" />
    <glyph glyph-name="Icircumflex" unicode="&#xce;" horiz-adv-x="487" 
d="M48 0l246 1400h186l-246 -1400h-186zM209 1570l30 126l244 194l197 -220l-25 -120l-208 160z" />
    <glyph glyph-name="Idieresis" unicode="&#xcf;" horiz-adv-x="487" 
d="M48 0l246 1400h186l-246 -1400h-186zM167 1603l33 159h160l-32 -159h-161zM521 1603l32 159h160l-31 -159h-161z" />
    <glyph glyph-name="Eth" unicode="&#xd0;" horiz-adv-x="1281" 
d="M61 0l246 1400h442q147 0 255.5 -65.5t168.5 -188t60 -294.5q0 -189 -55.5 -345.5t-155 -270t-232 -175t-287.5 -61.5h-442zM258 88l-68 82h344q158 0 269 89t169 240t58 339q0 178 -77 286.5t-236 108.5h-344l99 82zM39 631l29 163h564l-30 -163h-563z" />
    <glyph glyph-name="Ntilde" unicode="&#xd1;" horiz-adv-x="1240" 
d="M48 0l246 1400h194l406 -1135l-46 -4l197 1139h188l-248 -1400h-156l-432 1193l46 4l-209 -1197h-186zM944 1577q-40 0 -85 19.5t-87 39t-73 19.5q-24 0 -42.5 -16.5t-22.5 -51.5h-125q17 98 64 149t114 51q42 0 86 -19.5t85.5 -39.5t76.5 -20q26 0 43 19t22 50h125
q-16 -99 -64 -149.5t-117 -50.5z" />
    <glyph glyph-name="Ograve" unicode="&#xd2;" horiz-adv-x="1347" 
d="M571 -28q-149 0 -257.5 68.5t-167.5 198.5t-59 313q0 189 58 348.5t160 278t233.5 184t278.5 65.5q149 0 257.5 -68.5t167.5 -198t59 -313.5q0 -189 -58.5 -348.5t-160.5 -278t-233.5 -184t-277.5 -65.5zM604 140q111 0 202 57.5t156 156t100 223t35 258.5
q0 121 -32.5 217.5t-101.5 152.5t-179 56q-112 0 -202.5 -58t-155 -156.5t-99 -222.5t-34.5 -258q0 -120 32 -216.5t100.5 -153t178.5 -56.5zM1014 1574l-312 137l35 194l300 -211z" />
    <glyph glyph-name="Oacute" unicode="&#xd3;" horiz-adv-x="1347" 
d="M571 -28q-149 0 -257.5 68.5t-167.5 198.5t-59 313q0 189 58 348.5t160 278t233.5 184t278.5 65.5q149 0 257.5 -68.5t167.5 -198t59 -313.5q0 -189 -58.5 -348.5t-160.5 -278t-233.5 -184t-277.5 -65.5zM604 140q111 0 202 57.5t156 156t100 223t35 258.5
q0 121 -32.5 217.5t-101.5 152.5t-179 56q-112 0 -202.5 -58t-155 -156.5t-99 -222.5t-34.5 -258q0 -120 32 -216.5t100.5 -153t178.5 -56.5zM691 1572l25 134l352 208l-35 -221z" />
    <glyph glyph-name="Ocircumflex" unicode="&#xd4;" horiz-adv-x="1347" 
d="M571 -28q-149 0 -257.5 68.5t-167.5 198.5t-59 313q0 189 58 348.5t160 278t233.5 184t278.5 65.5q149 0 257.5 -68.5t167.5 -198t59 -313.5q0 -189 -58.5 -348.5t-160.5 -278t-233.5 -184t-277.5 -65.5zM604 140q111 0 202 57.5t156 156t100 223t35 258.5
q0 121 -32.5 217.5t-101.5 152.5t-179 56q-112 0 -202.5 -58t-155 -156.5t-99 -222.5t-34.5 -258q0 -120 32 -216.5t100.5 -153t178.5 -56.5zM640 1570l30 126l244 194l197 -220l-25 -120l-208 160z" />
    <glyph glyph-name="Otilde" unicode="&#xd5;" horiz-adv-x="1347" 
d="M571 -28q-149 0 -257.5 68.5t-167.5 198.5t-59 313q0 189 58 348.5t160 278t233.5 184t278.5 65.5q149 0 257.5 -68.5t167.5 -198t59 -313.5q0 -189 -58.5 -348.5t-160.5 -278t-233.5 -184t-277.5 -65.5zM604 140q111 0 202 57.5t156 156t100 223t35 258.5
q0 121 -32.5 217.5t-101.5 152.5t-179 56q-112 0 -202.5 -58t-155 -156.5t-99 -222.5t-34.5 -258q0 -120 32 -216.5t100.5 -153t178.5 -56.5zM1003 1581q-40 0 -82.5 22.5t-82 44.5t-74.5 22q-29 0 -47.5 -19.5t-25.5 -53.5h-137q24 108 74.5 164.5t125.5 56.5
q44 0 82.5 -22t75.5 -44t75 -22q29 0 47.5 19t25.5 59h138q-26 -120 -74 -173.5t-121 -53.5z" />
    <glyph glyph-name="Odieresis" unicode="&#xd6;" horiz-adv-x="1347" 
d="M571 -28q-149 0 -257.5 68.5t-167.5 198.5t-59 313q0 189 58 348.5t160 278t233.5 184t278.5 65.5q149 0 257.5 -68.5t167.5 -198t59 -313.5q0 -189 -58.5 -348.5t-160.5 -278t-233.5 -184t-277.5 -65.5zM604 140q111 0 202 57.5t156 156t100 223t35 258.5
q0 121 -32.5 217.5t-101.5 152.5t-179 56q-112 0 -202.5 -58t-155 -156.5t-99 -222.5t-34.5 -258q0 -120 32 -216.5t100.5 -153t178.5 -56.5zM598 1603l33 159h160l-32 -159h-161zM952 1603l32 159h160l-31 -159h-161z" />
    <glyph glyph-name="multiply" unicode="&#xd7;" horiz-adv-x="834" 
d="M92 214l-90 110l637 579l91 -110zM635 310l-113 -94l-437 591l113 94z" />
    <glyph glyph-name="Oslash" unicode="&#xd8;" horiz-adv-x="1420" 
d="M1252 1488h184l-1220 -1576h-182zM571 -28q-149 0 -257.5 68.5t-167.5 198.5t-59 313q0 189 58 348.5t160 278t233.5 184t278.5 65.5q148 0 257 -68.5t168 -198t59 -313.5q0 -189 -58.5 -348.5t-160.5 -278t-233.5 -184t-277.5 -65.5zM604 140q111 0 202 57.5t156 156
t100 223t35 258.5q0 121 -32.5 217.5t-101.5 152.5t-179 56q-112 0 -202.5 -58t-155.5 -156.5t-99 -222.5t-34 -258q0 -121 32 -217t100.5 -152.5t178.5 -56.5z" />
    <glyph glyph-name="Ugrave" unicode="&#xd9;" horiz-adv-x="1267" 
d="M527 -28q-206 0 -305.5 113t-99.5 314q0 42 5 93t14 102l142 806h185l-126 -714q-11 -63 -17.5 -123t-6.5 -114q0 -88 22 -158t74 -110.5t144 -40.5q105 0 175.5 50.5t116 132.5t72 177.5t42.5 185.5l125 714h186l-142 -806q-34 -192 -112.5 -331.5t-202 -215
t-291.5 -75.5zM984 1574l-312 137l35 194l300 -211z" />
    <glyph glyph-name="Uacute" unicode="&#xda;" horiz-adv-x="1267" 
d="M527 -28q-206 0 -305.5 113t-99.5 314q0 42 5 93t14 102l142 806h185l-126 -714q-11 -63 -17.5 -123t-6.5 -114q0 -88 22 -158t74 -110.5t144 -40.5q105 0 175.5 50.5t116 132.5t72 177.5t42.5 185.5l125 714h186l-142 -806q-34 -192 -112.5 -331.5t-202 -215
t-291.5 -75.5zM661 1572l25 134l352 208l-35 -221z" />
    <glyph glyph-name="Ucircumflex" unicode="&#xdb;" horiz-adv-x="1267" 
d="M527 -28q-206 0 -305.5 113t-99.5 314q0 42 5 93t14 102l142 806h185l-126 -714q-11 -63 -17.5 -123t-6.5 -114q0 -88 22 -158t74 -110.5t144 -40.5q105 0 175.5 50.5t116 132.5t72 177.5t42.5 185.5l125 714h186l-142 -806q-34 -192 -112.5 -331.5t-202 -215
t-291.5 -75.5zM609 1570l30 126l244 194l197 -220l-25 -120l-208 160z" />
    <glyph glyph-name="Udieresis" unicode="&#xdc;" horiz-adv-x="1267" 
d="M527 -28q-206 0 -305.5 113t-99.5 314q0 42 5 93t14 102l142 806h185l-126 -714q-11 -63 -17.5 -123t-6.5 -114q0 -88 22 -158t74 -110.5t144 -40.5q105 0 175.5 50.5t116 132.5t72 177.5t42.5 185.5l125 714h186l-142 -806q-34 -192 -112.5 -331.5t-202 -215
t-291.5 -75.5zM567 1603l33 159h160l-32 -159h-161zM921 1603l32 159h160l-31 -159h-161z" />
    <glyph glyph-name="Yacute" unicode="&#xdd;" horiz-adv-x="1043" 
d="M318 0l129 730l14 -161l-305 831h196l239 -661l-80 10l455 651h197l-592 -820l66 150l-129 -730h-190zM533 1572l25 134l352 208l-35 -221z" />
    <glyph glyph-name="Thorn" unicode="&#xde;" horiz-adv-x="981" 
d="M33 0l248 1400h191l-248 -1400h-191zM226 385l31 168h299q119 0 185 57t66 159q0 50 -21 84t-62.5 51.5t-103.5 17.5h-299l31 167h314q166 0 251.5 -75.5t85.5 -210.5q0 -128 -57 -222t-161 -145t-244 -51h-315z" />
    <glyph glyph-name="germandbls" unicode="&#xdf;" horiz-adv-x="1060" 
d="M535 -28q-55 0 -106 6.5t-103 22.5l26 157q48 -13 97 -20.5t103 -7.5q97 0 167.5 47t70.5 139q0 58 -26.5 98.5t-65 72.5t-77.5 63.5t-65.5 71t-26.5 97.5q0 72 53.5 140.5t141.5 153.5q51 49 85.5 98.5t33.5 120.5q0 64 -41.5 101.5t-118.5 37.5q-112 0 -181.5 -71
t-90.5 -193l-193 -1107h-179l148 843h-135l41 136h119l21 124q24 143 93 237.5t170.5 141t220.5 46.5q142 0 223 -71t81 -183q0 -107 -39.5 -174.5t-111.5 -142.5q-77 -81 -115.5 -123.5t-38.5 -86.5q0 -39 26 -70.5t64 -63t76.5 -69t64.5 -87.5t26 -119q1 -85 -34.5 -152.5
t-97 -115t-140.5 -73t-166 -25.5z" />
    <glyph glyph-name="agrave" unicode="&#xe0;" horiz-adv-x="1029" 
d="M346 -20q-94 0 -163 48t-107 134t-38 202q0 121 37 234t104 203.5t158.5 144t198.5 53.5q50 0 98 -15t86 -58.5t57 -127.5l-56 -3l65 184h157l-118 -695q-8 -47 -8 -80q0 -47 20 -65t68 -18l-49 -141q-52 0 -93 5t-70.5 27t-46.5 71t-21 138l47 -46q-40 -63 -89 -106.5
t-108 -66t-129 -22.5zM407 138q60 0 113 27.5t94.5 81.5t65 133t23.5 181q0 148 -52.5 214.5t-134.5 66.5t-148.5 -61t-105.5 -161t-39 -217q0 -110 43.5 -187.5t140.5 -77.5zM810 1153l-312 137l35 194l300 -211z" />
    <glyph glyph-name="aacute" unicode="&#xe1;" horiz-adv-x="1029" 
d="M346 -20q-94 0 -163 48t-107 134t-38 202q0 121 37 234t104 203.5t158.5 144t198.5 53.5q50 0 98 -15t86 -58.5t57 -127.5l-56 -3l65 184h157l-118 -695q-8 -47 -8 -80q0 -47 20 -65t68 -18l-49 -141q-52 0 -93 5t-70.5 27t-46.5 71t-21 138l47 -46q-40 -63 -89 -106.5
t-108 -66t-129 -22.5zM407 138q60 0 113 27.5t94.5 81.5t65 133t23.5 181q0 148 -52.5 214.5t-134.5 66.5t-148.5 -61t-105.5 -161t-39 -217q0 -110 43.5 -187.5t140.5 -77.5zM487 1151l25 134l352 208l-35 -221z" />
    <glyph glyph-name="acircumflex" unicode="&#xe2;" horiz-adv-x="1029" 
d="M346 -20q-94 0 -163 48t-107 134t-38 202q0 121 37 234t104 203.5t158.5 144t198.5 53.5q50 0 98 -15t86 -58.5t57 -127.5l-56 -3l65 184h157l-118 -695q-8 -47 -8 -80q0 -47 20 -65t68 -18l-49 -141q-52 0 -93 5t-70.5 27t-46.5 71t-21 138l47 -46q-40 -63 -89 -106.5
t-108 -66t-129 -22.5zM407 138q60 0 113 27.5t94.5 81.5t65 133t23.5 181q0 148 -52.5 214.5t-134.5 66.5t-148.5 -61t-105.5 -161t-39 -217q0 -110 43.5 -187.5t140.5 -77.5zM435 1149l30 126l244 194l197 -220l-25 -120l-208 160z" />
    <glyph glyph-name="atilde" unicode="&#xe3;" horiz-adv-x="1029" 
d="M346 -20q-94 0 -163 48t-107 134t-38 202q0 121 37 234t104 203.5t158.5 144t198.5 53.5q50 0 98 -15t86 -58.5t57 -127.5l-56 -3l65 184h157l-118 -695q-8 -47 -8 -80q0 -47 20 -65t68 -18l-49 -141q-52 0 -93 5t-70.5 27t-46.5 71t-21 138l47 -46q-40 -63 -89 -106.5
t-108 -66t-129 -22.5zM407 138q60 0 113 27.5t94.5 81.5t65 133t23.5 181q0 148 -52.5 214.5t-134.5 66.5t-148.5 -61t-105.5 -161t-39 -217q0 -110 43.5 -187.5t140.5 -77.5zM799 1160q-40 0 -82.5 22.5t-82 44.5t-74.5 22q-29 0 -47.5 -19.5t-25.5 -53.5h-137
q24 108 74.5 164.5t125.5 56.5q44 0 82.5 -22t75.5 -44t75 -22q29 0 47.5 19t25.5 59h138q-26 -120 -74 -173.5t-121 -53.5z" />
    <glyph glyph-name="adieresis" unicode="&#xe4;" horiz-adv-x="1029" 
d="M346 -20q-94 0 -163 48t-107 134t-38 202q0 121 37 234t104 203.5t158.5 144t198.5 53.5q50 0 98 -15t86 -58.5t57 -127.5l-56 -3l65 184h157l-118 -695q-8 -47 -8 -80q0 -47 20 -65t68 -18l-49 -141q-52 0 -93 5t-70.5 27t-46.5 71t-21 138l47 -46q-40 -63 -89 -106.5
t-108 -66t-129 -22.5zM407 138q60 0 113 27.5t94.5 81.5t65 133t23.5 181q0 148 -52.5 214.5t-134.5 66.5t-148.5 -61t-105.5 -161t-39 -217q0 -110 43.5 -187.5t140.5 -77.5zM393 1182l33 159h160l-32 -159h-161zM747 1182l32 159h160l-31 -159h-161z" />
    <glyph glyph-name="aring" unicode="&#xe5;" horiz-adv-x="1029" 
d="M346 -20q-94 0 -163 48t-107 134t-38 202q0 121 37 234t104 203.5t158.5 144t198.5 53.5q50 0 98 -15t86 -58.5t57 -127.5l-56 -3l65 184h157l-118 -695q-8 -47 -8 -80q0 -47 20 -65t68 -18l-49 -141q-52 0 -93 5t-70.5 27t-46.5 71t-21 138l47 -46q-40 -63 -89 -106.5
t-108 -66t-129 -22.5zM407 138q60 0 113 27.5t94.5 81.5t65 133t23.5 181q0 148 -52.5 214.5t-134.5 66.5t-148.5 -61t-105.5 -161t-39 -217q0 -110 43.5 -187.5t140.5 -77.5zM642 1136q-81 0 -122 46.5t-41 109.5q0 67 32 122.5t85.5 89t117.5 33.5q81 0 121.5 -46.5
t40.5 -109.5q0 -67 -31.5 -123t-84 -89t-118.5 -33zM656 1223q48 0 84 41.5t36 95.5q0 41 -22 65.5t-55 24.5q-47 0 -83.5 -42.5t-36.5 -97.5q0 -41 23 -64t54 -23z" />
    <glyph glyph-name="ae" unicode="&#xe6;" horiz-adv-x="1383" 
d="M570 492q-59 2 -128 -11t-130.5 -44.5t-101 -84.5t-39.5 -131q0 -54 29.5 -76.5t73.5 -22.5q49 0 102.5 26t97 86t59.5 160q5 31 8.5 51t6 39.5t5 48t5.5 75.5q7 123 -21.5 179t-124.5 56q-55 0 -109 -14.5t-120 -42.5l9 136q82 39 158 58t142 19q43 0 88 -13t80 -48.5
t50 -104t-3 -178.5l-14 29q28 120 86.5 188.5t134 97.5t154.5 29q124 0 197 -78.5t73 -227.5q0 -63 -12 -111t-27 -89h-638l34 121h471q4 21 6 45t2 40q-1 76 -36.5 109.5t-110.5 33.5q-73 0 -128 -41.5t-93 -109t-57 -147t-19 -156.5q0 -88 27.5 -147.5t75 -89.5t108.5 -30
q42 0 84 9t85 25.5t88 38.5l-4 -134q-62 -33 -135 -56.5t-160 -23.5q-143 0 -223 67.5t-91 230.5l41 -12q-45 -99 -109 -164t-142 -97.5t-166 -32.5q-114 0 -170.5 57.5t-56.5 152.5q0 90 31.5 158.5t88 118t132 82t163.5 50.5t182 23z" />
    <glyph glyph-name="ccedilla" unicode="&#xe7;" horiz-adv-x="793" 
d="M393 -20q-126 0 -203.5 55t-112.5 148t-35 207q0 119 34 228.5t101.5 195.5t166.5 135.5t228 49.5q73 0 135 -15t100 -42l-52 -159q-42 29 -88.5 44t-96.5 15q-113 0 -190 -57t-116 -153.5t-39 -214.5q0 -133 55 -207.5t171 -74.5q96 0 206 59l-8 -150q-44 -24 -108 -44
t-148 -20zM375 -158l-58 30q25 9 47.5 14.5t47.5 5.5q67 0 104 -34.5t37 -94.5q0 -92 -68.5 -152.5t-169.5 -60.5q-47 0 -82 11.5t-60 26.5l48 97q26 -17 54 -25.5t59 -8.5q50 0 78 25.5t28 63.5q0 68 -83 68q-20 0 -42.5 -3.5t-48.5 -12.5l88 208h96z" />
    <glyph glyph-name="egrave" unicode="&#xe8;" horiz-adv-x="871" 
d="M215 575q39 -16 75.5 -25t85.5 -9q113 0 176.5 30.5t89 74.5t25.5 84t-18.5 64.5t-49.5 36t-65 11.5q-65 0 -122 -34t-102.5 -108t-75.5 -194l-3 -3q-11 -145 17.5 -224.5t85.5 -110t129 -30.5q58 0 128 13t132 43l-11 -138q-54 -33 -129 -54.5t-166 -21.5
q-129 0 -213 55.5t-124.5 150t-40.5 211.5q0 118 37 226t105.5 193t162.5 134t208 49q135 0 205.5 -68t70.5 -176q0 -54 -23 -112.5t-74 -108.5t-134.5 -81t-204.5 -31q-55 0 -108 7.5t-85 20.5zM765 1153l-312 137l35 194l300 -211z" />
    <glyph glyph-name="eacute" unicode="&#xe9;" horiz-adv-x="871" 
d="M215 575q39 -16 75.5 -25t85.5 -9q113 0 176.5 30.5t89 74.5t25.5 84t-18.5 64.5t-49.5 36t-65 11.5q-65 0 -122 -34t-102.5 -108t-75.5 -194l-3 -3q-11 -145 17.5 -224.5t85.5 -110t129 -30.5q58 0 128 13t132 43l-11 -138q-54 -33 -129 -54.5t-166 -21.5
q-129 0 -213 55.5t-124.5 150t-40.5 211.5q0 118 37 226t105.5 193t162.5 134t208 49q135 0 205.5 -68t70.5 -176q0 -54 -23 -112.5t-74 -108.5t-134.5 -81t-204.5 -31q-55 0 -108 7.5t-85 20.5zM442 1151l25 134l352 208l-35 -221z" />
    <glyph glyph-name="ecircumflex" unicode="&#xea;" horiz-adv-x="871" 
d="M215 575q39 -16 75.5 -25t85.5 -9q113 0 176.5 30.5t89 74.5t25.5 84t-18.5 64.5t-49.5 36t-65 11.5q-65 0 -122 -34t-102.5 -108t-75.5 -194l-3 -3q-11 -145 17.5 -224.5t85.5 -110t129 -30.5q58 0 128 13t132 43l-11 -138q-54 -33 -129 -54.5t-166 -21.5
q-129 0 -213 55.5t-124.5 150t-40.5 211.5q0 118 37 226t105.5 193t162.5 134t208 49q135 0 205.5 -68t70.5 -176q0 -54 -23 -112.5t-74 -108.5t-134.5 -81t-204.5 -31q-55 0 -108 7.5t-85 20.5zM390 1149l30 126l244 194l197 -220l-25 -120l-208 160z" />
    <glyph glyph-name="edieresis" unicode="&#xeb;" horiz-adv-x="871" 
d="M215 575q39 -16 75.5 -25t85.5 -9q113 0 176.5 30.5t89 74.5t25.5 84t-18.5 64.5t-49.5 36t-65 11.5q-65 0 -122 -34t-102.5 -108t-75.5 -194l-3 -3q-11 -145 17.5 -224.5t85.5 -110t129 -30.5q58 0 128 13t132 43l-11 -138q-54 -33 -129 -54.5t-166 -21.5
q-129 0 -213 55.5t-124.5 150t-40.5 211.5q0 118 37 226t105.5 193t162.5 134t208 49q135 0 205.5 -68t70.5 -176q0 -54 -23 -112.5t-74 -108.5t-134.5 -81t-204.5 -31q-55 0 -108 7.5t-85 20.5zM348 1182l33 159h160l-32 -159h-161zM702 1182l32 159h160l-31 -159h-161z
" />
    <glyph glyph-name="igrave" unicode="&#xec;" horiz-adv-x="410" 
d="M14 0l172 979h179l-173 -979h-178zM473 1153l-312 137l35 194l300 -211z" />
    <glyph glyph-name="iacute" unicode="&#xed;" horiz-adv-x="410" 
d="M14 0l172 979h179l-173 -979h-178zM150 1151l25 134l352 208l-35 -221z" />
    <glyph glyph-name="icircumflex" unicode="&#xee;" horiz-adv-x="410" 
d="M14 0l172 979h179l-173 -979h-178zM98 1149l30 126l244 194l197 -220l-25 -120l-208 160z" />
    <glyph glyph-name="idieresis" unicode="&#xef;" horiz-adv-x="410" 
d="M14 0l172 979h179l-173 -979h-178zM56 1182l33 159h160l-32 -159h-161zM410 1182l32 159h160l-31 -159h-161z" />
    <glyph glyph-name="eth" unicode="&#xf0;" horiz-adv-x="922" 
d="M354 -24q-109 0 -184.5 47.5t-114.5 129t-39 182.5q0 140 56.5 257.5t154 188.5t220.5 71q73 0 120.5 -24.5t75.5 -56.5t41 -54l-21 -41q12 156 -21 281t-105.5 216.5t-179.5 146.5l62 82q133 -46 227.5 -147t145.5 -243.5t51 -314.5q0 -218 -63.5 -380t-174 -251.5
t-251.5 -89.5zM372 140q68 0 123.5 47t88.5 124.5t33 170.5q0 91 -40 148.5t-117 57.5q-75 0 -133 -44.5t-90.5 -118t-32.5 -162.5q0 -92 42 -157.5t126 -65.5zM345 1013l-49 111l527 235l47 -110z" />
    <glyph glyph-name="ntilde" unicode="&#xf1;" horiz-adv-x="977" 
d="M14 0l172 979h152l-13 -257l-133 -722h-178zM590 0q31 177 51 293t32 186t17 107t6.5 54t1.5 28q0 90 -37 132t-117 42q-70 0 -131.5 -34.5t-103.5 -111.5l10 161q76 87 144.5 114.5t142.5 27.5q145 0 209 -80t64 -225q0 -15 -1.5 -35.5t-7 -60.5t-17 -112.5t-32 -190
t-52.5 -295.5h-179zM761 1161q-40 0 -82.5 22.5t-82 44.5t-74.5 22q-29 0 -47.5 -19.5t-25.5 -53.5h-137q24 108 74.5 164.5t125.5 56.5q44 0 82.5 -22t75.5 -44t75 -22q29 0 47.5 19t25.5 59h138q-26 -120 -74 -173.5t-121 -53.5z" />
    <glyph glyph-name="ograve" unicode="&#xf2;" horiz-adv-x="978" 
d="M388 -20q-118 0 -195.5 53.5t-116 145.5t-38.5 207q0 123 38.5 233.5t108.5 196t165 134.5t207 49q118 0 195.5 -54t116 -146.5t38.5 -207.5q0 -122 -39 -232t-108.5 -195.5t-164.5 -134.5t-207 -49zM415 138q93 0 162.5 58.5t108 158.5t38.5 223q0 133 -49.5 198.5
t-144.5 65.5q-93 0 -162.5 -59t-108 -158.5t-38.5 -222.5q0 -131 48.5 -197.5t145.5 -66.5zM760 1153l-312 137l35 194l300 -211z" />
    <glyph glyph-name="oacute" unicode="&#xf3;" horiz-adv-x="978" 
d="M388 -20q-118 0 -195.5 53.5t-116 145.5t-38.5 207q0 123 38.5 233.5t108.5 196t165 134.5t207 49q118 0 195.5 -54t116 -146.5t38.5 -207.5q0 -122 -39 -232t-108.5 -195.5t-164.5 -134.5t-207 -49zM415 138q93 0 162.5 58.5t108 158.5t38.5 223q0 133 -49.5 198.5
t-144.5 65.5q-93 0 -162.5 -59t-108 -158.5t-38.5 -222.5q0 -131 48.5 -197.5t145.5 -66.5zM437 1151l25 134l352 208l-35 -221z" />
    <glyph glyph-name="ocircumflex" unicode="&#xf4;" horiz-adv-x="978" 
d="M388 -20q-118 0 -195.5 53.5t-116 145.5t-38.5 207q0 123 38.5 233.5t108.5 196t165 134.5t207 49q118 0 195.5 -54t116 -146.5t38.5 -207.5q0 -122 -39 -232t-108.5 -195.5t-164.5 -134.5t-207 -49zM415 138q93 0 162.5 58.5t108 158.5t38.5 223q0 133 -49.5 198.5
t-144.5 65.5q-93 0 -162.5 -59t-108 -158.5t-38.5 -222.5q0 -131 48.5 -197.5t145.5 -66.5zM386 1149l30 126l244 194l197 -220l-25 -120l-208 160z" />
    <glyph glyph-name="otilde" unicode="&#xf5;" horiz-adv-x="978" 
d="M388 -20q-118 0 -195.5 53.5t-116 145.5t-38.5 207q0 123 38.5 233.5t108.5 196t165 134.5t207 49q118 0 195.5 -54t116 -146.5t38.5 -207.5q0 -122 -39 -232t-108.5 -195.5t-164.5 -134.5t-207 -49zM415 138q93 0 162.5 58.5t108 158.5t38.5 223q0 133 -49.5 198.5
t-144.5 65.5q-93 0 -162.5 -59t-108 -158.5t-38.5 -222.5q0 -131 48.5 -197.5t145.5 -66.5zM749 1160q-40 0 -82.5 22.5t-82 44.5t-74.5 22q-29 0 -47.5 -19.5t-25.5 -53.5h-137q24 108 74.5 164.5t125.5 56.5q44 0 82.5 -22t75.5 -44t75 -22q29 0 47.5 19t25.5 59h138
q-26 -120 -74 -173.5t-121 -53.5z" />
    <glyph glyph-name="odieresis" unicode="&#xf6;" horiz-adv-x="978" 
d="M388 -20q-118 0 -195.5 53.5t-116 145.5t-38.5 207q0 123 38.5 233.5t108.5 196t165 134.5t207 49q118 0 195.5 -54t116 -146.5t38.5 -207.5q0 -122 -39 -232t-108.5 -195.5t-164.5 -134.5t-207 -49zM415 138q93 0 162.5 58.5t108 158.5t38.5 223q0 133 -49.5 198.5
t-144.5 65.5q-93 0 -162.5 -59t-108 -158.5t-38.5 -222.5q0 -131 48.5 -197.5t145.5 -66.5zM344 1182l33 159h160l-32 -159h-161zM698 1182l32 159h160l-31 -159h-161z" />
    <glyph glyph-name="divide" unicode="&#xf7;" horiz-adv-x="875" 
d="M18 488l29 150h722l-29 -150h-722zM220 120l36 197h185l-35 -197h-186zM343 809l35 196h185l-35 -196h-185z" />
    <glyph glyph-name="oslash" unicode="&#xf8;" horiz-adv-x="1028" 
d="M852 1060h160l-872 -1140h-160zM388 -20q-118 0 -195.5 53.5t-116 145.5t-38.5 207q0 123 38.5 233.5t108.5 196t165 134.5t207 49q118 0 195.5 -54t116 -146.5t38.5 -207.5q0 -122 -39 -232t-108.5 -195.5t-164.5 -134.5t-207 -49zM415 138q93 0 162.5 58.5t108 158.5
t38.5 223q0 133 -49.5 198.5t-144.5 65.5q-93 0 -162.5 -59t-108 -158.5t-38.5 -222.5q0 -131 48.5 -197.5t145.5 -66.5z" />
    <glyph glyph-name="ugrave" unicode="&#xf9;" horiz-adv-x="942" 
d="M322 -20q-125 0 -192 73t-67 206q0 23 4 59.5t12 82.5l98 578h178l-94 -549q-5 -31 -8.5 -60.5t-3.5 -51.5q0 -181 145 -181q59 0 113 31.5t94 98.5l-23 -145q-49 -62 -111 -102t-145 -40zM562 0l10 129l147 850h178l-172 -979h-163zM733 1153l-312 137l35 194l300 -211z
" />
    <glyph glyph-name="uacute" unicode="&#xfa;" horiz-adv-x="942" 
d="M322 -20q-125 0 -192 73t-67 206q0 23 4 59.5t12 82.5l98 578h178l-94 -549q-5 -31 -8.5 -60.5t-3.5 -51.5q0 -181 145 -181q59 0 113 31.5t94 98.5l-23 -145q-49 -62 -111 -102t-145 -40zM562 0l10 129l147 850h178l-172 -979h-163zM410 1151l25 134l352 208l-35 -221z
" />
    <glyph glyph-name="ucircumflex" unicode="&#xfb;" horiz-adv-x="942" 
d="M322 -20q-125 0 -192 73t-67 206q0 23 4 59.5t12 82.5l98 578h178l-94 -549q-5 -31 -8.5 -60.5t-3.5 -51.5q0 -181 145 -181q59 0 113 31.5t94 98.5l-23 -145q-49 -62 -111 -102t-145 -40zM562 0l10 129l147 850h178l-172 -979h-163zM359 1149l30 126l244 194l197 -220
l-25 -120l-208 160z" />
    <glyph glyph-name="udieresis" unicode="&#xfc;" horiz-adv-x="942" 
d="M322 -20q-125 0 -192 73t-67 206q0 23 4 59.5t12 82.5l98 578h178l-94 -549q-5 -31 -8.5 -60.5t-3.5 -51.5q0 -181 145 -181q59 0 113 31.5t94 98.5l-23 -145q-49 -62 -111 -102t-145 -40zM562 0l10 129l147 850h178l-172 -979h-163zM317 1182l33 159h160l-32 -159h-161z
M671 1182l32 159h160l-31 -159h-161z" />
    <glyph glyph-name="yacute" unicode="&#xfd;" horiz-adv-x="880" 
d="M-31 -484l328 600l-25 -155l-206 1018h199l132 -815l-53 7l396 808h198l-781 -1463h-188zM377 1151l25 134l352 208l-35 -221z" />
    <glyph glyph-name="thorn" unicode="&#xfe;" horiz-adv-x="993" 
d="M-72 -484l350 1984h178l-126 -700l-24 39q60 77 136 118.5t174 41.5q102 0 169.5 -55t101 -147t33.5 -204q0 -116 -34.5 -226t-97.5 -197t-149.5 -138.5t-189.5 -51.5q-93 0 -161 47.5t-101 161.5l41 18l-122 -691h-178zM440 138q85 0 152 62.5t105.5 164t38.5 216.5
t-43.5 188t-133.5 73q-76 0 -145 -51.5t-112.5 -149.5t-43.5 -236q0 -145 51.5 -206t130.5 -61z" />
    <glyph glyph-name="ydieresis" unicode="&#xff;" horiz-adv-x="880" 
d="M-31 -484l328 600l-25 -155l-206 1018h199l132 -815l-53 7l396 808h198l-781 -1463h-188zM283 1182l33 159h160l-32 -159h-161zM637 1182l32 159h160l-31 -159h-161z" />
    <glyph glyph-name="Amacron" unicode="&#x100;" horiz-adv-x="1080" 
d="M-75 0l675 1400h186l181 -1400h-195l-46 397l-26 135l-66 694l45 -7l-299 -686l-79 -138l-181 -395h-195zM222 381l93 167h454l30 -167h-577zM426 1586l24 135h597l-24 -135h-597z" />
    <glyph glyph-name="amacron" unicode="&#x101;" horiz-adv-x="1029" 
d="M346 -20q-94 0 -163 48t-107 134t-38 202q0 121 37 234t104 203.5t158.5 144t198.5 53.5q50 0 98 -15t86 -58.5t57 -127.5l-56 -3l65 184h157l-118 -695q-8 -47 -8 -80q0 -47 20 -65t68 -18l-49 -141q-52 0 -93 5t-70.5 27t-46.5 71t-21 138l47 -46q-40 -63 -89 -106.5
t-108 -66t-129 -22.5zM407 138q60 0 113 27.5t94.5 81.5t65 133t23.5 181q0 148 -52.5 214.5t-134.5 66.5t-148.5 -61t-105.5 -161t-39 -217q0 -110 43.5 -187.5t140.5 -77.5zM357 1181l29 141h590l-28 -141h-591z" />
    <glyph glyph-name="Abreve" unicode="&#x102;" horiz-adv-x="1080" 
d="M-75 0l675 1400h186l181 -1400h-195l-46 397l-26 135l-66 694l45 -7l-299 -686l-79 -138l-181 -395h-195zM222 381l93 167h454l30 -167h-577zM736 1572q-121 0 -177.5 59t-56.5 139q0 17 2 29t6 25h147q-2 -6 -3.5 -15.5t-1.5 -19.5q0 -42 27 -64t72 -22q51 0 91 30
t50 91h159q-18 -106 -98.5 -179t-216.5 -73z" />
    <glyph glyph-name="abreve" unicode="&#x103;" horiz-adv-x="1029" 
d="M346 -20q-94 0 -163 48t-107 134t-38 202q0 121 37 234t104 203.5t158.5 144t198.5 53.5q50 0 98 -15t86 -58.5t57 -127.5l-56 -3l65 184h157l-118 -695q-8 -47 -8 -80q0 -47 20 -65t68 -18l-49 -141q-52 0 -93 5t-70.5 27t-46.5 71t-21 138l47 -46q-40 -63 -89 -106.5
t-108 -66t-129 -22.5zM407 138q60 0 113 27.5t94.5 81.5t65 133t23.5 181q0 148 -52.5 214.5t-134.5 66.5t-148.5 -61t-105.5 -161t-39 -217q0 -110 43.5 -187.5t140.5 -77.5zM658 1151q-121 0 -177.5 59t-56.5 139q0 17 2 29t6 25h147q-2 -6 -3.5 -15.5t-1.5 -19.5
q0 -42 27 -64t72 -22q51 0 91 30t50 91h159q-18 -106 -98.5 -179t-216.5 -73z" />
    <glyph glyph-name="Aogonek" unicode="&#x104;" horiz-adv-x="1080" 
d="M-75 0l675 1400h186l181 -1400h-195l-46 397l-26 135l-66 694l45 -7l-299 -686l-79 -138l-181 -395h-195zM222 381l93 167h454l30 -167h-577zM876 10l93 -10q-47 -34 -89.5 -71t-69.5 -79t-27 -90q0 -75 69 -75q30 0 57.5 9.5t55.5 25.5l11 -97q-27 -15 -66.5 -26.5
t-86.5 -11.5q-68 0 -113.5 35.5t-45.5 102.5q1 82 65.5 160t146.5 127z" />
    <glyph glyph-name="aogonek" unicode="&#x105;" horiz-adv-x="1029" 
d="M346 -20q-94 0 -163 48t-107 134t-38 202q0 121 37 234t104 203.5t158.5 144t198.5 53.5q50 0 98 -15t86 -58.5t57 -127.5l-56 -3l65 184h157l-118 -695q-8 -47 -8 -80q0 -47 20 -65t68 -18l-49 -141q-52 0 -93 5t-70.5 27t-46.5 71t-21 138l47 -46q-40 -63 -89 -106.5
t-108 -66t-129 -22.5zM407 138q60 0 113 27.5t94.5 81.5t65 133t23.5 181q0 148 -52.5 214.5t-134.5 66.5t-148.5 -61t-105.5 -161t-39 -217q0 -110 43.5 -187.5t140.5 -77.5zM731 10l93 -10q-47 -34 -89.5 -71t-69.5 -79t-27 -90q0 -75 69 -75q30 0 57.5 9.5t55.5 25.5
l11 -97q-27 -15 -66.5 -26.5t-86.5 -11.5q-68 0 -113.5 35.5t-45.5 102.5q1 82 65.5 160t146.5 127z" />
    <glyph glyph-name="Cacute" unicode="&#x106;" horiz-adv-x="1073" 
d="M574 -28q-149 0 -258.5 69.5t-169 200.5t-59.5 315q0 189 59 348t162.5 276.5t236.5 182t282 64.5q92 0 178.5 -23.5t143.5 -58.5l-52 -172q-66 29 -136.5 58t-160.5 29q-118 0 -212 -57.5t-159.5 -155.5t-100.5 -222.5t-35 -258.5q0 -125 34 -221.5t104.5 -151
t180.5 -54.5q84 0 164.5 28t156.5 56l-13 -172q-72 -34 -165 -57t-181 -23zM725 1529l17 127l330 190l-30 -201z" />
    <glyph glyph-name="cacute" unicode="&#x107;" horiz-adv-x="793" 
d="M393 -20q-126 0 -203.5 55t-112.5 148t-35 207q0 119 34 228.5t101.5 195.5t166.5 135.5t228 49.5q73 0 135 -15t100 -42l-52 -159q-42 29 -88.5 44t-96.5 15q-113 0 -190 -57t-116 -153.5t-39 -214.5q0 -133 55 -207.5t171 -74.5q96 0 206 59l-8 -150q-44 -24 -108 -44
t-148 -20zM462 1151l25 134l352 208l-35 -221z" />
    <glyph glyph-name="Ccircumflex" unicode="&#x108;" horiz-adv-x="1073" 
d="M574 -28q-149 0 -258.5 69.5t-169 200.5t-59.5 315q0 189 59 348t162.5 276.5t236.5 182t282 64.5q92 0 178.5 -23.5t143.5 -58.5l-52 -172q-66 29 -136.5 58t-160.5 29q-118 0 -212 -57.5t-159.5 -155.5t-100.5 -222.5t-35 -258.5q0 -125 34 -221.5t104.5 -151
t180.5 -54.5q84 0 164.5 28t156.5 56l-13 -172q-72 -34 -165 -57t-181 -23zM1110 1507l-219 131l-219 -107l21 120l229 156l208 -180z" />
    <glyph glyph-name="ccircumflex" unicode="&#x109;" horiz-adv-x="793" 
d="M393 -20q-126 0 -203.5 55t-112.5 148t-35 207q0 119 34 228.5t101.5 195.5t166.5 135.5t228 49.5q73 0 135 -15t100 -42l-52 -159q-42 29 -88.5 44t-96.5 15q-113 0 -190 -57t-116 -153.5t-39 -214.5q0 -133 55 -207.5t171 -74.5q96 0 206 59l-8 -150q-44 -24 -108 -44
t-148 -20zM410 1149l30 126l244 194l197 -220l-25 -120l-208 160z" />
    <glyph glyph-name="Cdotaccent" unicode="&#x10a;" horiz-adv-x="1073" 
d="M574 -28q-149 0 -258.5 69.5t-169 200.5t-59.5 315q0 189 59 348t162.5 276.5t236.5 182t282 64.5q92 0 178.5 -23.5t143.5 -58.5l-52 -172q-66 29 -136.5 58t-160.5 29q-118 0 -212 -57.5t-159.5 -155.5t-100.5 -222.5t-35 -258.5q0 -125 34 -221.5t104.5 -151
t180.5 -54.5q84 0 164.5 28t156.5 56l-13 -172q-72 -34 -165 -57t-181 -23zM792 1582l32 179h179l-32 -179h-179z" />
    <glyph glyph-name="cdotaccent" unicode="&#x10b;" horiz-adv-x="793" 
d="M393 -20q-126 0 -203.5 55t-112.5 148t-35 207q0 119 34 228.5t101.5 195.5t166.5 135.5t228 49.5q73 0 135 -15t100 -42l-52 -159q-42 29 -88.5 44t-96.5 15q-113 0 -190 -57t-116 -153.5t-39 -214.5q0 -133 55 -207.5t171 -74.5q96 0 206 59l-8 -150q-44 -24 -108 -44
t-148 -20zM539 1181l36 179h175l-36 -179h-175z" />
    <glyph glyph-name="Ccaron" unicode="&#x10c;" horiz-adv-x="1073" 
d="M574 -28q-149 0 -258.5 69.5t-169 200.5t-59.5 315q0 189 59 348t162.5 276.5t236.5 182t282 64.5q92 0 178.5 -23.5t143.5 -58.5l-52 -172q-66 29 -136.5 58t-160.5 29q-118 0 -212 -57.5t-159.5 -155.5t-100.5 -222.5t-35 -258.5q0 -125 34 -221.5t104.5 -151
t180.5 -54.5q84 0 164.5 28t156.5 56l-13 -172q-72 -34 -165 -57t-181 -23zM861 1507l-208 180l19 112l219 -122l229 122l-20 -128z" />
    <glyph glyph-name="ccaron" unicode="&#x10d;" horiz-adv-x="793" 
d="M393 -20q-126 0 -203.5 55t-112.5 148t-35 207q0 119 34 228.5t101.5 195.5t166.5 135.5t228 49.5q73 0 135 -15t100 -42l-52 -159q-42 29 -88.5 44t-96.5 15q-113 0 -190 -57t-116 -153.5t-39 -214.5q0 -133 55 -207.5t171 -74.5q96 0 206 59l-8 -150q-44 -24 -108 -44
t-148 -20zM614 1116l-197 220l24 120l209 -160l260 160l-25 -149z" />
    <glyph glyph-name="Dcaron" unicode="&#x10e;" horiz-adv-x="1275" 
d="M48 0l246 1400h446q148 0 257 -64.5t169.5 -190.5t60.5 -311q0 -186 -58 -339.5t-159 -264t-233.5 -170.5t-282.5 -60h-446zM250 86l-68 82h343q117 0 209 52t156 143.5t97.5 210t33.5 250.5q0 191 -77.5 300t-235.5 109h-342l99 82zM802 1507l-208 180l19 112l219 -122
l229 122l-20 -128z" />
    <glyph glyph-name="dcaron" unicode="&#x10f;" horiz-adv-x="1144" 
d="M345 -20q-93 0 -162 53.5t-106.5 145.5t-37.5 209q0 115 35 224t99.5 196.5t151.5 139t190 51.5q68 0 117 -20t84.5 -62t61.5 -108l-44 -17l125 708h178l-264 -1500h-164l18 209l32 -32q-63 -96 -144.5 -146.5t-169.5 -50.5zM407 138q55 0 108 26t96 79t68 132.5
t25 185.5q0 148 -52.5 214.5t-134.5 66.5q-83 0 -149.5 -61t-105 -161t-38.5 -216q0 -111 43 -188.5t140 -77.5zM1052 1167l60 333h177l-114 -333h-123z" />
    <glyph glyph-name="Dcroat" unicode="&#x110;" horiz-adv-x="1281" 
d="M61 0l246 1400h442q147 0 255.5 -65.5t168.5 -188t60 -294.5q0 -189 -55.5 -345.5t-155 -270t-232 -175t-287.5 -61.5h-442zM258 88l-68 82h344q158 0 269 89t169 240t58 339q0 178 -77 286.5t-236 108.5h-344l99 82zM39 631l29 163h564l-30 -163h-563z" />
    <glyph glyph-name="dcroat" unicode="&#x111;" horiz-adv-x="990" 
d="M345 -20q-93 0 -162 53.5t-106.5 145.5t-37.5 209q0 115 35 224t99.5 196.5t151.5 139t190 51.5q68 0 117 -20t84.5 -62t61.5 -108l-44 -17l125 708h178l-264 -1500h-164l18 209l32 -32q-63 -96 -144.5 -146.5t-169.5 -50.5zM407 138q55 0 108 26t96 79t68 132.5
t25 185.5q0 148 -52.5 214.5t-134.5 66.5q-83 0 -149.5 -61t-105 -161t-38.5 -216q0 -111 43 -188.5t140 -77.5zM552 1167l25 124h539l-24 -124h-540z" />
    <glyph glyph-name="Emacron" unicode="&#x112;" horiz-adv-x="979" 
d="M253 85l-68 83h657l-31 -168h-763l246 1400h747l-31 -167h-642l99 82zM310 816h509l-31 -167h-510zM399 1586l24 135h597l-24 -135h-597z" />
    <glyph glyph-name="emacron" unicode="&#x113;" horiz-adv-x="871" 
d="M215 575q39 -16 75.5 -25t85.5 -9q113 0 176.5 30.5t89 74.5t25.5 84t-18.5 64.5t-49.5 36t-65 11.5q-65 0 -122 -34t-102.5 -108t-75.5 -194l-3 -3q-11 -145 17.5 -224.5t85.5 -110t129 -30.5q58 0 128 13t132 43l-11 -138q-54 -33 -129 -54.5t-166 -21.5
q-129 0 -213 55.5t-124.5 150t-40.5 211.5q0 118 37 226t105.5 193t162.5 134t208 49q135 0 205.5 -68t70.5 -176q0 -54 -23 -112.5t-74 -108.5t-134.5 -81t-204.5 -31q-55 0 -108 7.5t-85 20.5zM312 1181l29 141h590l-28 -141h-591z" />
    <glyph glyph-name="Ebreve" unicode="&#x114;" horiz-adv-x="979" 
d="M253 85l-68 83h657l-31 -168h-763l246 1400h747l-31 -167h-642l99 82zM310 816h509l-31 -167h-510zM691 1528q-126 0 -183.5 57t-57.5 135q0 10 1.5 21t2.5 25h152q-1 -6 -1.5 -12.5t-0.5 -11.5q0 -46 30 -68.5t75 -22.5q53 0 95 28.5t52 86.5h153q-18 -104 -98.5 -171
t-219.5 -67z" />
    <glyph glyph-name="ebreve" unicode="&#x115;" horiz-adv-x="871" 
d="M215 575q39 -16 75.5 -25t85.5 -9q113 0 176.5 30.5t89 74.5t25.5 84t-18.5 64.5t-49.5 36t-65 11.5q-65 0 -122 -34t-102.5 -108t-75.5 -194l-3 -3q-11 -145 17.5 -224.5t85.5 -110t129 -30.5q58 0 128 13t132 43l-11 -138q-54 -33 -129 -54.5t-166 -21.5
q-129 0 -213 55.5t-124.5 150t-40.5 211.5q0 118 37 226t105.5 193t162.5 134t208 49q135 0 205.5 -68t70.5 -176q0 -54 -23 -112.5t-74 -108.5t-134.5 -81t-204.5 -31q-55 0 -108 7.5t-85 20.5zM613 1151q-121 0 -177.5 59t-56.5 139q0 17 2 29t6 25h147q-2 -6 -3.5 -15.5
t-1.5 -19.5q0 -42 27 -64t72 -22q51 0 91 30t50 91h159q-18 -106 -98.5 -179t-216.5 -73z" />
    <glyph glyph-name="Edotaccent" unicode="&#x116;" horiz-adv-x="979" 
d="M253 85l-68 83h657l-31 -168h-763l246 1400h747l-31 -167h-642l99 82zM310 816h509l-31 -167h-510zM608 1582l32 179h179l-32 -179h-179z" />
    <glyph glyph-name="edotaccent" unicode="&#x117;" horiz-adv-x="871" 
d="M215 575q39 -16 75.5 -25t85.5 -9q113 0 176.5 30.5t89 74.5t25.5 84t-18.5 64.5t-49.5 36t-65 11.5q-65 0 -122 -34t-102.5 -108t-75.5 -194l-3 -3q-11 -145 17.5 -224.5t85.5 -110t129 -30.5q58 0 128 13t132 43l-11 -138q-54 -33 -129 -54.5t-166 -21.5
q-129 0 -213 55.5t-124.5 150t-40.5 211.5q0 118 37 226t105.5 193t162.5 134t208 49q135 0 205.5 -68t70.5 -176q0 -54 -23 -112.5t-74 -108.5t-134.5 -81t-204.5 -31q-55 0 -108 7.5t-85 20.5zM519 1181l36 179h175l-36 -179h-175z" />
    <glyph glyph-name="Eogonek" unicode="&#x118;" horiz-adv-x="979" 
d="M253 85l-68 83h657l-31 -168h-763l246 1400h747l-31 -167h-642l99 82zM310 816h509l-31 -167h-510zM718 10l93 -10q-47 -34 -89.5 -71t-69.5 -79t-27 -90q0 -75 69 -75q30 0 57.5 9.5t55.5 25.5l11 -97q-27 -15 -66.5 -26.5t-86.5 -11.5q-68 0 -113.5 35.5t-45.5 102.5
q1 82 65.5 160t146.5 127z" />
    <glyph glyph-name="eogonek" unicode="&#x119;" horiz-adv-x="871" 
d="M215 575q39 -16 75.5 -25t85.5 -9q113 0 176.5 30.5t89 74.5t25.5 84t-18.5 64.5t-49.5 36t-65 11.5q-65 0 -122 -34t-102.5 -108t-75.5 -194l-3 -3q-11 -145 17.5 -224.5t85.5 -110t129 -30.5q58 0 128 13t132 43l-11 -138q-54 -33 -129 -54.5t-166 -21.5
q-129 0 -213 55.5t-124.5 150t-40.5 211.5q0 118 37 226t105.5 193t162.5 134t208 49q135 0 205.5 -68t70.5 -176q0 -54 -23 -112.5t-74 -108.5t-134.5 -81t-204.5 -31q-55 0 -108 7.5t-85 20.5zM620 66l93 -10q-47 -34 -89.5 -71t-69.5 -79t-27 -90q0 -75 69 -75
q30 0 57.5 9.5t55.5 25.5l11 -97q-27 -15 -66.5 -26.5t-86.5 -11.5q-68 0 -113.5 35.5t-45.5 102.5q1 82 65.5 160t146.5 127z" />
    <glyph glyph-name="Ecaron" unicode="&#x11a;" horiz-adv-x="979" 
d="M253 85l-68 83h657l-31 -168h-763l246 1400h747l-31 -167h-642l99 82zM310 816h509l-31 -167h-510zM677 1507l-208 180l19 112l219 -122l229 122l-20 -128z" />
    <glyph glyph-name="ecaron" unicode="&#x11b;" horiz-adv-x="871" 
d="M215 575q39 -16 75.5 -25t85.5 -9q113 0 176.5 30.5t89 74.5t25.5 84t-18.5 64.5t-49.5 36t-65 11.5q-65 0 -122 -34t-102.5 -108t-75.5 -194l-3 -3q-11 -145 17.5 -224.5t85.5 -110t129 -30.5q58 0 128 13t132 43l-11 -138q-54 -33 -129 -54.5t-166 -21.5
q-129 0 -213 55.5t-124.5 150t-40.5 211.5q0 118 37 226t105.5 193t162.5 134t208 49q135 0 205.5 -68t70.5 -176q0 -54 -23 -112.5t-74 -108.5t-134.5 -81t-204.5 -31q-55 0 -108 7.5t-85 20.5zM594 1116l-197 220l24 120l209 -160l260 160l-25 -149z" />
    <glyph glyph-name="Gcircumflex" unicode="&#x11c;" horiz-adv-x="1177" 
d="M599 -28q-148 0 -263 70t-181 201.5t-66 316.5q0 184 57.5 342t158.5 276t235.5 184t287.5 66q62 0 127 -10.5t123 -28.5t97 -41l-49 -161q-68 30 -153.5 52t-166.5 22q-125 0 -221 -59.5t-161 -159t-98 -222.5t-33 -251q0 -193 82.5 -311t257.5 -118q49 0 118.5 13.5
t127.5 54.5l-70 -112l91 519l68 -82h-249l31 169h352l-110 -624q-75 -43 -174 -74.5t-219 -31.5zM1080 1507l-219 131l-219 -107l21 120l229 156l208 -180z" />
    <glyph glyph-name="gcircumflex" unicode="&#x11d;" horiz-adv-x="873" 
d="M364 226q-136 0 -215 79t-79 237q0 116 51.5 220.5t146 170.5t222.5 66q134 0 211.5 -87.5t77.5 -233.5q0 -81 -29.5 -161t-84.5 -146t-131.5 -105.5t-169.5 -39.5zM385 361q69 0 120.5 45t79.5 116.5t28 150.5q0 91 -38.5 138t-109.5 47q-70 0 -121.5 -42.5
t-79.5 -111.5t-28 -149q0 -93 39.5 -143.5t109.5 -50.5zM266 -500q-131 0 -208.5 40.5t-111 99t-33.5 112.5q0 36 18.5 88t64 103t126.5 82l127 -47q-44 -12 -84 -44t-65.5 -73.5t-25.5 -82.5q0 -58 55 -99t159 -41q83 0 144.5 26t96 66t34.5 81q0 47 -37.5 73.5t-97.5 41.5
t-126.5 28t-126 31t-97 51t-37.5 89q0 29 32 82t108 88l89 -40q-24 -17 -39.5 -36.5t-15.5 -42.5q0 -34 51.5 -52t169.5 -46q44 -10 96 -26t98 -42t76 -67.5t30 -103.5q0 -82 -57.5 -160t-163 -128.5t-249.5 -50.5zM730 845l-55 74q37 27 93 45.5t121 18.5h30l-37 -118h-55
q-9 0 -41 -4.5t-56 -15.5zM300 1149l30 126l244 194l197 -220l-25 -120l-208 160z" />
    <glyph glyph-name="Gbreve" unicode="&#x11e;" horiz-adv-x="1177" 
d="M599 -28q-148 0 -263 70t-181 201.5t-66 316.5q0 184 57.5 342t158.5 276t235.5 184t287.5 66q62 0 127 -10.5t123 -28.5t97 -41l-49 -161q-68 30 -153.5 52t-166.5 22q-125 0 -221 -59.5t-161 -159t-98 -222.5t-33 -251q0 -193 82.5 -311t257.5 -118q49 0 118.5 13.5
t127.5 54.5l-70 -112l91 519l68 -82h-249l31 169h352l-110 -624q-75 -43 -174 -74.5t-219 -31.5zM844 1528q-126 0 -183.5 57t-57.5 135q0 10 1.5 21t2.5 25h152q-1 -6 -1.5 -12.5t-0.5 -11.5q0 -46 30 -68.5t75 -22.5q53 0 95 28.5t52 86.5h153q-18 -104 -98.5 -171
t-219.5 -67z" />
    <glyph glyph-name="gbreve" unicode="&#x11f;" horiz-adv-x="873" 
d="M364 226q-136 0 -215 79t-79 237q0 116 51.5 220.5t146 170.5t222.5 66q134 0 211.5 -87.5t77.5 -233.5q0 -81 -29.5 -161t-84.5 -146t-131.5 -105.5t-169.5 -39.5zM385 361q69 0 120.5 45t79.5 116.5t28 150.5q0 91 -38.5 138t-109.5 47q-70 0 -121.5 -42.5
t-79.5 -111.5t-28 -149q0 -93 39.5 -143.5t109.5 -50.5zM266 -500q-131 0 -208.5 40.5t-111 99t-33.5 112.5q0 36 18.5 88t64 103t126.5 82l127 -47q-44 -12 -84 -44t-65.5 -73.5t-25.5 -82.5q0 -58 55 -99t159 -41q83 0 144.5 26t96 66t34.5 81q0 47 -37.5 73.5t-97.5 41.5
t-126.5 28t-126 31t-97 51t-37.5 89q0 29 32 82t108 88l89 -40q-24 -17 -39.5 -36.5t-15.5 -42.5q0 -34 51.5 -52t169.5 -46q44 -10 96 -26t98 -42t76 -67.5t30 -103.5q0 -82 -57.5 -160t-163 -128.5t-249.5 -50.5zM730 845l-55 74q37 27 93 45.5t121 18.5h30l-37 -118h-55
q-9 0 -41 -4.5t-56 -15.5zM522 1151q-121 0 -177.5 59t-56.5 139q0 17 2 29t6 25h147q-2 -6 -3.5 -15.5t-1.5 -19.5q0 -42 27 -64t72 -22q51 0 91 30t50 91h159q-18 -106 -98.5 -179t-216.5 -73z" />
    <glyph glyph-name="Gdotaccent" unicode="&#x120;" horiz-adv-x="1177" 
d="M599 -28q-148 0 -263 70t-181 201.5t-66 316.5q0 184 57.5 342t158.5 276t235.5 184t287.5 66q62 0 127 -10.5t123 -28.5t97 -41l-49 -161q-68 30 -153.5 52t-166.5 22q-125 0 -221 -59.5t-161 -159t-98 -222.5t-33 -251q0 -193 82.5 -311t257.5 -118q49 0 118.5 13.5
t127.5 54.5l-70 -112l91 519l68 -82h-249l31 169h352l-110 -624q-75 -43 -174 -74.5t-219 -31.5zM762 1582l32 179h179l-32 -179h-179z" />
    <glyph glyph-name="gdotaccent" unicode="&#x121;" horiz-adv-x="873" 
d="M364 226q-136 0 -215 79t-79 237q0 116 51.5 220.5t146 170.5t222.5 66q134 0 211.5 -87.5t77.5 -233.5q0 -81 -29.5 -161t-84.5 -146t-131.5 -105.5t-169.5 -39.5zM385 361q69 0 120.5 45t79.5 116.5t28 150.5q0 91 -38.5 138t-109.5 47q-70 0 -121.5 -42.5
t-79.5 -111.5t-28 -149q0 -93 39.5 -143.5t109.5 -50.5zM266 -500q-131 0 -208.5 40.5t-111 99t-33.5 112.5q0 36 18.5 88t64 103t126.5 82l127 -47q-44 -12 -84 -44t-65.5 -73.5t-25.5 -82.5q0 -58 55 -99t159 -41q83 0 144.5 26t96 66t34.5 81q0 47 -37.5 73.5t-97.5 41.5
t-126.5 28t-126 31t-97 51t-37.5 89q0 29 32 82t108 88l89 -40q-24 -17 -39.5 -36.5t-15.5 -42.5q0 -34 51.5 -52t169.5 -46q44 -10 96 -26t98 -42t76 -67.5t30 -103.5q0 -82 -57.5 -160t-163 -128.5t-249.5 -50.5zM730 845l-55 74q37 27 93 45.5t121 18.5h30l-37 -118h-55
q-9 0 -41 -4.5t-56 -15.5zM429 1181l36 179h175l-36 -179h-175z" />
    <glyph glyph-name="uni0122" unicode="&#x122;" horiz-adv-x="1177" 
d="M599 -28q-148 0 -263 70t-181 201.5t-66 316.5q0 184 57.5 342t158.5 276t235.5 184t287.5 66q62 0 127 -10.5t123 -28.5t97 -41l-49 -161q-68 30 -153.5 52t-166.5 22q-125 0 -221 -59.5t-161 -159t-98 -222.5t-33 -251q0 -193 82.5 -311t257.5 -118q49 0 118.5 13.5
t127.5 54.5l-70 -112l91 519l68 -82h-249l31 169h352l-110 -624q-75 -43 -174 -74.5t-219 -31.5zM493 -522h-71l86 170h-68l30 170h183l-30 -170z" />
    <glyph glyph-name="uni0123" unicode="&#x123;" horiz-adv-x="873" 
d="M364 226q-136 0 -215 79t-79 237q0 116 51.5 220.5t146 170.5t222.5 66q134 0 211.5 -87.5t77.5 -233.5q0 -81 -29.5 -161t-84.5 -146t-131.5 -105.5t-169.5 -39.5zM385 361q69 0 120.5 45t79.5 116.5t28 150.5q0 91 -38.5 138t-109.5 47q-70 0 -121.5 -42.5
t-79.5 -111.5t-28 -149q0 -93 39.5 -143.5t109.5 -50.5zM266 -500q-131 0 -208.5 40.5t-111 99t-33.5 112.5q0 36 18.5 88t64 103t126.5 82l127 -47q-44 -12 -84 -44t-65.5 -73.5t-25.5 -82.5q0 -58 55 -99t159 -41q83 0 144.5 26t96 66t34.5 81q0 47 -37.5 73.5t-97.5 41.5
t-126.5 28t-126 31t-97 51t-37.5 89q0 29 32 82t108 88l89 -40q-24 -17 -39.5 -36.5t-15.5 -42.5q0 -34 51.5 -52t169.5 -46q44 -10 96 -26t98 -42t76 -67.5t30 -103.5q0 -82 -57.5 -160t-163 -128.5t-249.5 -50.5zM730 845l-55 74q37 27 93 45.5t121 18.5h30l-37 -118h-55
q-9 0 -41 -4.5t-56 -15.5z" />
    <glyph glyph-name="Hcircumflex" unicode="&#x124;" horiz-adv-x="1305" 
d="M48 0l246 1400h186l-246 -1400h-186zM864 0l248 1400h186l-248 -1400h-186zM272 644l31 176h801l-34 -176h-798zM1058 1507l-219 131l-219 -107l21 120l229 156l208 -180z" />
    <glyph glyph-name="hcircumflex" unicode="&#x125;" horiz-adv-x="962" 
d="M14 0l264 1500h180l-266 -1500h-178zM575 0l84 490q11 60 17 105t6 81q0 77 -38 121.5t-107 44.5q-71 0 -126 -40t-104 -104l28 160q63 77 129 109t148 32q86 0 141.5 -40.5t82.5 -108.5t27 -150q0 -36 -5.5 -88.5t-17.5 -119.5l-86 -492h-179zM629 1607l-219 131
l-219 -107l21 120l229 156l208 -180z" />
    <glyph glyph-name="Hbar" unicode="&#x126;" horiz-adv-x="1376" 
d="M112 1002l20 124h1298l-22 -124h-1296zM48 0l246 1400h186l-246 -1400h-186zM864 0l248 1400h186l-248 -1400h-186zM272 644l31 176h801l-34 -176h-798z" />
    <glyph glyph-name="hbar" unicode="&#x127;" horiz-adv-x="962" 
d="M14 0l264 1500h180l-266 -1500h-178zM575 0l84 490q11 60 17 105t6 81q0 77 -38 121.5t-107 44.5q-71 0 -126 -40t-104 -104l28 160q63 77 129 109t148 32q86 0 141.5 -40.5t82.5 -108.5t27 -150q0 -36 -5.5 -88.5t-17.5 -119.5l-86 -492h-179zM121 1168l25 124h539
l-24 -124h-540z" />
    <glyph glyph-name="Itilde" unicode="&#x128;" horiz-adv-x="487" 
d="M48 0l246 1400h186l-246 -1400h-186zM573 1581q-40 0 -82.5 22.5t-82 44.5t-74.5 22q-29 0 -47.5 -19.5t-25.5 -53.5h-137q24 108 74.5 164.5t125.5 56.5q44 0 82.5 -22t75.5 -44t75 -22q29 0 47.5 19t25.5 59h138q-26 -120 -74 -173.5t-121 -53.5z" />
    <glyph glyph-name="itilde" unicode="&#x129;" horiz-adv-x="410" 
d="M14 0l172 979h179l-173 -979h-178zM462 1160q-40 0 -82.5 22.5t-82 44.5t-74.5 22q-29 0 -47.5 -19.5t-25.5 -53.5h-137q24 108 74.5 164.5t125.5 56.5q44 0 82.5 -22t75.5 -44t75 -22q29 0 47.5 19t25.5 59h138q-26 -120 -74 -173.5t-121 -53.5z" />
    <glyph glyph-name="Imacron" unicode="&#x12a;" horiz-adv-x="487" 
d="M48 0l246 1400h186l-246 -1400h-186zM121 1586l24 135h597l-24 -135h-597z" />
    <glyph glyph-name="imacron" unicode="&#x12b;" horiz-adv-x="410" 
d="M14 0l172 979h179l-173 -979h-178zM20 1181l29 141h590l-28 -141h-591z" />
    <glyph glyph-name="Ibreve" unicode="&#x12c;" horiz-adv-x="487" 
d="M48 0l246 1400h186l-246 -1400h-186zM413 1528q-126 0 -183.5 57t-57.5 135q0 10 1.5 21t2.5 25h152q-1 -6 -1.5 -12.5t-0.5 -11.5q0 -46 30 -68.5t75 -22.5q53 0 95 28.5t52 86.5h153q-18 -104 -98.5 -171t-219.5 -67z" />
    <glyph glyph-name="ibreve" unicode="&#x12d;" horiz-adv-x="410" 
d="M14 0l172 979h179l-173 -979h-178zM321 1151q-121 0 -177.5 59t-56.5 139q0 17 2 29t6 25h147q-2 -6 -3.5 -15.5t-1.5 -19.5q0 -42 27 -64t72 -22q51 0 91 30t50 91h159q-18 -106 -98.5 -179t-216.5 -73z" />
    <glyph glyph-name="Iogonek" unicode="&#x12e;" horiz-adv-x="487" 
d="M48 0l246 1400h186l-246 -1400h-186zM142 10l93 -10q-47 -34 -89.5 -71t-69.5 -79t-27 -90q0 -75 69 -75q30 0 57.5 9.5t55.5 25.5l11 -97q-27 -15 -66.5 -26.5t-86.5 -11.5q-68 0 -113.5 35.5t-45.5 102.5q1 82 65.5 160t146.5 127z" />
    <glyph glyph-name="iogonek" unicode="&#x12f;" horiz-adv-x="410" 
d="M14 0l172 979h179l-173 -979h-178zM227 1181l36 179h175l-36 -179h-175zM100 10l93 -10q-47 -34 -89.5 -71t-69.5 -79t-27 -90q0 -75 69 -75q30 0 57.5 9.5t55.5 25.5l11 -97q-27 -15 -66.5 -26.5t-86.5 -11.5q-68 0 -113.5 35.5t-45.5 102.5q1 82 65.5 160t146.5 127z
" />
    <glyph glyph-name="Idotaccent" unicode="&#x130;" horiz-adv-x="487" 
d="M48 0l246 1400h186l-246 -1400h-186zM330 1582l32 179h179l-32 -179h-179z" />
    <glyph glyph-name="dotlessi" unicode="&#x131;" horiz-adv-x="410" 
d="M14 0l172 979h179l-173 -979h-178z" />
    <glyph glyph-name="IJ" unicode="&#x132;" horiz-adv-x="1267" 
d="M527 -28q-205 0 -304.5 112.5t-100.5 311.5l196 45q2 -86 24 -154t74 -107.5t142 -39.5q105 0 175.5 50.5t116 132t72 177.5t42.5 186l125 714h186l-142 -806q-34 -192 -112.5 -331.5t-202 -215t-291.5 -75.5zM139 581l144 819h186l-126 -714q-3 -21 -8 -50t-8 -55h-188z
" />
    <glyph glyph-name="ij" unicode="&#x133;" horiz-adv-x="819" 
d="M14 0l172 979h179l-173 -979h-178zM225 1203l35 197h178l-35 -197h-178zM241 -484l8 134q56 8 83.5 30.5t41.5 65t25 107.5l198 1126h178l-211 -1192q-20 -117 -83 -179.5t-176 -80.5zM635 1203l37 197h178l-37 -197h-178z" />
    <glyph glyph-name="Jcircumflex" unicode="&#x134;" horiz-adv-x="489" 
d="M-150 -344l5 107h22q47 0 79 20t54.5 70t37.5 140l248 1407h186l-259 -1465q-24 -135 -107.5 -207t-222.5 -72h-43zM651 1507l-219 131l-219 -107l21 120l229 156l208 -180z" />
    <glyph glyph-name="jcircumflex" unicode="&#x135;" horiz-adv-x="410" 
d="M-169 -484l8 134q57 8 85 31.5t41 65.5t24 106l198 1126h178l-211 -1192q-20 -117 -83 -179.5t-176 -80.5zM99 1149l30 126l244 194l197 -220l-25 -120l-208 160z" />
    <glyph glyph-name="uni0136" unicode="&#x136;" horiz-adv-x="1045" 
d="M723 0l-342 742l548 658h223l-628 -719l20 136l391 -817h-212zM48 0l246 1400h186l-246 -1400h-186zM387 -522h-71l86 170h-68l30 170h183l-30 -170z" />
    <glyph glyph-name="uni0137" unicode="&#x137;" horiz-adv-x="819" 
d="M14 0l264 1500h178l-264 -1500h-178zM490 0l-223 520l391 459h210l-470 -511l22 135l279 -603h-209zM250 -522h-71l86 170h-68l30 170h183l-30 -170z" />
    <glyph glyph-name="kgreenlandic" unicode="&#x138;" horiz-adv-x="868" 
d="M14 0l172 979h179l-77 -445l424 445h218l-473 -467l293 -512h-203l-267 500l-88 -500h-178z" />
    <glyph glyph-name="Lacute" unicode="&#x139;" horiz-adv-x="887" 
d="M48 0l246 1400h186l-230 -1315l-68 83h611l-33 -168h-712zM264 1529l17 127l330 190l-30 -201z" />
    <glyph glyph-name="lacute" unicode="&#x13a;" horiz-adv-x="448" 
d="M224 -20q-99 0 -140 49.5t-41 118.5q0 20 4.5 53t15.5 95l210 1204h178l-210 -1222q-7 -39 -9 -53t-2 -26q0 -47 24 -62.5t79 -15.5l-48 -141h-61zM239 1629l17 127l330 190l-30 -201z" />
    <glyph glyph-name="uni013B" unicode="&#x13b;" horiz-adv-x="887" 
d="M48 0l246 1400h186l-230 -1315l-68 83h611l-33 -168h-712zM348 -522h-71l86 170h-68l30 170h183l-30 -170z" />
    <glyph glyph-name="uni013C" unicode="&#x13c;" horiz-adv-x="448" 
d="M224 -20q-99 0 -140 49.5t-41 118.5q0 20 4.5 53t15.5 95l210 1204h178l-210 -1222q-7 -39 -9 -53t-2 -26q0 -47 24 -62.5t79 -15.5l-48 -141h-61zM124 -522h-71l86 170h-68l30 170h183l-30 -170z" />
    <glyph glyph-name="Lcaron" unicode="&#x13d;" horiz-adv-x="887" 
d="M48 0l246 1400h186l-230 -1315l-68 83h611l-33 -168h-712zM828 1067l60 333h177l-114 -333h-123z" />
    <glyph glyph-name="lcaron" unicode="&#x13e;" horiz-adv-x="514" 
d="M224 -20q-99 0 -140 49.5t-41 118.5q0 20 4.5 53t15.5 95l210 1204h178l-210 -1222q-7 -39 -9 -53t-2 -26q0 -47 24 -62.5t79 -15.5l-48 -141h-61zM466 1167l60 333h177l-114 -333h-123z" />
    <glyph glyph-name="Ldot" unicode="&#x13f;" horiz-adv-x="934" 
d="M48 0l246 1400h186l-230 -1315l-68 83h611l-33 -168h-712zM606 668l37 201h189l-36 -201h-190z" />
    <glyph glyph-name="ldot" unicode="&#x140;" horiz-adv-x="568" 
d="M224 -20q-99 0 -140 49.5t-41 118.5q0 20 4.5 53t15.5 95l210 1204h178l-210 -1222q-7 -39 -9 -53t-2 -26q0 -47 24 -62.5t79 -15.5l-48 -141h-61zM424 742l33 176h165l-32 -176h-166z" />
    <glyph glyph-name="Lslash" unicode="&#x141;" horiz-adv-x="934" 
d="M40 696l26 146l732 276l-26 -146zM48 0l246 1400h186l-230 -1315l-68 83h611l-33 -168h-712z" />
    <glyph glyph-name="lslash" unicode="&#x142;" horiz-adv-x="468" 
d="M-2 704l24 138l518 194l-24 -138zM224 -20q-99 0 -140 49.5t-41 118.5q0 20 4.5 53t15.5 95l210 1204h178l-210 -1222q-7 -39 -9 -53t-2 -26q0 -47 24 -62.5t79 -15.5l-48 -141h-61z" />
    <glyph glyph-name="Nacute" unicode="&#x143;" horiz-adv-x="1240" 
d="M48 0l246 1400h194l406 -1135l-46 -4l197 1139h188l-248 -1400h-156l-432 1193l46 4l-209 -1197h-186zM643 1529l17 127l330 190l-30 -201z" />
    <glyph glyph-name="nacute" unicode="&#x144;" horiz-adv-x="977" 
d="M14 0l172 979h152l-13 -257l-133 -722h-178zM590 0q31 177 51 293t32 186t17 107t6.5 54t1.5 28q0 90 -37 132t-117 42q-70 0 -131.5 -34.5t-103.5 -111.5l10 161q76 87 144.5 114.5t142.5 27.5q145 0 209 -80t64 -225q0 -15 -1.5 -35.5t-7 -60.5t-17 -112.5t-32 -190
t-52.5 -295.5h-179zM449 1152l25 134l352 208l-35 -221z" />
    <glyph glyph-name="uni0145" unicode="&#x145;" horiz-adv-x="1240" 
d="M48 0l246 1400h194l406 -1135l-46 -4l197 1139h188l-248 -1400h-156l-432 1193l46 4l-209 -1197h-186zM441 -522h-71l86 170h-68l30 170h183l-30 -170z" />
    <glyph glyph-name="uni0146" unicode="&#x146;" horiz-adv-x="977" 
d="M14 0l172 979h152l-13 -257l-133 -722h-178zM590 0q31 177 51 293t32 186t17 107t6.5 54t1.5 28q0 90 -37 132t-117 42q-70 0 -131.5 -34.5t-103.5 -111.5l10 161q76 87 144.5 114.5t142.5 27.5q145 0 209 -80t64 -225q0 -15 -1.5 -35.5t-7 -60.5t-17 -112.5t-32 -190
t-52.5 -295.5h-179zM300 -522h-71l86 170h-68l30 170h183l-30 -170z" />
    <glyph glyph-name="Ncaron" unicode="&#x147;" horiz-adv-x="1240" 
d="M48 0l246 1400h194l406 -1135l-46 -4l197 1139h188l-248 -1400h-156l-432 1193l46 4l-209 -1197h-186zM779 1507l-208 180l19 112l219 -122l229 122l-20 -128z" />
    <glyph glyph-name="ncaron" unicode="&#x148;" horiz-adv-x="977" 
d="M14 0l172 979h152l-13 -257l-133 -722h-178zM590 0q31 177 51 293t32 186t17 107t6.5 54t1.5 28q0 90 -37 132t-117 42q-70 0 -131.5 -34.5t-103.5 -111.5l10 161q76 87 144.5 114.5t142.5 27.5q145 0 209 -80t64 -225q0 -15 -1.5 -35.5t-7 -60.5t-17 -112.5t-32 -190
t-52.5 -295.5h-179zM602 1117l-197 220l24 120l209 -160l260 160l-25 -149z" />
    <glyph glyph-name="napostrophe" unicode="&#x149;" horiz-adv-x="993" 
d="M30 0l172 979h152l-13 -257l-133 -722h-178zM606 0q31 177 51 293t32 186t17 107t6.5 54t1.5 28q0 90 -37 132t-117 42q-70 0 -131.5 -34.5t-103.5 -111.5l10 161q76 87 144.5 114.5t142.5 27.5q145 0 209 -80t64 -225q0 -15 -1.5 -35.5t-7 -60.5t-17 -112.5t-32 -190
t-52.5 -295.5h-179zM145 1060h-71l86 170h-68l30 170h183l-30 -170z" />
    <glyph glyph-name="Eng" unicode="&#x14a;" horiz-adv-x="1278" 
d="M440 1109l-194 -1109h-186l248 1400h157zM440 1247q96 89 202 135t221 46t191.5 -47t115 -131.5t38.5 -198.5q0 -33 -3.5 -65.5t-8.5 -60.5l-148 -845q-27 -154 -94.5 -253t-163.5 -146.5t-210 -47.5q-109 0 -204 44l54 164q40 -19 83.5 -30t89.5 -11q96 0 166.5 69.5
t94.5 211.5l142 826q4 23 6.5 45t2.5 48q0 126 -60.5 193.5t-181.5 67.5q-108 0 -195.5 -54t-149.5 -123z" />
    <glyph glyph-name="eng" unicode="&#x14b;" horiz-adv-x="1070" 
d="M826 35q-36 -209 -145.5 -301t-256.5 -92q-97 0 -182 34l53 154q34 -16 68 -23t68 -7q55 0 99 26t74.5 77t43.5 126l90 511q5 30 8.5 57t3.5 59q0 95 -37.5 140.5t-120.5 45.5q-68 0 -130 -32t-103 -99l-125 -711h-178l172 979h143v-106q80 77 150.5 101.5t137.5 24.5
q143 0 207 -82t64 -228q0 -31 -4 -70t-11 -80z" />
    <glyph glyph-name="Omacron" unicode="&#x14c;" horiz-adv-x="1347" 
d="M571 -28q-149 0 -257.5 68.5t-167.5 198.5t-59 313q0 189 58 348.5t160 278t233.5 184t278.5 65.5q149 0 257.5 -68.5t167.5 -198t59 -313.5q0 -189 -58.5 -348.5t-160.5 -278t-233.5 -184t-277.5 -65.5zM604 140q111 0 202 57.5t156 156t100 223t35 258.5
q0 121 -32.5 217.5t-101.5 152.5t-179 56q-112 0 -202.5 -58t-155 -156.5t-99 -222.5t-34.5 -258q0 -120 32 -216.5t100.5 -153t178.5 -56.5zM552 1586l24 135h597l-24 -135h-597z" />
    <glyph glyph-name="omacron" unicode="&#x14d;" horiz-adv-x="978" 
d="M388 -20q-118 0 -195.5 53.5t-116 145.5t-38.5 207q0 123 38.5 233.5t108.5 196t165 134.5t207 49q118 0 195.5 -54t116 -146.5t38.5 -207.5q0 -122 -39 -232t-108.5 -195.5t-164.5 -134.5t-207 -49zM415 138q93 0 162.5 58.5t108 158.5t38.5 223q0 133 -49.5 198.5
t-144.5 65.5q-93 0 -162.5 -59t-108 -158.5t-38.5 -222.5q0 -131 48.5 -197.5t145.5 -66.5zM308 1181l29 141h590l-28 -141h-591z" />
    <glyph glyph-name="Obreve" unicode="&#x14e;" horiz-adv-x="1347" 
d="M571 -28q-149 0 -257.5 68.5t-167.5 198.5t-59 313q0 189 58 348.5t160 278t233.5 184t278.5 65.5q149 0 257.5 -68.5t167.5 -198t59 -313.5q0 -189 -58.5 -348.5t-160.5 -278t-233.5 -184t-277.5 -65.5zM604 140q111 0 202 57.5t156 156t100 223t35 258.5
q0 121 -32.5 217.5t-101.5 152.5t-179 56q-112 0 -202.5 -58t-155 -156.5t-99 -222.5t-34.5 -258q0 -120 32 -216.5t100.5 -153t178.5 -56.5zM843 1528q-126 0 -183.5 57t-57.5 135q0 10 1.5 21t2.5 25h152q-1 -6 -1.5 -12.5t-0.5 -11.5q0 -46 30 -68.5t75 -22.5
q53 0 95 28.5t52 86.5h153q-18 -104 -98.5 -171t-219.5 -67z" />
    <glyph glyph-name="obreve" unicode="&#x14f;" horiz-adv-x="978" 
d="M388 -20q-118 0 -195.5 53.5t-116 145.5t-38.5 207q0 123 38.5 233.5t108.5 196t165 134.5t207 49q118 0 195.5 -54t116 -146.5t38.5 -207.5q0 -122 -39 -232t-108.5 -195.5t-164.5 -134.5t-207 -49zM415 138q93 0 162.5 58.5t108 158.5t38.5 223q0 133 -49.5 198.5
t-144.5 65.5q-93 0 -162.5 -59t-108 -158.5t-38.5 -222.5q0 -131 48.5 -197.5t145.5 -66.5zM608 1151q-121 0 -177.5 59t-56.5 139q0 17 2 29t6 25h147q-2 -6 -3.5 -15.5t-1.5 -19.5q0 -42 27 -64t72 -22q51 0 91 30t50 91h159q-18 -106 -98.5 -179t-216.5 -73z" />
    <glyph glyph-name="Ohungarumlaut" unicode="&#x150;" horiz-adv-x="1347" 
d="M571 -28q-149 0 -257.5 68.5t-167.5 198.5t-59 313q0 189 58 348.5t160 278t233.5 184t278.5 65.5q149 0 257.5 -68.5t167.5 -198t59 -313.5q0 -189 -58.5 -348.5t-160.5 -278t-233.5 -184t-277.5 -65.5zM604 140q111 0 202 57.5t156 156t100 223t35 258.5
q0 121 -32.5 217.5t-101.5 152.5t-179 56q-112 0 -202.5 -58t-155 -156.5t-99 -222.5t-34.5 -258q0 -120 32 -216.5t100.5 -153t178.5 -56.5zM915 1576l168 293h185l-230 -293h-123zM653 1576l158 293h185l-219 -293h-124z" />
    <glyph glyph-name="ohungarumlaut" unicode="&#x151;" horiz-adv-x="978" 
d="M388 -20q-118 0 -195.5 53.5t-116 145.5t-38.5 207q0 123 38.5 233.5t108.5 196t165 134.5t207 49q118 0 195.5 -54t116 -146.5t38.5 -207.5q0 -122 -39 -232t-108.5 -195.5t-164.5 -134.5t-207 -49zM415 138q93 0 162.5 58.5t108 158.5t38.5 223q0 133 -49.5 198.5
t-144.5 65.5q-93 0 -162.5 -59t-108 -158.5t-38.5 -222.5q0 -131 48.5 -197.5t145.5 -66.5zM399 1155l204 333h188l-265 -333h-127zM665 1155l213 333h189l-275 -333h-127z" />
    <glyph glyph-name="OE" unicode="&#x152;" horiz-adv-x="1850" 
d="M539 -28q-137 0 -238.5 69.5t-157.5 199.5t-56 311t54 339.5t150 279.5t220.5 189t265.5 68q139 0 233.5 -76t143 -206.5t48.5 -293.5q0 -174 -48 -332.5t-136.5 -282t-210 -194.5t-268.5 -71zM585 140q107 0 193.5 57.5t148 156t94.5 223t33 257.5q0 121 -30 218
t-93.5 153t-164.5 56q-108 0 -195 -57.5t-149.5 -156.5t-95.5 -223.5t-33 -258.5q0 -120 30 -216.5t94.5 -152.5t167.5 -56zM940 0l246 1400h726l-31 -167h-642l99 82l-215 -1230l-67 83h657l-32 -168h-741zM1168 649l31 167h492l-32 -167h-491z" />
    <glyph glyph-name="oe" unicode="&#x153;" horiz-adv-x="1560" 
d="M867 614h460q2 16 3.5 27t1.5 27q0 81 -37 127.5t-115 46.5q-93 0 -160 -69.5t-100 -199.5q-12 -63 -18.5 -111t-6.5 -90q0 -108 32.5 -162t81.5 -71.5t96 -17.5q67 0 143.5 21t134.5 52l-14 -150q-53 -26 -125.5 -45t-157.5 -19q-165 0 -244 69.5t-98 204.5l42 -2
q-59 -134 -168.5 -203t-231.5 -69q-114 0 -191 55t-116 148.5t-39 209.5q0 124 37.5 234t106.5 193.5t164.5 131t210.5 47.5q78 0 146.5 -28.5t114 -88t53.5 -153.5l-47 4q44 93 107 151.5t135 86.5t140 28q139 0 222.5 -84.5t83.5 -238.5q0 -91 -14 -126.5t-23 -56.5h-636z
M418 138q98 0 168 64t107.5 165.5t37.5 214.5q0 115 -47.5 187.5t-143.5 72.5q-99 0 -170.5 -57.5t-110 -158.5t-38.5 -233q0 -119 49.5 -187t147.5 -68z" />
    <glyph glyph-name="Racute" unicode="&#x154;" horiz-adv-x="1077" 
d="M48 0l246 1400h372q195 0 292.5 -84t97.5 -255q0 -111 -31 -196t-85.5 -145.5t-123.5 -98t-145.5 -55.5t-152.5 -18h-270l30 176h307q89 0 150 45t92 117.5t31 156.5q0 82 -39 141.5t-144 59.5h-304l101 70l-233 -1314h-191zM737 0l-175 582l188 50l184 -632h-197z
M597 1529l17 127l330 190l-30 -201z" />
    <glyph glyph-name="racute" unicode="&#x155;" horiz-adv-x="586" 
d="M14 0l172 979h157l-21 -270l-125 -709h-183zM312 681l3 116q53 76 104 124.5t102 71.5t103 23h30l-71 -196h-65q-38 0 -79.5 -20.5t-75.5 -53t-51 -65.5zM286 1151l25 134l352 208l-35 -221z" />
    <glyph glyph-name="uni0156" unicode="&#x156;" horiz-adv-x="1077" 
d="M48 0l246 1400h372q195 0 292.5 -84t97.5 -255q0 -111 -31 -196t-85.5 -145.5t-123.5 -98t-145.5 -55.5t-152.5 -18h-270l30 176h307q89 0 150 45t92 117.5t31 156.5q0 82 -39 141.5t-144 59.5h-304l101 70l-233 -1314h-191zM737 0l-175 582l188 50l184 -632h-197z
M396 -522h-71l86 170h-68l30 170h183l-30 -170z" />
    <glyph glyph-name="uni0157" unicode="&#x157;" horiz-adv-x="586" 
d="M14 0l172 979h157l-21 -270l-125 -709h-183zM312 681l3 116q53 76 104 124.5t102 71.5t103 23h30l-71 -196h-65q-38 0 -79.5 -20.5t-75.5 -53t-51 -65.5zM13 -522h-71l86 170h-68l30 170h183l-30 -170z" />
    <glyph glyph-name="Rcaron" unicode="&#x158;" horiz-adv-x="1077" 
d="M48 0l246 1400h372q195 0 292.5 -84t97.5 -255q0 -111 -31 -196t-85.5 -145.5t-123.5 -98t-145.5 -55.5t-152.5 -18h-270l30 176h307q89 0 150 45t92 117.5t31 156.5q0 82 -39 141.5t-144 59.5h-304l101 70l-233 -1314h-191zM737 0l-175 582l188 50l184 -632h-197z
M733 1507l-208 180l19 112l219 -122l229 122l-20 -128z" />
    <glyph glyph-name="rcaron" unicode="&#x159;" horiz-adv-x="586" 
d="M14 0l172 979h157l-21 -270l-125 -709h-183zM312 681l3 116q53 76 104 124.5t102 71.5t103 23h30l-71 -196h-65q-38 0 -79.5 -20.5t-75.5 -53t-51 -65.5zM438 1116l-197 220l24 120l209 -160l260 160l-25 -149z" />
    <glyph glyph-name="Sacute" unicode="&#x15a;" horiz-adv-x="1021" 
d="M385 -28q-131 0 -229 28t-149 62l64 217q55 -49 141 -94t203 -45q81 0 149.5 26t110.5 81t42 140q0 74 -33.5 120t-90.5 77t-125 59q-55 23 -111.5 48t-102.5 60t-74.5 86.5t-28.5 127.5q0 66 29 146t89.5 152t157.5 118.5t232 46.5q120 0 214 -30t150 -65l-55 -198
q-79 62 -154.5 94t-170.5 32q-62 0 -128.5 -25t-112.5 -77.5t-46 -134.5q0 -84 59.5 -126.5t154.5 -82.5q63 -26 126 -54t115.5 -69t84.5 -103.5t32 -158.5q0 -80 -27.5 -160.5t-90 -148t-167 -108.5t-258.5 -41zM533 1529l17 127l330 190l-30 -201z" />
    <glyph glyph-name="sacute" unicode="&#x15b;" horiz-adv-x="741" 
d="M259 -20q-113 0 -181.5 32t-100.5 55l49 172q30 -28 95 -64t155 -36q87 0 129 40t42 103q0 70 -43 98.5t-93 44.5q-53 17 -102.5 40.5t-81 67.5t-31.5 124q0 76 37.5 155t119 133t214.5 54q86 0 144 -20.5t92 -42.5l-48 -162q-32 37 -83.5 61t-118.5 24
q-78 0 -128.5 -39.5t-50.5 -112.5q0 -61 45 -87t124 -54q43 -15 87 -40t73.5 -72t29.5 -129q0 -43 -15.5 -101.5t-55.5 -114t-113.5 -92.5t-189.5 -37zM330 1152l25 134l352 208l-35 -221z" />
    <glyph glyph-name="Scircumflex" unicode="&#x15c;" horiz-adv-x="1021" 
d="M385 -28q-131 0 -229 28t-149 62l64 217q55 -49 141 -94t203 -45q81 0 149.5 26t110.5 81t42 140q0 74 -33.5 120t-90.5 77t-125 59q-55 23 -111.5 48t-102.5 60t-74.5 86.5t-28.5 127.5q0 66 29 146t89.5 152t157.5 118.5t232 46.5q120 0 214 -30t150 -65l-55 -198
q-79 62 -154.5 94t-170.5 32q-62 0 -128.5 -25t-112.5 -77.5t-46 -134.5q0 -84 59.5 -126.5t154.5 -82.5q63 -26 126 -54t115.5 -69t84.5 -103.5t32 -158.5q0 -80 -27.5 -160.5t-90 -148t-167 -108.5t-258.5 -41zM918 1507l-219 131l-219 -107l21 120l229 156l208 -180z" />
    <glyph glyph-name="scircumflex" unicode="&#x15d;" horiz-adv-x="741" 
d="M259 -20q-113 0 -181.5 32t-100.5 55l49 172q30 -28 95 -64t155 -36q87 0 129 40t42 103q0 70 -43 98.5t-93 44.5q-53 17 -102.5 40.5t-81 67.5t-31.5 124q0 76 37.5 155t119 133t214.5 54q86 0 144 -20.5t92 -42.5l-48 -162q-32 37 -83.5 61t-118.5 24
q-78 0 -128.5 -39.5t-50.5 -112.5q0 -61 45 -87t124 -54q43 -15 87 -40t73.5 -72t29.5 -129q0 -43 -15.5 -101.5t-55.5 -114t-113.5 -92.5t-189.5 -37zM278 1150l30 126l244 194l197 -220l-25 -120l-208 160z" />
    <glyph glyph-name="Scedilla" unicode="&#x15e;" horiz-adv-x="1021" 
d="M385 -28q-131 0 -229 28t-149 62l64 217q55 -49 141 -94t203 -45q81 0 149.5 26t110.5 81t42 140q0 74 -33.5 120t-90.5 77t-125 59q-55 23 -111.5 48t-102.5 60t-74.5 86.5t-28.5 127.5q0 66 29 146t89.5 152t157.5 118.5t232 46.5q120 0 214 -30t150 -65l-55 -198
q-79 62 -154.5 94t-170.5 32q-62 0 -128.5 -25t-112.5 -77.5t-46 -134.5q0 -84 59.5 -126.5t154.5 -82.5q63 -26 126 -54t115.5 -69t84.5 -103.5t32 -158.5q0 -80 -27.5 -160.5t-90 -148t-167 -108.5t-258.5 -41zM415 -158l-58 30q25 9 47.5 14.5t47.5 5.5q67 0 104 -34.5
t37 -94.5q0 -92 -68.5 -152.5t-169.5 -60.5q-47 0 -82 11.5t-60 26.5l48 97q26 -17 54 -25.5t59 -8.5q50 0 78 25.5t28 63.5q0 68 -83 68q-20 0 -42.5 -3.5t-48.5 -12.5l88 208h96z" />
    <glyph glyph-name="scedilla" unicode="&#x15f;" horiz-adv-x="741" 
d="M259 -20q-113 0 -181.5 32t-100.5 55l49 172q30 -28 95 -64t155 -36q87 0 129 40t42 103q0 70 -43 98.5t-93 44.5q-53 17 -102.5 40.5t-81 67.5t-31.5 124q0 76 37.5 155t119 133t214.5 54q86 0 144 -20.5t92 -42.5l-48 -162q-32 37 -83.5 61t-118.5 24
q-78 0 -128.5 -39.5t-50.5 -112.5q0 -61 45 -87t124 -54q43 -15 87 -40t73.5 -72t29.5 -129q0 -43 -15.5 -101.5t-55.5 -114t-113.5 -92.5t-189.5 -37zM248 -158l-58 30q25 9 47.5 14.5t47.5 5.5q67 0 104 -34.5t37 -94.5q0 -92 -68.5 -152.5t-169.5 -60.5q-47 0 -82 11.5
t-60 26.5l48 97q26 -17 54 -25.5t59 -8.5q50 0 78 25.5t28 63.5q0 68 -83 68q-20 0 -42.5 -3.5t-48.5 -12.5l88 208h96z" />
    <glyph glyph-name="Scaron" unicode="&#x160;" horiz-adv-x="1021" 
d="M385 -28q-131 0 -229 28t-149 62l64 217q55 -49 141 -94t203 -45q81 0 149.5 26t110.5 81t42 140q0 74 -33.5 120t-90.5 77t-125 59q-55 23 -111.5 48t-102.5 60t-74.5 86.5t-28.5 127.5q0 66 29 146t89.5 152t157.5 118.5t232 46.5q120 0 214 -30t150 -65l-55 -198
q-79 62 -154.5 94t-170.5 32q-62 0 -128.5 -25t-112.5 -77.5t-46 -134.5q0 -84 59.5 -126.5t154.5 -82.5q63 -26 126 -54t115.5 -69t84.5 -103.5t32 -158.5q0 -80 -27.5 -160.5t-90 -148t-167 -108.5t-258.5 -41zM683 1537l-197 220l24 120l209 -160l260 160l-25 -149z" />
    <glyph glyph-name="scaron" unicode="&#x161;" horiz-adv-x="741" 
d="M259 -20q-113 0 -181.5 32t-100.5 55l49 172q30 -28 95 -64t155 -36q87 0 129 40t42 103q0 70 -43 98.5t-93 44.5q-53 17 -102.5 40.5t-81 67.5t-31.5 124q0 76 37.5 155t119 133t214.5 54q86 0 144 -20.5t92 -42.5l-48 -162q-32 37 -83.5 61t-118.5 24
q-78 0 -128.5 -39.5t-50.5 -112.5q0 -61 45 -87t124 -54q43 -15 87 -40t73.5 -72t29.5 -129q0 -43 -15.5 -101.5t-55.5 -114t-113.5 -92.5t-189.5 -37zM482 1117l-197 220l24 120l209 -160l260 160l-25 -149z" />
    <glyph glyph-name="uni0162" unicode="&#x162;" horiz-adv-x="996" 
d="M301 0l223 1279h186l-223 -1279h-186zM171 1233l31 167h876l-31 -167h-876zM374 -158l-58 30q25 9 47.5 14.5t47.5 5.5q67 0 104 -34.5t37 -94.5q0 -92 -68.5 -152.5t-169.5 -60.5q-47 0 -82 11.5t-60 26.5l48 97q26 -17 54 -25.5t59 -8.5q50 0 78 25.5t28 63.5
q0 68 -83 68q-20 0 -42.5 -3.5t-48.5 -12.5l88 208h96z" />
    <glyph glyph-name="uni0163" unicode="&#x163;" horiz-adv-x="579" 
d="M278 -20q-102 0 -144 53.5t-42 124.5q0 6 2 22.5t10.5 69t27.5 164.5t53.5 307.5t88.5 500.5l181 18l-177 -1041q-1 -56 30.5 -67t106.5 -11h48l-41 -141h-144zM71 843l41 136h505l-27 -136h-519zM266 -158l-58 30q25 9 47.5 14.5t47.5 5.5q67 0 104 -34.5t37 -94.5
q0 -92 -68.5 -152.5t-169.5 -60.5q-47 0 -82 11.5t-60 26.5l48 97q26 -17 54 -25.5t59 -8.5q50 0 78 25.5t28 63.5q0 68 -83 68q-20 0 -42.5 -3.5t-48.5 -12.5l88 208h96z" />
    <glyph glyph-name="Tcaron" unicode="&#x164;" horiz-adv-x="996" 
d="M301 0l223 1279h186l-223 -1279h-186zM171 1233l31 167h876l-31 -167h-876zM653 1507l-208 180l19 112l219 -122l229 122l-20 -128z" />
    <glyph glyph-name="tcaron" unicode="&#x165;" horiz-adv-x="579" 
d="M278 -20q-102 0 -144 53.5t-42 124.5q0 6 2 22.5t10.5 69t27.5 164.5t53.5 307.5t88.5 500.5l181 18l-177 -1041q-1 -56 30.5 -67t106.5 -11h48l-41 -141h-144zM71 843l41 136h505l-27 -136h-519zM519 1082l60 333h177l-114 -333h-123z" />
    <glyph glyph-name="Tbar" unicode="&#x166;" horiz-adv-x="996" 
d="M196 654l22 124h672l-22 -124h-672zM301 0l223 1279h186l-223 -1279h-186zM171 1233l31 167h876l-31 -167h-876z" />
    <glyph glyph-name="tbar" unicode="&#x167;" horiz-adv-x="605" 
d="M7 484l24 126h546l-24 -126h-546zM279 -20q-102 0 -144 53.5t-42 124.5q0 6 2 22.5t10.5 69t27.5 164.5t53.5 307.5t88.5 500.5l181 18l-177 -1041q-1 -56 30.5 -67t106.5 -11h48l-41 -141h-144zM72 843l41 136h505l-27 -136h-519z" />
    <glyph glyph-name="Utilde" unicode="&#x168;" horiz-adv-x="1267" 
d="M527 -28q-206 0 -305.5 113t-99.5 314q0 42 5 93t14 102l142 806h185l-126 -714q-11 -63 -17.5 -123t-6.5 -114q0 -88 22 -158t74 -110.5t144 -40.5q105 0 175.5 50.5t116 132.5t72 177.5t42.5 185.5l125 714h186l-142 -806q-34 -192 -112.5 -331.5t-202 -215
t-291.5 -75.5zM973 1581q-40 0 -82.5 22.5t-82 44.5t-74.5 22q-29 0 -47.5 -19.5t-25.5 -53.5h-137q24 108 74.5 164.5t125.5 56.5q44 0 82.5 -22t75.5 -44t75 -22q29 0 47.5 19t25.5 59h138q-26 -120 -74 -173.5t-121 -53.5z" />
    <glyph glyph-name="utilde" unicode="&#x169;" horiz-adv-x="942" 
d="M322 -20q-125 0 -192 73t-67 206q0 23 4 59.5t12 82.5l98 578h178l-94 -549q-5 -31 -8.5 -60.5t-3.5 -51.5q0 -181 145 -181q59 0 113 31.5t94 98.5l-23 -145q-49 -62 -111 -102t-145 -40zM562 0l10 129l147 850h178l-172 -979h-163zM722 1160q-40 0 -82.5 22.5t-82 44.5
t-74.5 22q-29 0 -47.5 -19.5t-25.5 -53.5h-137q24 108 74.5 164.5t125.5 56.5q44 0 82.5 -22t75.5 -44t75 -22q29 0 47.5 19t25.5 59h138q-26 -120 -74 -173.5t-121 -53.5z" />
    <glyph glyph-name="Umacron" unicode="&#x16a;" horiz-adv-x="1267" 
d="M527 -28q-206 0 -305.5 113t-99.5 314q0 42 5 93t14 102l142 806h185l-126 -714q-11 -63 -17.5 -123t-6.5 -114q0 -88 22 -158t74 -110.5t144 -40.5q105 0 175.5 50.5t116 132.5t72 177.5t42.5 185.5l125 714h186l-142 -806q-34 -192 -112.5 -331.5t-202 -215
t-291.5 -75.5zM521 1586l24 135h597l-24 -135h-597z" />
    <glyph glyph-name="umacron" unicode="&#x16b;" horiz-adv-x="942" 
d="M322 -20q-125 0 -192 73t-67 206q0 23 4 59.5t12 82.5l98 578h178l-94 -549q-5 -31 -8.5 -60.5t-3.5 -51.5q0 -181 145 -181q59 0 113 31.5t94 98.5l-23 -145q-49 -62 -111 -102t-145 -40zM562 0l10 129l147 850h178l-172 -979h-163zM281 1181l29 141h590l-28 -141h-591z
" />
    <glyph glyph-name="Ubreve" unicode="&#x16c;" horiz-adv-x="1267" 
d="M527 -28q-206 0 -305.5 113t-99.5 314q0 42 5 93t14 102l142 806h185l-126 -714q-11 -63 -17.5 -123t-6.5 -114q0 -88 22 -158t74 -110.5t144 -40.5q105 0 175.5 50.5t116 132.5t72 177.5t42.5 185.5l125 714h186l-142 -806q-34 -192 -112.5 -331.5t-202 -215
t-291.5 -75.5zM813 1528q-126 0 -183.5 57t-57.5 135q0 10 1.5 21t2.5 25h152q-1 -6 -1.5 -12.5t-0.5 -11.5q0 -46 30 -68.5t75 -22.5q53 0 95 28.5t52 86.5h153q-18 -104 -98.5 -171t-219.5 -67z" />
    <glyph glyph-name="ubreve" unicode="&#x16d;" horiz-adv-x="942" 
d="M322 -20q-125 0 -192 73t-67 206q0 23 4 59.5t12 82.5l98 578h178l-94 -549q-5 -31 -8.5 -60.5t-3.5 -51.5q0 -181 145 -181q59 0 113 31.5t94 98.5l-23 -145q-49 -62 -111 -102t-145 -40zM562 0l10 129l147 850h178l-172 -979h-163zM581 1151q-121 0 -177.5 59
t-56.5 139q0 17 2 29t6 25h147q-2 -6 -3.5 -15.5t-1.5 -19.5q0 -42 27 -64t72 -22q51 0 91 30t50 91h159q-18 -106 -98.5 -179t-216.5 -73z" />
    <glyph glyph-name="Uring" unicode="&#x16e;" horiz-adv-x="1267" 
d="M527 -28q-206 0 -305.5 113t-99.5 314q0 42 5 93t14 102l142 806h185l-126 -714q-11 -63 -17.5 -123t-6.5 -114q0 -88 22 -158t74 -110.5t144 -40.5q105 0 175.5 50.5t116 132.5t72 177.5t42.5 185.5l125 714h186l-142 -806q-34 -192 -112.5 -331.5t-202 -215
t-291.5 -75.5zM811 1512q-82 0 -122.5 46.5t-40.5 111.5q0 63 31 116.5t81.5 85.5t110.5 32q83 0 123 -47t40 -110q0 -65 -30 -118t-80.5 -85t-112.5 -32zM821 1599q47 0 80.5 39t33.5 93q0 39 -21 62.5t-54 23.5q-44 0 -79 -39t-35 -91q0 -42 22 -65t53 -23z" />
    <glyph glyph-name="uring" unicode="&#x16f;" horiz-adv-x="942" 
d="M322 -20q-125 0 -192 73t-67 206q0 23 4 59.5t12 82.5l98 578h178l-94 -549q-5 -31 -8.5 -60.5t-3.5 -51.5q0 -181 145 -181q59 0 113 31.5t94 98.5l-23 -145q-49 -62 -111 -102t-145 -40zM562 0l10 129l147 850h178l-172 -979h-163zM565 1136q-81 0 -122 46.5t-41 109.5
q0 67 32 122.5t85.5 89t117.5 33.5q81 0 121.5 -46.5t40.5 -109.5q0 -67 -31.5 -123t-84 -89t-118.5 -33zM579 1223q48 0 84 41.5t36 95.5q0 41 -22 65.5t-55 24.5q-47 0 -83.5 -42.5t-36.5 -97.5q0 -41 23 -64t54 -23z" />
    <glyph glyph-name="Uhungarumlaut" unicode="&#x170;" horiz-adv-x="1267" 
d="M527 -28q-206 0 -305.5 113t-99.5 314q0 42 5 93t14 102l142 806h185l-126 -714q-11 -63 -17.5 -123t-6.5 -114q0 -88 22 -158t74 -110.5t144 -40.5q105 0 175.5 50.5t116 132.5t72 177.5t42.5 185.5l125 714h186l-142 -806q-34 -192 -112.5 -331.5t-202 -215
t-291.5 -75.5zM884 1576l168 293h185l-230 -293h-123zM622 1576l158 293h185l-219 -293h-124z" />
    <glyph glyph-name="uhungarumlaut" unicode="&#x171;" horiz-adv-x="942" 
d="M322 -20q-125 0 -192 73t-67 206q0 23 4 59.5t12 82.5l98 578h178l-94 -549q-5 -31 -8.5 -60.5t-3.5 -51.5q0 -181 145 -181q59 0 113 31.5t94 98.5l-23 -145q-49 -62 -111 -102t-145 -40zM562 0l10 129l147 850h178l-172 -979h-163zM372 1155l204 333h188l-265 -333
h-127zM638 1155l213 333h189l-275 -333h-127z" />
    <glyph glyph-name="Uogonek" unicode="&#x172;" horiz-adv-x="1267" 
d="M527 -28q-206 0 -305.5 113t-99.5 314q0 42 5 93t14 102l142 806h185l-126 -714q-11 -63 -17.5 -123t-6.5 -114q0 -88 22 -158t74 -110.5t144 -40.5q105 0 175.5 50.5t116 132.5t72 177.5t42.5 185.5l125 714h186l-142 -806q-34 -192 -112.5 -331.5t-202 -215
t-291.5 -75.5zM599 10l93 -10q-47 -34 -89.5 -71t-69.5 -79t-27 -90q0 -75 69 -75q30 0 57.5 9.5t55.5 25.5l11 -97q-27 -15 -66.5 -26.5t-86.5 -11.5q-68 0 -113.5 35.5t-45.5 102.5q1 82 65.5 160t146.5 127z" />
    <glyph glyph-name="uogonek" unicode="&#x173;" horiz-adv-x="942" 
d="M322 -20q-125 0 -192 73t-67 206q0 23 4 59.5t12 82.5l98 578h178l-94 -549q-5 -31 -8.5 -60.5t-3.5 -51.5q0 -181 145 -181q59 0 113 31.5t94 98.5l-23 -145q-49 -62 -111 -102t-145 -40zM562 0l10 129l147 850h178l-172 -979h-163zM633 10l93 -10q-47 -34 -89.5 -71
t-69.5 -79t-27 -90q0 -75 69 -75q30 0 57.5 9.5t55.5 25.5l11 -97q-27 -15 -66.5 -26.5t-86.5 -11.5q-68 0 -113.5 35.5t-45.5 102.5q1 82 65.5 160t146.5 127z" />
    <glyph glyph-name="Wcircumflex" unicode="&#x174;" horiz-adv-x="1687" 
d="M272 0l-88 1400h195l47 -1257l-38 7l509 1221h184l79 -1228l-38 6l488 1251h193l-597 -1400h-184l-85 1244l42 -6l-516 -1238h-191zM1251 1507l-219 131l-219 -107l21 120l229 156l208 -180z" />
    <glyph glyph-name="wcircumflex" unicode="&#x175;" horiz-adv-x="1258" 
d="M176 0l-78 979h192l21 -870l-36 6l335 833h168l45 -839l-37 5l323 865h193l-425 -979h-176l-54 812l41 -7l-338 -805h-174zM517 1149l30 126l244 194l197 -220l-25 -120l-208 160z" />
    <glyph glyph-name="Ycircumflex" unicode="&#x176;" horiz-adv-x="1043" 
d="M318 0l129 730l14 -161l-305 831h196l239 -661l-80 10l455 651h197l-592 -820l66 150l-129 -730h-190zM920 1507l-219 131l-219 -107l21 120l229 156l208 -180z" />
    <glyph glyph-name="ycircumflex" unicode="&#x177;" horiz-adv-x="880" 
d="M-31 -484l328 600l-25 -155l-206 1018h199l132 -815l-53 7l396 808h198l-781 -1463h-188zM325 1149l30 126l244 194l197 -220l-25 -120l-208 160z" />
    <glyph glyph-name="Ydieresis" unicode="&#x178;" horiz-adv-x="1043" 
d="M318 0l129 730l14 -161l-305 831h196l239 -661l-80 10l455 651h197l-592 -820l66 150l-129 -730h-190zM439 1603l33 159h160l-32 -159h-161zM793 1603l32 159h160l-31 -159h-161z" />
    <glyph glyph-name="Zacute" unicode="&#x179;" horiz-adv-x="952" 
d="M-81 0l868 1301l35 -68h-610l31 167h835l-871 -1301l-35 69h613l-32 -168h-834zM537 1529l17 127l330 190l-30 -201z" />
    <glyph glyph-name="zacute" unicode="&#x17a;" horiz-adv-x="818" 
d="M-59 0l641 911l32 -67h-509l26 135h714l-639 -911l-33 67h512l-27 -135h-717zM362 1151l25 134l352 208l-35 -221z" />
    <glyph glyph-name="Zdotaccent" unicode="&#x17b;" horiz-adv-x="952" 
d="M-81 0l868 1301l35 -68h-610l31 167h835l-871 -1301l-35 69h613l-32 -168h-834zM604 1582l32 179h179l-32 -179h-179z" />
    <glyph glyph-name="zdotaccent" unicode="&#x17c;" horiz-adv-x="818" 
d="M-59 0l641 911l32 -67h-509l26 135h714l-639 -911l-33 67h512l-27 -135h-717zM440 1181l36 179h175l-36 -179h-175z" />
    <glyph glyph-name="Zcaron" unicode="&#x17d;" horiz-adv-x="952" 
d="M-81 0l868 1301l35 -68h-610l31 167h835l-871 -1301l-35 69h613l-32 -168h-834zM687 1537l-197 220l24 120l209 -160l260 160l-25 -149z" />
    <glyph glyph-name="zcaron" unicode="&#x17e;" horiz-adv-x="818" 
d="M-59 0l641 911l32 -67h-509l26 135h714l-639 -911l-33 67h512l-27 -135h-717zM515 1116l-197 220l24 120l209 -160l260 160l-25 -149z" />
    <glyph glyph-name="uni018F" unicode="&#x18f;" horiz-adv-x="1266" 
d="M535 140q114 0 204 59t152.5 160.5t95 229t32.5 263.5q0 192 -87 300.5t-257 108.5q-104 0 -209 -26.5t-206 -66.5l-2 155q102 47 222 76t247 29q158 0 269 -65.5t169.5 -189.5t58.5 -298q0 -181 -54 -344t-152 -289t-230 -198t-289 -72q-202 0 -324 117.5t-122 335.5
q0 70 15 147.5t34 126.5h1029l-32 -164h-837q-4 -28 -7 -54.5t-3 -52.5q1 -134 69 -211t214 -77z" />
    <glyph glyph-name="florin" unicode="&#x192;" horiz-adv-x="1092" 
d="M371 843l41 136h602l-41 -136h-602zM460 93q-35 -104 -87.5 -190.5t-132.5 -138.5t-198 -52q-44 0 -80 5t-66 17l45 165q19 -7 44 -11.5t51 -4.5q106 0 160 61t90 170l314 960q37 110 93.5 189.5t137 122t188.5 42.5q42 0 76 -5.5t62 -16.5l-44 -164q-42 16 -95 16
q-104 0 -159.5 -63.5t-90.5 -168.5z" />
    <glyph glyph-name="Ohorn" unicode="&#x1a0;" horiz-adv-x="1347" 
d="M571 -28q-149 0 -257.5 68.5t-167.5 198.5t-59 313q0 189 58 348.5t160 278t233.5 184t278.5 65.5q149 0 257.5 -68.5t167.5 -198t59 -313.5q0 -189 -58.5 -348.5t-160.5 -278t-233.5 -184t-277.5 -65.5zM604 140q111 0 202 57.5t156 156t100 223t35 258.5
q0 121 -32.5 217.5t-101.5 152.5t-179 56q-112 0 -202.5 -58t-155 -156.5t-99 -222.5t-34.5 -258q0 -120 32 -216.5t100.5 -153t178.5 -56.5zM938 1270l25 130q70 0 116 34.5t61 113.5h166q-18 -85 -68.5 -147.5t-127 -96.5t-172.5 -34z" />
    <glyph glyph-name="ohorn" unicode="&#x1a1;" horiz-adv-x="978" 
d="M388 -20q-118 0 -195.5 53.5t-116 145.5t-38.5 207q0 123 38.5 233.5t108.5 196t165 134.5t207 49q118 0 195.5 -54t116 -146.5t38.5 -207.5q0 -122 -39 -232t-108.5 -195.5t-164.5 -134.5t-207 -49zM415 138q93 0 162.5 58.5t108 158.5t38.5 223q0 133 -49.5 198.5
t-144.5 65.5q-93 0 -162.5 -59t-108 -158.5t-38.5 -222.5q0 -131 48.5 -197.5t145.5 -66.5zM611 849l25 130q70 0 116 34.5t61 113.5h166q-18 -85 -68.5 -147.5t-127 -96.5t-172.5 -34z" />
    <glyph glyph-name="Uhorn" unicode="&#x1af;" horiz-adv-x="1267" 
d="M527 -28q-206 0 -305.5 113t-99.5 314q0 42 5 93t14 102l142 806h185l-126 -714q-11 -63 -17.5 -123t-6.5 -114q0 -88 22 -158t74 -110.5t144 -40.5q105 0 175.5 50.5t116 132.5t72 177.5t42.5 185.5l125 714h186l-142 -806q-34 -192 -112.5 -331.5t-202 -215
t-291.5 -75.5zM1140 1270l25 130q70 0 116 34.5t61 113.5h166q-18 -85 -68.5 -147.5t-127 -96.5t-172.5 -34z" />
    <glyph glyph-name="uhorn" unicode="&#x1b0;" horiz-adv-x="942" 
d="M322 -20q-125 0 -192 73t-67 206q0 23 4 59.5t12 82.5l98 578h178l-94 -549q-5 -31 -8.5 -60.5t-3.5 -51.5q0 -181 145 -181q59 0 113 31.5t94 98.5l-23 -145q-49 -62 -111 -102t-145 -40zM562 0l10 129l147 850h178l-172 -979h-163zM767 849l25 130q70 0 116 34.5
t61 113.5h166q-18 -85 -68.5 -147.5t-127 -96.5t-172.5 -34z" />
    <glyph glyph-name="uni01C4" unicode="&#x1c4;" horiz-adv-x="2202" 
d="M48 0l246 1400h446q148 0 257 -64.5t169.5 -190.5t60.5 -311q0 -186 -58 -339.5t-159 -264t-233.5 -170.5t-282.5 -60h-446zM250 86l-68 82h343q117 0 209 52t156 143.5t97.5 210t33.5 250.5q0 191 -77.5 300t-235.5 109h-342l99 82zM1170 0l868 1301l35 -68h-610l31 167
h835l-871 -1301l-35 69h613l-32 -168h-834zM1938 1537l-197 220l24 120l209 -160l260 160l-25 -149z" />
    <glyph glyph-name="uni01C5" unicode="&#x1c5;" horiz-adv-x="2078" 
d="M48 0l246 1400h446q148 0 257 -64.5t169.5 -190.5t60.5 -311q0 -186 -58 -339.5t-159 -264t-233.5 -170.5t-282.5 -60h-446zM250 86l-68 82h343q117 0 209 52t156 143.5t97.5 210t33.5 250.5q0 191 -77.5 300t-235.5 109h-342l99 82zM1201 0l641 911l32 -67h-509l26 135
h714l-639 -911l-33 67h512l-27 -135h-717zM1775 1116l-197 220l24 120l209 -160l260 160l-25 -149z" />
    <glyph glyph-name="uni01C6" unicode="&#x1c6;" horiz-adv-x="1808" 
d="M345 -20q-93 0 -162 53.5t-106.5 145.5t-37.5 209q0 115 35 224t99.5 196.5t151.5 139t190 51.5q68 0 117 -20t84.5 -62t61.5 -108l-44 -17l125 708h178l-264 -1500h-164l18 209l32 -32q-63 -96 -144.5 -146.5t-169.5 -50.5zM407 138q55 0 108 26t96 79t68 132.5
t25 185.5q0 148 -52.5 214.5t-134.5 66.5q-83 0 -149.5 -61t-105 -161t-38.5 -216q0 -111 43 -188.5t140 -77.5zM931 0l641 911l32 -67h-509l26 135h714l-639 -911l-33 67h512l-27 -135h-717zM1505 1116l-197 220l24 120l209 -160l260 160l-25 -149z" />
    <glyph glyph-name="uni01C7" unicode="&#x1c7;" horiz-adv-x="1375" 
d="M48 0l246 1400h186l-230 -1315l-68 83h611l-33 -168h-712zM737 -344l5 107h22q47 0 79 20t54.5 70t37.5 140l248 1407h186l-259 -1465q-24 -135 -107.5 -207t-222.5 -72h-43z" />
    <glyph glyph-name="uni01C8" unicode="&#x1c8;" horiz-adv-x="1296" 
d="M48 0l246 1400h186l-230 -1315l-68 83h611l-33 -168h-712zM718 -484l8 134q56 8 83.5 30.5t41.5 65t25 107.5l198 1126h178l-211 -1192q-20 -117 -83 -179.5t-176 -80.5zM1112 1203l37 197h178l-37 -197h-178z" />
    <glyph glyph-name="uni01C9" unicode="&#x1c9;" horiz-adv-x="858" 
d="M224 -20q-99 0 -140 49.5t-41 118.5q0 20 4.5 53t15.5 95l210 1204h178l-210 -1222q-7 -39 -9 -53t-2 -26q0 -47 24 -62.5t79 -15.5l-48 -141h-61zM279 -484l8 134q56 8 83.5 30.5t41.5 65t25 107.5l198 1126h178l-211 -1192q-20 -117 -83 -179.5t-176 -80.5zM673 1203
l37 197h178l-37 -197h-178z" />
    <glyph glyph-name="uni01CA" unicode="&#x1ca;" horiz-adv-x="1729" 
d="M48 0l246 1400h194l406 -1135l-46 -4l197 1139h188l-248 -1400h-156l-432 1193l46 4l-209 -1197h-186zM1090 -344l5 107h22q47 0 79 20t54.5 70t37.5 140l248 1407h186l-259 -1465q-24 -135 -107.5 -207t-222.5 -72h-43z" />
    <glyph glyph-name="uni01CB" unicode="&#x1cb;" horiz-adv-x="1631" 
d="M48 0l246 1400h194l406 -1135l-46 -4l197 1139h188l-248 -1400h-156l-432 1193l46 4l-209 -1197h-186zM1052 -484l8 134q56 8 83.5 30.5t41.5 65t25 107.5l198 1126h178l-211 -1192q-20 -117 -83 -179.5t-176 -80.5zM1446 1203l37 197h178l-37 -197h-178z" />
    <glyph glyph-name="uni01CC" unicode="&#x1cc;" horiz-adv-x="1386" 
d="M14 0l172 979h152l-13 -257l-133 -722h-178zM590 0q31 177 51 293t32 186t17 107t6.5 54t1.5 28q0 90 -37 132t-117 42q-70 0 -131.5 -34.5t-103.5 -111.5l10 161q76 87 144.5 114.5t142.5 27.5q145 0 209 -80t64 -225q0 -15 -1.5 -35.5t-7 -60.5t-17 -112.5t-32 -190
t-52.5 -295.5h-179zM808 -484l8 134q56 8 83.5 30.5t41.5 65t25 107.5l198 1126h178l-211 -1192q-20 -117 -83 -179.5t-176 -80.5zM1202 1203l37 197h178l-37 -197h-178z" />
    <glyph glyph-name="Gcaron" unicode="&#x1e6;" horiz-adv-x="1177" 
d="M599 -28q-148 0 -263 70t-181 201.5t-66 316.5q0 184 57.5 342t158.5 276t235.5 184t287.5 66q62 0 127 -10.5t123 -28.5t97 -41l-49 -161q-68 30 -153.5 52t-166.5 22q-125 0 -221 -59.5t-161 -159t-98 -222.5t-33 -251q0 -193 82.5 -311t257.5 -118q49 0 118.5 13.5
t127.5 54.5l-70 -112l91 519l68 -82h-249l31 169h352l-110 -624q-75 -43 -174 -74.5t-219 -31.5zM831 1507l-208 180l19 112l219 -122l229 122l-20 -128z" />
    <glyph glyph-name="gcaron" unicode="&#x1e7;" horiz-adv-x="873" 
d="M364 226q-136 0 -215 79t-79 237q0 116 51.5 220.5t146 170.5t222.5 66q134 0 211.5 -87.5t77.5 -233.5q0 -81 -29.5 -161t-84.5 -146t-131.5 -105.5t-169.5 -39.5zM385 361q69 0 120.5 45t79.5 116.5t28 150.5q0 91 -38.5 138t-109.5 47q-70 0 -121.5 -42.5
t-79.5 -111.5t-28 -149q0 -93 39.5 -143.5t109.5 -50.5zM266 -500q-131 0 -208.5 40.5t-111 99t-33.5 112.5q0 36 18.5 88t64 103t126.5 82l127 -47q-44 -12 -84 -44t-65.5 -73.5t-25.5 -82.5q0 -58 55 -99t159 -41q83 0 144.5 26t96 66t34.5 81q0 47 -37.5 73.5t-97.5 41.5
t-126.5 28t-126 31t-97 51t-37.5 89q0 29 32 82t108 88l89 -40q-24 -17 -39.5 -36.5t-15.5 -42.5q0 -34 51.5 -52t169.5 -46q44 -10 96 -26t98 -42t76 -67.5t30 -103.5q0 -82 -57.5 -160t-163 -128.5t-249.5 -50.5zM730 845l-55 74q37 27 93 45.5t121 18.5h30l-37 -118h-55
q-9 0 -41 -4.5t-56 -15.5zM504 1116l-197 220l24 120l209 -160l260 160l-25 -149z" />
    <glyph glyph-name="uni01EA" unicode="&#x1ea;" horiz-adv-x="1347" 
d="M571 -28q-149 0 -257.5 68.5t-167.5 198.5t-59 313q0 189 58 348.5t160 278t233.5 184t278.5 65.5q149 0 257.5 -68.5t167.5 -198t59 -313.5q0 -189 -58.5 -348.5t-160.5 -278t-233.5 -184t-277.5 -65.5zM604 140q111 0 202 57.5t156 156t100 223t35 258.5
q0 121 -32.5 217.5t-101.5 152.5t-179 56q-112 0 -202.5 -58t-155 -156.5t-99 -222.5t-34.5 -258q0 -120 32 -216.5t100.5 -153t178.5 -56.5zM600 10l93 -10q-47 -34 -89.5 -71t-69.5 -79t-27 -90q0 -75 69 -75q30 0 57.5 9.5t55.5 25.5l11 -97q-27 -15 -66.5 -26.5
t-86.5 -11.5q-68 0 -113.5 35.5t-45.5 102.5q1 82 65.5 160t146.5 127z" />
    <glyph glyph-name="uni01EB" unicode="&#x1eb;" horiz-adv-x="978" 
d="M388 -20q-118 0 -195.5 53.5t-116 145.5t-38.5 207q0 123 38.5 233.5t108.5 196t165 134.5t207 49q118 0 195.5 -54t116 -146.5t38.5 -207.5q0 -122 -39 -232t-108.5 -195.5t-164.5 -134.5t-207 -49zM415 138q93 0 162.5 58.5t108 158.5t38.5 223q0 133 -49.5 198.5
t-144.5 65.5q-93 0 -162.5 -59t-108 -158.5t-38.5 -222.5q0 -131 48.5 -197.5t145.5 -66.5zM416 10l93 -10q-47 -34 -89.5 -71t-69.5 -79t-27 -90q0 -75 69 -75q30 0 57.5 9.5t55.5 25.5l11 -97q-27 -15 -66.5 -26.5t-86.5 -11.5q-68 0 -113.5 35.5t-45.5 102.5
q1 82 65.5 160t146.5 127z" />
    <glyph glyph-name="Aringacute" unicode="&#x1fa;" horiz-adv-x="1080" 
d="M-75 0l675 1400h186l181 -1400h-195l-46 397l-26 135l-66 694l45 -7l-299 -686l-79 -138l-181 -395h-195zM222 381l93 167h454l30 -167h-577zM716 1512q-82 0 -122.5 46.5t-40.5 111.5q0 63 31 116.5t81.5 85.5t110.5 32q83 0 123 -47t40 -110q0 -65 -30 -118t-80.5 -85
t-112.5 -32zM726 1599q47 0 80.5 39t33.5 93q0 39 -21 62.5t-54 23.5q-44 0 -79 -39t-35 -91q0 -42 22 -65t53 -23zM645 1972l17 127l330 190l-30 -201z" />
    <glyph glyph-name="aringacute" unicode="&#x1fb;" horiz-adv-x="1029" 
d="M346 -20q-94 0 -163 48t-107 134t-38 202q0 121 37 234t104 203.5t158.5 144t198.5 53.5q50 0 98 -15t86 -58.5t57 -127.5l-56 -3l65 184h157l-118 -695q-8 -47 -8 -80q0 -47 20 -65t68 -18l-49 -141q-52 0 -93 5t-70.5 27t-46.5 71t-21 138l47 -46q-40 -63 -89 -106.5
t-108 -66t-129 -22.5zM407 138q60 0 113 27.5t94.5 81.5t65 133t23.5 181q0 148 -52.5 214.5t-134.5 66.5t-148.5 -61t-105.5 -161t-39 -217q0 -110 43.5 -187.5t140.5 -77.5zM637 1091q-82 0 -122.5 46.5t-40.5 111.5q0 63 31 116.5t81.5 85.5t110.5 32q83 0 123 -47
t40 -110q0 -65 -30 -118t-80.5 -85t-112.5 -32zM647 1178q47 0 80.5 39t33.5 93q0 39 -21 62.5t-54 23.5q-44 0 -79 -39t-35 -91q0 -42 22 -65t53 -23zM567 1551l17 127l330 190l-30 -201z" />
    <glyph glyph-name="AEacute" unicode="&#x1fc;" horiz-adv-x="1499" 
d="M-103 0l831 1400h835l-33 -169h-606l99 82l-214 -1228l-68 83h623l-32 -168h-746l229 1309l29 -11l-760 -1298h-187zM224 362l118 180h361l-36 -180h-443zM835 649l32 167h473l-31 -167h-474zM1021 1529l17 127l330 190l-30 -201z" />
    <glyph glyph-name="aeacute" unicode="&#x1fd;" horiz-adv-x="1383" 
d="M570 492q-59 2 -128 -11t-130.5 -44.5t-101 -84.5t-39.5 -131q0 -54 29.5 -76.5t73.5 -22.5q49 0 102.5 26t97 86t59.5 160q5 31 8.5 51t6 39.5t5 48t5.5 75.5q7 123 -21.5 179t-124.5 56q-55 0 -109 -14.5t-120 -42.5l9 136q82 39 158 58t142 19q43 0 88 -13t80 -48.5
t50 -104t-3 -178.5l-14 29q28 120 86.5 188.5t134 97.5t154.5 29q124 0 197 -78.5t73 -227.5q0 -63 -12 -111t-27 -89h-638l34 121h471q4 21 6 45t2 40q-1 76 -36.5 109.5t-110.5 33.5q-73 0 -128 -41.5t-93 -109t-57 -147t-19 -156.5q0 -88 27.5 -147.5t75 -89.5t108.5 -30
q42 0 84 9t85 25.5t88 38.5l-4 -134q-62 -33 -135 -56.5t-160 -23.5q-143 0 -223 67.5t-91 230.5l41 -12q-45 -99 -109 -164t-142 -97.5t-166 -32.5q-114 0 -170.5 57.5t-56.5 152.5q0 90 31.5 158.5t88 118t132 82t163.5 50.5t182 23zM648 1151l25 134l352 208l-35 -221z
" />
    <glyph glyph-name="Oslashacute" unicode="&#x1fe;" horiz-adv-x="1420" 
d="M1252 1488h184l-1220 -1576h-182zM571 -28q-149 0 -257.5 68.5t-167.5 198.5t-59 313q0 189 58 348.5t160 278t233.5 184t278.5 65.5q148 0 257 -68.5t168 -198t59 -313.5q0 -189 -58.5 -348.5t-160.5 -278t-233.5 -184t-277.5 -65.5zM604 140q111 0 202 57.5t156 156
t100 223t35 258.5q0 121 -32.5 217.5t-101.5 152.5t-179 56q-112 0 -202.5 -58t-155.5 -156.5t-99 -222.5t-34 -258q0 -121 32 -217t100.5 -152.5t178.5 -56.5zM694 1529l17 127l330 190l-30 -201z" />
    <glyph glyph-name="oslashacute" unicode="&#x1ff;" horiz-adv-x="1028" 
d="M852 1060h160l-872 -1140h-160zM388 -20q-118 0 -195.5 53.5t-116 145.5t-38.5 207q0 123 38.5 233.5t108.5 196t165 134.5t207 49q118 0 195.5 -54t116 -146.5t38.5 -207.5q0 -122 -39 -232t-108.5 -195.5t-164.5 -134.5t-207 -49zM415 138q93 0 162.5 58.5t108 158.5
t38.5 223q0 133 -49.5 198.5t-144.5 65.5q-93 0 -162.5 -59t-108 -158.5t-38.5 -222.5q0 -131 48.5 -197.5t145.5 -66.5zM437 1151l25 134l352 208l-35 -221z" />
    <glyph glyph-name="uni0200" unicode="&#x200;" horiz-adv-x="1080" 
d="M-75 0l675 1400h186l181 -1400h-195l-46 397l-26 135l-66 694l45 -7l-299 -686l-79 -138l-181 -395h-195zM222 381l93 167h454l30 -167h-577zM531 1576l-128 293h185l66 -293h-123zM793 1576l-118 293h185l56 -293h-123z" />
    <glyph glyph-name="uni0201" unicode="&#x201;" horiz-adv-x="1029" 
d="M346 -20q-94 0 -163 48t-107 134t-38 202q0 121 37 234t104 203.5t158.5 144t198.5 53.5q50 0 98 -15t86 -58.5t57 -127.5l-56 -3l65 184h157l-118 -695q-8 -47 -8 -80q0 -47 20 -65t68 -18l-49 -141q-52 0 -93 5t-70.5 27t-46.5 71t-21 138l47 -46q-40 -63 -89 -106.5
t-108 -66t-129 -22.5zM407 138q60 0 113 27.5t94.5 81.5t65 133t23.5 181q0 148 -52.5 214.5t-134.5 66.5t-148.5 -61t-105.5 -161t-39 -217q0 -110 43.5 -187.5t140.5 -77.5zM840 1155h-127l-124 333h188zM577 1155h-128l-135 333h189z" />
    <glyph glyph-name="uni0202" unicode="&#x202;" horiz-adv-x="1080" 
d="M-75 0l675 1400h186l181 -1400h-195l-46 397l-26 135l-66 694l45 -7l-299 -686l-79 -138l-181 -395h-195zM222 381l93 167h454l30 -167h-577zM447 1558q11 61 51 115.5t107 88.5t159 34q122 0 178 -57.5t56 -136.5q0 -10 -1 -21t-3 -23h-152q2 12 2 25q0 46 -29 68
t-73 22q-50 0 -91 -28t-52 -87h-152z" />
    <glyph glyph-name="uni0203" unicode="&#x203;" horiz-adv-x="1029" 
d="M346 -20q-94 0 -163 48t-107 134t-38 202q0 121 37 234t104 203.5t158.5 144t198.5 53.5q50 0 98 -15t86 -58.5t57 -127.5l-56 -3l65 184h157l-118 -695q-8 -47 -8 -80q0 -47 20 -65t68 -18l-49 -141q-52 0 -93 5t-70.5 27t-46.5 71t-21 138l47 -46q-40 -63 -89 -106.5
t-108 -66t-129 -22.5zM407 138q60 0 113 27.5t94.5 81.5t65 133t23.5 181q0 148 -52.5 214.5t-134.5 66.5t-148.5 -61t-105.5 -161t-39 -217q0 -110 43.5 -187.5t140.5 -77.5zM685 1403q123 0 179.5 -60t56.5 -144q0 -14 -1 -25t-3 -23h-148q2 5 2 13v14q0 48 -30 71.5
t-76 23.5q-50 0 -93 -30t-54 -92h-155q11 65 51.5 123t108.5 93.5t162 35.5z" />
    <glyph glyph-name="uni0204" unicode="&#x204;" horiz-adv-x="979" 
d="M253 85l-68 83h657l-31 -168h-763l246 1400h747l-31 -167h-642l99 82zM310 816h509l-31 -167h-510zM504 1576l-128 293h185l66 -293h-123zM766 1576l-118 293h185l56 -293h-123z" />
    <glyph glyph-name="uni0205" unicode="&#x205;" horiz-adv-x="871" 
d="M215 575q39 -16 75.5 -25t85.5 -9q113 0 176.5 30.5t89 74.5t25.5 84t-18.5 64.5t-49.5 36t-65 11.5q-65 0 -122 -34t-102.5 -108t-75.5 -194l-3 -3q-11 -145 17.5 -224.5t85.5 -110t129 -30.5q58 0 128 13t132 43l-11 -138q-54 -33 -129 -54.5t-166 -21.5
q-129 0 -213 55.5t-124.5 150t-40.5 211.5q0 118 37 226t105.5 193t162.5 134t208 49q135 0 205.5 -68t70.5 -176q0 -54 -23 -112.5t-74 -108.5t-134.5 -81t-204.5 -31q-55 0 -108 7.5t-85 20.5zM795 1155h-127l-124 333h188zM532 1155h-128l-135 333h189z" />
    <glyph glyph-name="uni0206" unicode="&#x206;" horiz-adv-x="979" 
d="M253 85l-68 83h657l-31 -168h-763l246 1400h747l-31 -167h-642l99 82zM310 816h509l-31 -167h-510zM421 1558q11 61 51 115.5t107 88.5t159 34q122 0 178 -57.5t56 -136.5q0 -10 -1 -21t-3 -23h-152q2 12 2 25q0 46 -29 68t-73 22q-50 0 -91 -28t-52 -87h-152z" />
    <glyph glyph-name="uni0207" unicode="&#x207;" horiz-adv-x="871" 
d="M215 575q39 -16 75.5 -25t85.5 -9q113 0 176.5 30.5t89 74.5t25.5 84t-18.5 64.5t-49.5 36t-65 11.5q-65 0 -122 -34t-102.5 -108t-75.5 -194l-3 -3q-11 -145 17.5 -224.5t85.5 -110t129 -30.5q58 0 128 13t132 43l-11 -138q-54 -33 -129 -54.5t-166 -21.5
q-129 0 -213 55.5t-124.5 150t-40.5 211.5q0 118 37 226t105.5 193t162.5 134t208 49q135 0 205.5 -68t70.5 -176q0 -54 -23 -112.5t-74 -108.5t-134.5 -81t-204.5 -31q-55 0 -108 7.5t-85 20.5zM640 1403q123 0 179.5 -60t56.5 -144q0 -14 -1 -25t-3 -23h-148q2 5 2 13v14
q0 48 -30 71.5t-76 23.5q-50 0 -93 -30t-54 -92h-155q11 65 51.5 123t108.5 93.5t162 35.5z" />
    <glyph glyph-name="uni0208" unicode="&#x208;" horiz-adv-x="487" 
d="M48 0l246 1400h186l-246 -1400h-186zM226 1576l-128 293h185l66 -293h-123zM488 1576l-118 293h185l56 -293h-123z" />
    <glyph glyph-name="uni0209" unicode="&#x209;" horiz-adv-x="410" 
d="M14 0l172 979h179l-173 -979h-178zM503 1155h-127l-124 333h188zM240 1155h-128l-135 333h189z" />
    <glyph glyph-name="uni020A" unicode="&#x20a;" horiz-adv-x="487" 
d="M48 0l246 1400h186l-246 -1400h-186zM143 1558q11 61 51 115.5t107 88.5t159 34q122 0 178 -57.5t56 -136.5q0 -10 -1 -21t-3 -23h-152q2 12 2 25q0 46 -29 68t-73 22q-50 0 -91 -28t-52 -87h-152z" />
    <glyph glyph-name="uni020B" unicode="&#x20b;" horiz-adv-x="410" 
d="M14 0l172 979h179l-173 -979h-178zM348 1403q123 0 179.5 -60t56.5 -144q0 -14 -1 -25t-3 -23h-148q2 5 2 13v14q0 48 -30 71.5t-76 23.5q-50 0 -93 -30t-54 -92h-155q11 65 51.5 123t108.5 93.5t162 35.5z" />
    <glyph glyph-name="uni020C" unicode="&#x20c;" horiz-adv-x="1347" 
d="M571 -28q-149 0 -257.5 68.5t-167.5 198.5t-59 313q0 189 58 348.5t160 278t233.5 184t278.5 65.5q149 0 257.5 -68.5t167.5 -198t59 -313.5q0 -189 -58.5 -348.5t-160.5 -278t-233.5 -184t-277.5 -65.5zM604 140q111 0 202 57.5t156 156t100 223t35 258.5
q0 121 -32.5 217.5t-101.5 152.5t-179 56q-112 0 -202.5 -58t-155 -156.5t-99 -222.5t-34.5 -258q0 -120 32 -216.5t100.5 -153t178.5 -56.5zM657 1576l-128 293h185l66 -293h-123zM919 1576l-118 293h185l56 -293h-123z" />
    <glyph glyph-name="uni020D" unicode="&#x20d;" horiz-adv-x="978" 
d="M388 -20q-118 0 -195.5 53.5t-116 145.5t-38.5 207q0 123 38.5 233.5t108.5 196t165 134.5t207 49q118 0 195.5 -54t116 -146.5t38.5 -207.5q0 -122 -39 -232t-108.5 -195.5t-164.5 -134.5t-207 -49zM415 138q93 0 162.5 58.5t108 158.5t38.5 223q0 133 -49.5 198.5
t-144.5 65.5q-93 0 -162.5 -59t-108 -158.5t-38.5 -222.5q0 -131 48.5 -197.5t145.5 -66.5zM791 1155h-127l-124 333h188zM528 1155h-128l-135 333h189z" />
    <glyph glyph-name="uni020E" unicode="&#x20e;" horiz-adv-x="1347" 
d="M571 -28q-149 0 -257.5 68.5t-167.5 198.5t-59 313q0 189 58 348.5t160 278t233.5 184t278.5 65.5q149 0 257.5 -68.5t167.5 -198t59 -313.5q0 -189 -58.5 -348.5t-160.5 -278t-233.5 -184t-277.5 -65.5zM604 140q111 0 202 57.5t156 156t100 223t35 258.5
q0 121 -32.5 217.5t-101.5 152.5t-179 56q-112 0 -202.5 -58t-155 -156.5t-99 -222.5t-34.5 -258q0 -120 32 -216.5t100.5 -153t178.5 -56.5zM573 1558q11 61 51 115.5t107 88.5t159 34q122 0 178 -57.5t56 -136.5q0 -10 -1 -21t-3 -23h-152q2 12 2 25q0 46 -29 68t-73 22
q-50 0 -91 -28t-52 -87h-152z" />
    <glyph glyph-name="uni020F" unicode="&#x20f;" horiz-adv-x="978" 
d="M388 -20q-118 0 -195.5 53.5t-116 145.5t-38.5 207q0 123 38.5 233.5t108.5 196t165 134.5t207 49q118 0 195.5 -54t116 -146.5t38.5 -207.5q0 -122 -39 -232t-108.5 -195.5t-164.5 -134.5t-207 -49zM415 138q93 0 162.5 58.5t108 158.5t38.5 223q0 133 -49.5 198.5
t-144.5 65.5q-93 0 -162.5 -59t-108 -158.5t-38.5 -222.5q0 -131 48.5 -197.5t145.5 -66.5zM636 1403q123 0 179.5 -60t56.5 -144q0 -14 -1 -25t-3 -23h-148q2 5 2 13v14q0 48 -30 71.5t-76 23.5q-50 0 -93 -30t-54 -92h-155q11 65 51.5 123t108.5 93.5t162 35.5z" />
    <glyph glyph-name="uni0210" unicode="&#x210;" horiz-adv-x="1077" 
d="M48 0l246 1400h372q195 0 292.5 -84t97.5 -255q0 -111 -31 -196t-85.5 -145.5t-123.5 -98t-145.5 -55.5t-152.5 -18h-270l30 176h307q89 0 150 45t92 117.5t31 156.5q0 82 -39 141.5t-144 59.5h-304l101 70l-233 -1314h-191zM737 0l-175 582l188 50l184 -632h-197z
M560 1576l-128 293h185l66 -293h-123zM822 1576l-118 293h185l56 -293h-123z" />
    <glyph glyph-name="uni0211" unicode="&#x211;" horiz-adv-x="586" 
d="M14 0l172 979h157l-21 -270l-125 -709h-183zM312 681l3 116q53 76 104 124.5t102 71.5t103 23h30l-71 -196h-65q-38 0 -79.5 -20.5t-75.5 -53t-51 -65.5zM639 1155h-127l-124 333h188zM376 1155h-128l-135 333h189z" />
    <glyph glyph-name="uni0212" unicode="&#x212;" horiz-adv-x="1077" 
d="M48 0l246 1400h372q195 0 292.5 -84t97.5 -255q0 -111 -31 -196t-85.5 -145.5t-123.5 -98t-145.5 -55.5t-152.5 -18h-270l30 176h307q89 0 150 45t92 117.5t31 156.5q0 82 -39 141.5t-144 59.5h-304l101 70l-233 -1314h-191zM737 0l-175 582l188 50l184 -632h-197z
M477 1558q11 61 51 115.5t107 88.5t159 34q122 0 178 -57.5t56 -136.5q0 -10 -1 -21t-3 -23h-152q2 12 2 25q0 46 -29 68t-73 22q-50 0 -91 -28t-52 -87h-152z" />
    <glyph glyph-name="uni0213" unicode="&#x213;" horiz-adv-x="586" 
d="M14 0l172 979h157l-21 -270l-125 -709h-183zM312 681l3 116q53 76 104 124.5t102 71.5t103 23h30l-71 -196h-65q-38 0 -79.5 -20.5t-75.5 -53t-51 -65.5zM484 1403q123 0 179.5 -60t56.5 -144q0 -14 -1 -25t-3 -23h-148q2 5 2 13v14q0 48 -30 71.5t-76 23.5
q-50 0 -93 -30t-54 -92h-155q11 65 51.5 123t108.5 93.5t162 35.5z" />
    <glyph glyph-name="uni0214" unicode="&#x214;" horiz-adv-x="1267" 
d="M527 -28q-206 0 -305.5 113t-99.5 314q0 42 5 93t14 102l142 806h185l-126 -714q-11 -63 -17.5 -123t-6.5 -114q0 -88 22 -158t74 -110.5t144 -40.5q105 0 175.5 50.5t116 132.5t72 177.5t42.5 185.5l125 714h186l-142 -806q-34 -192 -112.5 -331.5t-202 -215
t-291.5 -75.5zM626 1576l-128 293h185l66 -293h-123zM888 1576l-118 293h185l56 -293h-123z" />
    <glyph glyph-name="uni0215" unicode="&#x215;" horiz-adv-x="942" 
d="M322 -20q-125 0 -192 73t-67 206q0 23 4 59.5t12 82.5l98 578h178l-94 -549q-5 -31 -8.5 -60.5t-3.5 -51.5q0 -181 145 -181q59 0 113 31.5t94 98.5l-23 -145q-49 -62 -111 -102t-145 -40zM562 0l10 129l147 850h178l-172 -979h-163zM764 1155h-127l-124 333h188z
M501 1155h-128l-135 333h189z" />
    <glyph glyph-name="uni0216" unicode="&#x216;" horiz-adv-x="1267" 
d="M527 -28q-206 0 -305.5 113t-99.5 314q0 42 5 93t14 102l142 806h185l-126 -714q-11 -63 -17.5 -123t-6.5 -114q0 -88 22 -158t74 -110.5t144 -40.5q105 0 175.5 50.5t116 132.5t72 177.5t42.5 185.5l125 714h186l-142 -806q-34 -192 -112.5 -331.5t-202 -215
t-291.5 -75.5zM543 1558q11 61 51 115.5t107 88.5t159 34q122 0 178 -57.5t56 -136.5q0 -10 -1 -21t-3 -23h-152q2 12 2 25q0 46 -29 68t-73 22q-50 0 -91 -28t-52 -87h-152z" />
    <glyph glyph-name="uni0217" unicode="&#x217;" horiz-adv-x="942" 
d="M322 -20q-125 0 -192 73t-67 206q0 23 4 59.5t12 82.5l98 578h178l-94 -549q-5 -31 -8.5 -60.5t-3.5 -51.5q0 -181 145 -181q59 0 113 31.5t94 98.5l-23 -145q-49 -62 -111 -102t-145 -40zM562 0l10 129l147 850h178l-172 -979h-163zM609 1403q123 0 179.5 -60t56.5 -144
q0 -14 -1 -25t-3 -23h-148q2 5 2 13v14q0 48 -30 71.5t-76 23.5q-50 0 -93 -30t-54 -92h-155q11 65 51.5 123t108.5 93.5t162 35.5z" />
    <glyph glyph-name="uni0218" unicode="&#x218;" horiz-adv-x="1021" 
d="M385 -28q-131 0 -229 28t-149 62l64 217q55 -49 141 -94t203 -45q81 0 149.5 26t110.5 81t42 140q0 74 -33.5 120t-90.5 77t-125 59q-55 23 -111.5 48t-102.5 60t-74.5 86.5t-28.5 127.5q0 66 29 146t89.5 152t157.5 118.5t232 46.5q120 0 214 -30t150 -65l-55 -198
q-79 62 -154.5 94t-170.5 32q-62 0 -128.5 -25t-112.5 -77.5t-46 -134.5q0 -84 59.5 -126.5t154.5 -82.5q63 -26 126 -54t115.5 -69t84.5 -103.5t32 -158.5q0 -80 -27.5 -160.5t-90 -148t-167 -108.5t-258.5 -41zM344 -522h-71l86 170h-68l30 170h183l-30 -170z" />
    <glyph glyph-name="uni0219" unicode="&#x219;" horiz-adv-x="741" 
d="M259 -20q-113 0 -181.5 32t-100.5 55l49 172q30 -28 95 -64t155 -36q87 0 129 40t42 103q0 70 -43 98.5t-93 44.5q-53 17 -102.5 40.5t-81 67.5t-31.5 124q0 76 37.5 155t119 133t214.5 54q86 0 144 -20.5t92 -42.5l-48 -162q-32 37 -83.5 61t-118.5 24
q-78 0 -128.5 -39.5t-50.5 -112.5q0 -61 45 -87t124 -54q43 -15 87 -40t73.5 -72t29.5 -129q0 -43 -15.5 -101.5t-55.5 -114t-113.5 -92.5t-189.5 -37zM176 -522h-71l86 170h-68l30 170h183l-30 -170z" />
    <glyph glyph-name="uni021A" unicode="&#x21a;" horiz-adv-x="996" 
d="M301 0l223 1279h186l-223 -1279h-186zM171 1233l31 167h876l-31 -167h-876zM303 -522h-71l86 170h-68l30 170h183l-30 -170z" />
    <glyph glyph-name="uni021B" unicode="&#x21b;" horiz-adv-x="579" 
d="M278 -20q-102 0 -144 53.5t-42 124.5q0 6 2 22.5t10.5 69t27.5 164.5t53.5 307.5t88.5 500.5l181 18l-177 -1041q-1 -56 30.5 -67t106.5 -11h48l-41 -141h-144zM71 843l41 136h505l-27 -136h-519zM194 -522h-71l86 170h-68l30 170h183l-30 -170z" />
    <glyph glyph-name="uni022A" unicode="&#x22a;" horiz-adv-x="1347" 
d="M571 -28q-149 0 -257.5 68.5t-167.5 198.5t-59 313q0 189 58 348.5t160 278t233.5 184t278.5 65.5q149 0 257.5 -68.5t167.5 -198t59 -313.5q0 -189 -58.5 -348.5t-160.5 -278t-233.5 -184t-277.5 -65.5zM604 140q111 0 202 57.5t156 156t100 223t35 258.5
q0 121 -32.5 217.5t-101.5 152.5t-179 56q-112 0 -202.5 -58t-155 -156.5t-99 -222.5t-34.5 -258q0 -120 32 -216.5t100.5 -153t178.5 -56.5zM943 1589l29 149h160l-28 -149h-161zM594 1589l28 149h161l-29 -149h-160zM607 1907l24 135h597l-24 -135h-597z" />
    <glyph glyph-name="uni022B" unicode="&#x22b;" horiz-adv-x="978" 
d="M388 -20q-118 0 -195.5 53.5t-116 145.5t-38.5 207q0 123 38.5 233.5t108.5 196t165 134.5t207 49q118 0 195.5 -54t116 -146.5t38.5 -207.5q0 -122 -39 -232t-108.5 -195.5t-164.5 -134.5t-207 -49zM415 138q93 0 162.5 58.5t108 158.5t38.5 223q0 133 -49.5 198.5
t-144.5 65.5q-93 0 -162.5 -59t-108 -158.5t-38.5 -222.5q0 -131 48.5 -197.5t145.5 -66.5zM689 1168l29 149h160l-28 -149h-161zM340 1168l28 149h161l-29 -149h-160zM353 1486l24 135h597l-24 -135h-597z" />
    <glyph glyph-name="uni022C" unicode="&#x22c;" horiz-adv-x="1347" 
d="M571 -28q-149 0 -257.5 68.5t-167.5 198.5t-59 313q0 189 58 348.5t160 278t233.5 184t278.5 65.5q149 0 257.5 -68.5t167.5 -198t59 -313.5q0 -189 -58.5 -348.5t-160.5 -278t-233.5 -184t-277.5 -65.5zM604 140q111 0 202 57.5t156 156t100 223t35 258.5
q0 121 -32.5 217.5t-101.5 152.5t-179 56q-112 0 -202.5 -58t-155 -156.5t-99 -222.5t-34.5 -258q0 -120 32 -216.5t100.5 -153t178.5 -56.5zM995 1577q-40 0 -85 19.5t-87 39t-73 19.5q-24 0 -42.5 -16.5t-22.5 -51.5h-125q17 98 64 149t114 51q42 0 86 -19.5t85.5 -39.5
t76.5 -20q26 0 43 19t22 50h125q-16 -99 -64 -149.5t-117 -50.5zM614 1939l24 135h597l-24 -135h-597z" />
    <glyph glyph-name="uni022D" unicode="&#x22d;" horiz-adv-x="978" 
d="M388 -20q-118 0 -195.5 53.5t-116 145.5t-38.5 207q0 123 38.5 233.5t108.5 196t165 134.5t207 49q118 0 195.5 -54t116 -146.5t38.5 -207.5q0 -122 -39 -232t-108.5 -195.5t-164.5 -134.5t-207 -49zM415 138q93 0 162.5 58.5t108 158.5t38.5 223q0 133 -49.5 198.5
t-144.5 65.5q-93 0 -162.5 -59t-108 -158.5t-38.5 -222.5q0 -131 48.5 -197.5t145.5 -66.5zM741 1156q-40 0 -85 19.5t-87 39t-73 19.5q-24 0 -42.5 -16.5t-22.5 -51.5h-125q17 98 64 149t114 51q42 0 86 -19.5t85.5 -39.5t76.5 -20q26 0 43 19t22 50h125
q-16 -99 -64 -149.5t-117 -50.5zM360 1518l24 135h597l-24 -135h-597z" />
    <glyph glyph-name="uni0230" unicode="&#x230;" horiz-adv-x="1347" 
d="M571 -28q-149 0 -257.5 68.5t-167.5 198.5t-59 313q0 189 58 348.5t160 278t233.5 184t278.5 65.5q149 0 257.5 -68.5t167.5 -198t59 -313.5q0 -189 -58.5 -348.5t-160.5 -278t-233.5 -184t-277.5 -65.5zM604 140q111 0 202 57.5t156 156t100 223t35 258.5
q0 121 -32.5 217.5t-101.5 152.5t-179 56q-112 0 -202.5 -58t-155 -156.5t-99 -222.5t-34.5 -258q0 -120 32 -216.5t100.5 -153t178.5 -56.5zM761 1582l32 179h179l-32 -179h-179zM611 1916l24 135h597l-24 -135h-597z" />
    <glyph glyph-name="uni0231" unicode="&#x231;" horiz-adv-x="978" 
d="M388 -20q-118 0 -195.5 53.5t-116 145.5t-38.5 207q0 123 38.5 233.5t108.5 196t165 134.5t207 49q118 0 195.5 -54t116 -146.5t38.5 -207.5q0 -122 -39 -232t-108.5 -195.5t-164.5 -134.5t-207 -49zM415 138q93 0 162.5 58.5t108 158.5t38.5 223q0 133 -49.5 198.5
t-144.5 65.5q-93 0 -162.5 -59t-108 -158.5t-38.5 -222.5q0 -131 48.5 -197.5t145.5 -66.5zM507 1161l32 179h179l-32 -179h-179zM357 1495l24 135h597l-24 -135h-597z" />
    <glyph glyph-name="uni0232" unicode="&#x232;" horiz-adv-x="1043" 
d="M318 0l129 730l14 -161l-305 831h196l239 -661l-80 10l455 651h197l-592 -820l66 150l-129 -730h-190zM393 1586l24 135h597l-24 -135h-597z" />
    <glyph glyph-name="uni0233" unicode="&#x233;" horiz-adv-x="880" 
d="M-31 -484l328 600l-25 -155l-206 1018h199l132 -815l-53 7l396 808h198l-781 -1463h-188zM247 1181l29 141h590l-28 -141h-591z" />
    <glyph glyph-name="uni0237" unicode="&#x237;" horiz-adv-x="410" 
d="M-169 -484l8 134q57 8 85 31.5t41 65.5t24 106l198 1126h178l-211 -1192q-20 -117 -83 -179.5t-176 -80.5z" />
    <glyph glyph-name="uni0259" unicode="&#x259;" horiz-adv-x="871" 
d="M656 405q-39 16 -75.5 25t-85.5 9q-113 0 -176.5 -30.5t-89 -74.5t-25.5 -84t18.5 -64.5t49.5 -36t65 -11.5q65 0 122 34t102.5 108t75.5 194l3 3q11 145 -17.5 224.5t-85.5 110t-129 30.5q-58 0 -128 -13t-132 -43l11 138q54 33 129 54.5t166 21.5q129 0 213 -55.5
t124.5 -150t40.5 -211.5q0 -118 -37 -226t-105.5 -193t-162.5 -134t-208 -49q-135 0 -205.5 68t-70.5 176q0 54 23 112.5t74 108.5t134.5 81t204.5 31q55 0 108 -7.5t85 -20.5z" />
    <glyph glyph-name="uni02BB" unicode="&#x2bb;" horiz-adv-x="658" 
d="M413 1492h71l-86 -170h68l-30 -170h-183l30 170z" />
    <glyph glyph-name="uni02BC" unicode="&#x2bc;" horiz-adv-x="378" 
d="M145 1060h-71l86 170h-68l30 170h183l-30 -170z" />
    <glyph glyph-name="uni02BE" unicode="&#x2be;" horiz-adv-x="324" 
d="M157 1136l16 87q52 0 88.5 37.5t36.5 95.5q0 45 -24 69.5t-62 24.5l16 87q84 0 124.5 -49.5t40.5 -118.5q0 -101 -66.5 -167t-169.5 -66z" />
    <glyph glyph-name="uni02BF" unicode="&#x2bf;" horiz-adv-x="325" 
d="M395 1537l-16 -87q-52 0 -88.5 -37.5t-36.5 -96.5q0 -44 24.5 -68.5t61.5 -24.5l-17 -87q-84 0 -124 50t-40 118q0 101 66.5 167t169.5 66z" />
    <glyph glyph-name="circumflex" unicode="&#x2c6;" horiz-adv-x="856" 
d="M219 1149l30 126l244 194l197 -220l-25 -120l-208 160z" />
    <glyph glyph-name="caron" unicode="&#x2c7;" horiz-adv-x="898" 
d="M457 1116l-197 220l24 120l209 -160l260 160l-25 -149z" />
    <glyph glyph-name="uni02C8" unicode="&#x2c8;" horiz-adv-x="340" 
d="M265 1537h145l-72 -401h-144z" />
    <glyph glyph-name="uni02C9" unicode="&#x2c9;" horiz-adv-x="892" 
d="M184 1182l29 141h590l-28 -141h-591z" />
    <glyph glyph-name="uni02CA" unicode="&#x2ca;" horiz-adv-x="550" 
d="M215 1151l25 134l352 208l-35 -221z" />
    <glyph glyph-name="uni02CB" unicode="&#x2cb;" horiz-adv-x="512" 
d="M528 1153l-312 137l35 194l300 -211z" />
    <glyph glyph-name="uni02CC" unicode="&#x2cc;" horiz-adv-x="322" 
d="M33 239h146l-72 -401h-145z" />
    <glyph glyph-name="breve" unicode="&#x2d8;" horiz-adv-x="816" 
d="M417 1151q-121 0 -177.5 59t-56.5 139q0 17 2 29t6 25h147q-2 -6 -3.5 -15.5t-1.5 -19.5q0 -42 27 -64t72 -22q51 0 91 30t50 91h159q-18 -106 -98.5 -179t-216.5 -73z" />
    <glyph glyph-name="dotaccent" unicode="&#x2d9;" horiz-adv-x="640" 
d="M252 1181l36 179h175l-36 -179h-175z" />
    <glyph glyph-name="ring" unicode="&#x2da;" horiz-adv-x="660" 
d="M342 1136q-81 0 -122 46.5t-41 109.5q0 67 32 122.5t85.5 89t117.5 33.5q81 0 121.5 -46.5t40.5 -109.5q0 -67 -31.5 -123t-84 -89t-118.5 -33zM356 1223q48 0 84 41.5t36 95.5q0 41 -22 65.5t-55 24.5q-47 0 -83.5 -42.5t-36.5 -97.5q0 -41 23 -64t54 -23z" />
    <glyph glyph-name="ogonek" unicode="&#x2db;" horiz-adv-x="570" 
d="M377 10l93 -10q-47 -34 -89.5 -71t-69.5 -79t-27 -90q0 -75 69 -75q30 0 57.5 9.5t55.5 25.5l11 -97q-27 -15 -66.5 -26.5t-86.5 -11.5q-68 0 -113.5 35.5t-45.5 102.5q1 82 65.5 160t146.5 127z" />
    <glyph glyph-name="tilde" unicode="&#x2dc;" horiz-adv-x="916" 
d="M632 1160q-40 0 -82.5 22.5t-82 44.5t-74.5 22q-29 0 -47.5 -19.5t-25.5 -53.5h-137q24 108 74.5 164.5t125.5 56.5q44 0 82.5 -22t75.5 -44t75 -22q29 0 47.5 19t25.5 59h138q-26 -120 -74 -173.5t-121 -53.5z" />
    <glyph glyph-name="hungarumlaut" unicode="&#x2dd;" horiz-adv-x="938" 
d="M177 1155l204 333h188l-265 -333h-127zM443 1155l213 333h189l-275 -333h-127z" />
    <glyph glyph-name="gravecomb" unicode="&#x300;" 
d="M162 1153l-312 137l35 194l300 -211z" />
    <glyph glyph-name="acutecomb" unicode="&#x301;" 
d="M-165 1151l25 134l352 208l-35 -221z" />
    <glyph glyph-name="uni0302" unicode="&#x302;" 
d="M-217 1149l30 126l244 194l197 -220l-25 -120l-208 160z" />
    <glyph glyph-name="tildecomb" unicode="&#x303;" 
d="M150 1160q-40 0 -82.5 22.5t-82 44.5t-74.5 22q-29 0 -47.5 -19.5t-25.5 -53.5h-137q24 108 74.5 164.5t125.5 56.5q44 0 82.5 -22t75.5 -44t75 -22q29 0 47.5 19t25.5 59h138q-26 -120 -74 -173.5t-121 -53.5z" />
    <glyph glyph-name="uni0304" unicode="&#x304;" 
d="M-290 1182l29 141h590l-28 -141h-591z" />
    <glyph glyph-name="uni0306" unicode="&#x306;" 
d="M-1 1151q-121 0 -177.5 59t-56.5 139q0 17 2 29t6 25h147q-2 -6 -3.5 -15.5t-1.5 -19.5q0 -42 27 -64t72 -22q51 0 91 30t50 91h159q-18 -106 -98.5 -179t-216.5 -73z" />
    <glyph glyph-name="uni0307" unicode="&#x307;" 
d="M-78 1181l36 179h175l-36 -179h-175z" />
    <glyph glyph-name="uni0308" unicode="&#x308;" 
d="M-252 1182l33 159h160l-32 -159h-161zM102 1182l32 159h160l-31 -159h-161z" />
    <glyph glyph-name="hookabovecomb" unicode="&#x309;" 
d="M-45 1115q46 40 78.5 74t32.5 80q0 52 -64 52q-30 0 -61 -10.5t-64 -27.5l-14 101q35 18 75 28t84 10q67 0 112.5 -34t45.5 -99q0 -78 -50.5 -134.5t-121.5 -105.5z" />
    <glyph glyph-name="uni030A" unicode="&#x30a;" 
d="M-8 1136q-81 0 -122 46.5t-41 109.5q0 67 32 122.5t85.5 89t117.5 33.5q81 0 121.5 -46.5t40.5 -109.5q0 -67 -31.5 -123t-84 -89t-118.5 -33zM6 1223q48 0 84 41.5t36 95.5q0 41 -22 65.5t-55 24.5q-47 0 -83.5 -42.5t-36.5 -97.5q0 -41 23 -64t54 -23z" />
    <glyph glyph-name="uni030B" unicode="&#x30b;" 
d="M-209 1155l204 333h188l-265 -333h-127zM57 1155l213 333h189l-275 -333h-127z" />
    <glyph glyph-name="uni030C" unicode="&#x30c;" 
d="M-9 1116l-197 220l24 120l209 -160l260 160l-25 -149z" />
    <glyph glyph-name="uni030F" unicode="&#x30f;" 
d="M189 1155h-127l-124 333h188zM-74 1155h-128l-135 333h189z" />
    <glyph glyph-name="uni0311" unicode="&#x311;" 
d="M45 1403q123 0 179.5 -60t56.5 -144q0 -14 -1 -25t-3 -23h-148q2 5 2 13v14q0 48 -30 71.5t-76 23.5q-50 0 -93 -30t-54 -92h-155q11 65 51.5 123t108.5 93.5t162 35.5z" />
    <glyph glyph-name="uni0312" unicode="&#x312;" 
d="M47 1492h71l-86 -170h68l-30 -170h-183l30 170z" />
    <glyph glyph-name="uni031B" unicode="&#x31b;" 
d="M-19 850l25 130q70 0 116 34.5t61 113.5h166q-18 -85 -68.5 -147.5t-127 -96.5t-172.5 -34z" />
    <glyph glyph-name="dotbelowcomb" unicode="&#x323;" 
d="M-112 -343l36 179h175l-36 -179h-175z" />
    <glyph glyph-name="uni0324" unicode="&#x324;" 
d="M-284 -342l33 159h160l-32 -159h-161zM70 -342l32 159h160l-31 -159h-161z" />
    <glyph glyph-name="uni0326" unicode="&#x326;" 
d="M-45 -522h-71l86 170h-68l30 170h183l-30 -170z" />
    <glyph glyph-name="uni0327" unicode="&#x327;" 
d="M12 -158l-58 30q25 9 47.5 14.5t47.5 5.5q67 0 104 -34.5t37 -94.5q0 -92 -68.5 -152.5t-169.5 -60.5q-47 0 -82 11.5t-60 26.5l48 97q26 -17 54 -25.5t59 -8.5q50 0 78 25.5t28 63.5q0 68 -83 68q-20 0 -42.5 -3.5t-48.5 -12.5l88 208h96z" />
    <glyph glyph-name="uni0328" unicode="&#x328;" 
d="M-9 10l93 -10q-47 -34 -89.5 -71t-69.5 -79t-27 -90q0 -75 69 -75q30 0 57.5 9.5t55.5 25.5l11 -97q-27 -15 -66.5 -26.5t-86.5 -11.5q-68 0 -113.5 35.5t-45.5 102.5q1 82 65.5 160t146.5 127z" />
    <glyph glyph-name="uni032E" unicode="&#x32e;" 
d="M-27 -437q-121 0 -177.5 59t-56.5 139q0 17 2 29t6 25h147q-2 -6 -3.5 -15.5t-1.5 -19.5q0 -42 27 -64t72 -22q51 0 91 30t50 91h159q-18 -106 -98.5 -179t-216.5 -73z" />
    <glyph glyph-name="uni0331" unicode="&#x331;" 
d="M-314 -324l29 141h590l-28 -141h-591z" />
    <glyph glyph-name="uni0335" unicode="&#x335;" 
d="M-281 454l25 124h539l-24 -124h-540z" />
    <glyph glyph-name="pi" unicode="&#x3c0;" horiz-adv-x="1266" 
d="M444 881l-154 -881h-176l153 881h177zM944 881l-105 -602q-2 -11 -3.5 -20t-1.5 -26q0 -100 86 -100q24 0 47 4t41 10l-26 -137q-25 -11 -66 -20.5t-87 -9.5q-87 0 -134.5 47.5t-45.5 137.5q0 17 2 37.5t8 49.5l110 629h175zM60 843l26 136h1074l-26 -136h-1074z" />
    <glyph glyph-name="uni1E08" unicode="&#x1e08;" horiz-adv-x="1073" 
d="M574 -28q-149 0 -258.5 69.5t-169 200.5t-59.5 315q0 189 59 348t162.5 276.5t236.5 182t282 64.5q92 0 178.5 -23.5t143.5 -58.5l-52 -172q-66 29 -136.5 58t-160.5 29q-118 0 -212 -57.5t-159.5 -155.5t-100.5 -222.5t-35 -258.5q0 -125 34 -221.5t104.5 -151
t180.5 -54.5q84 0 164.5 28t156.5 56l-13 -172q-72 -34 -165 -57t-181 -23zM569 -158l-58 30q25 9 47.5 14.5t47.5 5.5q67 0 104 -34.5t37 -94.5q0 -92 -68.5 -152.5t-169.5 -60.5q-47 0 -82 11.5t-60 26.5l48 97q26 -17 54 -25.5t59 -8.5q50 0 78 25.5t28 63.5q0 68 -83 68
q-20 0 -42.5 -3.5t-48.5 -12.5l88 208h96zM725 1529l17 127l330 190l-30 -201z" />
    <glyph glyph-name="uni1E09" unicode="&#x1e09;" horiz-adv-x="793" 
d="M393 -20q-126 0 -203.5 55t-112.5 148t-35 207q0 119 34 228.5t101.5 195.5t166.5 135.5t228 49.5q73 0 135 -15t100 -42l-52 -159q-42 29 -88.5 44t-96.5 15q-113 0 -190 -57t-116 -153.5t-39 -214.5q0 -133 55 -207.5t171 -74.5q96 0 206 59l-8 -150q-44 -24 -108 -44
t-148 -20zM375 -158l-58 30q25 9 47.5 14.5t47.5 5.5q67 0 104 -34.5t37 -94.5q0 -92 -68.5 -152.5t-169.5 -60.5q-47 0 -82 11.5t-60 26.5l48 97q26 -17 54 -25.5t59 -8.5q50 0 78 25.5t28 63.5q0 68 -83 68q-20 0 -42.5 -3.5t-48.5 -12.5l88 208h96zM462 1151l25 134
l352 208l-35 -221z" />
    <glyph glyph-name="uni1E0C" unicode="&#x1e0c;" horiz-adv-x="1275" 
d="M48 0l246 1400h446q148 0 257 -64.5t169.5 -190.5t60.5 -311q0 -186 -58 -339.5t-159 -264t-233.5 -170.5t-282.5 -60h-446zM250 86l-68 82h343q117 0 209 52t156 143.5t97.5 210t33.5 250.5q0 191 -77.5 300t-235.5 109h-342l99 82zM489 -343l36 179h175l-36 -179h-175z
" />
    <glyph glyph-name="uni1E0D" unicode="&#x1e0d;" horiz-adv-x="990" 
d="M345 -20q-93 0 -162 53.5t-106.5 145.5t-37.5 209q0 115 35 224t99.5 196.5t151.5 139t190 51.5q68 0 117 -20t84.5 -62t61.5 -108l-44 -17l125 708h178l-264 -1500h-164l18 209l32 -32q-63 -96 -144.5 -146.5t-169.5 -50.5zM407 138q55 0 108 26t96 79t68 132.5
t25 185.5q0 148 -52.5 214.5t-134.5 66.5q-83 0 -149.5 -61t-105 -161t-38.5 -216q0 -111 43 -188.5t140 -77.5zM347 -343l36 179h175l-36 -179h-175z" />
    <glyph glyph-name="uni1E0E" unicode="&#x1e0e;" horiz-adv-x="1275" 
d="M48 0l246 1400h446q148 0 257 -64.5t169.5 -190.5t60.5 -311q0 -186 -58 -339.5t-159 -264t-233.5 -170.5t-282.5 -60h-446zM250 86l-68 82h343q117 0 209 52t156 143.5t97.5 210t33.5 250.5q0 191 -77.5 300t-235.5 109h-342l99 82zM291 -324l29 141h590l-28 -141h-591z
" />
    <glyph glyph-name="uni1E0F" unicode="&#x1e0f;" horiz-adv-x="990" 
d="M345 -20q-93 0 -162 53.5t-106.5 145.5t-37.5 209q0 115 35 224t99.5 196.5t151.5 139t190 51.5q68 0 117 -20t84.5 -62t61.5 -108l-44 -17l125 708h178l-264 -1500h-164l18 209l32 -32q-63 -96 -144.5 -146.5t-169.5 -50.5zM407 138q55 0 108 26t96 79t68 132.5
t25 185.5q0 148 -52.5 214.5t-134.5 66.5q-83 0 -149.5 -61t-105 -161t-38.5 -216q0 -111 43 -188.5t140 -77.5zM149 -324l29 141h590l-28 -141h-591z" />
    <glyph glyph-name="uni1E14" unicode="&#x1e14;" horiz-adv-x="979" 
d="M253 85l-68 83h657l-31 -168h-763l246 1400h747l-31 -167h-642l99 82zM310 816h509l-31 -167h-510zM399 1586l24 135h597l-24 -135h-597zM927 1831l-315 116l35 189l302 -190z" />
    <glyph glyph-name="uni1E15" unicode="&#x1e15;" horiz-adv-x="871" 
d="M215 575q39 -16 75.5 -25t85.5 -9q113 0 176.5 30.5t89 74.5t25.5 84t-18.5 64.5t-49.5 36t-65 11.5q-65 0 -122 -34t-102.5 -108t-75.5 -194l-3 -3q-11 -145 17.5 -224.5t85.5 -110t129 -30.5q58 0 128 13t132 43l-11 -138q-54 -33 -129 -54.5t-166 -21.5
q-129 0 -213 55.5t-124.5 150t-40.5 211.5q0 118 37 226t105.5 193t162.5 134t208 49q135 0 205.5 -68t70.5 -176q0 -54 -23 -112.5t-74 -108.5t-134.5 -81t-204.5 -31q-55 0 -108 7.5t-85 20.5zM302 1165l24 135h597l-24 -135h-597zM830 1410l-315 116l35 189l302 -190z
" />
    <glyph glyph-name="uni1E16" unicode="&#x1e16;" horiz-adv-x="979" 
d="M253 85l-68 83h657l-31 -168h-763l246 1400h747l-31 -167h-642l99 82zM310 816h509l-31 -167h-510zM399 1586l24 135h597l-24 -135h-597zM613 1831l17 127l330 190l-30 -201z" />
    <glyph glyph-name="uni1E17" unicode="&#x1e17;" horiz-adv-x="871" 
d="M215 575q39 -16 75.5 -25t85.5 -9q113 0 176.5 30.5t89 74.5t25.5 84t-18.5 64.5t-49.5 36t-65 11.5q-65 0 -122 -34t-102.5 -108t-75.5 -194l-3 -3q-11 -145 17.5 -224.5t85.5 -110t129 -30.5q58 0 128 13t132 43l-11 -138q-54 -33 -129 -54.5t-166 -21.5
q-129 0 -213 55.5t-124.5 150t-40.5 211.5q0 118 37 226t105.5 193t162.5 134t208 49q135 0 205.5 -68t70.5 -176q0 -54 -23 -112.5t-74 -108.5t-134.5 -81t-204.5 -31q-55 0 -108 7.5t-85 20.5zM302 1165l24 135h597l-24 -135h-597zM516 1410l17 127l330 190l-30 -201z" />
    <glyph glyph-name="uni1E1C" unicode="&#x1e1c;" horiz-adv-x="979" 
d="M253 85l-68 83h657l-31 -168h-763l246 1400h747l-31 -167h-642l99 82zM310 816h509l-31 -167h-510zM429 -158l-58 30q25 9 47.5 14.5t47.5 5.5q67 0 104 -34.5t37 -94.5q0 -92 -68.5 -152.5t-169.5 -60.5q-47 0 -82 11.5t-60 26.5l48 97q26 -17 54 -25.5t59 -8.5
q50 0 78 25.5t28 63.5q0 68 -83 68q-20 0 -42.5 -3.5t-48.5 -12.5l88 208h96zM691 1528q-126 0 -183.5 57t-57.5 135q0 10 1.5 21t2.5 25h152q-1 -6 -1.5 -12.5t-0.5 -11.5q0 -46 30 -68.5t75 -22.5q53 0 95 28.5t52 86.5h153q-18 -104 -98.5 -171t-219.5 -67z" />
    <glyph glyph-name="uni1E1D" unicode="&#x1e1d;" horiz-adv-x="871" 
d="M215 575q39 -16 75.5 -25t85.5 -9q113 0 176.5 30.5t89 74.5t25.5 84t-18.5 64.5t-49.5 36t-65 11.5q-65 0 -122 -34t-102.5 -108t-75.5 -194l-3 -3q-11 -145 17.5 -224.5t85.5 -110t129 -30.5q58 0 128 13t132 43l-11 -138q-54 -33 -129 -54.5t-166 -21.5
q-129 0 -213 55.5t-124.5 150t-40.5 211.5q0 118 37 226t105.5 193t162.5 134t208 49q135 0 205.5 -68t70.5 -176q0 -54 -23 -112.5t-74 -108.5t-134.5 -81t-204.5 -31q-55 0 -108 7.5t-85 20.5zM419 -158l-58 30q25 9 47.5 14.5t47.5 5.5q67 0 104 -34.5t37 -94.5
q0 -92 -68.5 -152.5t-169.5 -60.5q-47 0 -82 11.5t-60 26.5l48 97q26 -17 54 -25.5t59 -8.5q50 0 78 25.5t28 63.5q0 68 -83 68q-20 0 -42.5 -3.5t-48.5 -12.5l88 208h96zM613 1151q-121 0 -177.5 59t-56.5 139q0 17 2 29t6 25h147q-2 -6 -3.5 -15.5t-1.5 -19.5
q0 -42 27 -64t72 -22q51 0 91 30t50 91h159q-18 -106 -98.5 -179t-216.5 -73z" />
    <glyph glyph-name="uni1E20" unicode="&#x1e20;" horiz-adv-x="1177" 
d="M599 -28q-148 0 -263 70t-181 201.5t-66 316.5q0 184 57.5 342t158.5 276t235.5 184t287.5 66q62 0 127 -10.5t123 -28.5t97 -41l-49 -161q-68 30 -153.5 52t-166.5 22q-125 0 -221 -59.5t-161 -159t-98 -222.5t-33 -251q0 -193 82.5 -311t257.5 -118q49 0 118.5 13.5
t127.5 54.5l-70 -112l91 519l68 -82h-249l31 169h352l-110 -624q-75 -43 -174 -74.5t-219 -31.5zM553 1586l24 135h597l-24 -135h-597z" />
    <glyph glyph-name="uni1E21" unicode="&#x1e21;" horiz-adv-x="873" 
d="M364 226q-136 0 -215 79t-79 237q0 116 51.5 220.5t146 170.5t222.5 66q134 0 211.5 -87.5t77.5 -233.5q0 -81 -29.5 -161t-84.5 -146t-131.5 -105.5t-169.5 -39.5zM385 361q69 0 120.5 45t79.5 116.5t28 150.5q0 91 -38.5 138t-109.5 47q-70 0 -121.5 -42.5
t-79.5 -111.5t-28 -149q0 -93 39.5 -143.5t109.5 -50.5zM266 -500q-131 0 -208.5 40.5t-111 99t-33.5 112.5q0 36 18.5 88t64 103t126.5 82l127 -47q-44 -12 -84 -44t-65.5 -73.5t-25.5 -82.5q0 -58 55 -99t159 -41q83 0 144.5 26t96 66t34.5 81q0 47 -37.5 73.5t-97.5 41.5
t-126.5 28t-126 31t-97 51t-37.5 89q0 29 32 82t108 88l89 -40q-24 -17 -39.5 -36.5t-15.5 -42.5q0 -34 51.5 -52t169.5 -46q44 -10 96 -26t98 -42t76 -67.5t30 -103.5q0 -82 -57.5 -160t-163 -128.5t-249.5 -50.5zM730 845l-55 74q37 27 93 45.5t121 18.5h30l-37 -118h-55
q-9 0 -41 -4.5t-56 -15.5zM222 1181l29 141h590l-28 -141h-591z" />
    <glyph glyph-name="uni1E24" unicode="&#x1e24;" horiz-adv-x="1305" 
d="M48 0l246 1400h186l-246 -1400h-186zM864 0l248 1400h186l-248 -1400h-186zM272 644l31 176h801l-34 -176h-798zM407 -343l36 179h175l-36 -179h-175z" />
    <glyph glyph-name="uni1E25" unicode="&#x1e25;" horiz-adv-x="962" 
d="M14 0l264 1500h180l-266 -1500h-178zM575 0l84 490q11 60 17 105t6 81q0 77 -38 121.5t-107 44.5q-71 0 -126 -40t-104 -104l28 160q63 77 129 109t148 32q86 0 141.5 -40.5t82.5 -108.5t27 -150q0 -36 -5.5 -88.5t-17.5 -119.5l-86 -492h-179zM240 -343l36 179h175
l-36 -179h-175z" />
    <glyph glyph-name="uni1E2A" unicode="&#x1e2a;" horiz-adv-x="1305" 
d="M48 0l246 1400h186l-246 -1400h-186zM864 0l248 1400h186l-248 -1400h-186zM272 644l31 176h801l-34 -176h-798zM486 -437q-121 0 -177.5 59t-56.5 139q0 17 2 29t6 25h147q-2 -6 -3.5 -15.5t-1.5 -19.5q0 -42 27 -64t72 -22q51 0 91 30t50 91h159q-18 -106 -98.5 -179
t-216.5 -73z" />
    <glyph glyph-name="uni1E2B" unicode="&#x1e2b;" horiz-adv-x="962" 
d="M14 0l264 1500h180l-266 -1500h-178zM575 0l84 490q11 60 17 105t6 81q0 77 -38 121.5t-107 44.5q-71 0 -126 -40t-104 -104l28 160q63 77 129 109t148 32q86 0 141.5 -40.5t82.5 -108.5t27 -150q0 -36 -5.5 -88.5t-17.5 -119.5l-86 -492h-179zM319 -437
q-121 0 -177.5 59t-56.5 139q0 17 2 29t6 25h147q-2 -6 -3.5 -15.5t-1.5 -19.5q0 -42 27 -64t72 -22q51 0 91 30t50 91h159q-18 -106 -98.5 -179t-216.5 -73z" />
    <glyph glyph-name="uni1E2E" unicode="&#x1e2e;" horiz-adv-x="487" 
d="M48 0l246 1400h186l-246 -1400h-186zM513 1589l29 149h160l-28 -149h-161zM164 1589l28 149h161l-29 -149h-160zM318 1850l17 127l330 190l-30 -201z" />
    <glyph glyph-name="uni1E2F" unicode="&#x1e2f;" horiz-adv-x="410" 
d="M14 0l172 979h179l-173 -979h-178zM402 1168l29 149h160l-28 -149h-161zM53 1168l28 149h161l-29 -149h-160zM207 1429l17 127l330 190l-30 -201z" />
    <glyph glyph-name="uni1E36" unicode="&#x1e36;" horiz-adv-x="887" 
d="M48 0l246 1400h186l-230 -1315l-68 83h611l-33 -168h-712zM296 -343l36 179h175l-36 -179h-175z" />
    <glyph glyph-name="uni1E37" unicode="&#x1e37;" horiz-adv-x="448" 
d="M224 -20q-99 0 -140 49.5t-41 118.5q0 20 4.5 53t15.5 95l210 1204h178l-210 -1222q-7 -39 -9 -53t-2 -26q0 -47 24 -62.5t79 -15.5l-48 -141h-61zM72 -343l36 179h175l-36 -179h-175z" />
    <glyph glyph-name="uni1E3A" unicode="&#x1e3a;" horiz-adv-x="887" 
d="M48 0l246 1400h186l-230 -1315l-68 83h611l-33 -168h-712zM98 -324l29 141h590l-28 -141h-591z" />
    <glyph glyph-name="uni1E3B" unicode="&#x1e3b;" horiz-adv-x="448" 
d="M224 -20q-99 0 -140 49.5t-41 118.5q0 20 4.5 53t15.5 95l210 1204h178l-210 -1222q-7 -39 -9 -53t-2 -26q0 -47 24 -62.5t79 -15.5l-48 -141h-61zM-126 -324l29 141h590l-28 -141h-591z" />
    <glyph glyph-name="uni1E42" unicode="&#x1e42;" horiz-adv-x="1432" 
d="M-11 0l410 1400h168l192 -779l-66 10l459 769h167l-83 -1400h-196l80 1122l40 -14l-488 -773l-224 784h48l-311 -1119h-196zM469 -343l36 179h175l-36 -179h-175z" />
    <glyph glyph-name="uni1E43" unicode="&#x1e43;" horiz-adv-x="1519" 
d="M14 0l172 979h142l-2 -221l-134 -758h-178zM574 0q32 185 52 303.5t32 188.5t17 105t6 49.5t1 26.5q0 98 -39 133.5t-104 35.5q-72 0 -130 -35t-100 -111l4 161q73 85 135.5 113.5t135.5 28.5q58 0 113 -20.5t95 -82t51 -184.5l30 -26l-121 -686h-178zM1133 0
q32 184 53 304.5t33 193t17.5 109.5t7 53t1.5 26q0 78 -35 117t-109 39q-86 0 -137 -45.5t-76 -109.5t-35 -122l-54 167q28 85 77.5 145t120 91t162.5 31q132 0 200 -66.5t68 -204.5q0 -14 -1.5 -35t-8 -63t-19 -118.5t-33.5 -201t-54 -310.5h-178zM519 -343l36 179h175
l-36 -179h-175z" />
    <glyph glyph-name="uni1E44" unicode="&#x1e44;" horiz-adv-x="1240" 
d="M48 0l246 1400h194l406 -1135l-46 -4l197 1139h188l-248 -1400h-156l-432 1193l46 4l-209 -1197h-186zM710 1582l32 179h179l-32 -179h-179z" />
    <glyph glyph-name="uni1E45" unicode="&#x1e45;" horiz-adv-x="977" 
d="M14 0l172 979h152l-13 -257l-133 -722h-178zM590 0q31 177 51 293t32 186t17 107t6.5 54t1.5 28q0 90 -37 132t-117 42q-70 0 -131.5 -34.5t-103.5 -111.5l10 161q76 87 144.5 114.5t142.5 27.5q145 0 209 -80t64 -225q0 -15 -1.5 -35.5t-7 -60.5t-17 -112.5t-32 -190
t-52.5 -295.5h-179zM527 1182l36 179h175l-36 -179h-175z" />
    <glyph glyph-name="uni1E46" unicode="&#x1e46;" horiz-adv-x="1240" 
d="M48 0l246 1400h194l406 -1135l-46 -4l197 1139h188l-248 -1400h-156l-432 1193l46 4l-209 -1197h-186zM389 -343l36 179h175l-36 -179h-175z" />
    <glyph glyph-name="uni1E47" unicode="&#x1e47;" horiz-adv-x="977" 
d="M14 0l172 979h152l-13 -257l-133 -722h-178zM590 0q31 177 51 293t32 186t17 107t6.5 54t1.5 28q0 90 -37 132t-117 42q-70 0 -131.5 -34.5t-103.5 -111.5l10 161q76 87 144.5 114.5t142.5 27.5q145 0 209 -80t64 -225q0 -15 -1.5 -35.5t-7 -60.5t-17 -112.5t-32 -190
t-52.5 -295.5h-179zM248 -343l36 179h175l-36 -179h-175z" />
    <glyph glyph-name="uni1E48" unicode="&#x1e48;" horiz-adv-x="1240" 
d="M48 0l246 1400h194l406 -1135l-46 -4l197 1139h188l-248 -1400h-156l-432 1193l46 4l-209 -1197h-186zM191 -324l29 141h590l-28 -141h-591z" />
    <glyph glyph-name="uni1E49" unicode="&#x1e49;" horiz-adv-x="977" 
d="M14 0l172 979h152l-13 -257l-133 -722h-178zM590 0q31 177 51 293t32 186t17 107t6.5 54t1.5 28q0 90 -37 132t-117 42q-70 0 -131.5 -34.5t-103.5 -111.5l10 161q76 87 144.5 114.5t142.5 27.5q145 0 209 -80t64 -225q0 -15 -1.5 -35.5t-7 -60.5t-17 -112.5t-32 -190
t-52.5 -295.5h-179zM50 -324l29 141h590l-28 -141h-591z" />
    <glyph glyph-name="uni1E4C" unicode="&#x1e4c;" horiz-adv-x="1347" 
d="M571 -28q-149 0 -257.5 68.5t-167.5 198.5t-59 313q0 189 58 348.5t160 278t233.5 184t278.5 65.5q149 0 257.5 -68.5t167.5 -198t59 -313.5q0 -189 -58.5 -348.5t-160.5 -278t-233.5 -184t-277.5 -65.5zM604 140q111 0 202 57.5t156 156t100 223t35 258.5
q0 121 -32.5 217.5t-101.5 152.5t-179 56q-112 0 -202.5 -58t-155 -156.5t-99 -222.5t-34.5 -258q0 -120 32 -216.5t100.5 -153t178.5 -56.5zM995 1577q-40 0 -85 19.5t-87 39t-73 19.5q-24 0 -42.5 -16.5t-22.5 -51.5h-125q17 98 64 149t114 51q42 0 86 -19.5t85.5 -39.5
t76.5 -20q26 0 43 19t22 50h125q-16 -99 -64 -149.5t-117 -50.5zM756 1882l17 127l330 190l-30 -201z" />
    <glyph glyph-name="uni1E4D" unicode="&#x1e4d;" horiz-adv-x="978" 
d="M388 -20q-118 0 -195.5 53.5t-116 145.5t-38.5 207q0 123 38.5 233.5t108.5 196t165 134.5t207 49q118 0 195.5 -54t116 -146.5t38.5 -207.5q0 -122 -39 -232t-108.5 -195.5t-164.5 -134.5t-207 -49zM415 138q93 0 162.5 58.5t108 158.5t38.5 223q0 133 -49.5 198.5
t-144.5 65.5q-93 0 -162.5 -59t-108 -158.5t-38.5 -222.5q0 -131 48.5 -197.5t145.5 -66.5zM741 1156q-40 0 -85 19.5t-87 39t-73 19.5q-24 0 -42.5 -16.5t-22.5 -51.5h-125q17 98 64 149t114 51q42 0 86 -19.5t85.5 -39.5t76.5 -20q26 0 43 19t22 50h125
q-16 -99 -64 -149.5t-117 -50.5zM502 1461l17 127l330 190l-30 -201z" />
    <glyph glyph-name="uni1E4E" unicode="&#x1e4e;" horiz-adv-x="1347" 
d="M571 -28q-149 0 -257.5 68.5t-167.5 198.5t-59 313q0 189 58 348.5t160 278t233.5 184t278.5 65.5q149 0 257.5 -68.5t167.5 -198t59 -313.5q0 -189 -58.5 -348.5t-160.5 -278t-233.5 -184t-277.5 -65.5zM604 140q111 0 202 57.5t156 156t100 223t35 258.5
q0 121 -32.5 217.5t-101.5 152.5t-179 56q-112 0 -202.5 -58t-155 -156.5t-99 -222.5t-34.5 -258q0 -120 32 -216.5t100.5 -153t178.5 -56.5zM995 1577q-40 0 -85 19.5t-87 39t-73 19.5q-24 0 -42.5 -16.5t-22.5 -51.5h-125q17 98 64 149t114 51q42 0 86 -19.5t85.5 -39.5
t76.5 -20q26 0 43 19t22 50h125q-16 -99 -64 -149.5t-117 -50.5zM1005 1942l29 149h160l-28 -149h-161zM656 1942l28 149h161l-29 -149h-160z" />
    <glyph glyph-name="uni1E4F" unicode="&#x1e4f;" horiz-adv-x="978" 
d="M388 -20q-118 0 -195.5 53.5t-116 145.5t-38.5 207q0 123 38.5 233.5t108.5 196t165 134.5t207 49q118 0 195.5 -54t116 -146.5t38.5 -207.5q0 -122 -39 -232t-108.5 -195.5t-164.5 -134.5t-207 -49zM415 138q93 0 162.5 58.5t108 158.5t38.5 223q0 133 -49.5 198.5
t-144.5 65.5q-93 0 -162.5 -59t-108 -158.5t-38.5 -222.5q0 -131 48.5 -197.5t145.5 -66.5zM741 1156q-40 0 -85 19.5t-87 39t-73 19.5q-24 0 -42.5 -16.5t-22.5 -51.5h-125q17 98 64 149t114 51q42 0 86 -19.5t85.5 -39.5t76.5 -20q26 0 43 19t22 50h125
q-16 -99 -64 -149.5t-117 -50.5zM751 1521l29 149h160l-28 -149h-161zM402 1521l28 149h161l-29 -149h-160z" />
    <glyph glyph-name="uni1E50" unicode="&#x1e50;" horiz-adv-x="1347" 
d="M571 -28q-149 0 -257.5 68.5t-167.5 198.5t-59 313q0 189 58 348.5t160 278t233.5 184t278.5 65.5q149 0 257.5 -68.5t167.5 -198t59 -313.5q0 -189 -58.5 -348.5t-160.5 -278t-233.5 -184t-277.5 -65.5zM604 140q111 0 202 57.5t156 156t100 223t35 258.5
q0 121 -32.5 217.5t-101.5 152.5t-179 56q-112 0 -202.5 -58t-155 -156.5t-99 -222.5t-34.5 -258q0 -120 32 -216.5t100.5 -153t178.5 -56.5zM552 1586l24 135h597l-24 -135h-597zM1079 1831l-315 116l35 189l302 -190z" />
    <glyph glyph-name="uni1E51" unicode="&#x1e51;" horiz-adv-x="978" 
d="M388 -20q-118 0 -195.5 53.5t-116 145.5t-38.5 207q0 123 38.5 233.5t108.5 196t165 134.5t207 49q118 0 195.5 -54t116 -146.5t38.5 -207.5q0 -122 -39 -232t-108.5 -195.5t-164.5 -134.5t-207 -49zM415 138q93 0 162.5 58.5t108 158.5t38.5 223q0 133 -49.5 198.5
t-144.5 65.5q-93 0 -162.5 -59t-108 -158.5t-38.5 -222.5q0 -131 48.5 -197.5t145.5 -66.5zM298 1165l24 135h597l-24 -135h-597zM825 1410l-315 116l35 189l302 -190z" />
    <glyph glyph-name="uni1E52" unicode="&#x1e52;" horiz-adv-x="1347" 
d="M571 -28q-149 0 -257.5 68.5t-167.5 198.5t-59 313q0 189 58 348.5t160 278t233.5 184t278.5 65.5q149 0 257.5 -68.5t167.5 -198t59 -313.5q0 -189 -58.5 -348.5t-160.5 -278t-233.5 -184t-277.5 -65.5zM604 140q111 0 202 57.5t156 156t100 223t35 258.5
q0 121 -32.5 217.5t-101.5 152.5t-179 56q-112 0 -202.5 -58t-155 -156.5t-99 -222.5t-34.5 -258q0 -120 32 -216.5t100.5 -153t178.5 -56.5zM552 1586l24 135h597l-24 -135h-597zM766 1831l17 127l330 190l-30 -201z" />
    <glyph glyph-name="uni1E53" unicode="&#x1e53;" horiz-adv-x="978" 
d="M388 -20q-118 0 -195.5 53.5t-116 145.5t-38.5 207q0 123 38.5 233.5t108.5 196t165 134.5t207 49q118 0 195.5 -54t116 -146.5t38.5 -207.5q0 -122 -39 -232t-108.5 -195.5t-164.5 -134.5t-207 -49zM415 138q93 0 162.5 58.5t108 158.5t38.5 223q0 133 -49.5 198.5
t-144.5 65.5q-93 0 -162.5 -59t-108 -158.5t-38.5 -222.5q0 -131 48.5 -197.5t145.5 -66.5zM298 1165l24 135h597l-24 -135h-597zM512 1410l17 127l330 190l-30 -201z" />
    <glyph glyph-name="uni1E5A" unicode="&#x1e5a;" horiz-adv-x="1077" 
d="M48 0l246 1400h372q195 0 292.5 -84t97.5 -255q0 -111 -31 -196t-85.5 -145.5t-123.5 -98t-145.5 -55.5t-152.5 -18h-270l30 176h307q89 0 150 45t92 117.5t31 156.5q0 82 -39 141.5t-144 59.5h-304l101 70l-233 -1314h-191zM737 0l-175 582l188 50l184 -632h-197z
M344 -343l36 179h175l-36 -179h-175z" />
    <glyph glyph-name="uni1E5B" unicode="&#x1e5b;" horiz-adv-x="586" 
d="M14 0l172 979h157l-21 -270l-125 -709h-183zM312 681l3 116q53 76 104 124.5t102 71.5t103 23h30l-71 -196h-65q-38 0 -79.5 -20.5t-75.5 -53t-51 -65.5zM-39 -343l36 179h175l-36 -179h-175z" />
    <glyph glyph-name="uni1E5E" unicode="&#x1e5e;" horiz-adv-x="1077" 
d="M48 0l246 1400h372q195 0 292.5 -84t97.5 -255q0 -111 -31 -196t-85.5 -145.5t-123.5 -98t-145.5 -55.5t-152.5 -18h-270l30 176h307q89 0 150 45t92 117.5t31 156.5q0 82 -39 141.5t-144 59.5h-304l101 70l-233 -1314h-191zM737 0l-175 582l188 50l184 -632h-197z
M146 -324l29 141h590l-28 -141h-591z" />
    <glyph glyph-name="uni1E5F" unicode="&#x1e5f;" horiz-adv-x="586" 
d="M14 0l172 979h157l-21 -270l-125 -709h-183zM312 681l3 116q53 76 104 124.5t102 71.5t103 23h30l-71 -196h-65q-38 0 -79.5 -20.5t-75.5 -53t-51 -65.5zM-237 -324l29 141h590l-28 -141h-591z" />
    <glyph glyph-name="uni1E60" unicode="&#x1e60;" horiz-adv-x="1021" 
d="M385 -28q-131 0 -229 28t-149 62l64 217q55 -49 141 -94t203 -45q81 0 149.5 26t110.5 81t42 140q0 74 -33.5 120t-90.5 77t-125 59q-55 23 -111.5 48t-102.5 60t-74.5 86.5t-28.5 127.5q0 66 29 146t89.5 152t157.5 118.5t232 46.5q120 0 214 -30t150 -65l-55 -198
q-79 62 -154.5 94t-170.5 32q-62 0 -128.5 -25t-112.5 -77.5t-46 -134.5q0 -84 59.5 -126.5t154.5 -82.5q63 -26 126 -54t115.5 -69t84.5 -103.5t32 -158.5q0 -80 -27.5 -160.5t-90 -148t-167 -108.5t-258.5 -41zM600 1582l32 179h179l-32 -179h-179z" />
    <glyph glyph-name="uni1E61" unicode="&#x1e61;" horiz-adv-x="741" 
d="M259 -20q-113 0 -181.5 32t-100.5 55l49 172q30 -28 95 -64t155 -36q87 0 129 40t42 103q0 70 -43 98.5t-93 44.5q-53 17 -102.5 40.5t-81 67.5t-31.5 124q0 76 37.5 155t119 133t214.5 54q86 0 144 -20.5t92 -42.5l-48 -162q-32 37 -83.5 61t-118.5 24
q-78 0 -128.5 -39.5t-50.5 -112.5q0 -61 45 -87t124 -54q43 -15 87 -40t73.5 -72t29.5 -129q0 -43 -15.5 -101.5t-55.5 -114t-113.5 -92.5t-189.5 -37zM407 1182l36 179h175l-36 -179h-175z" />
    <glyph glyph-name="uni1E62" unicode="&#x1e62;" horiz-adv-x="1021" 
d="M385 -28q-131 0 -229 28t-149 62l64 217q55 -49 141 -94t203 -45q81 0 149.5 26t110.5 81t42 140q0 74 -33.5 120t-90.5 77t-125 59q-55 23 -111.5 48t-102.5 60t-74.5 86.5t-28.5 127.5q0 66 29 146t89.5 152t157.5 118.5t232 46.5q120 0 214 -30t150 -65l-55 -198
q-79 62 -154.5 94t-170.5 32q-62 0 -128.5 -25t-112.5 -77.5t-46 -134.5q0 -84 59.5 -126.5t154.5 -82.5q63 -26 126 -54t115.5 -69t84.5 -103.5t32 -158.5q0 -80 -27.5 -160.5t-90 -148t-167 -108.5t-258.5 -41zM292 -343l36 179h175l-36 -179h-175z" />
    <glyph glyph-name="uni1E63" unicode="&#x1e63;" horiz-adv-x="741" 
d="M259 -20q-113 0 -181.5 32t-100.5 55l49 172q30 -28 95 -64t155 -36q87 0 129 40t42 103q0 70 -43 98.5t-93 44.5q-53 17 -102.5 40.5t-81 67.5t-31.5 124q0 76 37.5 155t119 133t214.5 54q86 0 144 -20.5t92 -42.5l-48 -162q-32 37 -83.5 61t-118.5 24
q-78 0 -128.5 -39.5t-50.5 -112.5q0 -61 45 -87t124 -54q43 -15 87 -40t73.5 -72t29.5 -129q0 -43 -15.5 -101.5t-55.5 -114t-113.5 -92.5t-189.5 -37zM124 -343l36 179h175l-36 -179h-175z" />
    <glyph glyph-name="uni1E64" unicode="&#x1e64;" horiz-adv-x="1021" 
d="M385 -28q-131 0 -229 28t-149 62l64 217q55 -49 141 -94t203 -45q81 0 149.5 26t110.5 81t42 140q0 74 -33.5 120t-90.5 77t-125 59q-55 23 -111.5 48t-102.5 60t-74.5 86.5t-28.5 127.5q0 66 29 146t89.5 152t157.5 118.5t232 46.5q120 0 214 -30t150 -65l-55 -198
q-79 62 -154.5 94t-170.5 32q-62 0 -128.5 -25t-112.5 -77.5t-46 -134.5q0 -84 59.5 -126.5t154.5 -82.5q63 -26 126 -54t115.5 -69t84.5 -103.5t32 -158.5q0 -80 -27.5 -160.5t-90 -148t-167 -108.5t-258.5 -41zM533 1529l17 127l330 190l-30 -201zM669 1946l32 179h179
l-32 -179h-179z" />
    <glyph glyph-name="uni1E65" unicode="&#x1e65;" horiz-adv-x="741" 
d="M259 -20q-113 0 -181.5 32t-100.5 55l49 172q30 -28 95 -64t155 -36q87 0 129 40t42 103q0 70 -43 98.5t-93 44.5q-53 17 -102.5 40.5t-81 67.5t-31.5 124q0 76 37.5 155t119 133t214.5 54q86 0 144 -20.5t92 -42.5l-48 -162q-32 37 -83.5 61t-118.5 24
q-78 0 -128.5 -39.5t-50.5 -112.5q0 -61 45 -87t124 -54q43 -15 87 -40t73.5 -72t29.5 -129q0 -43 -15.5 -101.5t-55.5 -114t-113.5 -92.5t-189.5 -37zM332 1109l17 127l330 190l-30 -201zM469 1526l32 179h179l-32 -179h-179z" />
    <glyph glyph-name="uni1E66" unicode="&#x1e66;" horiz-adv-x="1021" 
d="M385 -28q-131 0 -229 28t-149 62l64 217q55 -49 141 -94t203 -45q81 0 149.5 26t110.5 81t42 140q0 74 -33.5 120t-90.5 77t-125 59q-55 23 -111.5 48t-102.5 60t-74.5 86.5t-28.5 127.5q0 66 29 146t89.5 152t157.5 118.5t232 46.5q120 0 214 -30t150 -65l-55 -198
q-79 62 -154.5 94t-170.5 32q-62 0 -128.5 -25t-112.5 -77.5t-46 -134.5q0 -84 59.5 -126.5t154.5 -82.5q63 -26 126 -54t115.5 -69t84.5 -103.5t32 -158.5q0 -80 -27.5 -160.5t-90 -148t-167 -108.5t-258.5 -41zM669 1507l-208 180l19 112l219 -122l229 122l-20 -128z
M653 1878l32 179h179l-32 -179h-179z" />
    <glyph glyph-name="uni1E67" unicode="&#x1e67;" horiz-adv-x="741" 
d="M259 -20q-113 0 -181.5 32t-100.5 55l49 172q30 -28 95 -64t155 -36q87 0 129 40t42 103q0 70 -43 98.5t-93 44.5q-53 17 -102.5 40.5t-81 67.5t-31.5 124q0 76 37.5 155t119 133t214.5 54q86 0 144 -20.5t92 -42.5l-48 -162q-32 37 -83.5 61t-118.5 24
q-78 0 -128.5 -39.5t-50.5 -112.5q0 -61 45 -87t124 -54q43 -15 87 -40t73.5 -72t29.5 -129q0 -43 -15.5 -101.5t-55.5 -114t-113.5 -92.5t-189.5 -37zM468 1087l-208 180l19 112l219 -122l229 122l-20 -128zM453 1458l32 179h179l-32 -179h-179z" />
    <glyph glyph-name="uni1E68" unicode="&#x1e68;" horiz-adv-x="1021" 
d="M385 -28q-131 0 -229 28t-149 62l64 217q55 -49 141 -94t203 -45q81 0 149.5 26t110.5 81t42 140q0 74 -33.5 120t-90.5 77t-125 59q-55 23 -111.5 48t-102.5 60t-74.5 86.5t-28.5 127.5q0 66 29 146t89.5 152t157.5 118.5t232 46.5q120 0 214 -30t150 -65l-55 -198
q-79 62 -154.5 94t-170.5 32q-62 0 -128.5 -25t-112.5 -77.5t-46 -134.5q0 -84 59.5 -126.5t154.5 -82.5q63 -26 126 -54t115.5 -69t84.5 -103.5t32 -158.5q0 -80 -27.5 -160.5t-90 -148t-167 -108.5t-258.5 -41zM600 1582l32 179h179l-32 -179h-179zM292 -343l36 179h175
l-36 -179h-175z" />
    <glyph glyph-name="uni1E69" unicode="&#x1e69;" horiz-adv-x="741" 
d="M259 -20q-113 0 -181.5 32t-100.5 55l49 172q30 -28 95 -64t155 -36q87 0 129 40t42 103q0 70 -43 98.5t-93 44.5q-53 17 -102.5 40.5t-81 67.5t-31.5 124q0 76 37.5 155t119 133t214.5 54q86 0 144 -20.5t92 -42.5l-48 -162q-32 37 -83.5 61t-118.5 24
q-78 0 -128.5 -39.5t-50.5 -112.5q0 -61 45 -87t124 -54q43 -15 87 -40t73.5 -72t29.5 -129q0 -43 -15.5 -101.5t-55.5 -114t-113.5 -92.5t-189.5 -37zM407 1182l36 179h175l-36 -179h-175zM124 -343l36 179h175l-36 -179h-175z" />
    <glyph glyph-name="uni1E6C" unicode="&#x1e6c;" horiz-adv-x="996" 
d="M301 0l223 1279h186l-223 -1279h-186zM171 1233l31 167h876l-31 -167h-876zM251 -343l36 179h175l-36 -179h-175z" />
    <glyph glyph-name="uni1E6D" unicode="&#x1e6d;" horiz-adv-x="579" 
d="M278 -20q-102 0 -144 53.5t-42 124.5q0 6 2 22.5t10.5 69t27.5 164.5t53.5 307.5t88.5 500.5l181 18l-177 -1041q-1 -56 30.5 -67t106.5 -11h48l-41 -141h-144zM71 843l41 136h505l-27 -136h-519zM142 -343l36 179h175l-36 -179h-175z" />
    <glyph glyph-name="uni1E6E" unicode="&#x1e6e;" horiz-adv-x="996" 
d="M301 0l223 1279h186l-223 -1279h-186zM171 1233l31 167h876l-31 -167h-876zM53 -324l29 141h590l-28 -141h-591z" />
    <glyph glyph-name="uni1E6F" unicode="&#x1e6f;" horiz-adv-x="579" 
d="M278 -20q-102 0 -144 53.5t-42 124.5q0 6 2 22.5t10.5 69t27.5 164.5t53.5 307.5t88.5 500.5l181 18l-177 -1041q-1 -56 30.5 -67t106.5 -11h48l-41 -141h-144zM71 843l41 136h505l-27 -136h-519zM-56 -324l29 141h590l-28 -141h-591z" />
    <glyph glyph-name="uni1E78" unicode="&#x1e78;" horiz-adv-x="1267" 
d="M527 -28q-206 0 -305.5 113t-99.5 314q0 42 5 93t14 102l142 806h185l-126 -714q-11 -63 -17.5 -123t-6.5 -114q0 -88 22 -158t74 -110.5t144 -40.5q105 0 175.5 50.5t116 132.5t72 177.5t42.5 185.5l125 714h186l-142 -806q-34 -192 -112.5 -331.5t-202 -215
t-291.5 -75.5zM964 1577q-40 0 -85 19.5t-87 39t-73 19.5q-24 0 -42.5 -16.5t-22.5 -51.5h-125q17 98 64 149t114 51q42 0 86 -19.5t85.5 -39.5t76.5 -20q26 0 43 19t22 50h125q-16 -99 -64 -149.5t-117 -50.5zM725 1882l17 127l330 190l-30 -201z" />
    <glyph glyph-name="uni1E79" unicode="&#x1e79;" horiz-adv-x="942" 
d="M322 -20q-125 0 -192 73t-67 206q0 23 4 59.5t12 82.5l98 578h178l-94 -549q-5 -31 -8.5 -60.5t-3.5 -51.5q0 -181 145 -181q59 0 113 31.5t94 98.5l-23 -145q-49 -62 -111 -102t-145 -40zM562 0l10 129l147 850h178l-172 -979h-163zM714 1156q-40 0 -85 19.5t-87 39
t-73 19.5q-24 0 -42.5 -16.5t-22.5 -51.5h-125q17 98 64 149t114 51q42 0 86 -19.5t85.5 -39.5t76.5 -20q26 0 43 19t22 50h125q-16 -99 -64 -149.5t-117 -50.5zM475 1461l17 127l330 190l-30 -201z" />
    <glyph glyph-name="uni1E7A" unicode="&#x1e7a;" horiz-adv-x="1267" 
d="M527 -28q-206 0 -305.5 113t-99.5 314q0 42 5 93t14 102l142 806h185l-126 -714q-11 -63 -17.5 -123t-6.5 -114q0 -88 22 -158t74 -110.5t144 -40.5q105 0 175.5 50.5t116 132.5t72 177.5t42.5 185.5l125 714h186l-142 -806q-34 -192 -112.5 -331.5t-202 -215
t-291.5 -75.5zM521 1586l24 135h597l-24 -135h-597zM985 1891l29 149h160l-28 -149h-161zM636 1891l28 149h161l-29 -149h-160z" />
    <glyph glyph-name="uni1E7B" unicode="&#x1e7b;" horiz-adv-x="942" 
d="M322 -20q-125 0 -192 73t-67 206q0 23 4 59.5t12 82.5l98 578h178l-94 -549q-5 -31 -8.5 -60.5t-3.5 -51.5q0 -181 145 -181q59 0 113 31.5t94 98.5l-23 -145q-49 -62 -111 -102t-145 -40zM562 0l10 129l147 850h178l-172 -979h-163zM271 1165l24 135h597l-24 -135h-597z
M734 1470l29 149h160l-28 -149h-161zM385 1470l28 149h161l-29 -149h-160z" />
    <glyph glyph-name="Wgrave" unicode="&#x1e80;" horiz-adv-x="1687" 
d="M272 0l-88 1400h195l47 -1257l-38 7l509 1221h184l79 -1228l-38 6l488 1251h193l-597 -1400h-184l-85 1244l42 -6l-516 -1238h-191zM1180 1529l-315 116l35 189l302 -190z" />
    <glyph glyph-name="wgrave" unicode="&#x1e81;" horiz-adv-x="1258" 
d="M176 0l-78 979h192l21 -870l-36 6l335 833h168l45 -839l-37 5l323 865h193l-425 -979h-176l-54 812l41 -7l-338 -805h-174zM892 1153l-312 137l35 194l300 -211z" />
    <glyph glyph-name="Wacute" unicode="&#x1e82;" horiz-adv-x="1687" 
d="M272 0l-88 1400h195l47 -1257l-38 7l509 1221h184l79 -1228l-38 6l488 1251h193l-597 -1400h-184l-85 1244l42 -6l-516 -1238h-191zM866 1529l17 127l330 190l-30 -201z" />
    <glyph glyph-name="wacute" unicode="&#x1e83;" horiz-adv-x="1258" 
d="M176 0l-78 979h192l21 -870l-36 6l335 833h168l45 -839l-37 5l323 865h193l-425 -979h-176l-54 812l41 -7l-338 -805h-174zM569 1151l25 134l352 208l-35 -221z" />
    <glyph glyph-name="Wdieresis" unicode="&#x1e84;" horiz-adv-x="1687" 
d="M272 0l-88 1400h195l47 -1257l-38 7l509 1221h184l79 -1228l-38 6l488 1251h193l-597 -1400h-184l-85 1244l42 -6l-516 -1238h-191zM1116 1589l29 149h160l-28 -149h-161zM767 1589l28 149h161l-29 -149h-160z" />
    <glyph glyph-name="wdieresis" unicode="&#x1e85;" horiz-adv-x="1258" 
d="M176 0l-78 979h192l21 -870l-36 6l335 833h168l45 -839l-37 5l323 865h193l-425 -979h-176l-54 812l41 -7l-338 -805h-174zM475 1182l33 159h160l-32 -159h-161zM829 1182l32 159h160l-31 -159h-161z" />
    <glyph glyph-name="uni1E8E" unicode="&#x1e8e;" horiz-adv-x="1043" 
d="M318 0l129 730l14 -161l-305 831h196l239 -661l-80 10l455 651h197l-592 -820l66 150l-129 -730h-190zM602 1582l32 179h179l-32 -179h-179z" />
    <glyph glyph-name="uni1E8F" unicode="&#x1e8f;" horiz-adv-x="880" 
d="M-31 -484l328 600l-25 -155l-206 1018h199l132 -815l-53 7l396 808h198l-781 -1463h-188zM454 1181l36 179h175l-36 -179h-175z" />
    <glyph glyph-name="uni1E92" unicode="&#x1e92;" horiz-adv-x="952" 
d="M-81 0l868 1301l35 -68h-610l31 167h835l-871 -1301l-35 69h613l-32 -168h-834zM193 -343l36 179h175l-36 -179h-175z" />
    <glyph glyph-name="uni1E93" unicode="&#x1e93;" horiz-adv-x="818" 
d="M-59 0l641 911l32 -67h-509l26 135h714l-639 -911l-33 67h512l-27 -135h-717zM157 -343l36 179h175l-36 -179h-175z" />
    <glyph glyph-name="uni1E97" unicode="&#x1e97;" horiz-adv-x="579" 
d="M278 -20q-102 0 -144 53.5t-42 124.5q0 6 2 22.5t10.5 69t27.5 164.5t53.5 307.5t88.5 500.5l181 18l-177 -1041q-1 -56 30.5 -67t106.5 -11h48l-41 -141h-144zM71 843l41 136h505l-27 -136h-519zM145 1425l33 159h160l-32 -159h-161zM499 1425l32 159h160l-31 -159h-161
z" />
    <glyph glyph-name="uni1E9E" unicode="&#x1e9e;" horiz-adv-x="1099" 
d="M40 0l171 973q28 159 101 259.5t179.5 148t232.5 47.5q111 0 203 -29t161 -73l-34 -148l-334 -456l-73 83q170 1 271.5 -94.5t101.5 -262.5q0 -135 -61 -243t-167.5 -170.5t-246.5 -62.5q-46 0 -91 8t-82 20l34 166q31 -12 66.5 -19t75.5 -7q123 0 195.5 81.5t72.5 210.5
q0 111 -63 170t-173 67l-28 2l28 136l376 500l-10 -99q-46 24 -100 38t-124 14q-123 0 -211.5 -67.5t-113.5 -211.5l-171 -981h-186z" />
    <glyph glyph-name="uni1EA0" unicode="&#x1ea0;" horiz-adv-x="1080" 
d="M-75 0l675 1400h186l181 -1400h-195l-46 397l-26 135l-66 694l45 -7l-299 -686l-79 -138l-181 -395h-195zM222 381l93 167h454l30 -167h-577zM303 -343l36 179h175l-36 -179h-175z" />
    <glyph glyph-name="uni1EA1" unicode="&#x1ea1;" horiz-adv-x="1029" 
d="M346 -20q-94 0 -163 48t-107 134t-38 202q0 121 37 234t104 203.5t158.5 144t198.5 53.5q50 0 98 -15t86 -58.5t57 -127.5l-56 -3l65 184h157l-118 -695q-8 -47 -8 -80q0 -47 20 -65t68 -18l-49 -141q-52 0 -93 5t-70.5 27t-46.5 71t-21 138l47 -46q-40 -63 -89 -106.5
t-108 -66t-129 -22.5zM407 138q60 0 113 27.5t94.5 81.5t65 133t23.5 181q0 148 -52.5 214.5t-134.5 66.5t-148.5 -61t-105.5 -161t-39 -217q0 -110 43.5 -187.5t140.5 -77.5zM242 -343l36 179h175l-36 -179h-175z" />
    <glyph glyph-name="uni1EA2" unicode="&#x1ea2;" horiz-adv-x="1080" 
d="M-75 0l675 1400h186l181 -1400h-195l-46 397l-26 135l-66 694l45 -7l-299 -686l-79 -138l-181 -395h-195zM222 381l93 167h454l30 -167h-577zM681 1536q46 40 78.5 74t32.5 80q0 52 -64 52q-30 0 -61 -10.5t-64 -27.5l-14 101q35 18 75 28t84 10q67 0 112.5 -34t45.5 -99
q0 -78 -50.5 -134.5t-121.5 -105.5z" />
    <glyph glyph-name="uni1EA3" unicode="&#x1ea3;" horiz-adv-x="1029" 
d="M346 -20q-94 0 -163 48t-107 134t-38 202q0 121 37 234t104 203.5t158.5 144t198.5 53.5q50 0 98 -15t86 -58.5t57 -127.5l-56 -3l65 184h157l-118 -695q-8 -47 -8 -80q0 -47 20 -65t68 -18l-49 -141q-52 0 -93 5t-70.5 27t-46.5 71t-21 138l47 -46q-40 -63 -89 -106.5
t-108 -66t-129 -22.5zM407 138q60 0 113 27.5t94.5 81.5t65 133t23.5 181q0 148 -52.5 214.5t-134.5 66.5t-148.5 -61t-105.5 -161t-39 -217q0 -110 43.5 -187.5t140.5 -77.5zM602 1115q46 40 78.5 74t32.5 80q0 52 -64 52q-30 0 -61 -10.5t-64 -27.5l-14 101q35 18 75 28
t84 10q67 0 112.5 -34t45.5 -99q0 -78 -50.5 -134.5t-121.5 -105.5z" />
    <glyph glyph-name="uni1EA4" unicode="&#x1ea4;" horiz-adv-x="1080" 
d="M-75 0l675 1400h186l181 -1400h-195l-46 397l-26 135l-66 694l45 -7l-299 -686l-79 -138l-181 -395h-195zM222 381l93 167h454l30 -167h-577zM953 1506l-219 131l-219 -107l21 120l229 156l208 -180zM881 1797l156 224h185l-217 -224h-124z" />
    <glyph glyph-name="uni1EA5" unicode="&#x1ea5;" horiz-adv-x="1029" 
d="M346 -20q-94 0 -163 48t-107 134t-38 202q0 121 37 234t104 203.5t158.5 144t198.5 53.5q50 0 98 -15t86 -58.5t57 -127.5l-56 -3l65 184h157l-118 -695q-8 -47 -8 -80q0 -47 20 -65t68 -18l-49 -141q-52 0 -93 5t-70.5 27t-46.5 71t-21 138l47 -46q-40 -63 -89 -106.5
t-108 -66t-129 -22.5zM407 138q60 0 113 27.5t94.5 81.5t65 133t23.5 181q0 148 -52.5 214.5t-134.5 66.5t-148.5 -61t-105.5 -161t-39 -217q0 -110 43.5 -187.5t140.5 -77.5zM874 1085l-219 131l-219 -107l21 120l229 156l208 -180zM802 1376l156 224h185l-217 -224h-124z
" />
    <glyph glyph-name="uni1EA6" unicode="&#x1ea6;" horiz-adv-x="1080" 
d="M-75 0l675 1400h186l181 -1400h-195l-46 397l-26 135l-66 694l45 -7l-299 -686l-79 -138l-181 -395h-195zM222 381l93 167h454l30 -167h-577zM953 1506l-219 131l-219 -107l21 120l229 156l208 -180zM874 1797l-122 233h182l64 -233h-124z" />
    <glyph glyph-name="uni1EA7" unicode="&#x1ea7;" horiz-adv-x="1029" 
d="M346 -20q-94 0 -163 48t-107 134t-38 202q0 121 37 234t104 203.5t158.5 144t198.5 53.5q50 0 98 -15t86 -58.5t57 -127.5l-56 -3l65 184h157l-118 -695q-8 -47 -8 -80q0 -47 20 -65t68 -18l-49 -141q-52 0 -93 5t-70.5 27t-46.5 71t-21 138l47 -46q-40 -63 -89 -106.5
t-108 -66t-129 -22.5zM407 138q60 0 113 27.5t94.5 81.5t65 133t23.5 181q0 148 -52.5 214.5t-134.5 66.5t-148.5 -61t-105.5 -161t-39 -217q0 -110 43.5 -187.5t140.5 -77.5zM875 1085l-219 131l-219 -107l21 120l229 156l208 -180zM796 1376l-122 233h182l64 -233h-124z
" />
    <glyph glyph-name="uni1EA8" unicode="&#x1ea8;" horiz-adv-x="1080" 
d="M-75 0l675 1400h186l181 -1400h-195l-46 397l-26 135l-66 694l45 -7l-299 -686l-79 -138l-181 -395h-195zM222 381l93 167h454l30 -167h-577zM953 1507l-219 131l-219 -107l21 120l229 156l208 -180zM916 1744l-4 80q79 28 79 87q0 56 -66 56q-26 0 -56 -10.5t-61 -26.5
l-14 101q35 17 74 26.5t80 9.5q68 0 112.5 -34t44.5 -98q0 -76 -51.5 -124.5t-137.5 -66.5z" />
    <glyph glyph-name="uni1EA9" unicode="&#x1ea9;" horiz-adv-x="1029" 
d="M346 -20q-94 0 -163 48t-107 134t-38 202q0 121 37 234t104 203.5t158.5 144t198.5 53.5q50 0 98 -15t86 -58.5t57 -127.5l-56 -3l65 184h157l-118 -695q-8 -47 -8 -80q0 -47 20 -65t68 -18l-49 -141q-52 0 -93 5t-70.5 27t-46.5 71t-21 138l47 -46q-40 -63 -89 -106.5
t-108 -66t-129 -22.5zM407 138q60 0 113 27.5t94.5 81.5t65 133t23.5 181q0 148 -52.5 214.5t-134.5 66.5t-148.5 -61t-105.5 -161t-39 -217q0 -110 43.5 -187.5t140.5 -77.5zM874 1086l-219 131l-219 -107l21 120l229 156l208 -180zM837 1323l-4 80q79 28 79 87
q0 56 -66 56q-26 0 -56 -10.5t-61 -26.5l-14 101q35 17 74 26.5t80 9.5q68 0 112.5 -34t44.5 -98q0 -76 -51.5 -124.5t-137.5 -66.5z" />
    <glyph glyph-name="uni1EAA" unicode="&#x1eaa;" horiz-adv-x="1080" 
d="M-75 0l675 1400h186l181 -1400h-195l-46 397l-26 135l-66 694l45 -7l-299 -686l-79 -138l-181 -395h-195zM222 381l93 167h454l30 -167h-577zM952 1507l-218 131l-220 -107l21 120l229 156l209 -180zM926 1870q-41 0 -85.5 19.5t-86.5 39t-74 19.5q-23 0 -42 -16.5
t-23 -51.5h-124q17 97 63.5 148t113.5 51q43 0 86.5 -19.5t85 -39t77.5 -19.5q53 0 64 68h125q-15 -98 -63 -148.5t-117 -50.5z" />
    <glyph glyph-name="uni1EAB" unicode="&#x1eab;" horiz-adv-x="1029" 
d="M346 -20q-94 0 -163 48t-107 134t-38 202q0 121 37 234t104 203.5t158.5 144t198.5 53.5q50 0 98 -15t86 -58.5t57 -127.5l-56 -3l65 184h157l-118 -695q-8 -47 -8 -80q0 -47 20 -65t68 -18l-49 -141q-52 0 -93 5t-70.5 27t-46.5 71t-21 138l47 -46q-40 -63 -89 -106.5
t-108 -66t-129 -22.5zM407 138q60 0 113 27.5t94.5 81.5t65 133t23.5 181q0 148 -52.5 214.5t-134.5 66.5t-148.5 -61t-105.5 -161t-39 -217q0 -110 43.5 -187.5t140.5 -77.5zM874 1086l-218 131l-220 -107l21 120l229 156l209 -180zM848 1449q-41 0 -85.5 19.5t-86.5 39
t-74 19.5q-23 0 -42 -16.5t-23 -51.5h-124q17 97 63.5 148t113.5 51q43 0 86.5 -19.5t85 -39t77.5 -19.5q53 0 64 68h125q-15 -98 -63 -148.5t-117 -50.5z" />
    <glyph glyph-name="uni1EAC" unicode="&#x1eac;" horiz-adv-x="1080" 
d="M-75 0l675 1400h186l181 -1400h-195l-46 397l-26 135l-66 694l45 -7l-299 -686l-79 -138l-181 -395h-195zM222 381l93 167h454l30 -167h-577zM953 1507l-219 131l-219 -107l21 120l229 156l208 -180zM303 -343l36 179h175l-36 -179h-175z" />
    <glyph glyph-name="uni1EAD" unicode="&#x1ead;" horiz-adv-x="1029" 
d="M346 -20q-94 0 -163 48t-107 134t-38 202q0 121 37 234t104 203.5t158.5 144t198.5 53.5q50 0 98 -15t86 -58.5t57 -127.5l-56 -3l65 184h157l-118 -695q-8 -47 -8 -80q0 -47 20 -65t68 -18l-49 -141q-52 0 -93 5t-70.5 27t-46.5 71t-21 138l47 -46q-40 -63 -89 -106.5
t-108 -66t-129 -22.5zM407 138q60 0 113 27.5t94.5 81.5t65 133t23.5 181q0 148 -52.5 214.5t-134.5 66.5t-148.5 -61t-105.5 -161t-39 -217q0 -110 43.5 -187.5t140.5 -77.5zM435 1149l30 126l244 194l197 -220l-25 -120l-208 160zM242 -343l36 179h175l-36 -179h-175z" />
    <glyph glyph-name="uni1EAE" unicode="&#x1eae;" horiz-adv-x="1080" 
d="M-75 0l675 1400h186l181 -1400h-195l-46 397l-26 135l-66 694l45 -7l-299 -686l-79 -138l-181 -395h-195zM222 381l93 167h454l30 -167h-577zM731 1528q-126 0 -183.5 57.5t-57.5 134.5q0 11 1.5 21.5t2.5 24.5h152q-1 -6 -1.5 -12.5t-0.5 -11.5q0 -46 30 -68.5t75 -22.5
q53 0 95 28.5t52 86.5h153q-18 -104 -98.5 -171t-219.5 -67zM658 1855l17 127l330 190l-30 -201z" />
    <glyph glyph-name="uni1EAF" unicode="&#x1eaf;" horiz-adv-x="1029" 
d="M346 -20q-94 0 -163 48t-107 134t-38 202q0 121 37 234t104 203.5t158.5 144t198.5 53.5q50 0 98 -15t86 -58.5t57 -127.5l-56 -3l65 184h157l-118 -695q-8 -47 -8 -80q0 -47 20 -65t68 -18l-49 -141q-52 0 -93 5t-70.5 27t-46.5 71t-21 138l47 -46q-40 -63 -89 -106.5
t-108 -66t-129 -22.5zM407 138q60 0 113 27.5t94.5 81.5t65 133t23.5 181q0 148 -52.5 214.5t-134.5 66.5t-148.5 -61t-105.5 -161t-39 -217q0 -110 43.5 -187.5t140.5 -77.5zM652 1107q-126 0 -183.5 57.5t-57.5 134.5q0 11 1.5 21.5t2.5 24.5h152q-1 -6 -1.5 -12.5
t-0.5 -11.5q0 -46 30 -68.5t75 -22.5q53 0 95 28.5t52 86.5h153q-18 -104 -98.5 -171t-219.5 -67zM579 1434l17 127l330 190l-30 -201z" />
    <glyph glyph-name="uni1EB0" unicode="&#x1eb0;" horiz-adv-x="1080" 
d="M-75 0l675 1400h186l181 -1400h-195l-46 397l-26 135l-66 694l45 -7l-299 -686l-79 -138l-181 -395h-195zM222 381l93 167h454l30 -167h-577zM724 1526q-126 0 -183.5 57.5t-57.5 134.5q0 11 1.5 21.5t2.5 24.5h152q-1 -6 -1.5 -12.5t-0.5 -11.5q0 -46 30 -68.5t75 -22.5
q53 0 95 28.5t52 86.5h153q-18 -104 -98.5 -171t-219.5 -67zM964 1853l-315 116l35 189l303 -190z" />
    <glyph glyph-name="uni1EB1" unicode="&#x1eb1;" horiz-adv-x="1029" 
d="M346 -20q-94 0 -163 48t-107 134t-38 202q0 121 37 234t104 203.5t158.5 144t198.5 53.5q50 0 98 -15t86 -58.5t57 -127.5l-56 -3l65 184h157l-118 -695q-8 -47 -8 -80q0 -47 20 -65t68 -18l-49 -141q-52 0 -93 5t-70.5 27t-46.5 71t-21 138l47 -46q-40 -63 -89 -106.5
t-108 -66t-129 -22.5zM407 138q60 0 113 27.5t94.5 81.5t65 133t23.5 181q0 148 -52.5 214.5t-134.5 66.5t-148.5 -61t-105.5 -161t-39 -217q0 -110 43.5 -187.5t140.5 -77.5zM646 1105q-126 0 -183.5 57.5t-57.5 134.5q0 11 1.5 21.5t2.5 24.5h152q-1 -6 -1.5 -12.5
t-0.5 -11.5q0 -46 30 -68.5t75 -22.5q53 0 95 28.5t52 86.5h153q-18 -104 -98.5 -171t-219.5 -67zM886 1432l-315 116l35 189l303 -190z" />
    <glyph glyph-name="uni1EB2" unicode="&#x1eb2;" horiz-adv-x="1080" 
d="M-75 0l675 1400h186l181 -1400h-195l-46 397l-26 135l-66 694l45 -7l-299 -686l-79 -138l-181 -395h-195zM222 381l93 167h454l30 -167h-577zM745 1527q-126 0 -183.5 57.5t-57.5 134.5q0 11 1 21.5t3 24.5h152q-1 -6 -2 -12.5t-1 -11.5q0 -46 30.5 -68.5t75.5 -22.5
q52 0 94.5 28.5t52.5 86.5h152q-18 -104 -98.5 -171t-218.5 -67zM797 1798l-2 79q38 14 58 37t20 50q0 56 -66 56q-26 0 -56 -10.5t-60 -25.5l-14 101q33 17 72 26.5t82 9.5q67 0 111 -34.5t44 -97.5q0 -76 -50.5 -124.5t-138.5 -66.5z" />
    <glyph glyph-name="uni1EB3" unicode="&#x1eb3;" horiz-adv-x="1029" 
d="M346 -20q-94 0 -163 48t-107 134t-38 202q0 121 37 234t104 203.5t158.5 144t198.5 53.5q50 0 98 -15t86 -58.5t57 -127.5l-56 -3l65 184h157l-118 -695q-8 -47 -8 -80q0 -47 20 -65t68 -18l-49 -141q-52 0 -93 5t-70.5 27t-46.5 71t-21 138l47 -46q-40 -63 -89 -106.5
t-108 -66t-129 -22.5zM407 138q60 0 113 27.5t94.5 81.5t65 133t23.5 181q0 148 -52.5 214.5t-134.5 66.5t-148.5 -61t-105.5 -161t-39 -217q0 -110 43.5 -187.5t140.5 -77.5zM667 1106q-126 0 -183.5 57.5t-57.5 134.5q0 11 1 21.5t3 24.5h152q-1 -6 -2 -12.5t-1 -11.5
q0 -46 30.5 -68.5t75.5 -22.5q52 0 94.5 28.5t52.5 86.5h152q-18 -104 -98.5 -171t-218.5 -67zM719 1377l-2 79q38 14 58 37t20 50q0 56 -66 56q-26 0 -56 -10.5t-60 -25.5l-14 101q33 17 72 26.5t82 9.5q67 0 111 -34.5t44 -97.5q0 -76 -50.5 -124.5t-138.5 -66.5z" />
    <glyph glyph-name="uni1EB4" unicode="&#x1eb4;" horiz-adv-x="1080" 
d="M-75 0l675 1400h186l181 -1400h-195l-46 397l-26 135l-66 694l45 -7l-299 -686l-79 -138l-181 -395h-195zM222 381l93 167h454l30 -167h-577zM740 1528q-126 0 -183.5 57.5t-57.5 134.5q0 10 1 21.5t3 24.5h152q-1 -5 -2 -11t-1 -13q0 -46 30.5 -68.5t75.5 -22.5
q52 0 94.5 28.5t52.5 86.5h152q-18 -104 -98.5 -171t-218.5 -67zM958 1860q-40 0 -85 19.5t-87 39t-73 19.5q-24 0 -42.5 -16.5t-22.5 -51.5h-125q17 98 64 148.5t114 50.5q42 0 85.5 -19.5t85.5 -39t77 -19.5q26 0 43 18.5t22 49.5h125q-16 -98 -64 -148.5t-117 -50.5z" />
    <glyph glyph-name="uni1EB5" unicode="&#x1eb5;" horiz-adv-x="1029" 
d="M346 -20q-94 0 -163 48t-107 134t-38 202q0 121 37 234t104 203.5t158.5 144t198.5 53.5q50 0 98 -15t86 -58.5t57 -127.5l-56 -3l65 184h157l-118 -695q-8 -47 -8 -80q0 -47 20 -65t68 -18l-49 -141q-52 0 -93 5t-70.5 27t-46.5 71t-21 138l47 -46q-40 -63 -89 -106.5
t-108 -66t-129 -22.5zM407 138q60 0 113 27.5t94.5 81.5t65 133t23.5 181q0 148 -52.5 214.5t-134.5 66.5t-148.5 -61t-105.5 -161t-39 -217q0 -110 43.5 -187.5t140.5 -77.5zM661 1107q-126 0 -183.5 57.5t-57.5 134.5q0 10 1 21.5t3 24.5h152q-1 -5 -2 -11t-1 -13
q0 -46 30.5 -68.5t75.5 -22.5q52 0 94.5 28.5t52.5 86.5h152q-18 -104 -98.5 -171t-218.5 -67zM879 1439q-40 0 -85 19.5t-87 39t-73 19.5q-24 0 -42.5 -16.5t-22.5 -51.5h-125q17 98 64 148.5t114 50.5q42 0 85.5 -19.5t85.5 -39t77 -19.5q26 0 43 18.5t22 49.5h125
q-16 -98 -64 -148.5t-117 -50.5z" />
    <glyph glyph-name="uni1EB6" unicode="&#x1eb6;" horiz-adv-x="1080" 
d="M-75 0l675 1400h186l181 -1400h-195l-46 397l-26 135l-66 694l45 -7l-299 -686l-79 -138l-181 -395h-195zM222 381l93 167h454l30 -167h-577zM717 1528q-126 0 -183.5 57t-57.5 135q0 10 1.5 21t2.5 25h152q-1 -6 -1.5 -12.5t-0.5 -11.5q0 -46 30 -68.5t75 -22.5
q53 0 95 28.5t52 86.5h153q-18 -104 -98.5 -171t-219.5 -67zM303 -343l36 179h175l-36 -179h-175z" />
    <glyph glyph-name="uni1EB7" unicode="&#x1eb7;" horiz-adv-x="1029" 
d="M346 -20q-94 0 -163 48t-107 134t-38 202q0 121 37 234t104 203.5t158.5 144t198.5 53.5q50 0 98 -15t86 -58.5t57 -127.5l-56 -3l65 184h157l-118 -695q-8 -47 -8 -80q0 -47 20 -65t68 -18l-49 -141q-52 0 -93 5t-70.5 27t-46.5 71t-21 138l47 -46q-40 -63 -89 -106.5
t-108 -66t-129 -22.5zM407 138q60 0 113 27.5t94.5 81.5t65 133t23.5 181q0 148 -52.5 214.5t-134.5 66.5t-148.5 -61t-105.5 -161t-39 -217q0 -110 43.5 -187.5t140.5 -77.5zM658 1151q-121 0 -177.5 59t-56.5 139q0 17 2 29t6 25h147q-2 -6 -3.5 -15.5t-1.5 -19.5
q0 -42 27 -64t72 -22q51 0 91 30t50 91h159q-18 -106 -98.5 -179t-216.5 -73zM242 -343l36 179h175l-36 -179h-175z" />
    <glyph glyph-name="uni1EB8" unicode="&#x1eb8;" horiz-adv-x="979" 
d="M253 85l-68 83h657l-31 -168h-763l246 1400h747l-31 -167h-642l99 82zM310 816h509l-31 -167h-510zM305 -343l36 179h175l-36 -179h-175z" />
    <glyph glyph-name="uni1EB9" unicode="&#x1eb9;" horiz-adv-x="871" 
d="M215 575q39 -16 75.5 -25t85.5 -9q113 0 176.5 30.5t89 74.5t25.5 84t-18.5 64.5t-49.5 36t-65 11.5q-65 0 -122 -34t-102.5 -108t-75.5 -194l-3 -3q-11 -145 17.5 -224.5t85.5 -110t129 -30.5q58 0 128 13t132 43l-11 -138q-54 -33 -129 -54.5t-166 -21.5
q-129 0 -213 55.5t-124.5 150t-40.5 211.5q0 118 37 226t105.5 193t162.5 134t208 49q135 0 205.5 -68t70.5 -176q0 -54 -23 -112.5t-74 -108.5t-134.5 -81t-204.5 -31q-55 0 -108 7.5t-85 20.5zM295 -343l36 179h175l-36 -179h-175z" />
    <glyph glyph-name="uni1EBA" unicode="&#x1eba;" horiz-adv-x="979" 
d="M253 85l-68 83h657l-31 -168h-763l246 1400h747l-31 -167h-642l99 82zM310 816h509l-31 -167h-510zM654 1536q46 40 78.5 74t32.5 80q0 52 -64 52q-30 0 -61 -10.5t-64 -27.5l-14 101q35 18 75 28t84 10q67 0 112.5 -34t45.5 -99q0 -78 -50.5 -134.5t-121.5 -105.5z" />
    <glyph glyph-name="uni1EBB" unicode="&#x1ebb;" horiz-adv-x="871" 
d="M215 575q39 -16 75.5 -25t85.5 -9q113 0 176.5 30.5t89 74.5t25.5 84t-18.5 64.5t-49.5 36t-65 11.5q-65 0 -122 -34t-102.5 -108t-75.5 -194l-3 -3q-11 -145 17.5 -224.5t85.5 -110t129 -30.5q58 0 128 13t132 43l-11 -138q-54 -33 -129 -54.5t-166 -21.5
q-129 0 -213 55.5t-124.5 150t-40.5 211.5q0 118 37 226t105.5 193t162.5 134t208 49q135 0 205.5 -68t70.5 -176q0 -54 -23 -112.5t-74 -108.5t-134.5 -81t-204.5 -31q-55 0 -108 7.5t-85 20.5zM557 1115q46 40 78.5 74t32.5 80q0 52 -64 52q-30 0 -61 -10.5t-64 -27.5
l-14 101q35 18 75 28t84 10q67 0 112.5 -34t45.5 -99q0 -78 -50.5 -134.5t-121.5 -105.5z" />
    <glyph glyph-name="uni1EBC" unicode="&#x1ebc;" horiz-adv-x="979" 
d="M253 85l-68 83h657l-31 -168h-763l246 1400h747l-31 -167h-642l99 82zM310 816h509l-31 -167h-510zM851 1581q-40 0 -82.5 22.5t-82 44.5t-74.5 22q-29 0 -47.5 -19.5t-25.5 -53.5h-137q24 108 74.5 164.5t125.5 56.5q44 0 82.5 -22t75.5 -44t75 -22q29 0 47.5 19
t25.5 59h138q-26 -120 -74 -173.5t-121 -53.5z" />
    <glyph glyph-name="uni1EBD" unicode="&#x1ebd;" horiz-adv-x="871" 
d="M215 575q39 -16 75.5 -25t85.5 -9q113 0 176.5 30.5t89 74.5t25.5 84t-18.5 64.5t-49.5 36t-65 11.5q-65 0 -122 -34t-102.5 -108t-75.5 -194l-3 -3q-11 -145 17.5 -224.5t85.5 -110t129 -30.5q58 0 128 13t132 43l-11 -138q-54 -33 -129 -54.5t-166 -21.5
q-129 0 -213 55.5t-124.5 150t-40.5 211.5q0 118 37 226t105.5 193t162.5 134t208 49q135 0 205.5 -68t70.5 -176q0 -54 -23 -112.5t-74 -108.5t-134.5 -81t-204.5 -31q-55 0 -108 7.5t-85 20.5zM754 1160q-40 0 -82.5 22.5t-82 44.5t-74.5 22q-29 0 -47.5 -19.5
t-25.5 -53.5h-137q24 108 74.5 164.5t125.5 56.5q44 0 82.5 -22t75.5 -44t75 -22q29 0 47.5 19t25.5 59h138q-26 -120 -74 -173.5t-121 -53.5z" />
    <glyph glyph-name="uni1EBE" unicode="&#x1ebe;" horiz-adv-x="979" 
d="M253 85l-68 83h657l-31 -168h-763l246 1400h747l-31 -167h-642l99 82zM310 816h509l-31 -167h-510zM926 1506l-219 131l-219 -107l21 120l229 156l208 -180zM854 1797l156 224h185l-217 -224h-124z" />
    <glyph glyph-name="uni1EBF" unicode="&#x1ebf;" horiz-adv-x="871" 
d="M215 575q39 -16 75.5 -25t85.5 -9q113 0 176.5 30.5t89 74.5t25.5 84t-18.5 64.5t-49.5 36t-65 11.5q-65 0 -122 -34t-102.5 -108t-75.5 -194l-3 -3q-11 -145 17.5 -224.5t85.5 -110t129 -30.5q58 0 128 13t132 43l-11 -138q-54 -33 -129 -54.5t-166 -21.5
q-129 0 -213 55.5t-124.5 150t-40.5 211.5q0 118 37 226t105.5 193t162.5 134t208 49q135 0 205.5 -68t70.5 -176q0 -54 -23 -112.5t-74 -108.5t-134.5 -81t-204.5 -31q-55 0 -108 7.5t-85 20.5zM829 1085l-219 131l-219 -107l21 120l229 156l208 -180zM757 1376l156 224
h185l-217 -224h-124z" />
    <glyph glyph-name="uni1EC0" unicode="&#x1ec0;" horiz-adv-x="979" 
d="M253 85l-68 83h657l-31 -168h-763l246 1400h747l-31 -167h-642l99 82zM310 816h509l-31 -167h-510zM927 1506l-219 131l-219 -107l21 120l229 156l208 -180zM848 1797l-122 233h182l64 -233h-124z" />
    <glyph glyph-name="uni1EC1" unicode="&#x1ec1;" horiz-adv-x="871" 
d="M215 575q39 -16 75.5 -25t85.5 -9q113 0 176.5 30.5t89 74.5t25.5 84t-18.5 64.5t-49.5 36t-65 11.5q-65 0 -122 -34t-102.5 -108t-75.5 -194l-3 -3q-11 -145 17.5 -224.5t85.5 -110t129 -30.5q58 0 128 13t132 43l-11 -138q-54 -33 -129 -54.5t-166 -21.5
q-129 0 -213 55.5t-124.5 150t-40.5 211.5q0 118 37 226t105.5 193t162.5 134t208 49q135 0 205.5 -68t70.5 -176q0 -54 -23 -112.5t-74 -108.5t-134.5 -81t-204.5 -31q-55 0 -108 7.5t-85 20.5zM830 1085l-219 131l-219 -107l21 120l229 156l208 -180zM751 1376l-122 233
h182l64 -233h-124z" />
    <glyph glyph-name="uni1EC2" unicode="&#x1ec2;" horiz-adv-x="979" 
d="M253 85l-68 83h657l-31 -168h-763l246 1400h747l-31 -167h-642l99 82zM310 816h509l-31 -167h-510zM926 1507l-219 131l-219 -107l21 120l229 156l208 -180zM889 1744l-4 80q79 28 79 87q0 56 -66 56q-26 0 -56 -10.5t-61 -26.5l-14 101q35 17 74 26.5t80 9.5
q68 0 112.5 -34t44.5 -98q0 -76 -51.5 -124.5t-137.5 -66.5z" />
    <glyph glyph-name="uni1EC3" unicode="&#x1ec3;" horiz-adv-x="871" 
d="M215 575q39 -16 75.5 -25t85.5 -9q113 0 176.5 30.5t89 74.5t25.5 84t-18.5 64.5t-49.5 36t-65 11.5q-65 0 -122 -34t-102.5 -108t-75.5 -194l-3 -3q-11 -145 17.5 -224.5t85.5 -110t129 -30.5q58 0 128 13t132 43l-11 -138q-54 -33 -129 -54.5t-166 -21.5
q-129 0 -213 55.5t-124.5 150t-40.5 211.5q0 118 37 226t105.5 193t162.5 134t208 49q135 0 205.5 -68t70.5 -176q0 -54 -23 -112.5t-74 -108.5t-134.5 -81t-204.5 -31q-55 0 -108 7.5t-85 20.5zM829 1086l-219 131l-219 -107l21 120l229 156l208 -180zM792 1323l-4 80
q79 28 79 87q0 56 -66 56q-26 0 -56 -10.5t-61 -26.5l-14 101q35 17 74 26.5t80 9.5q68 0 112.5 -34t44.5 -98q0 -76 -51.5 -124.5t-137.5 -66.5z" />
    <glyph glyph-name="uni1EC4" unicode="&#x1ec4;" horiz-adv-x="979" 
d="M253 85l-68 83h657l-31 -168h-763l246 1400h747l-31 -167h-642l99 82zM310 816h509l-31 -167h-510zM926 1507l-218 131l-220 -107l21 120l229 156l209 -180zM900 1870q-41 0 -85.5 19.5t-86.5 39t-74 19.5q-23 0 -42 -16.5t-23 -51.5h-124q17 97 63.5 148t113.5 51
q43 0 86.5 -19.5t85 -39t77.5 -19.5q53 0 64 68h125q-15 -98 -63 -148.5t-117 -50.5z" />
    <glyph glyph-name="uni1EC5" unicode="&#x1ec5;" horiz-adv-x="871" 
d="M215 575q39 -16 75.5 -25t85.5 -9q113 0 176.5 30.5t89 74.5t25.5 84t-18.5 64.5t-49.5 36t-65 11.5q-65 0 -122 -34t-102.5 -108t-75.5 -194l-3 -3q-11 -145 17.5 -224.5t85.5 -110t129 -30.5q58 0 128 13t132 43l-11 -138q-54 -33 -129 -54.5t-166 -21.5
q-129 0 -213 55.5t-124.5 150t-40.5 211.5q0 118 37 226t105.5 193t162.5 134t208 49q135 0 205.5 -68t70.5 -176q0 -54 -23 -112.5t-74 -108.5t-134.5 -81t-204.5 -31q-55 0 -108 7.5t-85 20.5zM829 1086l-218 131l-220 -107l21 120l229 156l209 -180zM803 1449
q-41 0 -85.5 19.5t-86.5 39t-74 19.5q-23 0 -42 -16.5t-23 -51.5h-124q17 97 63.5 148t113.5 51q43 0 86.5 -19.5t85 -39t77.5 -19.5q53 0 64 68h125q-15 -98 -63 -148.5t-117 -50.5z" />
    <glyph glyph-name="uni1EC6" unicode="&#x1ec6;" horiz-adv-x="979" 
d="M253 85l-68 83h657l-31 -168h-763l246 1400h747l-31 -167h-642l99 82zM310 816h509l-31 -167h-510zM926 1507l-219 131l-219 -107l21 120l229 156l208 -180zM305 -343l36 179h175l-36 -179h-175z" />
    <glyph glyph-name="uni1EC7" unicode="&#x1ec7;" horiz-adv-x="871" 
d="M215 575q39 -16 75.5 -25t85.5 -9q113 0 176.5 30.5t89 74.5t25.5 84t-18.5 64.5t-49.5 36t-65 11.5q-65 0 -122 -34t-102.5 -108t-75.5 -194l-3 -3q-11 -145 17.5 -224.5t85.5 -110t129 -30.5q58 0 128 13t132 43l-11 -138q-54 -33 -129 -54.5t-166 -21.5
q-129 0 -213 55.5t-124.5 150t-40.5 211.5q0 118 37 226t105.5 193t162.5 134t208 49q135 0 205.5 -68t70.5 -176q0 -54 -23 -112.5t-74 -108.5t-134.5 -81t-204.5 -31q-55 0 -108 7.5t-85 20.5zM390 1149l30 126l244 194l197 -220l-25 -120l-208 160zM295 -343l36 179h175
l-36 -179h-175z" />
    <glyph glyph-name="uni1EC8" unicode="&#x1ec8;" horiz-adv-x="487" 
d="M48 0l246 1400h186l-246 -1400h-186zM376 1536q46 40 78.5 74t32.5 80q0 52 -64 52q-30 0 -61 -10.5t-64 -27.5l-14 101q35 18 75 28t84 10q67 0 112.5 -34t45.5 -99q0 -78 -50.5 -134.5t-121.5 -105.5z" />
    <glyph glyph-name="uni1EC9" unicode="&#x1ec9;" horiz-adv-x="410" 
d="M14 0l172 979h179l-173 -979h-178zM265 1115q46 40 78.5 74t32.5 80q0 52 -64 52q-30 0 -61 -10.5t-64 -27.5l-14 101q35 18 75 28t84 10q67 0 112.5 -34t45.5 -99q0 -78 -50.5 -134.5t-121.5 -105.5z" />
    <glyph glyph-name="uni1ECA" unicode="&#x1eca;" horiz-adv-x="487" 
d="M48 0l246 1400h186l-246 -1400h-186zM-2 -343l36 179h175l-36 -179h-175z" />
    <glyph glyph-name="uni1ECB" unicode="&#x1ecb;" horiz-adv-x="410" 
d="M14 0l172 979h179l-173 -979h-178zM225 1203l35 197h178l-35 -197h-178zM-42 -343l36 179h175l-36 -179h-175z" />
    <glyph glyph-name="uni1ECC" unicode="&#x1ecc;" horiz-adv-x="1347" 
d="M571 -28q-149 0 -257.5 68.5t-167.5 198.5t-59 313q0 189 58 348.5t160 278t233.5 184t278.5 65.5q149 0 257.5 -68.5t167.5 -198t59 -313.5q0 -189 -58.5 -348.5t-160.5 -278t-233.5 -184t-277.5 -65.5zM604 140q111 0 202 57.5t156 156t100 223t35 258.5
q0 121 -32.5 217.5t-101.5 152.5t-179 56q-112 0 -202.5 -58t-155 -156.5t-99 -222.5t-34.5 -258q0 -120 32 -216.5t100.5 -153t178.5 -56.5zM413 -343l36 179h175l-36 -179h-175z" />
    <glyph glyph-name="uni1ECD" unicode="&#x1ecd;" horiz-adv-x="978" 
d="M388 -20q-118 0 -195.5 53.5t-116 145.5t-38.5 207q0 123 38.5 233.5t108.5 196t165 134.5t207 49q118 0 195.5 -54t116 -146.5t38.5 -207.5q0 -122 -39 -232t-108.5 -195.5t-164.5 -134.5t-207 -49zM415 138q93 0 162.5 58.5t108 158.5t38.5 223q0 133 -49.5 198.5
t-144.5 65.5q-93 0 -162.5 -59t-108 -158.5t-38.5 -222.5q0 -131 48.5 -197.5t145.5 -66.5zM241 -343l36 179h175l-36 -179h-175z" />
    <glyph glyph-name="uni1ECE" unicode="&#x1ece;" horiz-adv-x="1347" 
d="M571 -28q-149 0 -257.5 68.5t-167.5 198.5t-59 313q0 189 58 348.5t160 278t233.5 184t278.5 65.5q149 0 257.5 -68.5t167.5 -198t59 -313.5q0 -189 -58.5 -348.5t-160.5 -278t-233.5 -184t-277.5 -65.5zM604 140q111 0 202 57.5t156 156t100 223t35 258.5
q0 121 -32.5 217.5t-101.5 152.5t-179 56q-112 0 -202.5 -58t-155 -156.5t-99 -222.5t-34.5 -258q0 -120 32 -216.5t100.5 -153t178.5 -56.5zM807 1536q46 40 78.5 74t32.5 80q0 52 -64 52q-30 0 -61 -10.5t-64 -27.5l-14 101q35 18 75 28t84 10q67 0 112.5 -34t45.5 -99
q0 -78 -50.5 -134.5t-121.5 -105.5z" />
    <glyph glyph-name="uni1ECF" unicode="&#x1ecf;" horiz-adv-x="978" 
d="M388 -20q-118 0 -195.5 53.5t-116 145.5t-38.5 207q0 123 38.5 233.5t108.5 196t165 134.5t207 49q118 0 195.5 -54t116 -146.5t38.5 -207.5q0 -122 -39 -232t-108.5 -195.5t-164.5 -134.5t-207 -49zM415 138q93 0 162.5 58.5t108 158.5t38.5 223q0 133 -49.5 198.5
t-144.5 65.5q-93 0 -162.5 -59t-108 -158.5t-38.5 -222.5q0 -131 48.5 -197.5t145.5 -66.5zM553 1115q46 40 78.5 74t32.5 80q0 52 -64 52q-30 0 -61 -10.5t-64 -27.5l-14 101q35 18 75 28t84 10q67 0 112.5 -34t45.5 -99q0 -78 -50.5 -134.5t-121.5 -105.5z" />
    <glyph glyph-name="uni1ED0" unicode="&#x1ed0;" horiz-adv-x="1347" 
d="M571 -28q-149 0 -257.5 68.5t-167.5 198.5t-59 313q0 189 58 348.5t160 278t233.5 184t278.5 65.5q149 0 257.5 -68.5t167.5 -198t59 -313.5q0 -189 -58.5 -348.5t-160.5 -278t-233.5 -184t-277.5 -65.5zM604 140q111 0 202 57.5t156 156t100 223t35 258.5
q0 121 -32.5 217.5t-101.5 152.5t-179 56q-112 0 -202.5 -58t-155 -156.5t-99 -222.5t-34.5 -258q0 -120 32 -216.5t100.5 -153t178.5 -56.5zM1079 1506l-219 131l-219 -107l21 120l229 156l208 -180zM1007 1797l156 224h185l-217 -224h-124z" />
    <glyph glyph-name="uni1ED1" unicode="&#x1ed1;" horiz-adv-x="978" 
d="M388 -20q-118 0 -195.5 53.5t-116 145.5t-38.5 207q0 123 38.5 233.5t108.5 196t165 134.5t207 49q118 0 195.5 -54t116 -146.5t38.5 -207.5q0 -122 -39 -232t-108.5 -195.5t-164.5 -134.5t-207 -49zM415 138q93 0 162.5 58.5t108 158.5t38.5 223q0 133 -49.5 198.5
t-144.5 65.5q-93 0 -162.5 -59t-108 -158.5t-38.5 -222.5q0 -131 48.5 -197.5t145.5 -66.5zM825 1085l-219 131l-219 -107l21 120l229 156l208 -180zM753 1376l156 224h185l-217 -224h-124z" />
    <glyph glyph-name="uni1ED2" unicode="&#x1ed2;" horiz-adv-x="1347" 
d="M571 -28q-149 0 -257.5 68.5t-167.5 198.5t-59 313q0 189 58 348.5t160 278t233.5 184t278.5 65.5q149 0 257.5 -68.5t167.5 -198t59 -313.5q0 -189 -58.5 -348.5t-160.5 -278t-233.5 -184t-277.5 -65.5zM604 140q111 0 202 57.5t156 156t100 223t35 258.5
q0 121 -32.5 217.5t-101.5 152.5t-179 56q-112 0 -202.5 -58t-155 -156.5t-99 -222.5t-34.5 -258q0 -120 32 -216.5t100.5 -153t178.5 -56.5zM1079 1506l-219 131l-219 -107l21 120l229 156l208 -180zM1000 1797l-122 233h182l64 -233h-124z" />
    <glyph glyph-name="uni1ED3" unicode="&#x1ed3;" horiz-adv-x="978" 
d="M388 -20q-118 0 -195.5 53.5t-116 145.5t-38.5 207q0 123 38.5 233.5t108.5 196t165 134.5t207 49q118 0 195.5 -54t116 -146.5t38.5 -207.5q0 -122 -39 -232t-108.5 -195.5t-164.5 -134.5t-207 -49zM415 138q93 0 162.5 58.5t108 158.5t38.5 223q0 133 -49.5 198.5
t-144.5 65.5q-93 0 -162.5 -59t-108 -158.5t-38.5 -222.5q0 -131 48.5 -197.5t145.5 -66.5zM825 1085l-219 131l-219 -107l21 120l229 156l208 -180zM746 1376l-122 233h182l64 -233h-124z" />
    </font>
</defs>
</svg>
