<svg
   height="93"
   stroke-miterlimit="10"
   style="clip-rule:evenodd;fill-rule:nonzero;stroke-linecap:round;stroke-linejoin:round"
   version="1.1"
   viewBox="0 0 196.4 93"
   width="196.39999"
   xml:space="preserve"
   id="svg15"
   xmlns="http://www.w3.org/2000/svg"
   xmlns:svg="http://www.w3.org/2000/svg"
   xmlns:vectornator="http://vectornator.io">
<defs
   id="defs1" />
<g
   id="Layer-1"
   vectornator:layerName="Layer 1"
   transform="matrix(0.54253324,0,0,0.54253324,-5.8789011,-5.1922995)">
<path
   d="m 145.446,14.8258 c -0.551,0.007 -70.0111,0.868 -70.5624,0.875 -1.7495,0.0222 -3.084,1.584 -2.8125,3.3125 l 12.625,80.2812 c 0.0424,0.2704 0.1019,0.5338 0.2187,0.7815 l 1.875,4 9.25,-24.6252 h 12.3442 l 13.75,36.6252 H 110.29 l -1.781,-6.031 H 95.6023 l -1.75,6.031 h -7.9375 l -3.5625,9.937 c -0.2027,0.566 -0.1967,1.172 -0.0312,1.75 l 2.6562,9.375 -1.9375,11.344 c -0.0816,0.474 -0.0619,0.982 0.0938,1.438 l 4.9687,14.5 c 0.3703,1.083 1.3584,1.846 2.5,1.937 l 77.2817,6.156 1.281,4.438 c 0.406,1.389 1.789,2.261 3.219,2.031 l 4.093,-0.656 c 1.368,-0.22 2.405,-1.366 2.438,-2.75 l 0.25,-11.406 0.625,-0.188 11.781,2.719 c 1.784,0.41 3.506,-0.951 3.531,-2.781 0.001,-0.069 0.007,-0.24 0.032,-0.563 0.044,-0.579 0.101,-1.301 0.218,-2.125 0.344,-2.405 0.978,-5.267 1.907,-8.594 2.684,-9.615 7.428,-20.879 14.812,-33.718 0.743,-1.293 0.381,-2.962 -0.844,-3.813 l -3.468,-2.406 c -0.44,-0.306 -0.955,-0.499 -1.469,-0.531 l -3.719,-11.938 c -0.198,-0.636 -0.599,-1.1663 -1.156,-1.5312 l -3.938,-2.5938 -15.375,-23.2812 0.125,-3.3438 c 0.028,-0.8394 -0.317,-1.652 -0.937,-2.2187 L 163.384,50.857 154.946,33.3883 c -0.269,-0.5576 -0.701,-1.0263 -1.25,-1.3125 l -11.031,-5.75 5.125,-6.9375 c 1.412,-1.9098 0.031,-4.5927 -2.344,-4.5625 z m -21.5,64.625 h 34.375 v 9.0625 H 146.79 V 116.076 H 135.477 V 88.5133 h -11.531 z m 43.781,0 h 11.313 v 27.6252 h 18.656 l 0.887,9 h -30.856 z m -65.656,9.5 -3.9999,13.1562 h 8.0629 z"
   fill="#ffc304"
   fill-rule="nonzero"
   opacity="1"
   stroke="none"
   vectornator:layerName="Curve 36"
   id="path1" />
<path
   d="m 181.55,67.7303 -0.362,36.0687 23.932,0.027 z"
   fill="#ffffff"
   fill-rule="nonzero"
   opacity="1"
   stroke="none"
   vectornator:layerName="Curve 34"
   id="path2" />
<path
   d="M 179.766,46.4657 H 366.771 V 83.384 105.862 H 179.766 V 73.1942 Z"
   fill="#ffffff"
   fill-rule="nonzero"
   opacity="1"
   stroke="#000000"
   stroke-linecap="butt"
   stroke-linejoin="round"
   stroke-width="2.61915"
   vectornator:layerName="Rectangle 25"
   id="path3" />
<g
   fill="#131313"
   opacity="1"
   stroke="none"
   vectornator:layerName="Text 91"
   id="g10">
<path
   d="m 193.551,84.159 h 4.615 v 4.8134 h -4.615 z"
   id="path4" />
<path
   d="m 216.506,89.4246 c -1.537,0 -3.052,-0.3617 -4.545,-1.0852 -1.492,-0.7236 -2.72,-1.9596 -3.685,-3.7081 l 3.437,-2.261 c 0.844,1.1155 1.643,1.9219 2.396,2.4193 0.754,0.4974 1.734,0.7461 2.94,0.7461 0.964,0 1.71,-0.2487 2.238,-0.7461 0.528,-0.4974 0.791,-1.1079 0.791,-1.8314 0,-0.4823 -0.128,-0.9044 -0.384,-1.2661 -0.256,-0.3618 -0.701,-0.701 -1.334,-1.0175 -0.633,-0.3165 -1.537,-0.6255 -2.713,-0.927 -2.171,-0.5728 -3.844,-1.3264 -5.02,-2.261 -1.175,-0.9345 -1.763,-2.4117 -1.763,-4.4315 0,-1.2059 0.301,-2.3062 0.904,-3.3011 0.603,-0.9948 1.477,-1.7937 2.623,-2.3966 1.146,-0.603 2.502,-0.9044 4.07,-0.9044 1.869,0 3.467,0.3843 4.793,1.1531 1.327,0.7687 2.367,1.6807 3.12,2.7358 l -3.482,2.5775 c -0.422,-0.5426 -1.04,-1.0777 -1.854,-1.6053 -0.814,-0.5276 -1.839,-0.7913 -3.075,-0.7913 -0.753,0 -1.447,0.211 -2.08,0.633 -0.633,0.4221 -0.949,1.0099 -0.949,1.7636 0,0.7537 0.294,1.3641 0.881,1.8314 0.588,0.4673 1.666,0.8818 3.234,1.2436 2.653,0.633 4.537,1.4545 5.652,2.4644 1.116,1.0099 1.673,2.3439 1.673,4.002 0,1.447 -0.369,2.6906 -1.108,3.7306 -0.738,1.0401 -1.703,1.839 -2.894,2.3967 -1.19,0.5577 -2.479,0.8365 -3.866,0.8365 z"
   id="path5" />
<path
   d="m 245.169,89.4246 c -2.231,0 -4.198,-0.4748 -5.901,-1.4244 -1.704,-0.9496 -3.022,-2.2836 -3.957,-4.0019 -0.935,-1.7184 -1.402,-3.7231 -1.402,-6.0143 0,-2.3213 0.467,-4.3411 1.402,-6.0594 0.935,-1.7184 2.253,-3.0599 3.957,-4.0246 1.703,-0.9647 3.67,-1.447 5.901,-1.447 2.261,0 4.236,0.4823 5.924,1.447 1.688,0.9647 3.007,2.3062 3.956,4.0246 0.95,1.7183 1.425,3.7381 1.425,6.0594 0,2.2912 -0.475,4.2959 -1.425,6.0143 -0.949,1.7183 -2.268,3.0523 -3.956,4.0019 -1.688,0.9496 -3.663,1.4244 -5.924,1.4244 z m 0,-4.3411 c 2.02,0 3.64,-0.6556 4.861,-1.967 1.221,-1.3114 1.831,-3.0222 1.831,-5.1325 0,-2.1404 -0.61,-3.8738 -1.831,-5.2003 -1.221,-1.3264 -2.841,-1.9896 -4.861,-1.9896 -1.99,0 -3.595,0.6557 -4.816,1.967 -1.221,1.3114 -1.831,3.0373 -1.831,5.1777 0,2.1404 0.61,3.8663 1.831,5.1777 1.221,1.3114 2.826,1.967 4.816,1.967 z"
   id="path6" />
<path
   d="m 276.228,89.4246 c -2.261,0 -4.22,-0.4898 -5.878,-1.4696 -1.658,-0.9798 -2.939,-2.3288 -3.844,-4.0472 -0.904,-1.7183 -1.356,-3.708 -1.356,-5.969 0,-2.261 0.452,-4.2507 1.356,-5.969 0.905,-1.7184 2.186,-3.0674 3.844,-4.0472 1.658,-0.9797 3.617,-1.4696 5.878,-1.4696 2.141,0 4.085,0.5803 5.834,1.7409 1.748,1.1607 3.014,2.7057 3.798,4.6351 l -4.296,1.8088 c -0.482,-1.2662 -1.205,-2.2233 -2.17,-2.8715 -0.965,-0.6481 -2.065,-0.9722 -3.301,-0.9722 -1.809,0 -3.316,0.6255 -4.522,1.8766 -1.206,1.2511 -1.809,3.0071 -1.809,5.2681 0,2.261 0.603,4.017 1.809,5.2681 1.206,1.2511 2.713,1.8766 4.522,1.8766 1.236,0 2.336,-0.324 3.301,-0.9722 0.965,-0.6481 1.688,-1.6053 2.17,-2.8714 l 4.296,1.8087 c -0.814,1.9294 -2.087,3.4744 -3.821,4.6351 -1.733,1.1606 -3.67,1.7409 -5.811,1.7409 z"
   id="path7" />
<path
   d="m 300.595,88.9724 h -4.521 V 66.9052 h 4.521 z m -5.2,-28.8502 c 0,-0.8742 0.264,-1.5902 0.792,-2.1479 0.527,-0.5578 1.243,-0.8366 2.147,-0.8366 0.875,0 1.583,0.2788 2.126,0.8366 0.542,0.5577 0.814,1.2737 0.814,2.1479 0,0.8441 -0.272,1.545 -0.814,2.1027 -0.543,0.5577 -1.251,0.8366 -2.126,0.8366 -0.904,0 -1.62,-0.2789 -2.147,-0.8366 -0.528,-0.5577 -0.792,-1.2586 -0.792,-2.1027 z"
   id="path8" />
<path
   d="m 319.581,89.6055 c -1.718,0 -3.195,-0.3014 -4.431,-0.9044 -1.236,-0.6029 -2.178,-1.4696 -2.826,-2.6001 -0.649,-1.1305 -0.973,-2.4796 -0.973,-4.0472 0,-1.447 0.332,-2.7358 0.995,-3.8663 0.663,-1.1305 1.613,-2.0273 2.849,-2.6906 1.236,-0.6632 2.698,-0.9948 4.386,-0.9948 2.111,0 3.806,0.4748 5.088,1.4244 1.281,0.9496 2.178,2.2535 2.69,3.9115 h -2.532 v -5.6524 c 0,-0.9346 -0.317,-1.7938 -0.95,-2.5776 -0.633,-0.7838 -1.748,-1.1757 -3.346,-1.1757 -0.844,0 -1.771,0.098 -2.781,0.2939 -1.01,0.196 -2.058,0.5351 -3.143,1.0175 l -1.356,-3.4819 c 1.236,-0.603 2.517,-1.0552 3.843,-1.3566 1.327,-0.3015 2.623,-0.4522 3.889,-0.4522 1.899,0 3.467,0.3467 4.703,1.04 1.236,0.6934 2.156,1.6204 2.758,2.781 0.603,1.1607 0.905,2.4645 0.905,3.9116 v 14.7868 h -3.256 l -1.13,-4.0245 2.396,-0.6783 c -0.542,1.7786 -1.507,3.1126 -2.894,4.0019 -1.387,0.8894 -3.015,1.334 -4.884,1.334 z m 0.814,-4.0245 c 1.327,0 2.397,-0.309 3.211,-0.927 0.814,-0.6181 1.221,-1.4848 1.221,-2.6002 0,-1.1456 -0.407,-2.0198 -1.221,-2.6227 -0.814,-0.603 -1.884,-0.9044 -3.211,-0.9044 -1.326,0 -2.396,0.3014 -3.21,0.9044 -0.814,0.6029 -1.221,1.4771 -1.221,2.6227 0,1.1154 0.407,1.9821 1.221,2.6002 0.814,0.618 1.884,0.927 3.21,0.927 z"
   id="path9" />
<path
   d="m 344.762,89.1985 c -0.783,0 -1.477,-0.1884 -2.08,-0.5652 -0.603,-0.3768 -1.078,-0.927 -1.424,-1.6505 -0.347,-0.7235 -0.52,-1.6129 -0.52,-2.668 v -26.137 h 4.431 v 24.5543 c 0,0.9346 0.234,1.5676 0.701,1.8992 0.467,0.3317 1.003,0.4975 1.606,0.4975 v 3.6175 c -0.392,0.1508 -0.814,0.2638 -1.267,0.3392 -0.452,0.0754 -0.934,0.113 -1.447,0.113 z"
   id="path10" />
</g>
<path
   d="m 198.096,90.5534 c -0.096,0.0443 -0.173,0.0996 -0.232,0.166 -0.059,0.0664 -0.104,0.1365 -0.133,0.2102 -0.03,0.0738 -0.044,4.0574 -0.044,11.9504 0,7.894 0.007,11.862 0.022,11.907 0.015,0.044 0.059,0.114 0.133,0.21 0.073,0.096 0.158,0.166 0.254,0.21 0.096,0.044 0.196,0.067 0.299,0.067 0.103,0 0.203,-0.023 0.299,-0.067 0.043,-0.02 0.24,-0.19 0.592,-0.512 0.436,-0.399 1.109,-1.028 2.019,-1.889 1.645,-1.557 2.512,-2.368 2.6,-2.434 0.045,-0.034 0.089,-0.067 0.133,-0.1 0.694,1.608 1.387,3.216 2.081,4.825 1.386,3.216 2.098,4.846 2.135,4.89 0.037,0.045 0.1,0.093 0.188,0.144 0.089,0.052 0.196,0.081 0.321,0.089 0.126,0.007 0.214,0.003 0.266,-0.011 0.051,-0.015 0.616,-0.27 1.693,-0.764 1.077,-0.494 1.66,-0.8 1.748,-0.918 0.089,-0.118 0.137,-0.247 0.144,-0.388 0.007,-0.14 -0.719,-1.799 -2.18,-4.979 -0.73,-1.59 -1.461,-3.179 -2.191,-4.769 1.214,-0.103 2.427,-0.207 3.641,-0.31 2.427,-0.207 3.695,-0.336 3.806,-0.387 0.111,-0.052 0.192,-0.107 0.244,-0.166 0.051,-0.059 0.092,-0.126 0.121,-0.199 0.03,-0.074 0.041,-0.177 0.033,-0.31 -0.007,-0.133 -0.029,-0.233 -0.066,-0.299 -0.037,-0.066 -0.111,-0.155 -0.221,-0.266 -0.111,-0.11 -2.933,-2.747 -8.465,-7.9114 -5.533,-5.1638 -8.358,-7.79 -8.476,-7.8785 -0.118,-0.0886 -0.251,-0.1402 -0.399,-0.1549 -0.147,-0.0148 -0.269,0 -0.365,0.0442 z"
   fill="#000000"
   fill-rule="nonzero"
   opacity="1"
   stroke="#ffffff"
   stroke-linecap="butt"
   stroke-linejoin="round"
   stroke-width="1.61915"
   vectornator:layerName="Curve 35"
   id="path11" />
<path
   d="m 97.9577,63.1962 0.8635,-6.1097 -4.5435,-4.1751 6.0773,-1.0668 2.567,-5.6113 2.893,5.4505 6.129,0.7071 -4.289,4.4353 1.221,6.0484 -5.544,-2.7094 z"
   fill="#000000"
   fill-rule="nonzero"
   opacity="1"
   stroke="none"
   vectornator:layerName="Star 6"
   id="path12" />
<g
   opacity="1"
   vectornator:layerName="Group 1"
   id="g15">
<path
   d="m 26.8184,116.191 c -2.1828,0 -3.9137,-0.64 -5.1926,-1.919 -1.279,-1.279 -1.9185,-3.265 -1.9185,-5.96 v -17.2406 -0.307 l 0.972,-5.6275 h 4.1439 v 23.2771 c 0,0.955 0.2473,1.672 0.7418,2.149 0.4946,0.478 1.117,0.716 1.8674,0.716 0.5798,0 1.0914,-0.034 1.5347,-0.102 0.4434,-0.068 0.8357,-0.153 1.1767,-0.256 v 4.758 c -0.4434,0.137 -0.9294,0.256 -1.458,0.358 -0.5287,0.103 -1.1511,0.154 -1.8674,0.154 z M 15.8703,95.4711 v -4.7067 h 14.2735 v 4.7067 z"
   fill="#ffc804"
   fill-rule="nonzero"
   opacity="1"
   stroke="none"
   id="path13" />
<path
   d="M 35.976,115.73 V 80.8906 h 5.116 V 115.73 Z m 16.7292,0 V 99.7685 c 0,-1.7735 -0.4008,-2.9673 -1.2023,-3.5812 -0.8015,-0.6139 -1.7479,-0.9208 -2.8393,-0.9208 -1.0914,0 -2.1999,0.2216 -3.3254,0.665 -1.1255,0.4434 -2.1317,1.0403 -3.0184,1.7906 -0.8868,0.7504 -1.5689,1.586 -2.0464,2.5069 l -0.6139,-4.9114 c 0.955,-1.0914 1.9952,-2.0123 3.1207,-2.7626 1.1255,-0.7503 2.3192,-1.3216 3.5812,-1.7138 1.2619,-0.3923 2.558,-0.5884 3.8881,-0.5884 1.7735,0 3.1719,0.2985 4.1951,0.8953 1.0232,0.5969 1.7735,1.3984 2.251,2.4045 0.4775,1.0061 0.7844,2.1402 0.9209,3.4021 0.1364,1.262 0.2046,2.558 0.2046,3.8883 v 14.887 z"
   fill="#ffc804"
   fill-rule="nonzero"
   opacity="1"
   stroke="none"
   id="path14" />
<path
   d="m 74.6014,116.242 c -2.4215,0 -4.5532,-0.537 -6.3949,-1.612 -1.8417,-1.074 -3.2742,-2.583 -4.2974,-4.527 -1.0232,-1.944 -1.5348,-4.212 -1.5348,-6.804 0,-2.627 0.5116,-4.9118 1.5348,-6.8559 1.0232,-1.944 2.4557,-3.4618 4.2974,-4.5532 1.8417,-1.0914 3.9734,-1.6371 6.3949,-1.6371 2.4557,0 4.6044,0.5457 6.4461,1.6371 1.8418,1.0914 3.2742,2.6092 4.2974,4.5532 1.0232,1.9441 1.5348,4.2289 1.5348,6.8559 0,0.238 -0.0085,0.486 -0.0256,0.741 -0.017,0.256 -0.0426,0.486 -0.0767,0.691 H 67.2345 v -4.4 h 15.8594 l -1.4325,2.968 c 0,-2.593 -0.5798,-4.7242 -1.7394,-6.3954 -1.1596,-1.6712 -2.9331,-2.5069 -5.3206,-2.5069 -2.1146,0 -3.8028,0.6736 -5.0648,2.0208 -1.2619,1.3472 -1.8929,3.1122 -1.8929,5.2955 v 2.66 c 0,2.285 0.614,4.101 1.8418,5.448 1.2278,1.348 2.9331,2.021 5.1159,2.021 2.0123,0 3.5641,-0.426 4.6555,-1.279 1.0915,-0.853 2.0464,-1.91 2.865,-3.172 l 3.8369,2.405 c -1.1596,2.148 -2.6517,3.76 -4.4764,4.834 -1.8247,1.075 -4.1184,1.612 -6.881,1.612 z"
   fill="#ffc804"
   fill-rule="nonzero"
   opacity="1"
   stroke="none"
   id="path15" />
</g>
</g>
</svg>